<svg width="32" height="32" viewBox="0 0 32 32" fill="none" xmlns="http://www.w3.org/2000/svg">
<path d="M7.69026 13.1904C7.37066 13.1904 7.08656 13.3164 6.87349 13.5503C6.64267 13.7841 6.53613 14.072 6.53613 14.4138C6.53613 14.7556 6.64267 15.0255 6.87349 15.2774C7.10432 15.5113 7.37066 15.6372 7.69026 15.6372C8.00987 15.6372 8.29396 15.5113 8.52479 15.2774C8.75561 15.0435 8.87991 14.7556 8.87991 14.4138C8.87991 14.072 8.75561 13.7841 8.52479 13.5503C8.29396 13.2984 8.02762 13.1904 7.69026 13.1904Z" fill="#CCCCCC"/>
<path d="M17.6512 13.1719C17.3316 13.1719 17.0475 13.2978 16.8344 13.5317C16.6036 13.7656 16.4971 14.0534 16.4971 14.3953C16.4971 14.7371 16.6036 15.007 16.8344 15.2588C17.0653 15.4927 17.3316 15.6187 17.6512 15.6187C17.9708 15.6187 18.2549 15.4927 18.4857 15.2588C18.7166 15.0249 18.8408 14.7371 18.8408 14.3953C18.8408 14.0534 18.7166 13.7836 18.4857 13.5317C18.2727 13.2798 17.9886 13.1719 17.6512 13.1719Z" fill="#CCCCCC"/>
<path d="M24.3097 13.1904C23.99 13.1904 23.706 13.3164 23.4929 13.5503C23.2621 13.7841 23.1555 14.072 23.1555 14.4138C23.1555 14.7556 23.2621 15.0255 23.4929 15.2774C23.7237 15.5113 23.99 15.6372 24.3097 15.6372C24.6293 15.6372 24.9134 15.5113 25.1442 15.2774C25.375 15.0435 25.4993 14.7556 25.4993 14.4138C25.4993 14.072 25.375 13.7841 25.1442 13.5503C24.9134 13.2984 24.6293 13.1904 24.3097 13.1904Z" fill="#CCCCCC"/>
<path d="M27.2573 4.30273H4.74288C3.02057 4.30273 1.6001 5.74201 1.6001 7.48714V20.3867C1.6001 22.1318 3.02057 23.5711 4.74288 23.5711H13.5853C13.5853 23.5711 15.2899 28.3027 15.9113 28.3027C16.5328 28.3027 18.3794 23.5711 18.3794 23.5711H27.2573C28.9796 23.5711 30.4001 22.1318 30.4001 20.3867V7.48714C30.4001 5.74201 28.9796 4.30273 27.2573 4.30273ZM9.96311 16.2128C9.51921 16.7165 8.82673 16.9324 8.08099 16.9324C7.40626 16.9324 6.9091 16.7345 6.55398 16.4467H6.53623V16.8065H4.84942V9.34022H6.53623V12.2008H6.57174C7.03339 11.805 7.63709 11.679 8.34732 11.6431C8.95102 11.6251 9.59023 12.0029 9.98086 12.4527C10.3537 12.9024 10.6378 13.6041 10.6378 14.3777C10.6378 15.2233 10.4248 15.709 9.96311 16.2128ZM13.6031 16.8784H11.8807C11.8807 16.8784 11.8807 12.9564 11.8807 12.2548C11.8807 11.1933 11.0462 11.0494 11.0462 11.0494V9.19629C11.0462 9.19629 13.461 9.34022 13.6031 12.3087C13.6031 13.1543 13.6031 16.8784 13.6031 16.8784ZM20.368 15.4572C20.226 15.799 20.0129 16.0868 19.7288 16.3567C19.4625 16.6086 19.1429 16.8065 18.7878 16.9504C18.4327 17.0943 18.0598 17.1663 17.6691 17.1663C17.2785 17.1663 16.9056 17.0943 16.5683 16.9504C16.2132 16.8065 15.8936 16.6086 15.6272 16.3567C15.3431 16.0868 15.1301 15.781 14.988 15.4572C14.846 15.1333 14.7749 14.7735 14.7749 14.3957C14.7749 14.0179 14.846 13.676 14.988 13.3342C15.1301 13.0104 15.3431 12.7045 15.6272 12.4347C15.9113 12.1828 16.2132 11.9849 16.5683 11.841C16.9234 11.697 17.2963 11.6251 17.6691 11.6251C18.0598 11.6251 18.4327 11.697 18.7878 11.841C19.1429 11.9849 19.4625 12.1828 19.7288 12.4347C20.0129 12.7045 20.2082 12.9924 20.368 13.3342C20.5101 13.676 20.5811 14.0179 20.5811 14.3957C20.5811 14.7735 20.5101 15.1153 20.368 15.4572ZM27.1508 16.1948C27.1508 17.5081 26.9022 18.2997 26.334 18.8575C25.6415 19.5231 24.665 19.5591 23.8482 19.4512V18.1018C24.5407 18.1738 25.4817 17.706 25.4817 16.8065V16.4647H25.464C25.0733 17.0044 24.5229 17.2023 23.7594 17.2023C23.0669 17.2023 22.4632 16.9504 22.0548 16.4647C21.6465 15.9789 21.4511 15.3312 21.4511 14.5216C21.4511 13.6041 21.682 12.8844 22.1259 12.3447C22.5875 11.805 23.2267 11.5531 23.9725 11.5531C24.6294 11.5531 25.0556 11.715 25.464 12.0928H25.4817V11.679H27.1685V16.1948H27.1508Z" fill="#CCCCCC"/>
</svg>
