<svg width="32" height="32" viewBox="0 0 32 32" fill="none" xmlns="http://www.w3.org/2000/svg">
<path d="M7.69026 13.1909C7.37066 13.1909 7.08656 13.3169 6.87349 13.5507C6.64267 13.7846 6.53613 14.0725 6.53613 14.4143C6.53613 14.7561 6.64267 15.026 6.87349 15.2779C7.10432 15.5118 7.37066 15.6377 7.69026 15.6377C8.00987 15.6377 8.29396 15.5118 8.52479 15.2779C8.75561 15.044 8.87991 14.7561 8.87991 14.4143C8.87991 14.0725 8.75561 13.7846 8.52479 13.5507C8.29396 13.2989 8.02762 13.1909 7.69026 13.1909Z" fill="white"/>
<path d="M17.6513 13.1724C17.3317 13.1724 17.0476 13.2983 16.8346 13.5322C16.6037 13.7661 16.4972 14.0539 16.4972 14.3958C16.4972 14.7376 16.6037 15.0074 16.8346 15.2593C17.0654 15.4932 17.3317 15.6191 17.6513 15.6191C17.9709 15.6191 18.255 15.4932 18.4858 15.2593C18.7167 15.0254 18.841 14.7376 18.841 14.3958C18.841 14.0539 18.7167 13.7841 18.4858 13.5322C18.2728 13.2803 17.9887 13.1724 17.6513 13.1724Z" fill="white"/>
<path d="M24.3098 13.1909C23.9902 13.1909 23.7061 13.3169 23.493 13.5507C23.2622 13.7846 23.1556 14.0725 23.1556 14.4143C23.1556 14.7561 23.2622 15.026 23.493 15.2779C23.7238 15.5118 23.9902 15.6377 24.3098 15.6377C24.6294 15.6377 24.9135 15.5118 25.1443 15.2779C25.3751 15.044 25.4994 14.7561 25.4994 14.4143C25.4994 14.0725 25.3751 13.7846 25.1443 13.5507C24.9135 13.2989 24.6294 13.1909 24.3098 13.1909Z" fill="white"/>
<path d="M27.2572 4.30322H4.74276C3.02044 4.30322 1.59998 5.7425 1.59998 7.48763V20.3872C1.59998 22.1323 3.02044 23.5716 4.74276 23.5716H13.5852C13.5852 23.5716 15.2897 28.3032 15.9112 28.3032C16.5327 28.3032 18.3793 23.5716 18.3793 23.5716H27.2572C28.9795 23.5716 30.4 22.1323 30.4 20.3872V7.48763C30.4 5.7425 28.9795 4.30322 27.2572 4.30322ZM9.96299 16.2133C9.51909 16.717 8.82661 16.9329 8.08086 16.9329C7.40614 16.9329 6.90898 16.735 6.55386 16.4472H6.5361V16.807H4.8493V9.3407H6.5361V12.2013H6.57162C7.03327 11.8055 7.63697 11.6795 8.3472 11.6436C8.9509 11.6256 9.59011 12.0034 9.98074 12.4531C10.3536 12.9029 10.6377 13.6046 10.6377 14.3782C10.6377 15.2238 10.4246 15.7095 9.96299 16.2133ZM13.6029 16.8789H11.8806C11.8806 16.8789 11.8806 12.9569 11.8806 12.2552C11.8806 11.1938 11.0461 11.0498 11.0461 11.0498V9.19678C11.0461 9.19678 13.4609 9.3407 13.6029 12.3092C13.6029 13.1548 13.6029 16.8789 13.6029 16.8789ZM20.3679 15.4576C20.2259 15.7995 20.0128 16.0873 19.7287 16.3572C19.4624 16.6091 19.1428 16.807 18.7876 16.9509C18.4325 17.0948 18.0597 17.1668 17.669 17.1668C17.2784 17.1668 16.9055 17.0948 16.5682 16.9509C16.213 16.807 15.8934 16.6091 15.6271 16.3572C15.343 16.0873 15.1299 15.7815 14.9879 15.4576C14.8458 15.1338 14.7748 14.774 14.7748 14.3962C14.7748 14.0184 14.8458 13.6765 14.9879 13.3347C15.1299 13.0109 15.343 12.705 15.6271 12.4352C15.9112 12.1833 16.213 11.9854 16.5682 11.8415C16.9233 11.6975 17.2962 11.6256 17.669 11.6256C18.0597 11.6256 18.4325 11.6975 18.7876 11.8415C19.1428 11.9854 19.4624 12.1833 19.7287 12.4352C20.0128 12.705 20.2081 12.9929 20.3679 13.3347C20.51 13.6765 20.581 14.0184 20.581 14.3962C20.581 14.774 20.51 15.1158 20.3679 15.4576ZM27.1507 16.1953C27.1507 17.5086 26.9021 18.3002 26.3339 18.8579C25.6414 19.5236 24.6648 19.5596 23.8481 19.4516V18.1023C24.5405 18.1743 25.4816 17.7065 25.4816 16.807V16.4651H25.4638C25.0732 17.0049 24.5228 17.2028 23.7593 17.2028C23.0668 17.2028 22.4631 16.9509 22.0547 16.4651C21.6463 15.9794 21.451 15.3317 21.451 14.5221C21.451 13.6046 21.6819 12.8849 22.1257 12.3452C22.5874 11.8055 23.2266 11.5536 23.9724 11.5536C24.6293 11.5536 25.0555 11.7155 25.4638 12.0933H25.4816V11.6795H27.1684V16.1953H27.1507Z" fill="white"/>
</svg>
