<svg width="32" height="32" viewBox="0 0 32 32" fill="none" xmlns="http://www.w3.org/2000/svg">
<path d="M15.8576 2C18.6004 2 21.1372 2.53333 23.4681 3.59997C25.7989 4.66662 27.6416 6.11704 28.996 7.95125C30.3505 9.78544 31.0277 11.7861 31.0277 13.9532C31.0277 16.1204 30.3505 18.1239 28.996 19.9637C27.6416 21.8036 25.8017 23.2568 23.4766 24.3234C21.1514 25.3901 18.6117 25.9234 15.8576 25.9234C14.9885 25.9234 14.0911 25.8613 13.1656 25.7372C9.14731 28.5251 7.00837 29.9361 6.74875 29.9699C6.62462 30.0151 6.50612 30.0094 6.39325 29.953C6.34806 29.9191 6.31419 29.8739 6.29162 29.8175C6.26906 29.7611 6.25775 29.7103 6.25775 29.6651V29.5974C6.3255 29.1572 6.83906 27.3231 7.7985 24.0949C5.62004 23.0113 3.89027 21.575 2.60916 19.7859C1.32806 17.9969 0.6875 16.0527 0.6875 13.9532C0.6875 11.7861 1.36474 9.78544 2.71921 7.95125C4.07369 6.11704 5.91634 4.66662 8.24719 3.59997C10.578 2.53333 13.1148 2 15.8576 2ZM8.171 17.1193V11.9215H9.5085C9.68912 11.9215 9.87819 11.8566 10.0757 11.7268C10.2732 11.597 10.372 11.4192 10.372 11.1935C10.372 10.9677 10.2817 10.7787 10.1011 10.6263C9.9205 10.4739 9.74556 10.3977 9.57625 10.3977H5.1742C4.98231 10.3977 4.80172 10.4542 4.63241 10.5671C4.4631 10.6799 4.37844 10.8662 4.37844 11.1257C4.37844 11.3854 4.46874 11.5829 4.64934 11.7184C4.82994 11.8538 5.03311 11.9215 5.25885 11.9215H6.59637V17.1193C6.59637 17.4015 6.66412 17.6329 6.79956 17.8135C6.935 17.9941 7.12687 18.0844 7.37519 18.0844C7.62356 18.0844 7.81825 17.9828 7.95931 17.7796C8.10044 17.5764 8.171 17.3564 8.171 17.1193ZM15.5021 18.0844C15.9197 17.9264 16.0495 17.5257 15.8915 16.8823C15.8463 16.7356 15.5274 15.858 14.9349 14.2495C14.3423 12.6411 14.0009 11.724 13.9106 11.4982C13.6058 10.7646 13.1882 10.3977 12.6577 10.3977C12.082 10.3977 11.6362 10.7646 11.3201 11.4982C11.2298 11.6901 10.8856 12.6242 10.2873 14.3003C9.68912 15.9765 9.37869 16.8371 9.35612 16.8823C9.27712 16.9839 9.25737 17.1701 9.29687 17.441C9.33637 17.7119 9.45775 17.8981 9.66087 17.9997C9.88662 18.1013 10.1067 18.1126 10.3212 18.0336C10.5357 17.9546 10.6824 17.8361 10.7614 17.6781L11.1677 16.5606H14.1137C14.2379 16.9669 14.3282 17.2322 14.3846 17.3564C14.4411 17.4692 14.5031 17.5821 14.5709 17.695C14.6386 17.8079 14.7627 17.9179 14.9434 18.0251C15.1239 18.1324 15.3102 18.1521 15.5021 18.0844ZM20.0565 18.0844C20.2935 18.0844 20.5108 18.011 20.7083 17.8643C20.9059 17.7176 21.0046 17.52 21.0046 17.2717C21.0046 17.0234 20.9143 16.8287 20.7337 16.6876C20.5531 16.5465 20.3274 16.4759 20.0565 16.4759H18.1771V11.3628C18.1771 11.1257 18.1066 10.9057 17.9655 10.7025C17.8244 10.4993 17.6297 10.3977 17.3814 10.3977C17.1331 10.3977 16.9412 10.4881 16.8057 10.6686C16.6703 10.8492 16.6026 11.0806 16.6026 11.3628V17.1193C16.6026 17.4015 16.6703 17.6329 16.8057 17.8135C16.9412 17.9941 17.1331 18.0844 17.3814 18.0844C17.3927 18.0844 17.4124 18.0816 17.4407 18.0759C17.4689 18.0702 17.4886 18.0674 17.4999 18.0674C17.5112 18.0674 17.5309 18.0702 17.5592 18.0759C17.5874 18.0816 17.6071 18.0844 17.6184 18.0844H20.0565ZM26.7272 17.9659C26.9192 17.7852 27.0151 17.5792 27.0151 17.3479C27.0151 17.1165 26.9417 16.9105 26.795 16.7299C26.7272 16.6283 26.0162 15.6746 24.6617 13.8686C25.3164 13.2026 25.9767 12.5367 26.6426 11.8707C26.8119 11.7014 26.9163 11.5011 26.9558 11.2697C26.9954 11.0383 26.9304 10.821 26.7611 10.6179C26.5692 10.4372 26.3632 10.3639 26.1431 10.3977C25.9231 10.4316 25.7171 10.5445 25.5252 10.7364C25.4913 10.7702 25.3446 10.9198 25.085 11.185C24.8254 11.4503 24.4896 11.7917 24.0776 12.2094C23.6656 12.627 23.3016 12.9994 22.9856 13.3268V11.3628C22.9856 11.1257 22.915 10.9057 22.7739 10.7025C22.6328 10.4993 22.4381 10.3977 22.1898 10.3977C21.9414 10.3977 21.7496 10.4881 21.6141 10.6686C21.4787 10.8492 21.4109 11.0806 21.4109 11.3628V17.1193C21.4109 17.4015 21.4787 17.6329 21.6141 17.8135C21.7496 17.9941 21.9414 18.0844 22.1898 18.0844C22.4381 18.0844 22.6328 17.9828 22.7739 17.7796C22.915 17.5764 22.9856 17.3564 22.9856 17.1193V15.5786C23.0307 15.5334 23.1153 15.446 23.2395 15.3162C23.3637 15.1864 23.4652 15.0819 23.5442 15.0029C24.2892 16.0188 24.9552 16.9161 25.5421 17.695C25.7001 17.9094 25.8836 18.0477 26.0924 18.1098C26.3012 18.1719 26.5128 18.1239 26.7272 17.9659ZM11.6249 15.0368L12.6577 12.0062L13.6735 15.0368H11.6249Z" fill="white"/>
</svg>
