<svg width="29" height="28" viewBox="0 0 29 28" fill="none" xmlns="http://www.w3.org/2000/svg">
<g clip-path="url(#clip0_2148_958)">
<path d="M18.5277 20.2223C18.5277 20.4286 18.4429 20.6264 18.2918 20.7723C18.1407 20.9182 17.9358 21.0001 17.7222 21.0001H6.44442C6.26719 21.0001 6.09803 21.1557 5.95303 21.2568L3.22219 23.3334V10.889C3.22219 10.6827 3.30707 10.4849 3.45814 10.339C3.60921 10.1932 3.8141 10.1112 4.02775 10.1112H7.13719V8.55566H4.02775C3.38681 8.55566 2.77212 8.8015 2.31891 9.23908C1.8657 9.67667 1.61108 10.2702 1.61108 10.889V24.889C1.61228 25.0334 1.65512 25.1747 1.7348 25.297C1.81448 25.4192 1.92784 25.5177 2.0622 25.5812C2.19163 25.6381 2.33434 25.6608 2.47583 25.6471C2.61731 25.6335 2.75253 25.5839 2.86775 25.5034L7.01636 22.5557H17.843C18.1483 22.5644 18.4523 22.5125 18.7359 22.4032C19.0196 22.2939 19.2771 22.1295 19.4923 21.9202C19.7075 21.711 19.876 21.4613 19.9872 21.1866C20.0984 20.9119 20.15 20.6182 20.1389 20.3234V19.4446H18.5277V20.2223Z" fill="black"/>
<path d="M25.7778 10.2824V17.8424L22.9583 15.7191C22.8177 15.6137 22.6449 15.5563 22.4669 15.5558H11.2778C11.0641 15.5558 10.8592 15.4738 10.7081 15.328C10.5571 15.1821 10.4722 14.9843 10.4722 14.778V5.44466C10.4722 5.23838 10.5571 5.04055 10.7081 4.89469C10.8592 4.74883 11.0641 4.66688 11.2778 4.66688H18.125C18.1271 4.14091 18.203 3.61764 18.3505 3.11133H11.2778C10.6368 3.11133 10.0221 3.35716 9.56891 3.79475C9.1157 4.23233 8.86108 4.82582 8.86108 5.44466V14.778C8.86108 15.3968 9.1157 15.9903 9.56891 16.4279C10.0221 16.8655 10.6368 17.1113 11.2778 17.1113H22.193L26.0436 19.9969C26.1581 20.0786 26.2929 20.1296 26.4344 20.1446C26.5759 20.1596 26.719 20.1382 26.8491 20.0824C26.9862 20.0194 27.1021 19.9202 27.1833 19.7964C27.2645 19.6725 27.3079 19.529 27.3083 19.3824V9.62133C26.8327 9.90976 26.3175 10.1323 25.7778 10.2824Z" fill="black"/>
<path d="M24.1667 8.55512C26.3912 8.55512 28.1945 6.81401 28.1945 4.66623C28.1945 2.51846 26.3912 0.777344 24.1667 0.777344C21.9422 0.777344 20.1389 2.51846 20.1389 4.66623C20.1389 6.81401 21.9422 8.55512 24.1667 8.55512Z" fill="#0E6CD3"/>
</g>
<defs>
<clipPath id="clip0_2148_958">
<rect width="29" height="28" fill="white"/>
</clipPath>
</defs>
</svg>
