<svg width="31" height="31" viewBox="0 0 31 31" fill="none" xmlns="http://www.w3.org/2000/svg">
<path d="M22.0681 22.6832V27.2509H3.84595V9.97809L9.63907 3.74902H22.0681V10.3123" stroke="black" stroke-width="1.5"/>
<path d="M9.64876 3.74902L9.63907 9.97809H3.84595" stroke="black" stroke-width="1.5"/>
<path d="M6.34058 23.0898H15.0642" stroke="black" stroke-width="1.5"/>
<path d="M6.34058 19.9268H14.0954" stroke="black" stroke-width="1.5"/>
<path d="M6.34058 16.9727H16.0329" stroke="black" stroke-width="1.5"/>
<path d="M6.34058 14.0176H18.9392" stroke="black" stroke-width="1.5"/>
<path d="M16.6868 20.9392L16.7594 23.022C16.7604 23.0581 16.7695 23.0934 16.7861 23.1254C16.8027 23.1574 16.8263 23.1852 16.8553 23.2066C16.8842 23.2281 16.9177 23.2427 16.9531 23.2493C16.9885 23.2559 17.025 23.2544 17.0598 23.2448L19.0602 22.7072C19.1276 22.6932 19.1868 22.6531 19.2249 22.5958L27.9776 10.7576C28.024 10.6947 28.0576 10.6232 28.0764 10.5472C28.0952 10.4713 28.0988 10.3924 28.0872 10.315C28.0755 10.2376 28.0486 10.1633 28.0082 10.0963C27.9678 10.0293 27.9146 9.97096 27.8516 9.92452L26.3307 8.79109C26.268 8.74402 26.1965 8.70992 26.1204 8.69076C26.0444 8.6716 25.9653 8.66777 25.8877 8.67949C25.8102 8.69121 25.7358 8.71825 25.6688 8.75903C25.6018 8.79981 25.5436 8.85352 25.4976 8.91702L16.7449 20.7503C16.7064 20.8057 16.686 20.8717 16.6868 20.9392Z" stroke="#0E6CD3" stroke-width="1.5"/>
<path d="M24.3157 10.5107L26.7715 12.3853" stroke="#0E6CD3" stroke-width="1.5"/>
</svg>
