<svg width="26" height="26" viewBox="0 0 26 26" fill="none" xmlns="http://www.w3.org/2000/svg">
<path d="M23.8009 19.8578C23.8009 20.2478 23.7142 20.6487 23.5301 21.0387C23.3459 21.4287 23.1076 21.797 22.7934 22.1437C22.2626 22.7287 21.6776 23.1512 21.0167 23.422C20.3667 23.6928 19.6626 23.8337 18.9042 23.8337C17.7992 23.8337 16.6184 23.5737 15.3726 23.0428C14.1267 22.512 12.8809 21.797 11.6459 20.8978C10.4001 19.9878 9.21925 18.9803 8.09258 17.8645C6.97675 16.7378 5.96925 15.557 5.07008 14.322C4.18175 13.087 3.46675 11.852 2.94675 10.6278C2.42675 9.39283 2.16675 8.21199 2.16675 7.08533C2.16675 6.34866 2.29675 5.64449 2.55675 4.99449C2.81675 4.33366 3.22841 3.72699 3.80258 3.18533C4.49591 2.50283 5.25425 2.16699 6.05592 2.16699C6.35925 2.16699 6.66258 2.23199 6.93341 2.36199C7.21508 2.49199 7.46425 2.68699 7.65925 2.96866L10.1726 6.51116C10.3676 6.78199 10.5084 7.03116 10.6059 7.26949C10.7034 7.49699 10.7576 7.72449 10.7576 7.93033C10.7576 8.19033 10.6817 8.45032 10.5301 8.69949C10.3892 8.94866 10.1834 9.20866 9.92341 9.46866L9.10008 10.3245C8.98091 10.4437 8.92675 10.5845 8.92675 10.7578C8.92675 10.8445 8.93758 10.9203 8.95925 11.007C8.99175 11.0937 9.02425 11.1587 9.04592 11.2237C9.24092 11.5812 9.57675 12.047 10.0534 12.6103C10.5409 13.1737 11.0609 13.7478 11.6242 14.322C12.2092 14.8962 12.7726 15.427 13.3467 15.9145C13.9101 16.3912 14.3759 16.7162 14.7442 16.9112C14.7984 16.9328 14.8634 16.9653 14.9392 16.9978C15.0259 17.0303 15.1126 17.0412 15.2101 17.0412C15.3942 17.0412 15.5351 16.9762 15.6542 16.857L16.4776 16.0445C16.7484 15.7737 17.0084 15.5678 17.2576 15.4378C17.5067 15.2862 17.7559 15.2103 18.0267 15.2103C18.2326 15.2103 18.4492 15.2537 18.6876 15.3512C18.9259 15.4487 19.1751 15.5895 19.4459 15.7737L23.0317 18.3195C23.3134 18.5145 23.5084 18.742 23.6276 19.0128C23.7359 19.2837 23.8009 19.5545 23.8009 19.8578Z" stroke="#292D32" stroke-width="1.5" stroke-miterlimit="10"/>
<path d="M20.0417 9.74967C20.0417 9.09967 19.5325 8.10301 18.7742 7.29051C18.0808 6.54301 17.16 5.95801 16.25 5.95801" stroke="#0E6CD3" stroke-width="1.5" stroke-linecap="round" stroke-linejoin="round"/>
<path d="M23.8333 9.75032C23.8333 5.55783 20.4425 2.16699 16.25 2.16699" stroke="#0E6CD3" stroke-width="1.5" stroke-linecap="round" stroke-linejoin="round"/>
</svg>
