<svg width="110" height="30" viewBox="0 0 110 30" fill="none" xmlns="http://www.w3.org/2000/svg">
<g clip-path="url(#clip0_2148_1100)">
<g opacity="0.2" style="mix-blend-mode:overlay">
<path d="M53.8403 0.883182C53.691 0.557095 53.8403 0.190247 54.1658 0.0543776C54.4914 -0.081492 54.8441 0.0543776 54.9933 0.380465C55.1425 0.706551 54.9933 1.0734 54.6813 1.20927C54.3693 1.34514 53.9895 1.20927 53.8538 0.883182H53.8403Z" fill="white"/>
</g>
<path d="M57.2722 3.83153H55.6986V7.29621L57.4892 7.26903V7.64947L55.2781 7.7174V3.43751H57.2586V3.83153H57.2722ZM59.212 5.23099V3.16577H59.6189V8.12501H59.212V5.62501H58.3031V8.09784H57.8962V3.16577H58.3031V5.2174H59.212V5.23099Z" fill="#352673"/>
<path d="M61.8979 3.70923H63.173V4.10325H60.1479V3.70923H61.4638V3.08423H61.8979V3.70923ZM61.0026 6.33151C60.8126 6.24999 60.6499 6.12771 60.5549 5.96466C60.4464 5.81521 60.3921 5.62499 60.3921 5.42119C60.3921 5.21738 60.4464 5.04075 60.5549 4.87771C60.6634 4.71466 60.8126 4.60597 61.0026 4.52445C61.1925 4.44292 61.4231 4.40216 61.6944 4.40216C61.9657 4.40216 62.1827 4.44292 62.3862 4.52445C62.5897 4.60597 62.7389 4.72825 62.8474 4.87771C62.9559 5.02716 63.0102 5.21738 63.0102 5.42119C63.0102 5.62499 62.9559 5.81521 62.8474 5.96466C62.7389 6.11412 62.5897 6.2364 62.3862 6.33151C62.1827 6.41303 61.9657 6.45379 61.6944 6.45379C61.4231 6.45379 61.1925 6.41303 61.0026 6.33151ZM60.5956 6.60325H61.0026V7.71738H64.2582V8.1114H60.582V6.60325H60.5956ZM61.0297 4.95923C60.8669 5.08151 60.7991 5.23097 60.7991 5.43477C60.7991 5.63858 60.8805 5.78803 61.0297 5.91032C61.1789 6.0326 61.4095 6.08695 61.6808 6.08695C61.9521 6.08695 62.1827 6.0326 62.3455 5.91032C62.5083 5.78803 62.5761 5.63858 62.5761 5.43477C62.5761 5.23097 62.4947 5.08151 62.3455 4.95923C62.1827 4.83695 61.9657 4.7826 61.6808 4.7826C61.3959 4.7826 61.1789 4.83695 61.0297 4.95923ZM64.1225 3.16575V4.76901H64.8008V5.16303H64.1225V6.9701H63.7156V3.16575H64.1225Z" fill="#352673"/>
<path d="M67.88 5.77447L65.262 5.85599V3.32882H67.88V5.78805V5.77447ZM69.3586 8.11142H65.5333V6.37229H65.9402V7.7174H69.3586V8.11142ZM65.6689 3.70925V5.43479L67.4595 5.38045V3.70925H65.6689ZM69.223 6.84784H68.816V3.16577H69.223V6.84784Z" fill="#352673"/>
<path d="M74.3642 5.25808V5.6521H72.3294V6.4945H74.0658L74.0251 8.24721H73.6317V6.88852H70.1726V6.4945H71.9225V5.6521H69.8877V5.25808H74.3778H74.3642ZM73.9301 4.932H73.5232V3.72276H70.1454V3.32874H73.9301V4.932Z" fill="#352673"/>
<path d="M77.1722 5.09512C77.0637 5.2174 76.9552 5.3261 76.8331 5.42121C76.5211 5.66577 76.2226 5.85599 75.9106 5.97827V5.51631C76.2362 5.36686 76.5075 5.17664 76.711 4.98642C76.8602 4.83697 76.9687 4.71468 77.0501 4.5924C77.1179 4.47012 77.1722 4.36142 77.1993 4.23914C77.2265 4.11686 77.24 3.95381 77.24 3.77718V3.26088H77.647V3.77718C77.647 4.03534 77.6741 4.23914 77.7284 4.3886C77.7826 4.53805 77.8912 4.68751 78.0539 4.85055C78.2846 5.06795 78.583 5.27175 78.9492 5.46197V5.91034C78.5966 5.74729 78.2981 5.57066 78.0404 5.36686C77.7555 5.13588 77.552 4.91849 77.4435 4.74186C77.3757 4.86414 77.2943 4.98642 77.1858 5.10871L77.1722 5.09512ZM78.3795 6.48099C78.3795 6.68479 78.4202 6.86142 78.5152 6.99729C78.5966 7.13316 78.7593 7.25545 78.9764 7.36414C79.3698 7.55436 79.7496 7.67664 80.1294 7.75816V8.16577C79.7225 8.08425 79.3426 7.96197 78.9628 7.78534C78.7593 7.69023 78.583 7.59512 78.4609 7.50001C78.3388 7.4049 78.2303 7.29621 78.176 7.17392C78.1218 7.28262 78.0268 7.37773 77.8912 7.48642C77.7555 7.59512 77.5792 7.69023 77.335 7.81251C76.9552 7.98914 76.5753 8.11142 76.1955 8.20653V7.79892C76.6296 7.69023 77.023 7.55436 77.3757 7.36414C77.5927 7.25545 77.7419 7.13316 77.8233 6.99729C77.9047 6.86142 77.959 6.69838 77.959 6.48099V6.23642H78.3931V6.48099H78.3795ZM80.5499 3.91305V4.30708H79.8581V5.08153H80.5499V5.47555H79.8581V6.42664H79.4512V3.16577H79.8581V3.91305H80.5499Z" fill="#352673"/>
<path d="M80.8891 7.22827C81.2011 7.03805 81.4724 6.80708 81.6894 6.56251C81.8386 6.37229 81.9607 6.20925 82.0285 6.04621C82.0964 5.88316 82.1506 5.69295 82.1777 5.44838C82.2049 5.2174 82.2184 4.87773 82.2184 4.42936V3.36958H82.6254V4.42936C82.6254 4.86414 82.6254 5.19023 82.6661 5.42121C82.6932 5.65218 82.7339 5.82881 82.7882 5.96468C82.8424 6.10055 82.9374 6.25001 83.0595 6.39947C83.168 6.54892 83.3037 6.69838 83.4664 6.82066C83.6292 6.94295 83.792 7.06523 83.9548 7.16034V7.67664C83.5614 7.44566 83.2494 7.21468 83.0324 6.98371C82.8967 6.84784 82.7746 6.71197 82.6661 6.56251C82.5576 6.41305 82.4762 6.2636 82.4219 6.12773C82.3812 6.2636 82.2863 6.42664 82.1371 6.63045C82.0014 6.83425 81.8522 6.98371 81.7165 7.10599C81.5944 7.22827 81.4588 7.35055 81.3096 7.47284C81.1604 7.58153 81.0111 7.67664 80.8755 7.73099V7.21468L80.8891 7.22827ZM84.9722 8.12501H84.5652V3.16577H84.9722V8.12501Z" fill="#352673"/>
<path d="M88.5941 5.3261V7.44566H90.1134V7.83968H85.6233V7.44566H86.6678V5.3261H87.0748V7.44566H88.1735V5.3261H88.5805H88.5941ZM89.7607 6.45381H89.3537V3.87229H85.8268V3.47827H89.7607V6.45381Z" fill="#352673"/>
<path d="M92.5551 6.91577C92.6908 7.02447 92.8129 7.13316 92.9485 7.21468V7.7174C92.5687 7.48642 92.3109 7.28262 92.1482 7.0924C91.9176 6.86142 91.7548 6.63045 91.6462 6.37229C91.6056 6.49458 91.5377 6.63045 91.4292 6.7799C91.3207 6.92936 91.2122 7.06523 91.1037 7.17392C90.9951 7.29621 90.873 7.4049 90.7374 7.5136C90.6017 7.62229 90.4796 7.70381 90.344 7.77175V7.26903C90.6424 7.07882 90.873 6.87501 91.0358 6.65762C91.1443 6.50816 91.2257 6.35871 91.28 6.22284C91.3343 6.08697 91.375 5.91034 91.3885 5.69295C91.4021 5.47555 91.4292 5.17664 91.4292 4.79621V4.34784H90.3711V3.95382H91.4292V3.19295H91.8633V3.95382H92.9078V4.34784H91.8633V4.79621C91.8633 5.17664 91.8633 5.47555 91.904 5.67936C91.9311 5.88316 91.9583 6.05979 92.0125 6.18208C92.0668 6.30436 92.1346 6.44023 92.2296 6.5761C92.3245 6.69838 92.433 6.82066 92.5551 6.92936V6.91577ZM92.5551 5.28534H93.3962V3.17936H93.8031V8.11142H93.3962V5.69295H92.5551V5.29892V5.28534ZM94.4678 8.12501V3.16577H94.8748V8.12501H94.4678Z" fill="#352673"/>
<path d="M96.8281 7.79894V3.39677H97.3165L98.9172 5.89677L99.0799 6.14133C99.297 6.481 99.5005 6.80709 99.7039 7.106V3.38318H100.138V7.78535H99.6361L97.9676 5.19024C97.8184 4.98644 97.5878 4.606 97.2622 4.07611V7.78535H96.8281V7.79894Z" fill="#352673"/>
<path d="M101.495 7.64942C101.264 7.49996 101.101 7.29616 100.979 7.03801C100.857 6.77985 100.803 6.46735 100.803 6.11409C100.803 5.76083 100.857 5.46192 100.979 5.20377C101.101 4.94561 101.278 4.74181 101.495 4.60594C101.712 4.47007 101.983 4.38855 102.281 4.38855C102.58 4.38855 102.824 4.45648 103.041 4.60594C103.258 4.7554 103.434 4.94561 103.543 5.20377C103.665 5.46192 103.719 5.76083 103.719 6.11409C103.719 6.46735 103.665 6.77985 103.543 7.03801C103.421 7.29616 103.258 7.51355 103.041 7.64942C102.824 7.79888 102.566 7.86681 102.281 7.86681C101.996 7.86681 101.725 7.79888 101.495 7.64942ZM102.81 7.29616C102.96 7.17388 103.082 7.01083 103.163 6.80703C103.244 6.60322 103.285 6.35866 103.285 6.07333C103.285 5.81518 103.244 5.5842 103.163 5.3804C103.082 5.17659 102.96 5.02714 102.81 4.91844C102.661 4.80975 102.471 4.7554 102.268 4.7554C102.051 4.7554 101.874 4.80975 101.712 4.91844C101.549 5.02714 101.427 5.17659 101.345 5.3804C101.25 5.5842 101.21 5.81518 101.21 6.07333C101.21 6.34507 101.25 6.58964 101.345 6.79344C101.427 6.99725 101.562 7.16029 101.712 7.28257C101.874 7.39127 102.051 7.4592 102.268 7.4592C102.485 7.4592 102.648 7.40485 102.81 7.28257V7.29616Z" fill="#352673"/>
<path d="M104.899 7.79891H104.275V7.1875H104.899V7.79891Z" fill="#352673"/>
<path d="M107.395 7.7989H106.961V3.95379L105.863 4.80977V4.26629L107.016 3.39673H107.395V7.7989Z" fill="#352673"/>
<path d="M47.5188 5.19031L49.7706 7.88053H4.72068L0 13.0843V5.19031H47.5188Z" fill="#CA3B42"/>
<path d="M68.2328 30.0001L66.5372 27.9621H22.9523L7.9085 11.386L0 20.0952V30.0001H68.2328ZM6.60624 22.6224H3.21495V19.2257H6.60624V22.6224ZM6.60624 27.9757H3.21495V24.5789H6.60624V27.9757ZM12.2494 22.6224H8.85806V19.2257H12.2494V22.6224ZM12.2494 27.9757H8.85806V24.5789H12.2494V27.9757Z" fill="#0C569B"/>
<mask id="mask0_2148_1100" style="mask-type:luminance" maskUnits="userSpaceOnUse" x="21" y="11" width="89" height="14">
<path d="M26.3707 16.3995L25.2041 18.8315H21.8806L25.2719 11.8614H28.5954L27.3067 14.5245L29.0159 14.7011L31.0642 18.8315H27.5916L26.3843 16.3995H26.3707ZM35.7035 24.5517H31.5797L29.0702 21.9294L26.5606 24.5517H22.4368L26.3436 20.5027L25.8552 19.6468H30.9828L35.7171 24.5517H35.7035ZM36.4089 15.231H34.8625V16.0326H36.4089V18.4647H34.8625V20.1359H31.5933V13.1658L30.8336 11.6576H34.8625V12.8125H36.4089V15.2446V15.231ZM42.0927 16.8207L44.3174 17.0924L46.42 24.1305H43.1372L41.5094 18.6685L39.8409 24.1305H36.5581L40.3157 11.8478H43.5985L42.0792 16.8071L42.0927 16.8207ZM50.2861 24.5517H47.0169V13.1658L46.2572 11.6576H50.2861V24.5652V24.5517ZM65.357 18.4103H60.1615V19.7962H64.8415V24.5517H61.5723V22.0245H52.2937V19.7962H56.8923V18.4103H51.6969V16.1821H65.357V18.4103ZM61.5452 13.8723H52.6871L52.3073 11.644H63.1866C63.4172 11.644 63.6071 11.7256 63.7292 11.8886L64.5838 12.9484C64.7194 13.1114 64.7737 13.2881 64.7601 13.4783L64.6109 15.5707L61.4231 15.7609L61.5452 13.8587V13.8723ZM74.6085 13.1658C74.7441 13.3288 74.8119 13.4919 74.7848 13.6957L73.1705 23.9402L69.8878 24.212L71.4885 14.4294H66.917L66.4694 11.8614H73.1977C73.4418 11.8614 73.6182 11.943 73.7403 12.106L74.5949 13.1658H74.6085ZM79.0985 16.5082H80.9434V19.0761H79.0985V24.5517H75.8293V13.1658L75.0697 11.6576H79.0985V16.5218V16.5082ZM87.7124 14.3614H84.5789V21.644H87.5632V24.144H83.2902C83.0731 24.144 82.8832 24.0761 82.7476 23.9267L81.9201 23.1114C81.7709 22.962 81.703 22.7989 81.703 22.5951V13.3152L80.9434 11.875H87.1291L87.726 14.375L87.7124 14.3614ZM92.2161 11.644H95.0376V24.5517H92.2161V18.8859H90.9681V24.5517H88.1465V13.0843L87.3868 11.644H90.9681V16.3859H92.2161V11.644ZM98.7002 21.5761V19.6332H101.82V21.5761H104.316V19.6332H107.436V21.5761H109.905V24.144H96.2449V21.5761H98.7138H98.7002ZM110 11.8614L109.525 14.3614H102.295V16.3587H99.0258V14.3614H96.5976V11.8614H110ZM103.991 16.712L104.465 14.7147H107.707L107.246 16.712H109.498L109.023 19.212H96.5976V16.712H103.991Z" fill="white"/>
</mask>
<g mask="url(#mask0_2148_1100)">
<path d="M26.3707 16.3994L25.2041 18.8315H21.8806L25.2719 11.8614H28.5954L27.3067 14.5244L29.0159 14.7011L31.0642 18.8315H27.5916L26.3843 16.3994H26.3707ZM35.7035 24.5516H31.5797L29.0702 21.9293L26.5606 24.5516H22.4368L26.3436 20.5027L25.8552 19.6467H30.9828L35.7171 24.5516H35.7035ZM36.4089 15.231H34.8625V16.0326H36.4089V18.4647H34.8625V20.1359H31.5933V13.1657L30.8336 11.6576H34.8625V12.8125H36.4089V15.2445V15.231Z" fill="white" stroke="white" stroke-width="1.08" stroke-miterlimit="10"/>
<path d="M42.0927 16.8206L44.3174 17.0924L46.42 24.1304H43.1372L41.5094 18.6685L39.8409 24.1304H36.5581L40.3157 11.8478H43.5984L42.0791 16.807L42.0927 16.8206ZM50.2861 24.5516H47.0169V13.1657L46.2572 11.6576H50.2861V24.5652V24.5516Z" fill="white" stroke="white" stroke-width="1.08" stroke-miterlimit="10"/>
<path d="M65.3569 18.4103H60.1614V19.7962H64.8414V24.5517H61.5722V22.0245H52.2936V19.7962H56.8922V18.4103H51.6968V16.1821H65.3569V18.4103ZM61.5451 13.8723H52.687L52.3072 11.644H63.1865C63.4171 11.644 63.607 11.7256 63.7291 11.8886L64.5837 12.9484C64.7193 13.1114 64.7736 13.2881 64.76 13.4783L64.6108 15.5707L61.423 15.7609L61.5451 13.8587V13.8723Z" fill="white" stroke="white" stroke-width="1.08" stroke-miterlimit="10"/>
<path d="M74.6083 13.1657C74.744 13.3288 74.8118 13.4918 74.7847 13.6956L73.1704 23.9402L69.8877 24.2119L71.4884 14.4293H66.9169L66.4692 11.8614H73.1976C73.4417 11.8614 73.6181 11.9429 73.7402 12.106L74.5948 13.1657H74.6083ZM79.0984 16.5081H80.9433V19.0761H79.0984V24.5516H75.8292V13.1657L75.0696 11.6576H79.0984V16.5217V16.5081Z" fill="white" stroke="white" stroke-width="1.08" stroke-miterlimit="10"/>
<path d="M87.7124 14.3614H84.5788V21.644H87.5632V24.144H83.2901C83.0731 24.144 82.8832 24.0761 82.7475 23.9267L81.9201 23.1114C81.7708 22.962 81.703 22.7989 81.703 22.5951V13.3152L80.9434 11.875H87.1291L87.7259 14.375L87.7124 14.3614ZM92.216 11.644H95.0376V24.5517H92.216V18.8859H90.968V24.5517H88.1465V13.0843L87.3868 11.644H90.968V16.3859H92.216V11.644Z" fill="white" stroke="white" stroke-width="1.08" stroke-miterlimit="10"/>
<path d="M98.7002 21.5761V19.6332H101.82V21.5761H104.316V19.6332H107.436V21.5761H109.905V24.1441H96.2449V21.5761H98.7137H98.7002ZM110 11.8615L109.525 14.3615H102.295V16.3587H99.0257V14.3615H96.5976V11.8615H110ZM103.991 16.712L104.465 14.7147H107.707L107.246 16.712H109.498L109.023 19.212H96.5976V16.712H103.991Z" fill="white" stroke="white" stroke-width="1.08" stroke-miterlimit="10"/>
<path d="M67.2834 2.39136C47.6003 2.39136 30.576 6.07342 22.4912 11.4267C20.6463 13.7229 19.6561 17.8941 32.6515 20.6794C51.4257 24.6876 65.6149 19.3071 68.2194 17.8126C70.8375 16.318 83.2632 13.5462 98.2934 15.6386C112.822 17.6631 114.897 22.7718 109.837 26.8479C114.436 24.4158 117.095 21.549 117.095 18.4783C117.095 9.59244 94.7936 2.39136 67.2698 2.39136H67.2834Z" fill="#CA3B42"/>
<path d="M98.3069 15.625C83.2631 13.5327 70.8374 16.3044 68.2329 17.799C65.6148 19.2935 51.4257 24.6875 32.665 20.6658C19.656 17.8805 20.6598 13.7229 22.5047 11.4131C19.2898 13.5462 17.4856 15.9375 17.4856 18.4647C17.4856 27.3506 39.7867 34.5517 67.3105 34.5517C85.3386 34.5517 101.128 31.4538 109.878 26.8207C114.938 22.7446 112.862 17.6223 98.334 15.6115L98.3069 15.625Z" fill="#0C569B"/>
</g>
</g>
<defs>
<clipPath id="clip0_2148_1100">
<rect width="110" height="30" fill="white"/>
</clipPath>
</defs>
</svg>
