<svg width="110" height="30" viewBox="0 0 110 30" fill="none" xmlns="http://www.w3.org/2000/svg">
<g clip-path="url(#clip0_2148_988)">
<g opacity="0.2" style="mix-blend-mode:overlay">
<path d="M53.8403 0.88306C53.691 0.556973 53.8403 0.190125 54.1658 0.0542555C54.4914 -0.081614 54.8441 0.0542555 54.9933 0.380342C55.1425 0.706429 54.9933 1.07328 54.6813 1.20915C54.3693 1.34502 53.9895 1.20915 53.8538 0.88306H53.8403Z" fill="white"/>
</g>
<path d="M57.2722 3.8308H55.6986V7.29547L57.4892 7.2683V7.64874L55.2781 7.71667V3.43678H57.2586V3.8308H57.2722ZM59.212 5.23026V3.16504H59.6189V8.12428H59.212V5.62428H58.3031V8.0971H57.8962V3.16504H58.3031V5.21667H59.212V5.23026Z" fill="white"/>
<path d="M61.8979 3.70898H63.173V4.10301H60.1479V3.70898H61.4638V3.08398H61.8979V3.70898ZM61.0026 6.33127C60.8126 6.24974 60.6499 6.12746 60.5549 5.96442C60.4464 5.81496 60.3921 5.62475 60.3921 5.42094C60.3921 5.21714 60.4464 5.04051 60.5549 4.87746C60.6634 4.71442 60.8126 4.60572 61.0026 4.5242C61.1925 4.44268 61.4231 4.40192 61.6944 4.40192C61.9657 4.40192 62.1827 4.44268 62.3862 4.5242C62.5897 4.60572 62.7389 4.72801 62.8474 4.87746C62.9559 5.02692 63.0102 5.21714 63.0102 5.42094C63.0102 5.62475 62.9559 5.81496 62.8474 5.96442C62.7389 6.11388 62.5897 6.23616 62.3862 6.33127C62.1827 6.41279 61.9657 6.45355 61.6944 6.45355C61.4231 6.45355 61.1925 6.41279 61.0026 6.33127ZM60.5956 6.60301H61.0026V7.71714H64.2582V8.11116H60.582V6.60301H60.5956ZM61.0297 4.95898C60.8669 5.08127 60.7991 5.23072 60.7991 5.43453C60.7991 5.63833 60.8805 5.78779 61.0297 5.91007C61.1789 6.03235 61.4095 6.0867 61.6808 6.0867C61.9521 6.0867 62.1827 6.03235 62.3455 5.91007C62.5083 5.78779 62.5761 5.63833 62.5761 5.43453C62.5761 5.23072 62.4947 5.08127 62.3455 4.95898C62.1827 4.8367 61.9657 4.78235 61.6808 4.78235C61.3959 4.78235 61.1789 4.8367 61.0297 4.95898ZM64.1225 3.16551V4.76877H64.8008V5.16279H64.1225V6.96985H63.7156V3.16551H64.1225Z" fill="white"/>
<path d="M67.88 5.77373L65.262 5.85526V3.32808H67.88V5.78732V5.77373ZM69.3586 8.11069H65.5333V6.37156H65.9402V7.71667H69.3586V8.11069ZM65.6689 3.70852V5.43406L67.4595 5.37971V3.70852H65.6689ZM69.223 6.8471H68.816V3.16504H69.223V6.8471Z" fill="white"/>
<path d="M74.3642 5.25747V5.65149H72.3294V6.49389H74.0658L74.0251 8.2466H73.6317V6.88791H70.1726V6.49389H71.9225V5.65149H69.8877V5.25747H74.3778H74.3642ZM73.9301 4.93139H73.5232V3.72215H70.1454V3.32812H73.9301V4.93139Z" fill="white"/>
<path d="M77.1722 5.09439C77.0637 5.21667 76.9552 5.32537 76.8331 5.42047C76.5211 5.66504 76.2226 5.85526 75.9106 5.97754V5.51558C76.2362 5.36613 76.5075 5.17591 76.711 4.98569C76.8602 4.83623 76.9687 4.71395 77.0501 4.59167C77.1179 4.46939 77.1722 4.36069 77.1993 4.23841C77.2265 4.11613 77.24 3.95308 77.24 3.77645V3.26015H77.647V3.77645C77.647 4.0346 77.6741 4.23841 77.7284 4.38787C77.7826 4.53732 77.8912 4.68678 78.0539 4.84982C78.2846 5.06721 78.583 5.27102 78.9492 5.46123V5.9096C78.5966 5.74656 78.2981 5.56993 78.0404 5.36613C77.7555 5.13515 77.552 4.91776 77.4435 4.74113C77.3757 4.86341 77.2943 4.98569 77.1858 5.10797L77.1722 5.09439ZM78.3795 6.48026C78.3795 6.68406 78.4202 6.86069 78.5152 6.99656C78.5966 7.13243 78.7593 7.25471 78.9764 7.36341C79.3698 7.55363 79.7496 7.67591 80.1294 7.75743V8.16504C79.7225 8.08352 79.3426 7.96123 78.9628 7.7846C78.7593 7.6895 78.583 7.59439 78.4609 7.49928C78.3388 7.40417 78.2303 7.29547 78.176 7.17319C78.1218 7.28189 78.0268 7.377 77.8912 7.48569C77.7555 7.59439 77.5792 7.6895 77.335 7.81178C76.9552 7.98841 76.5753 8.11069 76.1955 8.2058V7.79819C76.6296 7.6895 77.023 7.55363 77.3757 7.36341C77.5927 7.25471 77.7419 7.13243 77.8233 6.99656C77.9047 6.86069 77.959 6.69765 77.959 6.48026V6.23569H78.3931V6.48026H78.3795ZM80.5499 3.91232V4.30634H79.8581V5.0808H80.5499V5.47482H79.8581V6.42591H79.4512V3.16504H79.8581V3.91232H80.5499Z" fill="white"/>
<path d="M80.8891 7.22754C81.2011 7.03732 81.4724 6.80634 81.6894 6.56178C81.8386 6.37156 81.9607 6.20852 82.0285 6.04547C82.0964 5.88243 82.1506 5.69221 82.1777 5.44765C82.2049 5.21667 82.2184 4.877 82.2184 4.42863V3.36884H82.6254V4.42863C82.6254 4.86341 82.6254 5.1895 82.6661 5.42047C82.6932 5.65145 82.7339 5.82808 82.7882 5.96395C82.8424 6.09982 82.9374 6.24928 83.0595 6.39874C83.168 6.54819 83.3037 6.69765 83.4664 6.81993C83.6292 6.94221 83.792 7.0645 83.9548 7.1596V7.67591C83.5614 7.44493 83.2494 7.21395 83.0324 6.98297C82.8967 6.8471 82.7746 6.71124 82.6661 6.56178C82.5576 6.41232 82.4762 6.26287 82.4219 6.127C82.3812 6.26287 82.2863 6.42591 82.1371 6.62971C82.0014 6.83352 81.8522 6.98297 81.7165 7.10526C81.5944 7.22754 81.4588 7.34982 81.3096 7.4721C81.1604 7.5808 81.0111 7.67591 80.8755 7.73026V7.21395L80.8891 7.22754ZM84.9722 8.12428H84.5652V3.16504H84.9722V8.12428Z" fill="white"/>
<path d="M88.5941 5.32537V7.44493H90.1134V7.83895H85.6233V7.44493H86.6678V5.32537H87.0748V7.44493H88.1735V5.32537H88.5805H88.5941ZM89.7607 6.45308H89.3537V3.87156H85.8268V3.47754H89.7607V6.45308Z" fill="white"/>
<path d="M92.5551 6.91504C92.6908 7.02374 92.8129 7.13243 92.9485 7.21395V7.71667C92.5687 7.48569 92.3109 7.28189 92.1482 7.09167C91.9176 6.86069 91.7548 6.62971 91.6462 6.37156C91.6056 6.49384 91.5377 6.62971 91.4292 6.77917C91.3207 6.92863 91.2122 7.0645 91.1037 7.17319C90.9951 7.29547 90.873 7.40417 90.7374 7.51287C90.6017 7.62156 90.4796 7.70308 90.344 7.77102V7.2683C90.6424 7.07808 90.873 6.87428 91.0358 6.65689C91.1443 6.50743 91.2257 6.35797 91.28 6.2221C91.3343 6.08623 91.375 5.9096 91.3885 5.69221C91.4021 5.47482 91.4292 5.17591 91.4292 4.79547V4.3471H90.3711V3.95308H91.4292V3.19221H91.8633V3.95308H92.9078V4.3471H91.8633V4.79547C91.8633 5.17591 91.8633 5.47482 91.904 5.67863C91.9311 5.88243 91.9583 6.05906 92.0125 6.18134C92.0668 6.30363 92.1346 6.4395 92.2296 6.57537C92.3245 6.69765 92.433 6.81993 92.5551 6.92863V6.91504ZM92.5551 5.2846H93.3962V3.17863H93.8031V8.11069H93.3962V5.69221H92.5551V5.29819V5.2846ZM94.4678 8.12428V3.16504H94.8748V8.12428H94.4678Z" fill="white"/>
<path d="M96.8281 7.79857V3.3964H97.3165L98.9172 5.8964L99.0799 6.14096C99.297 6.48064 99.5005 6.80673 99.7039 7.10564V3.38281H100.138V7.78499H99.6361L97.9676 5.18988C97.8184 4.98607 97.5878 4.60564 97.2622 4.07575V7.78499H96.8281V7.79857Z" fill="white"/>
<path d="M101.495 7.64954C101.264 7.50008 101.101 7.29628 100.979 7.03813C100.857 6.77998 100.803 6.46748 100.803 6.11422C100.803 5.76095 100.857 5.46204 100.979 5.20389C101.101 4.94574 101.278 4.74193 101.495 4.60606C101.712 4.47019 101.983 4.38867 102.281 4.38867C102.58 4.38867 102.824 4.45661 103.041 4.60606C103.258 4.75552 103.434 4.94574 103.543 5.20389C103.665 5.46204 103.719 5.76095 103.719 6.11422C103.719 6.46748 103.665 6.77998 103.543 7.03813C103.421 7.29628 103.258 7.51367 103.041 7.64954C102.824 7.799 102.566 7.86693 102.281 7.86693C101.996 7.86693 101.725 7.799 101.495 7.64954ZM102.81 7.29628C102.96 7.174 103.082 7.01095 103.163 6.80715C103.244 6.60335 103.285 6.35878 103.285 6.07345C103.285 5.8153 103.244 5.58432 103.163 5.38052C103.082 5.17672 102.96 5.02726 102.81 4.91856C102.661 4.80987 102.471 4.75552 102.268 4.75552C102.051 4.75552 101.874 4.80987 101.712 4.91856C101.549 5.02726 101.427 5.17672 101.345 5.38052C101.25 5.58432 101.21 5.8153 101.21 6.07345C101.21 6.34519 101.25 6.58976 101.345 6.79356C101.427 6.99737 101.562 7.16041 101.712 7.28269C101.874 7.39139 102.051 7.45932 102.268 7.45932C102.485 7.45932 102.648 7.40498 102.81 7.28269V7.29628Z" fill="white"/>
<path d="M104.899 7.79891H104.275V7.1875H104.899V7.79891Z" fill="white"/>
<path d="M107.395 7.79866H106.961V3.95355L105.863 4.80953V4.26605L107.016 3.39648H107.395V7.79866Z" fill="white"/>
<path d="M47.5188 5.19043L49.7706 7.88065H4.72068L0 13.0845V5.19043H47.5188Z" fill="white"/>
<path d="M68.2328 29.9999L66.5372 27.9618H22.9523L7.9085 11.3857L0 20.095V29.9999H68.2328ZM6.60624 22.6222H3.21495V19.2254H6.60624V22.6222ZM6.60624 27.9754H3.21495V24.5787H6.60624V27.9754ZM12.2494 22.6222H8.85806V19.2254H12.2494V22.6222ZM12.2494 27.9754H8.85806V24.5787H12.2494V27.9754Z" fill="white"/>
<mask id="mask0_2148_988" style="mask-type:luminance" maskUnits="userSpaceOnUse" x="21" y="11" width="89" height="14">
<path d="M26.3707 16.399L25.2041 18.8311H21.8806L25.2719 11.8609H28.5954L27.3067 14.524L29.0159 14.7006L31.0642 18.8311H27.5916L26.3843 16.399H26.3707ZM35.7035 24.5512H31.5797L29.0702 21.9289L26.5606 24.5512H22.4368L26.3436 20.5023L25.8552 19.6463H30.9828L35.7171 24.5512H35.7035ZM36.4089 15.2305H34.8625V16.0321H36.4089V18.4642H34.8625V20.1354H31.5933V13.1653L30.8336 11.6571H34.8625V12.812H36.4089V15.2441V15.2305ZM42.0927 16.8202L44.3174 17.0919L46.42 24.13H43.1372L41.5094 18.668L39.8409 24.13H36.5581L40.3157 11.8474H43.5985L42.0792 16.8066L42.0927 16.8202ZM50.2861 24.5512H47.0169V13.1653L46.2572 11.6571H50.2861V24.5648V24.5512ZM65.357 18.4099H60.1615V19.7957H64.8415V24.5512H61.5723V22.024H52.2937V19.7957H56.8923V18.4099H51.6969V16.1816H65.357V18.4099ZM61.5452 13.8718H52.6871L52.3073 11.6436H63.1866C63.4172 11.6436 63.6071 11.7251 63.7292 11.8881L64.5838 12.9479C64.7194 13.1109 64.7737 13.2876 64.7601 13.4778L64.6109 15.5702L61.4231 15.7604L61.5452 13.8582V13.8718ZM74.6085 13.1653C74.7441 13.3283 74.8119 13.4914 74.7848 13.6952L73.1705 23.9398L69.8878 24.2115L71.4885 14.4289H66.917L66.4694 11.8609H73.1977C73.4418 11.8609 73.6182 11.9425 73.7403 12.1055L74.5949 13.1653H74.6085ZM79.0985 16.5077H80.9434V19.0756H79.0985V24.5512H75.8293V13.1653L75.0697 11.6571H79.0985V16.5213V16.5077ZM87.7124 14.3609H84.5789V21.6436H87.5632V24.1436H83.2902C83.0731 24.1436 82.8832 24.0756 82.7476 23.9262L81.9201 23.1109C81.7709 22.9615 81.703 22.7984 81.703 22.5946V13.3148L80.9434 11.8745H87.1291L87.726 14.3745L87.7124 14.3609ZM92.2161 11.6436H95.0376V24.5512H92.2161V18.8854H90.9681V24.5512H88.1465V13.0838L87.3868 11.6436H90.9681V16.3854H92.2161V11.6436ZM98.7002 21.5756V19.6327H101.82V21.5756H104.316V19.6327H107.436V21.5756H109.905V24.1436H96.2449V21.5756H98.7138H98.7002ZM110 11.8609L109.525 14.3609H102.295V16.3582H99.0258V14.3609H96.5976V11.8609H110ZM103.991 16.7115L104.465 14.7142H107.707L107.246 16.7115H109.498L109.023 19.2115H96.5976V16.7115H103.991Z" fill="white"/>
</mask>
<g mask="url(#mask0_2148_988)">
<path d="M26.3707 16.3991L25.2041 18.8311H21.8806L25.2719 11.861H28.5954L27.3067 14.5241L29.0159 14.7007L31.0642 18.8311H27.5916L26.3843 16.3991H26.3707ZM35.7035 24.5512H31.5797L29.0702 21.929L26.5606 24.5512H22.4368L26.3436 20.5023L25.8552 19.6464H30.9828L35.7171 24.5512H35.7035ZM36.4089 15.2306H34.8625V16.0322H36.4089V18.4643H34.8625V20.1355H31.5933V13.1654L30.8336 11.6572H34.8625V12.8121H36.4089V15.2442V15.2306Z" fill="white" stroke="white" stroke-width="1.08" stroke-miterlimit="10"/>
<path d="M42.0927 16.8203L44.3174 17.092L46.42 24.1301H43.1372L41.5094 18.6681L39.8409 24.1301H36.5581L40.3157 11.8474H43.5984L42.0791 16.8067L42.0927 16.8203ZM50.2861 24.5512H47.0169V13.1654L46.2572 11.6572H50.2861V24.5648V24.5512Z" fill="white" stroke="white" stroke-width="1.08" stroke-miterlimit="10"/>
<path d="M65.3569 18.4099H60.1614V19.7957H64.8414V24.5512H61.5722V22.024H52.2936V19.7957H56.8922V18.4099H51.6968V16.1816H65.3569V18.4099ZM61.5451 13.8718H52.687L52.3072 11.6436H63.1865C63.4171 11.6436 63.607 11.7251 63.7291 11.8881L64.5837 12.9479C64.7193 13.1109 64.7736 13.2876 64.76 13.4778L64.6108 15.5702L61.423 15.7604L61.5451 13.8582V13.8718Z" fill="white" stroke="white" stroke-width="1.08" stroke-miterlimit="10"/>
<path d="M74.6083 13.1654C74.744 13.3284 74.8118 13.4915 74.7847 13.6953L73.1704 23.9398L69.8877 24.2116L71.4884 14.429H66.9169L66.4692 11.861H73.1976C73.4417 11.861 73.6181 11.9426 73.7402 12.1056L74.5948 13.1654H74.6083ZM79.0984 16.5078H80.9433V19.0757H79.0984V24.5512H75.8292V13.1654L75.0696 11.6572H79.0984V16.5214V16.5078Z" fill="white" stroke="white" stroke-width="1.08" stroke-miterlimit="10"/>
<path d="M87.7124 14.3609H84.5788V21.6436H87.5632V24.1436H83.2901C83.0731 24.1436 82.8832 24.0756 82.7475 23.9262L81.9201 23.1109C81.7708 22.9615 81.703 22.7984 81.703 22.5946V13.3148L80.9434 11.8745H87.1291L87.7259 14.3745L87.7124 14.3609ZM92.216 11.6436H95.0376V24.5512H92.216V18.8854H90.968V24.5512H88.1465V13.0838L87.3868 11.6436H90.968V16.3854H92.216V11.6436Z" fill="white" stroke="white" stroke-width="1.08" stroke-miterlimit="10"/>
<path d="M98.7002 21.576V19.6331H101.82V21.576H104.316V19.6331H107.436V21.576H109.905V24.1439H96.2449V21.576H98.7137H98.7002ZM110 11.8613L109.525 14.3613H102.295V16.3586H99.0257V14.3613H96.5976V11.8613H110ZM103.991 16.7119L104.465 14.7146H107.707L107.246 16.7119H109.498L109.023 19.2119H96.5976V16.7119H103.991Z" fill="white" stroke="white" stroke-width="1.08" stroke-miterlimit="10"/>
<path d="M67.2834 2.39062C47.6003 2.39062 30.576 6.07269 22.4912 11.426C20.6463 13.7221 19.6561 17.8933 32.6515 20.6787C51.4257 24.6868 65.6149 19.3064 68.2194 17.8118C70.8375 16.3173 83.2632 13.5455 98.2934 15.6379C112.822 17.6624 114.897 22.7711 109.837 26.8471C114.436 24.4151 117.095 21.5482 117.095 18.4776C117.095 9.59171 94.7936 2.39062 67.2698 2.39062H67.2834Z" fill="white"/>
<path d="M98.3069 15.6241C83.2631 13.5317 70.8374 16.3034 68.2329 17.798C65.6148 19.2925 51.4257 24.6866 32.665 20.6648C19.656 17.8795 20.6598 13.7219 22.5047 11.4121C19.2898 13.5453 17.4856 15.9366 17.4856 18.4637C17.4856 27.3496 39.7867 34.5507 67.3105 34.5507C85.3386 34.5507 101.128 31.4529 109.878 26.8197C114.938 22.7436 112.862 17.6213 98.334 15.6105L98.3069 15.6241Z" fill="white"/>
</g>
</g>
<defs>
<clipPath id="clip0_2148_988">
<rect width="110" height="30" fill="white"/>
</clipPath>
</defs>
</svg>
