<svg width="92" height="18" viewBox="0 0 92 18" fill="none" xmlns="http://www.w3.org/2000/svg">
<path d="M9.00001 12.9562L5.88751 14.8312C5.75001 14.9187 5.60626 14.9562 5.45626 14.9437C5.30626 14.9312 5.17501 14.8812 5.06251 14.7937C4.95001 14.7062 4.86251 14.5968 4.80001 14.4655C4.73751 14.3343 4.72501 14.1874 4.76251 14.0249L5.58751 10.4812L2.83126 8.0999C2.70626 7.9874 2.62814 7.85928 2.59689 7.71553C2.56564 7.57178 2.57501 7.43115 2.62501 7.29365C2.67501 7.15615 2.75001 7.04365 2.85001 6.95615C2.95001 6.86865 3.08751 6.8124 3.26251 6.7874L6.90001 6.46865L8.30626 3.13115C8.36876 2.98115 8.46564 2.86865 8.59689 2.79365C8.72814 2.71865 8.86251 2.68115 9.00001 2.68115C9.13751 2.68115 9.27189 2.71865 9.40314 2.79365C9.53439 2.86865 9.63126 2.98115 9.69376 3.13115L11.1 6.46865L14.7375 6.7874C14.9125 6.8124 15.05 6.86865 15.15 6.95615C15.25 7.04365 15.325 7.15615 15.375 7.29365C15.425 7.43115 15.4344 7.57178 15.4031 7.71553C15.3719 7.85928 15.2938 7.9874 15.1688 8.0999L12.4125 10.4812L13.2375 14.0249C13.275 14.1874 13.2625 14.3343 13.2 14.4655C13.1375 14.5968 13.05 14.7062 12.9375 14.7937C12.825 14.8812 12.6938 14.9312 12.5438 14.9437C12.3938 14.9562 12.25 14.9187 12.1125 14.8312L9.00001 12.9562Z" fill="#E8B425"/>
<path d="M27.5001 12.9562L24.2146 14.8312C24.0695 14.9187 23.9178 14.9562 23.7594 14.9437C23.6011 14.9312 23.4626 14.8812 23.3438 14.7937C23.2251 14.7062 23.1327 14.5968 23.0667 14.4655C23.0007 14.3343 22.9876 14.1874 23.0271 14.0249L23.898 10.4812L20.9886 8.0999C20.8566 7.9874 20.7742 7.85928 20.7412 7.71553C20.7082 7.57178 20.7181 7.43115 20.7709 7.29365C20.8237 7.15615 20.9028 7.04365 21.0084 6.95615C21.1139 6.86865 21.2591 6.8124 21.4438 6.7874L25.2834 6.46865L26.7678 3.13115C26.8337 2.98115 26.936 2.86865 27.0745 2.79365C27.2131 2.71865 27.3549 2.68115 27.5001 2.68115C27.6452 2.68115 27.787 2.71865 27.9256 2.79365C28.0641 2.86865 28.1664 2.98115 28.2323 3.13115L29.7167 6.46865L33.5563 6.7874C33.741 6.8124 33.8862 6.86865 33.9917 6.95615C34.0973 7.04365 34.1764 7.15615 34.2292 7.29365C34.282 7.43115 34.2919 7.57178 34.2589 7.71553C34.2259 7.85928 34.1435 7.9874 34.0115 8.0999L31.1021 10.4812L31.973 14.0249C32.0126 14.1874 31.9994 14.3343 31.9334 14.4655C31.8674 14.5968 31.7751 14.7062 31.6563 14.7937C31.5376 14.8812 31.399 14.9312 31.2407 14.9437C31.0823 14.9562 30.9306 14.9187 30.7855 14.8312L27.5001 12.9562Z" fill="#E8B425"/>
<path d="M46 12.9562L42.8875 14.8312C42.75 14.9187 42.6063 14.9562 42.4563 14.9437C42.3063 14.9312 42.175 14.8812 42.0625 14.7937C41.95 14.7062 41.8625 14.5968 41.8 14.4655C41.7375 14.3343 41.725 14.1874 41.7625 14.0249L42.5875 10.4812L39.8313 8.0999C39.7063 7.9874 39.6281 7.85928 39.5969 7.71553C39.5656 7.57178 39.575 7.43115 39.625 7.29365C39.675 7.15615 39.75 7.04365 39.85 6.95615C39.95 6.86865 40.0875 6.8124 40.2625 6.7874L43.9 6.46865L45.3063 3.13115C45.3688 2.98115 45.4656 2.86865 45.5969 2.79365C45.7281 2.71865 45.8625 2.68115 46 2.68115C46.1375 2.68115 46.2719 2.71865 46.4031 2.79365C46.5344 2.86865 46.6313 2.98115 46.6938 3.13115L48.1 6.46865L51.7375 6.7874C51.9125 6.8124 52.05 6.86865 52.15 6.95615C52.25 7.04365 52.325 7.15615 52.375 7.29365C52.425 7.43115 52.4344 7.57178 52.4031 7.71553C52.3719 7.85928 52.2938 7.9874 52.1688 8.0999L49.4125 10.4812L50.2375 14.0249C50.275 14.1874 50.2625 14.3343 50.2 14.4655C50.1375 14.5968 50.05 14.7062 49.9375 14.7937C49.825 14.8812 49.6938 14.9312 49.5438 14.9437C49.3938 14.9562 49.25 14.9187 49.1125 14.8312L46 12.9562Z" fill="#E8B425"/>
<path d="M64.5001 12.9562L61.2146 14.8312C61.0695 14.9187 60.9178 14.9562 60.7594 14.9437C60.6011 14.9312 60.4626 14.8812 60.3438 14.7937C60.2251 14.7062 60.1327 14.5968 60.0667 14.4655C60.0007 14.3343 59.9876 14.1874 60.0271 14.0249L60.898 10.4812L57.9886 8.0999C57.8566 7.9874 57.7742 7.85928 57.7412 7.71553C57.7082 7.57178 57.7181 7.43115 57.7709 7.29365C57.8237 7.15615 57.9028 7.04365 58.0084 6.95615C58.1139 6.86865 58.2591 6.8124 58.4438 6.7874L62.2834 6.46865L63.7678 3.13115C63.8337 2.98115 63.936 2.86865 64.0745 2.79365C64.2131 2.71865 64.3549 2.68115 64.5001 2.68115C64.6452 2.68115 64.787 2.71865 64.9256 2.79365C65.0641 2.86865 65.1664 2.98115 65.2323 3.13115L66.7167 6.46865L70.5563 6.7874C70.741 6.8124 70.8862 6.86865 70.9917 6.95615C71.0973 7.04365 71.1764 7.15615 71.2292 7.29365C71.282 7.43115 71.2919 7.57178 71.2589 7.71553C71.2259 7.85928 71.1435 7.9874 71.0115 8.0999L68.1021 10.4812L68.973 14.0249C69.0126 14.1874 68.9994 14.3343 68.9334 14.4655C68.8674 14.5968 68.7751 14.7062 68.6563 14.7937C68.5376 14.8812 68.399 14.9312 68.2407 14.9437C68.0823 14.9562 67.9306 14.9187 67.7855 14.8312L64.5001 12.9562Z" fill="#E8B425"/>
<path d="M83 12.9562L79.8875 14.8312C79.75 14.9187 79.6063 14.9562 79.4563 14.9437C79.3063 14.9312 79.175 14.8812 79.0625 14.7937C78.95 14.7062 78.8625 14.5968 78.8 14.4655C78.7375 14.3343 78.725 14.1874 78.7625 14.0249L79.5875 10.4812L76.8313 8.0999C76.7063 7.9874 76.6281 7.85928 76.5969 7.71553C76.5656 7.57178 76.575 7.43115 76.625 7.29365C76.675 7.15615 76.75 7.04365 76.85 6.95615C76.95 6.86865 77.0875 6.8124 77.2625 6.7874L80.9 6.46865L82.3063 3.13115C82.3688 2.98115 82.4656 2.86865 82.5969 2.79365C82.7281 2.71865 82.8625 2.68115 83 2.68115C83.1375 2.68115 83.2719 2.71865 83.4031 2.79365C83.5344 2.86865 83.6313 2.98115 83.6938 3.13115L85.1 6.46865L88.7375 6.7874C88.9125 6.8124 89.05 6.86865 89.15 6.95615C89.25 7.04365 89.325 7.15615 89.375 7.29365C89.425 7.43115 89.4344 7.57178 89.4031 7.71553C89.3719 7.85928 89.2938 7.9874 89.1688 8.0999L86.4125 10.4812L87.2375 14.0249C87.275 14.1874 87.2625 14.3343 87.2 14.4655C87.1375 14.5968 87.05 14.7062 86.9375 14.7937C86.825 14.8812 86.6938 14.9312 86.5438 14.9437C86.3938 14.9562 86.25 14.9187 86.1125 14.8312L83 12.9562Z" fill="#E8B425"/>
</svg>
