<svg width="390" height="57" viewBox="0 0 390 57" fill="none" xmlns="http://www.w3.org/2000/svg">
<path d="M0 0.5H390" stroke="#444444"/>
<path d="M0 56.5H390" stroke="#444444"/>
<path d="M153.858 14.5C156.6 14.5 159.137 15.0333 161.468 16.1C163.799 17.1666 165.642 18.617 166.996 20.4512C168.35 22.2854 169.028 24.2861 169.028 26.4532C169.028 28.6204 168.35 30.6239 166.996 32.4637C165.642 34.3036 163.802 35.7568 161.477 36.8234C159.151 37.8901 156.612 38.4234 153.858 38.4234C152.988 38.4234 152.091 38.3613 151.166 38.2372C147.147 41.0251 145.008 42.4361 144.749 42.4699C144.625 42.5151 144.506 42.5094 144.393 42.453C144.348 42.4191 144.314 42.3739 144.292 42.3175C144.269 42.2611 144.258 42.2103 144.258 42.1651V42.0974C144.325 41.6572 144.839 39.8231 145.798 36.5949C143.62 35.5113 141.89 34.075 140.609 32.2859C139.328 30.4969 138.688 28.5527 138.688 26.4532C138.688 24.2861 139.365 22.2854 140.719 20.4512C142.074 18.617 143.916 17.1666 146.247 16.1C148.578 15.0333 151.115 14.5 153.858 14.5ZM146.171 29.6193V24.4215H147.508C147.689 24.4215 147.878 24.3566 148.076 24.2268C148.273 24.097 148.372 23.9192 148.372 23.6935C148.372 23.4677 148.282 23.2787 148.101 23.1263C147.92 22.9739 147.746 22.8977 147.576 22.8977H143.174C142.982 22.8977 142.802 22.9542 142.632 23.0671C142.463 23.1799 142.378 23.3662 142.378 23.6257C142.378 23.8854 142.469 24.0829 142.649 24.2184C142.83 24.3538 143.033 24.4215 143.259 24.4215H144.596V29.6193C144.596 29.9015 144.664 30.1329 144.8 30.3135C144.935 30.4941 145.127 30.5844 145.375 30.5844C145.624 30.5844 145.818 30.4828 145.959 30.2796C146.1 30.0764 146.171 29.8564 146.171 29.6193ZM153.502 30.5844C153.92 30.4264 154.049 30.0257 153.891 29.3823C153.846 29.2356 153.527 28.358 152.935 26.7495C152.342 25.1411 152.001 24.224 151.911 23.9982C151.606 23.2646 151.188 22.8977 150.658 22.8977C150.082 22.8977 149.636 23.2646 149.32 23.9982C149.23 24.1901 148.886 25.1242 148.287 26.8003C147.689 28.4765 147.379 29.3371 147.356 29.3823C147.277 29.4839 147.257 29.6701 147.297 29.941C147.336 30.2119 147.458 30.3981 147.661 30.4997C147.887 30.6013 148.107 30.6126 148.321 30.5336C148.536 30.4546 148.682 30.3361 148.761 30.1781L149.168 29.0606H152.114C152.238 29.4669 152.328 29.7322 152.385 29.8564C152.441 29.9692 152.503 30.0821 152.571 30.195C152.639 30.3079 152.763 30.4179 152.943 30.5251C153.124 30.6324 153.31 30.6521 153.502 30.5844ZM158.056 30.5844C158.293 30.5844 158.511 30.511 158.708 30.3643C158.906 30.2176 159.005 30.02 159.005 29.7717C159.005 29.5234 158.914 29.3287 158.734 29.1876C158.553 29.0465 158.327 28.9759 158.056 28.9759H156.177V23.8628C156.177 23.6257 156.107 23.4057 155.965 23.2025C155.824 22.9993 155.63 22.8977 155.381 22.8977C155.133 22.8977 154.941 22.9881 154.806 23.1686C154.67 23.3492 154.603 23.5806 154.603 23.8628V29.6193C154.603 29.9015 154.67 30.1329 154.806 30.3135C154.941 30.4941 155.133 30.5844 155.381 30.5844C155.393 30.5844 155.412 30.5816 155.441 30.5759C155.469 30.5702 155.489 30.5674 155.5 30.5674C155.511 30.5674 155.531 30.5702 155.559 30.5759C155.587 30.5816 155.607 30.5844 155.618 30.5844H158.056ZM164.727 30.4659C164.919 30.2852 165.015 30.0792 165.015 29.8479C165.015 29.6165 164.942 29.4105 164.795 29.2299C164.727 29.1283 164.016 28.1746 162.662 26.3686C163.316 25.7026 163.977 25.0367 164.643 24.3707C164.812 24.2014 164.916 24.0011 164.956 23.7697C164.995 23.5383 164.93 23.321 164.761 23.1179C164.569 22.9372 164.363 22.8639 164.143 22.8977C163.923 22.9316 163.717 23.0445 163.525 23.2364C163.491 23.2702 163.345 23.4198 163.085 23.685C162.825 23.9503 162.49 24.2917 162.078 24.7094C161.666 25.127 161.302 25.4994 160.986 25.8268V23.8628C160.986 23.6257 160.915 23.4057 160.774 23.2025C160.633 22.9993 160.438 22.8977 160.19 22.8977C159.941 22.8977 159.75 22.9881 159.614 23.1686C159.479 23.3492 159.411 23.5806 159.411 23.8628V29.6193C159.411 29.9015 159.479 30.1329 159.614 30.3135C159.75 30.4941 159.941 30.5844 160.19 30.5844C160.438 30.5844 160.633 30.4828 160.774 30.2796C160.915 30.0764 160.986 29.8564 160.986 29.6193V28.0786C161.031 28.0334 161.115 27.946 161.239 27.8162C161.364 27.6864 161.465 27.5819 161.544 27.5029C162.289 28.5188 162.955 29.4161 163.542 30.195C163.7 30.4094 163.884 30.5477 164.092 30.6098C164.301 30.6719 164.513 30.6239 164.727 30.4659ZM149.625 27.5368L150.658 24.5062L151.673 27.5368H149.625Z" fill="#CCCCCC"/>
<path d="M227.69 25.6904C227.371 25.6904 227.087 25.8164 226.873 26.0503C226.643 26.2841 226.536 26.572 226.536 26.9138C226.536 27.2556 226.643 27.5255 226.873 27.7774C227.104 28.0113 227.371 28.1372 227.69 28.1372C228.01 28.1372 228.294 28.0113 228.525 27.7774C228.756 27.5435 228.88 27.2556 228.88 26.9138C228.88 26.572 228.756 26.2841 228.525 26.0503C228.294 25.7984 228.028 25.6904 227.69 25.6904Z" fill="#CCCCCC"/>
<path d="M237.651 25.6719C237.332 25.6719 237.048 25.7978 236.834 26.0317C236.604 26.2656 236.497 26.5534 236.497 26.8953C236.497 27.2371 236.604 27.507 236.834 27.7588C237.065 27.9927 237.332 28.1187 237.651 28.1187C237.971 28.1187 238.255 27.9927 238.486 27.7588C238.717 27.5249 238.841 27.2371 238.841 26.8953C238.841 26.5534 238.717 26.2836 238.486 26.0317C238.273 25.7798 237.989 25.6719 237.651 25.6719Z" fill="#CCCCCC"/>
<path d="M244.31 25.6904C243.99 25.6904 243.706 25.8164 243.493 26.0503C243.262 26.2841 243.156 26.572 243.156 26.9138C243.156 27.2556 243.262 27.5255 243.493 27.7774C243.724 28.0113 243.99 28.1372 244.31 28.1372C244.629 28.1372 244.913 28.0113 245.144 27.7774C245.375 27.5435 245.499 27.2556 245.499 26.9138C245.499 26.572 245.375 26.2841 245.144 26.0503C244.913 25.7984 244.629 25.6904 244.31 25.6904Z" fill="#CCCCCC"/>
<path d="M247.257 16.8027H224.743C223.021 16.8027 221.6 18.242 221.6 19.9871V32.8867C221.6 34.6318 223.021 36.0711 224.743 36.0711H233.585C233.585 36.0711 235.29 40.8027 235.911 40.8027C236.533 40.8027 238.379 36.0711 238.379 36.0711H247.257C248.98 36.0711 250.4 34.6318 250.4 32.8867V19.9871C250.4 18.242 248.98 16.8027 247.257 16.8027ZM229.963 28.7128C229.519 29.2165 228.827 29.4324 228.081 29.4324C227.406 29.4324 226.909 29.2345 226.554 28.9467H226.536V29.3065H224.849V21.8402H226.536V24.7008H226.572C227.033 24.305 227.637 24.179 228.347 24.1431C228.951 24.1251 229.59 24.5029 229.981 24.9527C230.354 25.4024 230.638 26.1041 230.638 26.8777C230.638 27.7233 230.425 28.209 229.963 28.7128ZM233.603 29.3784H231.881C231.881 29.3784 231.881 25.4564 231.881 24.7548C231.881 23.6933 231.046 23.5494 231.046 23.5494V21.6963C231.046 21.6963 233.461 21.8402 233.603 24.8087C233.603 25.6543 233.603 29.3784 233.603 29.3784ZM240.368 27.9572C240.226 28.299 240.013 28.5868 239.729 28.8567C239.462 29.1086 239.143 29.3065 238.788 29.4504C238.433 29.5943 238.06 29.6663 237.669 29.6663C237.279 29.6663 236.906 29.5943 236.568 29.4504C236.213 29.3065 235.894 29.1086 235.627 28.8567C235.343 28.5868 235.13 28.281 234.988 27.9572C234.846 27.6333 234.775 27.2735 234.775 26.8957C234.775 26.5179 234.846 26.176 234.988 25.8342C235.13 25.5104 235.343 25.2045 235.627 24.9347C235.911 24.6828 236.213 24.4849 236.568 24.341C236.923 24.197 237.296 24.1251 237.669 24.1251C238.06 24.1251 238.433 24.197 238.788 24.341C239.143 24.4849 239.462 24.6828 239.729 24.9347C240.013 25.2045 240.208 25.4924 240.368 25.8342C240.51 26.176 240.581 26.5179 240.581 26.8957C240.581 27.2735 240.51 27.6153 240.368 27.9572ZM247.151 28.6948C247.151 30.0081 246.902 30.7997 246.334 31.3575C245.642 32.0231 244.665 32.0591 243.848 31.9512V30.6018C244.541 30.6738 245.482 30.206 245.482 29.3065V28.9647H245.464C245.073 29.5044 244.523 29.7023 243.759 29.7023C243.067 29.7023 242.463 29.4504 242.055 28.9647C241.646 28.4789 241.451 27.8312 241.451 27.0216C241.451 26.1041 241.682 25.3844 242.126 24.8447C242.588 24.305 243.227 24.0531 243.972 24.0531C244.629 24.0531 245.056 24.215 245.464 24.5928H245.482V24.179H247.169V28.6948H247.151Z" fill="#CCCCCC"/>
</svg>
