<svg width="48" height="48" viewBox="0 0 48 48" fill="none" xmlns="http://www.w3.org/2000/svg">
<rect width="48" height="48" rx="8" fill="#EDE9FE"/>
<path d="M31 25C31 25.5304 30.7893 26.0391 30.4142 26.4142C30.0391 26.7893 29.5304 27 29 27H17L13 31V15C13 14.4696 13.2107 13.9609 13.5858 13.5858C13.9609 13.2107 14.4696 13 15 13H29C29.5304 13 30.0391 13.2107 30.4142 13.5858C30.7893 13.9609 31 14.4696 31 15V25Z" stroke="#7C3AED" stroke-width="2" stroke-linecap="round" stroke-linejoin="round"/>
<path d="M31 21H33.5556C33.9386 21 34.306 21.1522 34.5769 21.4231C34.8478 21.694 35 22.0614 35 22.4444V34L32.1111 31.1111H23.4444C23.0614 31.1111 22.694 30.9589 22.4231 30.688C22.1522 30.4172 22 30.0498 22 29.6667V27" stroke="#7C3AED" stroke-width="2" stroke-linecap="round" stroke-linejoin="round"/>
</svg>
