<svg width="100" height="44" viewBox="0 0 100 44" fill="none" xmlns="http://www.w3.org/2000/svg">
<path d="M9.1409 35.5919H16.4429V21.2822C16.4429 20.6936 16.3189 20.4281 16.2808 20.3611C16.2191 20.3017 16.1629 20.2365 16.1132 20.1672C15.9803 19.9806 14.8043 18.3204 14.3403 17.4983C13.7768 16.5005 13.8005 15.3965 13.8224 15.0694V8.30456H11.7615L11.761 15.0694C11.7833 15.3965 11.807 16.5005 11.2431 17.4987C10.7796 18.3204 9.60305 19.9806 9.47068 20.1672C9.42098 20.2365 9.36478 20.3017 9.303 20.3611C9.26491 20.4281 9.14043 20.6936 9.14043 21.2822L9.1409 35.5919ZM16.6849 38.2781H8.89891C7.52452 38.2781 6.40653 37.1796 6.40653 35.8296L6.41024 34.4295C6.40745 34.387 6.40653 34.3432 6.40653 34.2981L6.40606 21.2822C6.40606 19.7164 6.94811 18.8957 7.30018 18.528C7.68523 17.9828 8.53847 16.7519 8.85199 16.1962C9.03593 15.8696 9.04429 15.386 9.03268 15.2423C9.02803 15.1976 9.02664 15.1656 9.02664 15.1205L9.0271 8.10063C9.0271 6.73288 10.1609 5.61879 11.5552 5.61879H14.0286C15.4225 5.61879 16.5567 6.73288 16.5567 8.10199V15.1205C16.5567 15.1656 16.5544 15.2103 16.5502 15.2555C16.5395 15.386 16.5474 15.8696 16.7318 16.1962C17.0454 16.7519 17.8981 17.9828 18.2832 18.528C18.6357 18.8957 19.1773 19.7164 19.1773 21.2822V34.4295V35.8301C19.1773 37.1796 18.0593 38.2781 16.6849 38.2781ZM6.21191 2.68576C4.29455 2.68576 2.73437 4.2182 2.73437 6.10147V37.795C2.73437 39.6787 4.29455 41.2112 6.21191 41.2112H15.6324C21.9976 41.2098 27.1765 36.1225 27.1765 29.87V28.375C27.1765 24.2795 24.922 20.4902 21.2935 18.486C20.9223 18.2811 20.6697 17.9185 20.6098 17.5042C20.5498 17.09 20.6901 16.6725 20.9883 16.3742C21.045 16.3176 21.1012 16.2596 21.156 16.2017C22.4375 14.8372 23.1444 13.0606 23.1444 11.2011V10.0642C23.1444 5.99563 19.7746 2.68576 15.6324 2.68576H6.21191ZM15.6324 43.8969H6.21191C2.78639 43.8969 0 41.1596 0 37.795V6.10147C0 2.73686 2.78639 8.44337e-07 6.21191 8.44337e-07H15.6324C21.2823 8.44337e-07 25.8788 4.51474 25.8788 10.0642V11.2011C25.8788 13.2974 25.2202 15.3162 24.0032 17.0065C27.6823 19.6224 29.9109 23.8475 29.9109 28.375V29.87C29.9109 37.6034 23.5058 43.8956 15.6324 43.8969Z" fill="white"/>
<path d="M87.0376 11.9318H81.9181H79.1629H74.0434C73.8692 11.9318 73.728 12.0705 73.728 12.2412V14.5852C73.728 14.7558 73.8692 14.8945 74.0434 14.8945H78.848V28.9406C78.848 29.1117 78.9892 29.2504 79.1629 29.2504H81.9181C82.0919 29.2504 82.2331 29.1117 82.2331 28.9406V14.8945H87.0376C87.2118 14.8945 87.3525 14.7558 87.3525 14.5852V12.2412C87.3525 12.0705 87.2118 11.9318 87.0376 11.9318Z" fill="white"/>
<path d="M99.6853 26.2915H92.8501V12.2513C92.8501 12.0807 92.7089 11.942 92.5347 11.942H89.7544C89.5807 11.942 89.4395 12.0807 89.4395 12.2513V26.6008V28.9307C89.4395 29.1018 89.5807 29.24 89.7544 29.24H92.5347H99.6853C99.8595 29.24 100 29.1018 100 28.9307V26.6008C100 26.4302 99.8595 26.2915 99.6853 26.2915Z" fill="white"/>
<path d="M50.094 24.4328C50.094 25.6637 49.0782 26.6614 47.8251 26.6614H43.9091C43.799 26.6614 43.7093 26.5734 43.7093 26.4652V22.0094C43.7093 21.9008 43.799 21.8132 43.9091 21.8132H47.8251C49.0782 21.8132 50.094 22.8109 50.094 24.0418V24.4328ZM43.7093 14.734C43.7093 14.6268 43.7981 14.5397 43.9072 14.5397H47.1302C48.3704 14.5397 49.375 15.5269 49.375 16.7446V17.0115C49.375 18.2291 48.3704 19.2164 47.1302 19.2164H43.9072C43.7981 19.2164 43.7093 19.1297 43.7093 19.0225V14.734ZM51.3021 20.3163C52.2274 19.4682 52.8094 18.2633 52.8094 16.9221V16.4827C52.8094 13.9165 50.6909 11.8357 48.0782 11.8357H40.6665C40.4933 11.8357 40.353 11.9739 40.353 12.1436V19.9226V21.2612V29.037C40.353 29.208 40.4942 29.3463 40.6679 29.3463H48.8023C51.4275 29.3463 53.5558 27.2559 53.5558 24.6773V24.2822C53.5558 22.6056 52.6533 21.1398 51.3021 20.3163Z" fill="white"/>
<path d="M69.5205 20.8922C69.5205 23.9356 67.076 26.4024 64.0606 26.4024C61.0452 26.4024 58.6007 23.9356 58.6007 20.8922V20.29C58.6007 17.2466 61.0452 14.7798 64.0606 14.7798C67.076 14.7798 69.5205 17.2466 69.5205 20.29V20.8922ZM64.0606 11.4448C59.3151 11.4448 55.4683 15.3277 55.4683 20.1171V21.0651C55.4683 25.8545 59.3151 29.7374 64.0606 29.7374C68.8062 29.7374 72.6534 25.8545 72.6534 21.0651V20.1171C72.6534 15.3277 68.8062 11.4448 64.0606 11.4448Z" fill="white"/>
</svg>
