<svg width="60" height="57" viewBox="0 0 60 57" fill="none" xmlns="http://www.w3.org/2000/svg">
<path d="M6 56.0444H54C54.7034 56.0444 55.283 55.797 55.7686 55.2886C56.2552 54.779 56.5 54.1605 56.5 53.4028V21.4897H59.5V3.14111C59.5 2.38357 59.2551 1.76583 58.7686 1.25635C58.2829 0.747837 57.7034 0.499512 57 0.499512H3C2.29656 0.499512 1.71708 0.747836 1.23145 1.25635C0.744947 1.76583 0.500039 2.38356 0.5 3.14111V21.4897H3.5V53.4028C3.5 54.1605 3.74483 54.779 4.23145 55.2886C4.71704 55.797 5.29664 56.0444 6 56.0444ZM5.5 5.78271H54.5V16.2065H5.5V5.78271ZM8.5 21.4897H51.5V50.7612H8.5V21.4897ZM38.5 34.0552V28.772H21.5V34.0552H38.5Z" fill="#00B0F0" stroke="#141414"/>
</svg>
