<svg width="65" height="64" viewBox="0 0 65 64" fill="none" xmlns="http://www.w3.org/2000/svg">
<path d="M0.333984 26.6662C0.333984 11.9386 12.2731 -0.000488281 27.0007 -0.000488281H37.6673C52.3949 -0.000488281 64.334 11.9386 64.334 26.6662V37.3328C64.334 52.0604 52.3949 63.9995 37.6673 63.9995H27.0007C12.2731 63.9995 0.333984 52.0604 0.333984 37.3328V26.6662Z" fill="#F3E8FF"/>
<path d="M41.1447 27.5555H42.3221C42.722 27.5555 43.0923 27.6555 43.433 27.8555C43.7736 28.0555 44.0439 28.3259 44.2439 28.6666C44.4438 29.0074 44.5438 29.3777 44.5438 29.7777V34.2222C44.5438 34.6222 44.4438 34.9925 44.2439 35.3333C44.0439 35.674 43.7736 35.9444 43.433 36.1444C43.0923 36.3444 42.722 36.4444 42.3221 36.4444H41.1447C40.9669 37.8962 40.4633 39.2148 39.6339 40.3999C38.8045 41.5851 37.7603 42.5111 36.5014 43.1777C35.198 43.874 33.8057 44.2222 32.3246 44.2222V41.9999C33.5243 41.9999 34.6426 41.6962 35.6794 41.0888C36.6865 40.4962 37.4863 39.6962 38.0788 38.6888C38.686 37.6518 38.9896 36.5333 38.9896 35.3333V28.6666C38.9896 27.4666 38.686 26.3481 38.0788 25.3111C37.4863 24.3036 36.6865 23.5036 35.6794 22.9111C34.6426 22.3036 33.5243 21.9999 32.3246 21.9999C31.1249 21.9999 30.0067 22.3036 28.9699 22.9111C27.9628 23.5036 27.163 24.3036 26.5705 25.3111C25.9633 26.3481 25.6596 27.4666 25.6596 28.6666V36.4444H22.3271C21.9272 36.4444 21.557 36.3444 21.2163 36.1444C20.8756 35.9444 20.6053 35.674 20.4054 35.3333C20.2054 34.9925 20.1055 34.6222 20.1055 34.2222V29.7777C20.1055 29.3777 20.2054 29.0074 20.4054 28.6666C20.6053 28.3259 20.8756 28.0555 21.2163 27.8555C21.557 27.6555 21.9272 27.5555 22.3271 27.5555H23.5046C23.6824 26.1036 24.1859 24.7851 25.0154 23.5999C25.8448 22.4148 26.889 21.4888 28.1479 20.8222C29.4513 20.1259 30.8435 19.7777 32.3246 19.7777C33.8057 19.7777 35.198 20.1259 36.5014 20.8222C37.7603 21.4888 38.8045 22.4148 39.6339 23.5999C40.4633 24.7851 40.9669 26.1036 41.1447 27.5555ZM22.3271 29.7777V34.2222H23.438V29.7777H22.3271ZM41.2113 29.7777V34.2222H42.3221V29.7777H41.2113ZM27.6147 36.1999L28.7922 34.3111C29.8734 34.9925 31.0509 35.3333 32.3246 35.3333C33.5984 35.3333 34.7759 34.9925 35.8571 34.3111L37.0346 36.1999C36.3384 36.6444 35.5905 36.9814 34.7907 37.2111C33.9909 37.4407 33.1689 37.5555 32.3246 37.5555C31.4804 37.5555 30.6584 37.4407 29.8586 37.2111C29.0588 36.9814 28.3108 36.6444 27.6147 36.1999Z" fill="#9333EA"/>
</svg>
