<svg width="65" height="65" viewBox="0 0 65 65" fill="none" xmlns="http://www.w3.org/2000/svg">
<path d="M0.333984 26.9997C0.333984 12.2721 12.2731 0.333008 27.0007 0.333008H37.6673C52.3949 0.333008 64.334 12.2721 64.334 26.9997V37.6663C64.334 52.3939 52.3949 64.333 37.6673 64.333H27.0007C12.2731 64.333 0.333984 52.3939 0.333984 37.6663V26.9997Z" fill="#DBEAFE"/>
<path d="M21.2158 23.4446C21.2158 23.1335 21.3232 22.8705 21.538 22.6557C21.7527 22.4409 22.0156 22.3335 22.3267 22.3335H42.3217C42.6327 22.3335 42.8956 22.4409 43.1103 22.6557C43.3251 22.8705 43.4325 23.1335 43.4325 23.4446V41.2224C43.4325 41.5335 43.3251 41.7965 43.1103 42.0113C42.8956 42.2261 42.6327 42.3335 42.3217 42.3335H22.3267C22.0156 42.3335 21.7527 42.2261 21.538 42.0113C21.3232 41.7965 21.2158 41.5335 21.2158 41.2224V23.4446ZM23.4375 24.5557V40.1113H41.2108V24.5557H23.4375ZM32.3242 35.6668C32.9314 35.6668 33.4905 35.5187 34.0015 35.2224C34.5125 34.9261 34.9161 34.5224 35.2123 34.0113C35.5085 33.5002 35.6567 32.9409 35.6567 32.3335C35.6567 31.7261 35.5085 31.1668 35.2123 30.6557C34.9161 30.1446 34.5125 29.7409 34.0015 29.4446C33.4905 29.1483 32.9314 29.0002 32.3242 29.0002C31.7169 29.0002 31.1578 29.1483 30.6468 29.4446C30.1358 29.7409 29.7322 30.1446 29.436 30.6557C29.1398 31.1668 28.9917 31.7261 28.9917 32.3335C28.9917 32.9409 29.1398 33.5002 29.436 34.0113C29.7322 34.5224 30.1358 34.9261 30.6468 35.2224C31.1578 35.5187 31.7169 35.6668 32.3242 35.6668ZM32.3242 37.8891C31.317 37.8891 30.3876 37.6409 29.536 37.1446C28.6843 36.6483 28.0104 35.9742 27.5142 35.1224C27.0181 34.2705 26.77 33.3409 26.77 32.3335C26.77 31.3261 27.0181 30.3965 27.5142 29.5446C28.0104 28.6928 28.6843 28.0187 29.536 27.5224C30.3876 27.0261 31.317 26.7779 32.3242 26.7779C33.3313 26.7779 34.2607 27.0261 35.1123 27.5224C35.964 28.0187 36.6379 28.6928 37.1341 29.5446C37.6302 30.3965 37.8783 31.3261 37.8783 32.3335C37.8783 33.3409 37.6302 34.2705 37.1341 35.1224C36.6379 35.9742 35.964 36.6483 35.1123 37.1446C34.2607 37.6409 33.3313 37.8891 32.3242 37.8891ZM37.8783 25.6668H40.1V27.8891H37.8783V25.6668Z" fill="#2563EB"/>
</svg>
