<svg width="65" height="64" viewBox="0 0 65 64" fill="none" xmlns="http://www.w3.org/2000/svg">
<path d="M0.333984 26.6664C0.333984 11.9388 12.2731 -0.000244141 27.0007 -0.000244141H37.6673C52.3949 -0.000244141 64.334 11.9388 64.334 26.6664V37.3331C64.334 52.0607 52.3949 63.9998 37.6673 63.9998H27.0007C12.2731 63.9998 0.333984 52.0607 0.333984 37.3331V26.6664Z" fill="#FEE2E2"/>
<path d="M33.435 21.4441V22.8663L38.9892 24.7107L43.0326 23.3774L43.7213 25.4885L40.3666 26.5996L43.788 36.0663C43.1807 36.7033 42.4624 37.2033 41.6329 37.5663C40.8035 37.9293 39.9223 38.1107 38.9892 38.1107C38.0561 38.1107 37.1748 37.9293 36.3454 37.5663C35.5159 37.2033 34.7976 36.7033 34.1904 36.0663L37.6117 26.5996L33.435 25.1996V40.333H37.8783V42.5552H26.77V40.333H31.2133V25.1996L27.0366 26.5996L30.458 36.0663C29.8507 36.7033 29.1324 37.2033 28.3029 37.5663C27.4735 37.9293 26.5923 38.1107 25.6592 38.1107C24.7261 38.1107 23.8448 37.9293 23.0154 37.5663C22.1859 37.2033 21.4676 36.7033 20.8604 36.0663L24.2817 26.5996L20.927 25.4885L21.6157 23.3774L25.6592 24.7107L31.2133 22.8663V21.4441H33.435ZM38.9892 29.333L36.8119 35.3107C37.4784 35.6959 38.2042 35.8885 38.9892 35.8885C39.7741 35.8885 40.4999 35.6959 41.1664 35.3107L38.9892 29.333ZM25.6592 29.333L23.4819 35.3107C24.1484 35.6959 24.8742 35.8885 25.6592 35.8885C26.4441 35.8885 27.1699 35.6959 27.8364 35.3107L25.6592 29.333Z" fill="#DC2626"/>
</svg>
