<svg width="65" height="65" viewBox="0 0 65 65" fill="none" xmlns="http://www.w3.org/2000/svg">
<path d="M0.333984 27.3332C0.333984 12.6056 12.2731 0.666504 27.0007 0.666504H37.6673C52.3949 0.666504 64.334 12.6056 64.334 27.3332V37.9998C64.334 52.7274 52.3949 64.6665 37.6673 64.6665H27.0007C12.2731 64.6665 0.333984 52.7274 0.333984 37.9998V27.3332Z" fill="#DCFCE7"/>
<path d="M28.1699 37.6661C28.4365 37.7106 28.7105 37.755 28.9919 37.7995C29.688 37.9328 30.3915 38.0883 31.1025 38.2661C32.1096 38.518 33.0501 38.7995 33.924 39.1106C35.02 39.4958 35.9901 39.918 36.8344 40.3772C37.8267 40.9106 38.6413 41.4883 39.2782 42.1106H40.389C40.6853 42.1106 40.9408 42.0032 41.1555 41.7883C41.3703 41.5735 41.4777 41.3106 41.4777 40.9995V34.2661C41.9664 34.1328 42.37 33.8698 42.6885 33.4772C43.0069 33.0846 43.1624 32.6291 43.155 32.1106C43.1476 31.5921 42.9884 31.1365 42.6774 30.7439C42.3663 30.3513 41.9738 30.0883 41.4999 29.955V23.2217C41.4999 22.9106 41.3888 22.6476 41.1666 22.4328C40.9445 22.218 40.6779 22.1106 40.3668 22.1106H39.2782C38.6561 22.7328 37.8415 23.3106 36.8344 23.8439C35.9901 24.3032 35.02 24.7254 33.924 25.1106C33.0501 25.4217 32.1096 25.7032 31.1025 25.955C30.3915 26.1328 29.688 26.2883 28.9919 26.4217L28.1699 26.555H23.7265C23.3118 26.555 22.9342 26.655 22.5935 26.855C22.2528 27.055 21.9862 27.3254 21.7937 27.6661C21.6012 28.0069 21.5049 28.3772 21.5049 28.7772V35.4439C21.5049 35.8439 21.6012 36.2143 21.7937 36.555C21.9862 36.8958 22.2528 37.1661 22.5935 37.3661C22.9342 37.5661 23.3044 37.6661 23.7043 37.6661H24.8374L25.9482 43.2217H28.1699V37.6661ZM30.3915 28.3995C31.3098 28.2069 32.2059 27.9772 33.0798 27.7106C35.6273 26.9698 37.686 26.0587 39.256 24.9772V39.2439C37.686 38.1624 35.6273 37.2513 33.0798 36.5106C32.2059 36.2439 31.3024 36.0143 30.3693 35.8217V28.3995H30.3915ZM23.7265 28.7772H28.1699V35.4439H23.7265V28.7772Z" fill="#16A34A"/>
</svg>
