<svg width="86" height="86" viewBox="0 0 86 86" fill="none" xmlns="http://www.w3.org/2000/svg">
<path d="M0.334961 32C0.334961 14.3269 14.6619 0 32.335 0H53.6683C71.3414 0 85.6683 14.3269 85.6683 32V53.3333C85.6683 71.0064 71.3414 85.3333 53.6683 85.3333H32.335C14.6619 85.3333 0.334961 71.0064 0.334961 53.3333V32Z" fill="#F3E8FF"/>
<path d="M44.335 49.2532V51.9998H51.0016V54.6665H35.0016V51.9998H41.6683V49.2532C39.9261 49.0398 38.3439 48.4354 36.9216 47.4398C35.4994 46.4443 34.3883 45.1909 33.5883 43.6798C32.7527 42.1154 32.335 40.4443 32.335 38.6665V30.6665H53.6683V38.6665C53.6683 40.4443 53.2505 42.1154 52.415 43.6798C51.615 45.1909 50.5039 46.4443 49.0816 47.4398C47.6594 48.4354 46.0772 49.0398 44.335 49.2532ZM35.0016 33.3332V38.6665C35.0016 40.1065 35.3661 41.4487 36.095 42.6932C36.8061 43.9021 37.7661 44.8621 38.975 45.5732C40.2194 46.3021 41.5616 46.6665 43.0016 46.6665C44.4416 46.6665 45.7838 46.3021 47.0283 45.5732C48.2372 44.8621 49.1972 43.9021 49.9083 42.6932C50.6372 41.4487 51.0016 40.1065 51.0016 38.6665V33.3332H35.0016ZM28.335 33.3332H31.0016V38.6665H28.335V33.3332ZM55.0016 33.3332H57.6683V38.6665H55.0016V33.3332Z" fill="#9333EA"/>
</svg>
