<svg width="86" height="86" viewBox="0 0 86 86" fill="none" xmlns="http://www.w3.org/2000/svg">
<path d="M0.667969 32C0.667969 14.3269 14.9949 0 32.668 0H54.0013C71.6744 0 86.0013 14.3269 86.0013 32V53.3333C86.0013 71.0064 71.6744 85.3333 54.0013 85.3333H32.668C14.9949 85.3333 0.667969 71.0064 0.667969 53.3333V32Z" fill="#DBEAFE"/>
<path d="M41.4948 45.3065V47.9732C40.0548 47.9732 38.7126 48.3376 37.4681 49.0665C36.2592 49.7776 35.2992 50.7288 34.5881 51.9199C33.8592 53.1643 33.4948 54.5154 33.4948 55.9732H30.8281C30.8281 54.0354 31.317 52.2399 32.2948 50.5865C33.237 48.9688 34.5081 47.6888 36.1081 46.7465C37.7615 45.7865 39.557 45.3065 41.4948 45.3065ZM41.4948 43.9732C40.0548 43.9732 38.7126 43.6088 37.4681 42.8799C36.2592 42.1688 35.2992 41.2088 34.5881 39.9999C33.8592 38.7554 33.4948 37.4088 33.4948 35.9599C33.4948 34.511 33.8592 33.1643 34.5881 31.9199C35.2992 30.7288 36.2592 29.7776 37.4681 29.0665C38.7126 28.3376 40.0592 27.9732 41.5081 27.9732C42.957 27.9732 44.3037 28.3376 45.5481 29.0665C46.7392 29.7776 47.6903 30.7288 48.4015 31.9199C49.1303 33.1643 49.4948 34.511 49.4948 35.9599C49.4948 37.4088 49.1303 38.7554 48.4015 39.9999C47.6903 41.2088 46.7392 42.1688 45.5481 42.8799C44.3037 43.6088 42.9526 43.9732 41.4948 43.9732ZM41.4948 41.3065C42.4548 41.3065 43.3437 41.0665 44.1615 40.5865C44.9792 40.1065 45.6281 39.4576 46.1081 38.6399C46.5881 37.8221 46.8281 36.9332 46.8281 35.9732C46.8281 35.0132 46.5881 34.1243 46.1081 33.3065C45.6281 32.4888 44.9792 31.8399 44.1615 31.3599C43.3437 30.8799 42.4548 30.6399 41.4948 30.6399C40.5348 30.6399 39.6459 30.8799 38.8281 31.3599C38.0103 31.8399 37.3615 32.4888 36.8815 33.3065C36.4015 34.1243 36.1615 35.0132 36.1615 35.9732C36.1615 36.9332 36.4015 37.8221 36.8815 38.6399C37.3615 39.4576 38.0103 40.1065 38.8281 40.5865C39.6459 41.0665 40.5348 41.3065 41.4948 41.3065ZM49.4948 55.3065L45.5748 57.3599L46.3215 52.9865L43.1481 49.9199L47.5481 49.2799L49.4948 45.3065L51.4681 49.2799L55.8415 49.9199L52.6681 52.9865L53.4148 57.3599L49.4948 55.3065Z" fill="#2563EB"/>
</svg>
