<svg width="86" height="86" viewBox="0 0 86 86" fill="none" xmlns="http://www.w3.org/2000/svg">
<path d="M0.000976562 32C0.000976562 14.3269 14.3279 0 32.001 0H53.3343C71.0074 0 85.3343 14.3269 85.3343 32V53.3333C85.3343 71.0064 71.0074 85.3333 53.3343 85.3333H32.001C14.3279 85.3333 0.000976562 71.0064 0.000976562 53.3333V32Z" fill="#DCFCE7"/>
<path d="M42.6673 55.9998C40.854 55.9998 39.1207 55.6531 37.4673 54.9598C35.8851 54.2842 34.4762 53.3286 33.2407 52.0931C32.0051 50.8575 31.0495 49.4486 30.374 47.8664C29.6807 46.2131 29.334 44.4798 29.334 42.6664C29.334 40.8531 29.6807 39.1198 30.374 37.4664C31.0495 35.8842 32.0051 34.4753 33.2407 33.2398C34.4762 32.0042 35.8851 31.0486 37.4673 30.3731C39.1207 29.6798 40.854 29.3331 42.6673 29.3331C44.4806 29.3331 46.214 29.6798 47.8673 30.3731C49.4495 31.0486 50.8584 32.0042 52.094 33.2398C53.3295 34.4753 54.2851 35.8842 54.9606 37.4664C55.654 39.1198 56.0007 40.8531 56.0007 42.6664C56.0007 44.4798 55.654 46.2131 54.9606 47.8664C54.2851 49.4486 53.3295 50.8575 52.094 52.0931C50.8584 53.3286 49.4495 54.2842 47.8673 54.9598C46.214 55.6531 44.4806 55.9998 42.6673 55.9998ZM42.6673 53.3331C44.6051 53.3331 46.4007 52.8442 48.054 51.8664C49.654 50.9242 50.9251 49.6531 51.8673 48.0531C52.8451 46.3998 53.334 44.6042 53.334 42.6664C53.334 40.7286 52.8451 38.9331 51.8673 37.2798C50.9251 35.6798 49.654 34.4086 48.054 33.4664C46.4007 32.4886 44.6051 31.9998 42.6673 31.9998C40.7295 31.9998 38.934 32.4886 37.2807 33.4664C35.6807 34.4086 34.4095 35.6798 33.4673 37.2798C32.4895 38.9331 32.0007 40.7286 32.0007 42.6664C32.0007 44.6042 32.4895 46.3998 33.4673 48.0531C34.4095 49.6531 35.6807 50.9242 37.2807 51.8664C38.934 52.8442 40.7295 53.3331 42.6673 53.3331ZM38.0007 45.3331H45.334C45.5118 45.3331 45.6673 45.2664 45.8006 45.1331C45.934 44.9998 46.0007 44.8442 46.0007 44.6664C46.0007 44.4886 45.934 44.3331 45.8006 44.1998C45.6673 44.0664 45.5118 43.9998 45.334 43.9998H40.0007C39.3962 43.9998 38.8407 43.8486 38.334 43.5464C37.8273 43.2442 37.4229 42.8398 37.1207 42.3331C36.8184 41.8264 36.6673 41.2709 36.6673 40.6664C36.6673 40.062 36.8184 39.5064 37.1207 38.9998C37.4229 38.4931 37.8273 38.0886 38.334 37.7864C38.8407 37.4842 39.3962 37.3331 40.0007 37.3331H41.334V34.6664H44.0007V37.3331H47.334V39.9998H40.0007C39.8229 39.9998 39.6673 40.0664 39.534 40.1998C39.4007 40.3331 39.334 40.4886 39.334 40.6664C39.334 40.8442 39.4007 40.9998 39.534 41.1331C39.6673 41.2664 39.8229 41.3331 40.0007 41.3331H45.334C45.9384 41.3331 46.494 41.4842 47.0007 41.7864C47.5073 42.0886 47.9118 42.4931 48.214 42.9998C48.5162 43.5064 48.6673 44.062 48.6673 44.6664C48.6673 45.2709 48.5162 45.8264 48.214 46.3331C47.9118 46.8398 47.5073 47.2442 47.0007 47.5464C46.494 47.8486 45.9384 47.9998 45.334 47.9998H44.0007V50.6664H41.334V47.9998H38.0007V45.3331Z" fill="#16A34A"/>
</svg>
