<svg width="64" height="64" viewBox="0 0 64 64" fill="none" xmlns="http://www.w3.org/2000/svg">
<path d="M0 24C0 10.7452 10.7452 0 24 0H40C53.2548 0 64 10.7452 64 24V40C64 53.2548 53.2548 64 40 64H24C10.7452 64 0 53.2548 0 40V24Z" fill="#097BF8"/>
<path d="M45.7691 25.8172L38.1829 18.2322C37.9507 17.9998 37.675 17.8154 37.3715 17.6896C37.068 17.5638 36.7427 17.499 36.4141 17.499C36.0856 17.499 35.7603 17.5638 35.4568 17.6896C35.1533 17.8154 34.8776 17.9998 34.6454 18.2322L28.1504 24.7497C26.5966 24.3335 23.5654 24.0347 20.4329 26.5622C20.1593 26.7823 19.9352 27.0576 19.7751 27.37C19.615 27.6825 19.5225 28.0252 19.5036 28.3757C19.4847 28.7263 19.5399 29.0769 19.6656 29.4048C19.7912 29.7326 19.9845 30.0303 20.2329 30.2785L25.9154 35.9622L20.9404 40.9372C20.6586 41.219 20.5003 41.6012 20.5003 41.9997C20.5003 42.3983 20.6586 42.7804 20.9404 43.0622C21.2222 43.344 21.6044 43.5023 22.0029 43.5023C22.4014 43.5023 22.7836 43.344 23.0654 43.0622L28.0404 38.086L33.7241 43.7685C34.1924 44.2363 34.8272 44.4993 35.4891 44.4997C35.5466 44.4997 35.6054 44.4997 35.6641 44.4935C36.0209 44.4677 36.368 44.3657 36.682 44.1942C36.996 44.0228 37.2695 43.786 37.4841 43.4997C38.0704 42.721 38.8591 41.4835 39.2891 39.9997C39.7191 38.516 39.7204 37.1397 39.3091 35.8247L45.7716 29.341C46.2365 28.8723 46.4972 28.2388 46.4967 27.5786C46.4963 26.9184 46.2347 26.2853 45.7691 25.8172ZM36.4866 34.416C36.2647 34.6387 36.1184 34.9256 36.0684 35.2361C36.0183 35.5465 36.0671 35.8648 36.2079 36.146C36.6366 37.0035 37.0704 38.771 35.4229 41.2272L22.7604 28.566C25.3966 26.7422 27.7016 27.736 27.8854 27.816C28.1654 27.9614 28.4849 28.012 28.7962 27.9604C29.1074 27.9088 29.3935 27.7577 29.6116 27.5297L36.4154 20.7035L43.2904 27.5785L36.4866 34.416Z" fill="white"/>
</svg>
