<svg width="64" height="64" viewBox="0 0 64 64" fill="none" xmlns="http://www.w3.org/2000/svg">
<path d="M0 24C0 10.7452 10.7452 0 24 0H40C53.2548 0 64 10.7452 64 24V40C64 53.2548 53.2548 64 40 64H24C10.7452 64 0 53.2548 0 40V24Z" fill="#097BF8"/>
<path d="M46.3925 32.4425L42.3925 22.4425C42.2602 22.1126 42.0151 21.8404 41.7007 21.6744C41.3864 21.5084 41.0233 21.4595 40.6763 21.5363L33.5 23.125V21C33.5 20.6022 33.342 20.2206 33.0607 19.9393C32.7794 19.658 32.3979 19.5 32 19.5C31.6022 19.5 31.2207 19.658 30.9394 19.9393C30.6581 20.2206 30.5 20.6022 30.5 21V23.7962L22.675 25.5363C22.4368 25.5891 22.2151 25.6992 22.029 25.8572C21.843 26.0151 21.6983 26.216 21.6075 26.4425L17.6075 36.4325C17.5353 36.6129 17.4988 36.8057 17.5 37C17.5 38.5163 18.275 39.8037 19.6813 40.625C20.6958 41.1926 21.8376 41.4936 23 41.5C24.1625 41.4936 25.3043 41.1926 26.3188 40.625C27.725 39.8037 28.5 38.5163 28.5 37C28.5 36.809 28.4635 36.6198 28.3925 36.4425L25.0475 28.0813L30.5 26.875V41.5H29C28.6022 41.5 28.2207 41.658 27.9394 41.9393C27.6581 42.2206 27.5 42.6022 27.5 43C27.5 43.3978 27.6581 43.7794 27.9394 44.0607C28.2207 44.342 28.6022 44.5 29 44.5H35C35.3979 44.5 35.7794 44.342 36.0607 44.0607C36.342 43.7794 36.5 43.3978 36.5 43C36.5 42.6022 36.342 42.2206 36.0607 41.9393C35.7794 41.658 35.3979 41.5 35 41.5H33.5V26.2037L38.5525 25.0787L35.6075 32.4412C35.5364 32.6189 35.4999 32.8086 35.5 33C35.5 34.5162 36.275 35.8037 37.6813 36.625C38.6931 37.1994 39.8366 37.5013 41 37.5013C42.1635 37.5013 43.307 37.1994 44.3188 36.625C45.725 35.8037 46.5 34.5162 46.5 33C46.5 32.809 46.4635 32.6198 46.3925 32.4425ZM23 38.5C22.5363 38.5 20.75 38.2663 20.5238 37.2275L23 31.0387L25.4763 37.2275C25.25 38.2663 23.4638 38.5 23 38.5ZM41 34.5C40.5363 34.5 38.75 34.2663 38.5238 33.2275L41 27.0387L43.4763 33.2275C43.25 34.2663 41.4638 34.5 41 34.5Z" fill="white"/>
</svg>
