<svg width="108" height="107" viewBox="0 0 108 107" fill="none" xmlns="http://www.w3.org/2000/svg">
<path d="M0.666992 53.6668C0.666992 24.2116 24.5451 0.333496 54.0003 0.333496C83.4555 0.333496 107.334 24.2116 107.334 53.6668C107.334 83.122 83.4555 107 54.0003 107C24.5451 107 0.666992 83.122 0.666992 53.6668Z" fill="#EFF6FF"/>
<path d="M70.667 38.667C71.1337 38.667 71.5281 38.8281 71.8503 39.1503C72.1726 39.4725 72.3337 39.867 72.3337 40.3337V67.0003C72.3337 67.467 72.1726 67.8614 71.8503 68.1837C71.5281 68.5059 71.1337 68.667 70.667 68.667H40.667C40.2003 68.667 39.8059 68.5059 39.4837 68.1837C39.1614 67.8614 39.0003 67.467 39.0003 67.0003V65.3337H69.0003V45.8337L55.667 57.8337L39.0003 42.8337V40.3337C39.0003 39.867 39.1614 39.4725 39.4837 39.1503C39.8059 38.8281 40.2003 38.667 40.667 38.667H70.667ZM49.0003 58.667V62.0003H35.667V58.667H49.0003ZM44.0003 50.3337V53.667H35.667V50.3337H44.0003ZM68.267 42.0003H43.067L55.667 53.3337L68.267 42.0003Z" fill="#2563EB"/>
</svg>
