<svg width="44" height="44" viewBox="0 0 44 44" fill="none" xmlns="http://www.w3.org/2000/svg">
<path d="M0 16C0 7.16344 7.16344 0 16 0H28C36.8366 0 44 7.16344 44 16V28C44 36.8366 36.8366 44 28 44H16C7.16344 44 0 36.8366 0 28V16Z" fill="#1F325E"/>
<path fill-rule="evenodd" clip-rule="evenodd" d="M30 13C31.6569 13 33 14.3431 33 16V28C33 29.6569 31.6569 31 30 31H14C12.3431 31 11 29.6569 11 28V16C11 14.3431 12.3431 13 14 13H30ZM13 28C13 28.5523 13.4477 29 14 29H30C30.5523 29 31 28.5523 31 28V18.8223L23.5459 23.5703C23.5346 23.5775 23.5233 23.5851 23.5117 23.5918C23.0542 23.8575 22.534 23.997 22.0049 23.9971C21.4758 23.9971 20.9556 23.8575 20.498 23.5918C20.4864 23.585 20.4743 23.5775 20.4629 23.5703L13 18.8213V28ZM14 15C13.4477 15 13 15.4477 13 16V16.4502L21.5078 21.8652C21.659 21.9518 21.8306 21.9971 22.0049 21.9971C22.1787 21.997 22.3491 21.9514 22.5 21.8652L31 16.4502V16C31 15.4477 30.5523 15 30 15H14Z" fill="white"/>
</svg>
