<svg width="64" height="64" viewBox="0 0 64 64" fill="none" xmlns="http://www.w3.org/2000/svg">
<path d="M0 24C0 10.7452 10.7452 0 24 0H40C53.2548 0 64 10.7452 64 24V40C64 53.2548 53.2548 64 40 64H24C10.7452 64 0 53.2548 0 40V24Z" fill="#6957D0"/>
<path d="M37.3113 30.7388L30.3112 26.2388C30.0847 26.0931 29.8231 26.0111 29.5539 26.0014C29.2847 25.9917 29.0179 26.0547 28.7815 26.1837C28.545 26.3128 28.3477 26.5031 28.2102 26.7347C28.0727 26.9663 28.0001 27.2307 28 27.5V36.5C28.0001 36.7694 28.0727 37.0337 28.2102 37.2653C28.3477 37.4969 28.545 37.6872 28.7815 37.8163C29.0179 37.9453 29.2847 38.0083 29.5539 37.9986C29.8231 37.9889 30.0847 37.9069 30.3112 37.7613L37.3113 33.2613C37.5223 33.1254 37.6959 32.9387 37.8161 32.7184C37.9363 32.498 37.9993 32.251 37.9993 32C37.9993 31.749 37.9363 31.502 37.8161 31.2816C37.6959 31.0613 37.5223 30.8746 37.3113 30.7388ZM31 33.75V30.25L33.7262 32L31 33.75ZM45.7763 24.5625C45.6382 24.0246 45.3743 23.5272 45.0064 23.1113C44.6385 22.6953 44.177 22.3727 43.66 22.17C39.3 20.4888 32.4112 20.5 32 20.5C31.5888 20.5 24.7 20.4888 20.34 22.1725C19.823 22.3752 19.3615 22.6978 18.9936 23.1138C18.6257 23.5297 18.3618 24.0271 18.2238 24.565C17.8938 25.84 17.5 28.165 17.5 32C17.5 35.835 17.8938 38.16 18.2238 39.435C18.3618 39.9729 18.6257 40.4703 18.9936 40.8862C19.3615 41.3022 19.823 41.6248 20.34 41.8275C24.5263 43.4438 31.045 43.5 31.9213 43.5H32.0788C32.9538 43.5 39.4737 43.4438 43.66 41.8275C44.177 41.6248 44.6385 41.3022 45.0064 40.8862C45.3743 40.4703 45.6382 39.9729 45.7763 39.435C46.1063 38.16 46.5 35.835 46.5 32C46.5 28.165 46.1063 25.84 45.7763 24.565V24.5625ZM42.875 38.6825C42.857 38.7592 42.8211 38.8305 42.7702 38.8907C42.7194 38.9508 42.6551 38.9982 42.5825 39.0288C38.8475 40.47 32.5338 40.5 32.04 40.5H31.9913C31.925 40.5 25.2862 40.5213 21.4212 39.0288C21.348 38.9986 21.2829 38.9515 21.2314 38.8913C21.1799 38.8311 21.1434 38.7596 21.125 38.6825C20.89 37.7775 20.5 35.705 20.5 32C20.5 28.295 20.8937 26.2225 21.125 25.3175C21.143 25.2408 21.1789 25.1695 21.2298 25.1093C21.2806 25.0492 21.3449 25.0018 21.4175 24.9713C25.2863 23.4788 31.9237 23.5 31.99 23.5H32.0088C32.0763 23.5 38.7138 23.4788 42.5788 24.9713C42.652 25.0014 42.7171 25.0485 42.7686 25.1087C42.8201 25.1689 42.8566 25.2404 42.875 25.3175C43.11 26.2225 43.5 28.295 43.5 32C43.5 35.705 43.1063 37.7775 42.875 38.6825Z" fill="white"/>
</svg>
