<svg width="64" height="64" viewBox="0 0 64 64" fill="none" xmlns="http://www.w3.org/2000/svg">
<path d="M0 24C0 10.7452 10.7452 0 24 0H40C53.2548 0 64 10.7452 64 24V40C64 53.2548 53.2548 64 40 64H24C10.7452 64 0 53.2548 0 40V24Z" fill="#6957D0"/>
<path fill-rule="evenodd" clip-rule="evenodd" d="M32.0003 18.666C32.7367 18.666 33.3337 19.263 33.3337 19.9993V22.666H40.0003L40.387 22.6842C41.2806 22.7713 42.1233 23.1576 42.7751 23.7858L42.7738 23.7871L45.8506 26.7454C46.1087 26.9942 46.3145 27.2932 46.4548 27.623C46.5949 27.9529 46.667 28.3076 46.667 28.666C46.667 29.0244 46.5949 29.3792 46.4548 29.709C46.3496 29.9563 46.2073 30.1857 46.0342 30.39L45.8506 30.5866L42.7738 33.5449C42.122 34.1731 41.2806 34.5607 40.387 34.6478L40.0003 34.666H33.3337V43.9993C33.3337 44.7357 32.7367 45.3327 32.0003 45.3327C31.2639 45.3327 30.667 44.7357 30.667 43.9993V34.666H24.0003C22.9656 34.6655 21.9706 34.2643 21.2256 33.5462L18.1514 30.5866C17.8933 30.3378 17.6874 30.0389 17.5472 29.709C17.407 29.3792 17.335 29.0244 17.335 28.666C17.335 28.3076 17.407 27.9529 17.5472 27.623C17.6874 27.2932 17.8933 26.9942 18.1514 26.7454L21.2256 23.7871C21.9706 23.069 22.9656 22.6665 24.0003 22.666H30.667V19.9993C30.667 19.263 31.2639 18.666 32.0003 18.666ZM24.0003 25.3327C23.6987 25.333 23.4079 25.4359 23.1735 25.6217L23.0758 25.7064L20.0016 28.666L23.0758 31.6257C23.324 31.8649 23.6556 31.999 24.0003 31.9993H40.0003L40.1279 31.9928C40.4259 31.9639 40.7074 31.8352 40.9248 31.6257L44.0003 28.666L40.9248 25.7064C40.7074 25.4969 40.4259 25.3681 40.1279 25.3392L40.0003 25.3327H24.0003Z" fill="white"/>
</svg>
