<svg width="64" height="64" viewBox="0 0 64 64" fill="none" xmlns="http://www.w3.org/2000/svg">
<path d="M0 24C0 10.7452 10.7452 0 24 0H40C53.2548 0 64 10.7452 64 24V40C64 53.2548 53.2548 64 40 64H24C10.7452 64 0 53.2548 0 40V24Z" fill="#097BF8"/>
<path d="M41.5912 22.4812C39.7056 20.5836 37.299 19.2885 34.6765 18.7602C32.054 18.2319 29.3337 18.4941 26.8604 19.5137C24.3871 20.5332 22.2722 22.2642 20.7838 24.4871C19.2954 26.71 18.5006 29.3248 18.5 32V39C18.5 39.9282 18.8687 40.8185 19.5251 41.4749C20.1815 42.1312 21.0717 42.5 22 42.5H24C24.9283 42.5 25.8185 42.1312 26.4749 41.4749C27.1313 40.8185 27.5 39.9282 27.5 39V34C27.5 33.0717 27.1313 32.1815 26.4749 31.5251C25.8185 30.8687 24.9283 30.5 24 30.5H21.605C21.967 28.0011 23.2169 25.7161 25.1258 24.0634C27.0347 22.4106 29.475 21.5006 32 21.5H32.08C34.5937 21.5107 37.0196 22.4262 38.9137 24.0789C40.8078 25.7315 42.0436 28.0109 42.395 30.5H40C39.0717 30.5 38.1815 30.8687 37.5251 31.5251C36.8687 32.1815 36.5 33.0717 36.5 34V39C36.5 39.9282 36.8687 40.8185 37.5251 41.4749C38.1815 42.1312 39.0717 42.5 40 42.5H42C42.4596 42.5 42.9148 42.4095 43.3394 42.2336C43.764 42.0577 44.1499 41.7999 44.4749 41.4749C44.7999 41.1499 45.0577 40.764 45.2336 40.3394C45.4095 39.9147 45.5 39.4596 45.5 39V32C45.5069 30.2342 45.1651 28.4844 44.4944 26.851C43.8236 25.2176 42.8371 23.7326 41.5912 22.4812ZM24 33.5C24.1326 33.5 24.2598 33.5527 24.3536 33.6464C24.4473 33.7402 24.5 33.8674 24.5 34V39C24.5 39.1326 24.4473 39.2598 24.3536 39.3535C24.2598 39.4473 24.1326 39.5 24 39.5H22C21.8674 39.5 21.7402 39.4473 21.6464 39.3535C21.5527 39.2598 21.5 39.1326 21.5 39V33.5H24ZM42.5 39C42.5 39.1326 42.4473 39.2598 42.3536 39.3535C42.2598 39.4473 42.1326 39.5 42 39.5H40C39.8674 39.5 39.7402 39.4473 39.6464 39.3535C39.5527 39.2598 39.5 39.1326 39.5 39V34C39.5 33.8674 39.5527 33.7402 39.6464 33.6464C39.7402 33.5527 39.8674 33.5 40 33.5H42.5V39Z" fill="white"/>
</svg>
