<svg width="64" height="64" viewBox="0 0 64 64" fill="none" xmlns="http://www.w3.org/2000/svg">
<path d="M0 24C0 10.7452 10.7452 0 24 0H40C53.2548 0 64 10.7452 64 24V40C64 53.2548 53.2548 64 40 64H24C10.7452 64 0 53.2548 0 40V24Z" fill="#6957D0"/>
<path fill-rule="evenodd" clip-rule="evenodd" d="M38.1828 17.5134C40.2932 16.9381 42.5146 18.0719 43.1411 20.141L44.2075 23.6085C44.3124 23.9497 44.2767 24.319 44.1073 24.6332C43.9379 24.9473 43.6491 25.1804 43.3065 25.2803L37.343 27.0134C37.145 27.1304 36.9267 27.1904 36.7075 27.197L29.3599 29.3337H44.0005C44.7367 29.334 45.3338 29.9308 45.3338 30.6671V41.3337C45.3337 42.3944 44.912 43.4118 44.162 44.1618C43.4119 44.9119 42.3945 45.3336 41.3338 45.3337H22.6672C21.6066 45.3337 20.5891 44.9117 19.8391 44.1618C19.089 43.4118 18.6673 42.3944 18.6672 41.3337V30.9092L17.5526 27.9353C17.5382 27.897 17.5243 27.8576 17.5135 27.8181C16.9371 25.7045 18.0752 23.48 20.1502 22.8572L20.1555 22.8559L31.8443 19.391C32.0426 19.271 32.2633 19.2103 32.4836 19.2022L38.1555 17.5225L38.1828 17.5134ZM21.3338 41.3337L21.3404 41.4652C21.3707 41.7704 21.5057 42.0577 21.7245 42.2764C21.9745 42.5262 22.3138 42.6671 22.6672 42.6671H41.3338C41.6873 42.6669 42.0266 42.5264 42.2766 42.2764C42.5265 42.0265 42.667 41.6872 42.6672 41.3337V32.0004H21.3338V41.3337ZM20.9159 25.4092L20.9172 25.4105C20.3358 25.585 19.8801 26.2727 20.0773 27.0746L20.8143 29.0408L26.0917 27.5056L23.7557 24.5668L20.9159 25.4092ZM26.5135 23.7504L28.8586 26.7022L34.3833 25.0954L32.0656 22.1046L26.5135 23.7504ZM40.5904 20.9171C40.4133 20.3268 39.7061 19.8645 38.8885 20.085L34.8078 21.2934L37.1359 24.296L41.2609 23.098L40.593 20.9262L40.5904 20.9171Z" fill="white"/>
</svg>
