<svg width="64" height="64" viewBox="0 0 64 64" fill="none" xmlns="http://www.w3.org/2000/svg">
<path d="M0 24C0 10.7452 10.7452 0 24 0H40C53.2548 0 64 10.7452 64 24V40C64 53.2548 53.2548 64 40 64H24C10.7452 64 0 53.2548 0 40V24Z" fill="#097BF8"/>
<path d="M42 22.5H38.8025L37.25 20.1675C37.1128 19.9618 36.9269 19.7933 36.7088 19.6768C36.4907 19.5604 36.2472 19.4996 36 19.5H28C27.7528 19.4996 27.5093 19.5604 27.2912 19.6768C27.0731 19.7933 26.8872 19.9618 26.75 20.1675L25.1962 22.5H22C21.0717 22.5 20.1815 22.8688 19.5251 23.5251C18.8687 24.1815 18.5 25.0717 18.5 26V40C18.5 40.9283 18.8687 41.8185 19.5251 42.4749C20.1815 43.1313 21.0717 43.5 22 43.5H42C42.4596 43.5 42.9148 43.4095 43.3394 43.2336C43.764 43.0577 44.1499 42.7999 44.4749 42.4749C44.7999 42.1499 45.0577 41.764 45.2336 41.3394C45.4095 40.9148 45.5 40.4596 45.5 40V26C45.5 25.5404 45.4095 25.0852 45.2336 24.6606C45.0577 24.236 44.7999 23.8501 44.4749 23.5251C44.1499 23.2001 43.764 22.9423 43.3394 22.7664C42.9148 22.5905 42.4596 22.5 42 22.5ZM42.5 40C42.5 40.1326 42.4473 40.2598 42.3536 40.3536C42.2598 40.4473 42.1326 40.5 42 40.5H22C21.8674 40.5 21.7402 40.4473 21.6464 40.3536C21.5527 40.2598 21.5 40.1326 21.5 40V26C21.5 25.8674 21.5527 25.7402 21.6464 25.6464C21.7402 25.5527 21.8674 25.5 22 25.5H26C26.2472 25.5004 26.4907 25.4396 26.7088 25.3232C26.9269 25.2067 27.1128 25.0382 27.25 24.8325L28.8025 22.5H35.1963L36.75 24.8325C36.8872 25.0382 37.0731 25.2067 37.2912 25.3232C37.5093 25.4396 37.7528 25.5004 38 25.5H42C42.1326 25.5 42.2598 25.5527 42.3536 25.6464C42.4473 25.7402 42.5 25.8674 42.5 26V40ZM32 26.5C30.8133 26.5 29.6533 26.8519 28.6666 27.5112C27.6799 28.1705 26.9108 29.1075 26.4567 30.2039C26.0026 31.3003 25.8838 32.5067 26.1153 33.6705C26.3468 34.8344 26.9182 35.9035 27.7574 36.7426C28.5965 37.5818 29.6656 38.1532 30.8295 38.3847C31.9933 38.6162 33.1997 38.4974 34.2961 38.0433C35.3925 37.5892 36.3295 36.8201 36.9888 35.8334C37.6481 34.8467 38 33.6867 38 32.5C37.9983 30.9092 37.3657 29.384 36.2408 28.2592C35.116 27.1343 33.5908 26.5017 32 26.5ZM32 35.5C31.4067 35.5 30.8266 35.3241 30.3333 34.9944C29.8399 34.6648 29.4554 34.1962 29.2284 33.6481C29.0013 33.0999 28.9419 32.4967 29.0576 31.9147C29.1734 31.3328 29.4591 30.7982 29.8787 30.3787C30.2982 29.9591 30.8328 29.6734 31.4147 29.5576C31.9967 29.4419 32.5999 29.5013 33.1481 29.7284C33.6962 29.9554 34.1648 30.3399 34.4944 30.8333C34.8241 31.3266 35 31.9067 35 32.5C35 33.2957 34.6839 34.0587 34.1213 34.6213C33.5587 35.1839 32.7956 35.5 32 35.5Z" fill="white"/>
</svg>
