<svg width="64" height="64" viewBox="0 0 64 64" fill="none" xmlns="http://www.w3.org/2000/svg">
<path d="M0 24C0 10.7452 10.7452 0 24 0H40C53.2548 0 64 10.7452 64 24V40C64 53.2548 53.2548 64 40 64H24C10.7452 64 0 53.2548 0 40V24Z" fill="#6957D0"/>
<path fill-rule="evenodd" clip-rule="evenodd" d="M32.0166 17.3341C32.846 17.3444 33.6623 17.5422 34.4046 17.9122C35.1471 18.2824 35.7969 18.8158 36.3044 19.4721C36.8118 20.1283 37.1642 20.891 37.3356 21.7026C37.5066 22.5125 37.4915 23.3506 37.2939 24.1544L37.2952 24.1557L36.3617 28.0008H42.4398C43.0607 28.0008 43.6735 28.145 44.2288 28.4226C44.7842 28.7003 45.2677 29.1043 45.6403 29.601C46.0125 30.0975 46.2635 30.6742 46.3747 31.2846C46.4718 31.819 46.4593 32.3675 46.3382 32.8953L46.2796 33.1205L43.1729 43.7872C42.9305 44.618 42.4251 45.3487 41.7327 45.8679C41.0404 46.387 40.1983 46.6674 39.333 46.6674H21.333C20.2721 46.6674 19.255 46.2457 18.5049 45.4955C17.7548 44.7454 17.333 43.7282 17.333 42.6674V32.0008C17.3331 30.94 17.7548 29.9227 18.5049 29.1726C19.255 28.4225 20.2722 28.0008 21.333 28.0008H25.0127L25.1976 27.9877C25.3803 27.962 25.5566 27.8982 25.7145 27.8002C25.925 27.6696 26.0951 27.483 26.2054 27.2612L26.208 27.2573L30.807 18.0711C31.0357 17.6145 31.506 17.3278 32.0166 17.3341ZM28.5921 28.4513L28.5908 28.45C28.2596 29.115 27.7508 29.6756 27.1195 30.0672C26.9736 30.1576 26.8215 30.2362 26.6663 30.3067V44.0008H39.333C39.6214 44.0008 39.9017 43.9068 40.1325 43.7338C40.3631 43.5608 40.5321 43.3179 40.613 43.0411L43.7197 32.3745L43.7549 32.2234C43.7806 32.0712 43.7787 31.9151 43.751 31.7625C43.7139 31.559 43.6302 31.3668 43.5062 31.2013C43.382 31.0358 43.2212 30.9006 43.0361 30.808C42.851 30.7155 42.6467 30.6674 42.4398 30.6674H34.6663C34.2574 30.6674 33.871 30.4798 33.6182 30.1583C33.3654 29.8368 33.2743 29.4164 33.3708 29.019L34.7041 23.5268L34.7054 23.5216C34.8079 23.1062 34.8146 22.672 34.7262 22.2534C34.6378 21.8351 34.4564 21.4419 34.195 21.1036C33.9333 20.7651 33.5974 20.4898 33.2145 20.2989C33.0687 20.2263 32.9165 20.1696 32.7614 20.1231L28.5921 28.4513ZM21.333 30.6674C20.9794 30.6674 20.6403 30.8081 20.3903 31.058C20.1403 31.308 19.9997 31.6472 19.9997 32.0008V42.6674C19.9997 43.021 20.1403 43.3601 20.3903 43.6101C20.6403 43.8602 20.9794 44.0008 21.333 44.0008H23.9997V30.6674H21.333Z" fill="white"/>
</svg>
