<svg width="108" height="108" viewBox="0 0 108 108" fill="none" xmlns="http://www.w3.org/2000/svg">
<path d="M0.666992 32.667C0.666992 14.9939 14.9939 0.666992 32.667 0.666992H75.3337C93.0068 0.666992 107.334 14.9939 107.334 32.667V75.3337C107.334 93.0068 93.0068 107.334 75.3337 107.334H32.667C14.9939 107.334 0.666992 93.0068 0.666992 75.3337V32.667Z" fill="#DBEAFE"/>
<path d="M52.0003 57.7337V61.0671C50.2003 61.0671 48.5225 61.5226 46.967 62.4337C45.4559 63.3226 44.2559 64.5226 43.367 66.0337C42.4559 67.5893 42.0003 69.2782 42.0003 71.1004H38.667C38.667 68.6782 39.2781 66.4337 40.5003 64.3671C41.6781 62.3448 43.267 60.7448 45.267 59.5671C47.3337 58.3448 49.5781 57.7337 52.0003 57.7337ZM52.0003 56.0671C50.2003 56.0671 48.5225 55.6226 46.967 54.7337C45.4559 53.8448 44.2559 52.6448 43.367 51.1337C42.4559 49.5782 42.0003 47.8948 42.0003 46.0837C42.0003 44.2726 42.4559 42.5893 43.367 41.0337C44.2559 39.5226 45.4559 38.3226 46.967 37.4337C48.5225 36.5226 50.2059 36.0671 52.017 36.0671C53.8281 36.0671 55.5114 36.5226 57.067 37.4337C58.5559 38.3226 59.7448 39.5226 60.6337 41.0337C61.5448 42.5893 62.0003 44.2726 62.0003 46.0837C62.0003 47.8948 61.5448 49.5782 60.6337 51.1337C59.7448 52.6448 58.5559 53.8448 57.067 54.7337C55.5114 55.6226 53.8225 56.0671 52.0003 56.0671ZM52.0003 52.7337C53.2003 52.7337 54.3114 52.4393 55.3337 51.8504C56.3559 51.2615 57.167 50.4559 57.767 49.4337C58.367 48.4115 58.667 47.2948 58.667 46.0837C58.667 44.8726 58.367 43.7559 57.767 42.7337C57.167 41.7115 56.3559 40.9004 55.3337 40.3004C54.3114 39.7004 53.2003 39.4004 52.0003 39.4004C50.8003 39.4004 49.6892 39.7004 48.667 40.3004C47.6448 40.9004 46.8337 41.7115 46.2337 42.7337C45.6337 43.7559 45.3337 44.8726 45.3337 46.0837C45.3337 47.2948 45.6337 48.4115 46.2337 49.4337C46.8337 50.4559 47.6448 51.2615 48.667 51.8504C49.6892 52.4393 50.8003 52.7337 52.0003 52.7337ZM56.3337 65.7671C56.2225 65.3226 56.167 64.8726 56.167 64.4171C56.167 63.9615 56.2225 63.5115 56.3337 63.0671L54.667 62.1004L56.3337 59.2337L58.0003 60.1671C58.667 59.5448 59.4448 59.1004 60.3337 58.8337V56.9004H63.667V58.8337C64.5559 59.1004 65.3337 59.5448 66.0003 60.1671L67.667 59.2337L69.3337 62.1004L67.667 63.0671C67.7781 63.5115 67.8337 63.9615 67.8337 64.4171C67.8337 64.8726 67.7781 65.3226 67.667 65.7671L69.3337 66.7337L67.667 69.6004L66.0003 68.6671C65.3337 69.2893 64.5559 69.7337 63.667 70.0004V71.9004H60.3337V70.0004C59.4448 69.7337 58.667 69.2893 58.0003 68.6671L56.3337 69.6004L54.667 66.7337L56.3337 65.7671ZM62.0003 66.9004C62.6892 66.9004 63.2781 66.6615 63.767 66.1837C64.2559 65.7059 64.5003 65.1171 64.5003 64.4171C64.5003 63.7171 64.2559 63.1282 63.767 62.6504C63.2781 62.1726 62.6892 61.9282 62.0003 61.9171C61.3114 61.9059 60.7225 62.1448 60.2337 62.6337C59.7448 63.1226 59.5003 63.7171 59.5003 64.4171C59.5003 65.1171 59.7448 65.7115 60.2337 66.2004C60.7225 66.6893 61.3114 66.9337 62.0003 66.9337V66.9004Z" fill="#2563EB"/>
</svg>
