<svg width="108" height="108" viewBox="0 0 108 108" fill="none" xmlns="http://www.w3.org/2000/svg">
<path d="M0.666992 32.667C0.666992 14.9939 14.9939 0.666992 32.667 0.666992H75.3337C93.0068 0.666992 107.334 14.9939 107.334 32.667V75.3337C107.334 93.0068 93.0068 107.334 75.3337 107.334H32.667C14.9939 107.334 0.666992 93.0068 0.666992 75.3337V32.667Z" fill="#DCFCE7"/>
<path d="M53.9997 67.3337H67.333V70.667H53.9997C51.733 70.667 49.5663 70.2337 47.4997 69.367C45.5219 68.5225 43.7608 67.3281 42.2163 65.7837C40.6719 64.2392 39.4775 62.4781 38.633 60.5003C37.7663 58.4337 37.333 56.267 37.333 54.0003C37.333 51.7337 37.7663 49.567 38.633 47.5003C39.4775 45.5225 40.6719 43.7614 42.2163 42.217C43.7608 40.6726 45.5219 39.4781 47.4997 38.6337C49.5663 37.767 51.733 37.3337 53.9997 37.3337C56.2663 37.3337 58.433 37.767 60.4997 38.6337C62.4775 39.4781 64.2386 40.6726 65.783 42.217C67.3274 43.7614 68.5219 45.5225 69.3663 47.5003C70.233 49.567 70.6663 51.7337 70.6663 54.0003C70.6663 55.8448 70.3774 57.6337 69.7997 59.367C69.2219 61.0337 68.3997 62.5781 67.333 64.0003H62.833C64.233 62.7559 65.3219 61.2781 66.0997 59.567C66.9219 57.8114 67.333 55.9559 67.333 54.0003C67.333 51.5781 66.7219 49.3337 65.4997 47.267C64.3219 45.267 62.733 43.6781 60.733 42.5003C58.6663 41.2781 56.4219 40.667 53.9997 40.667C51.5775 40.667 49.333 41.2781 47.2663 42.5003C45.2663 43.6781 43.6775 45.267 42.4997 47.267C41.2775 49.3337 40.6663 51.5781 40.6663 54.0003C40.6663 56.4225 41.2775 58.667 42.4997 60.7337C43.6775 62.7337 45.2663 64.3225 47.2663 65.5003C49.333 66.7225 51.5775 67.3337 53.9997 67.3337ZM53.9997 50.667C53.3997 50.667 52.8441 50.517 52.333 50.217C51.8219 49.917 51.4163 49.5114 51.1163 49.0003C50.8163 48.4892 50.6663 47.9337 50.6663 47.3337C50.6663 46.7337 50.8163 46.1781 51.1163 45.667C51.4163 45.1559 51.8219 44.7503 52.333 44.4503C52.8441 44.1503 53.3997 44.0003 53.9997 44.0003C54.5997 44.0003 55.1552 44.1503 55.6663 44.4503C56.1775 44.7503 56.583 45.1559 56.883 45.667C57.183 46.1781 57.333 46.7337 57.333 47.3337C57.333 47.9337 57.183 48.4892 56.883 49.0003C56.583 49.5114 56.1775 49.917 55.6663 50.217C55.1552 50.517 54.5997 50.667 53.9997 50.667ZM47.333 57.3337C46.733 57.3337 46.1775 57.1837 45.6663 56.8837C45.1552 56.5837 44.7497 56.1781 44.4497 55.667C44.1497 55.1559 43.9997 54.6003 43.9997 54.0003C43.9997 53.4003 44.1497 52.8448 44.4497 52.3337C44.7497 51.8225 45.1552 51.417 45.6663 51.117C46.1775 50.817 46.733 50.667 47.333 50.667C47.933 50.667 48.4886 50.817 48.9997 51.117C49.5108 51.417 49.9163 51.8225 50.2163 52.3337C50.5163 52.8448 50.6663 53.4003 50.6663 54.0003C50.6663 54.6003 50.5163 55.1559 50.2163 55.667C49.9163 56.1781 49.5108 56.5837 48.9997 56.8837C48.4886 57.1837 47.933 57.3337 47.333 57.3337ZM60.6663 57.3337C60.0663 57.3337 59.5108 57.1837 58.9997 56.8837C58.4886 56.5837 58.083 56.1781 57.783 55.667C57.483 55.1559 57.333 54.6003 57.333 54.0003C57.333 53.4003 57.483 52.8448 57.783 52.3337C58.083 51.8225 58.4886 51.417 58.9997 51.117C59.5108 50.817 60.0663 50.667 60.6663 50.667C61.2663 50.667 61.8219 50.817 62.333 51.117C62.8441 51.417 63.2497 51.8225 63.5497 52.3337C63.8497 52.8448 63.9997 53.4003 63.9997 54.0003C63.9997 54.6003 63.8497 55.1559 63.5497 55.667C63.2497 56.1781 62.8441 56.5837 62.333 56.8837C61.8219 57.1837 61.2663 57.3337 60.6663 57.3337ZM53.9997 64.0003C53.3997 64.0003 52.8441 63.8503 52.333 63.5503C51.8219 63.2503 51.4163 62.8448 51.1163 62.3337C50.8163 61.8225 50.6663 61.267 50.6663 60.667C50.6663 60.067 50.8163 59.5114 51.1163 59.0003C51.4163 58.4892 51.8219 58.0837 52.333 57.7837C52.8441 57.4837 53.3997 57.3337 53.9997 57.3337C54.5997 57.3337 55.1552 57.4837 55.6663 57.7837C56.1775 58.0837 56.583 58.4892 56.883 59.0003C57.183 59.5114 57.333 60.067 57.333 60.667C57.333 61.267 57.183 61.8225 56.883 62.3337C56.583 62.8448 56.1775 63.2503 55.6663 63.5503C55.1552 63.8503 54.5997 64.0003 53.9997 64.0003Z" fill="#16A34A"/>
</svg>
