<svg width="108" height="108" viewBox="0 0 108 108" fill="none" xmlns="http://www.w3.org/2000/svg">
<path d="M0.666992 32.667C0.666992 14.9939 14.9939 0.666992 32.667 0.666992H75.3337C93.0068 0.666992 107.334 14.9939 107.334 32.667V75.3337C107.334 93.0068 93.0068 107.334 75.3337 107.334H32.667C14.9939 107.334 0.666992 93.0068 0.666992 75.3337V32.667Z" fill="#F3E8FF"/>
<path d="M50.6663 44.0003C50.6663 45.2003 50.3663 46.3114 49.7663 47.3337L53.9997 51.6337L65.1997 40.4337C65.6441 40.0114 66.1497 39.7225 66.7163 39.567C67.283 39.4114 67.8552 39.4114 68.433 39.567C69.0108 39.7225 69.5108 40.0114 69.933 40.4337L49.733 60.6003C50.3552 61.6448 50.6663 62.7725 50.6663 63.9837C50.6663 65.1948 50.3663 66.3114 49.7663 67.3337C49.1663 68.3559 48.3552 69.167 47.333 69.767C46.3108 70.367 45.1997 70.667 43.9997 70.667C42.7997 70.667 41.6886 70.367 40.6663 69.767C39.6441 69.167 38.833 68.3559 38.233 67.3337C37.633 66.3114 37.333 65.2003 37.333 64.0003C37.333 62.8003 37.633 61.6892 38.233 60.667C38.833 59.6448 39.6441 58.8337 40.6663 58.2337C41.6886 57.6337 42.8052 57.3337 44.0163 57.3337C45.2275 57.3337 46.3552 57.6448 47.3997 58.267L51.633 54.0003L47.3997 49.7337C46.3552 50.3559 45.2275 50.667 44.0163 50.667C42.8052 50.667 41.6886 50.367 40.6663 49.767C39.6441 49.167 38.833 48.3559 38.233 47.3337C37.633 46.3114 37.333 45.2003 37.333 44.0003C37.333 42.8003 37.633 41.6892 38.233 40.667C38.833 39.6448 39.6441 38.8337 40.6663 38.2337C41.6886 37.6337 42.7997 37.3337 43.9997 37.3337C45.1997 37.3337 46.3108 37.6337 47.333 38.2337C48.3552 38.8337 49.1663 39.6448 49.7663 40.667C50.3663 41.6892 50.6663 42.8003 50.6663 44.0003ZM47.333 44.0003C47.333 43.4003 47.183 42.8448 46.883 42.3337C46.583 41.8225 46.1775 41.417 45.6663 41.117C45.1552 40.817 44.5997 40.667 43.9997 40.667C43.3997 40.667 42.8441 40.817 42.333 41.117C41.8219 41.417 41.4163 41.8225 41.1163 42.3337C40.8163 42.8448 40.6663 43.4003 40.6663 44.0003C40.6663 44.6003 40.8163 45.1559 41.1163 45.667C41.4163 46.1781 41.8219 46.5837 42.333 46.8837C42.8441 47.1837 43.3997 47.3337 43.9997 47.3337C44.5997 47.3337 45.1552 47.1837 45.6663 46.8837C46.1775 46.5837 46.583 46.1781 46.883 45.667C47.183 45.1559 47.333 44.6003 47.333 44.0003ZM69.933 67.567C69.5108 67.9892 69.0108 68.2781 68.433 68.4337C67.8552 68.5892 67.283 68.5892 66.7163 68.4337C66.1497 68.2781 65.6441 67.9892 65.1997 67.567L56.3663 58.7003L58.6997 56.367L69.933 67.567ZM60.6663 52.3337H63.9997V55.667H60.6663V52.3337ZM67.333 52.3337H70.6663V55.667H67.333V52.3337ZM43.9997 52.3337H47.333V55.667H43.9997V52.3337ZM37.333 52.3337H40.6663V55.667H37.333V52.3337ZM43.9997 67.3337C44.5997 67.3337 45.1552 67.1837 45.6663 66.8837C46.1775 66.5837 46.583 66.1781 46.883 65.667C47.183 65.1559 47.333 64.6003 47.333 64.0003C47.333 63.4003 47.183 62.8448 46.883 62.3337C46.583 61.8225 46.1775 61.417 45.6663 61.117C45.1552 60.817 44.5997 60.667 43.9997 60.667C43.3997 60.667 42.8441 60.817 42.333 61.117C41.8219 61.417 41.4163 61.8225 41.1163 62.3337C40.8163 62.8448 40.6663 63.4003 40.6663 64.0003C40.6663 64.6003 40.8163 65.1559 41.1163 65.667C41.4163 66.1781 41.8219 66.5837 42.333 66.8837C42.8441 67.1837 43.3997 67.3337 43.9997 67.3337Z" fill="#9333EA"/>
</svg>
