<svg width="108" height="108" viewBox="0 0 108 108" fill="none" xmlns="http://www.w3.org/2000/svg">
<path d="M0.666992 32.667C0.666992 14.9939 14.9939 0.666992 32.667 0.666992H75.3337C93.0068 0.666992 107.334 14.9939 107.334 32.667V75.3337C107.334 93.0068 93.0068 107.334 75.3337 107.334H32.667C14.9939 107.334 0.666992 93.0068 0.666992 75.3337V32.667Z" fill="#FEE2E2"/>
<path d="M59.8337 66.5339C59.2781 67.845 58.4948 69.0061 57.4837 70.0172C56.4725 71.0283 55.3114 71.8116 54.0003 72.3672C52.6892 71.8116 51.5281 71.0283 50.517 70.0172C49.5059 69.0061 48.7225 67.845 48.167 66.5339H51.9337C52.4892 67.3561 53.1781 68.045 54.0003 68.6005C54.8225 68.045 55.5114 67.3561 56.067 66.5339H59.8337ZM64.0003 57.8672L67.3337 61.6672V64.8672H40.667V61.6672L44.0003 57.8672V48.2005C44.0003 46.3116 44.4337 44.5005 45.3003 42.7672C46.1448 41.1005 47.3225 39.645 48.8337 38.4005C50.3448 37.1561 52.067 36.2339 54.0003 35.6339C55.9337 36.2339 57.6559 37.1561 59.167 38.4005C60.6781 39.645 61.8559 41.1005 62.7003 42.7672C63.567 44.5005 64.0003 46.3116 64.0003 48.2005V57.8672ZM62.767 61.5339L60.667 59.1339V48.2005C60.667 46.2672 60.0614 44.4839 58.8503 42.8505C57.6392 41.2172 56.0225 39.9894 54.0003 39.1672C51.9781 39.9894 50.3614 41.2172 49.1503 42.8505C47.9392 44.4839 47.3337 46.2672 47.3337 48.2005V59.1339L45.2337 61.5339H62.767ZM54.0003 51.5339C53.4003 51.5339 52.8448 51.3839 52.3337 51.0839C51.8225 50.7839 51.417 50.3783 51.117 49.8672C50.817 49.3561 50.667 48.8005 50.667 48.2005C50.667 47.6005 50.817 47.045 51.117 46.5339C51.417 46.0227 51.8225 45.6172 52.3337 45.3172C52.8448 45.0172 53.4003 44.8672 54.0003 44.8672C54.6003 44.8672 55.1559 45.0172 55.667 45.3172C56.1781 45.6172 56.5837 46.0227 56.8837 46.5339C57.1837 47.045 57.3337 47.6005 57.3337 48.2005C57.3337 48.8005 57.1837 49.3561 56.8837 49.8672C56.5837 50.3783 56.1781 50.7839 55.667 51.0839C55.1559 51.3839 54.6003 51.5339 54.0003 51.5339Z" fill="#DC2626"/>
</svg>
