<svg xmlns="http://www.w3.org/2000/svg" width="24.072" height="25.622" viewBox="0 0 24.072 25.622">
  <g id="그룹_11993" data-name="그룹 11993" transform="translate(-513.629 -417.129)">
    <path id="패스_3868" data-name="패스 3868" d="M561.735,438.662,557,433.931v3.237h-6.653v2.987H557v3.237Z" transform="translate(-24.034 -10.997)" fill="#ef7100"/>
    <path id="패스_3869" data-name="패스 3869" d="M529.42,436.231h-5.45V422.808a.842.842,0,0,0-.431-.734L517.7,418.81H529.42v5.834H531.1v-6.675a.841.841,0,0,0-.84-.84H514.466a.9.9,0,0,0-.146.014l-.039.008a.821.821,0,0,0-.132.041l-.015.006a.853.853,0,0,0-.089.045c-.01.006-.019.013-.028.019l-.032.021a.87.87,0,0,0-.1.084l-.009.008a.821.821,0,0,0-.09.11c-.007.01-.014.02-.021.03a.829.829,0,0,0-.061.112l-.009.017a.885.885,0,0,0-.042.136c0,.012-.005.025-.007.038a.807.807,0,0,0-.015.149v19.1a.805.805,0,0,0,.015.149c0,.013,0,.027.008.039a.916.916,0,0,0,.042.133l.005.011a.828.828,0,0,0,.065.12l.022.032a.841.841,0,0,0,.083.1l.009.01a.786.786,0,0,0,.109.09l.035.023c.013.008.025.017.038.024l8.66,4.839a.841.841,0,0,0,1.251-.734v-4h6.291a.841.841,0,0,0,.84-.84v-6.385H529.42Z" fill="#ef7100"/>
  </g>
</svg>
