<svg xmlns="http://www.w3.org/2000/svg" width="15.674" height="16" viewBox="0 0 15.674 16">
    <defs>
        <clipPath id="mpduk2zmva">
            <path data-name="사각형 76" style="fill:none" d="M0 0h15.674v16H0z"/>
        </clipPath>
    </defs>
    <g data-name="그룹 71" style="clip-path:url(#mpduk2zmva)">
        <path data-name="패스 111" d="M15.639 14.109a7.564 7.564 0 0 0-4.8-5.57 4.8 4.8 0 1 0-6.014 0 7.565 7.565 0 0 0-4.8 5.57A1.59 1.59 0 0 0 1.61 16h12.454a1.589 1.589 0 0 0 1.575-1.891M4.637 4.8a3.2 3.2 0 1 1 3.2 3.2 3.2 3.2 0 0 1-3.2-3.2m8.343 9.6H2.694a.794.794 0 0 1-.754-1.07 6.131 6.131 0 0 1 5.9-3.73 6.132 6.132 0 0 1 5.9 3.73.794.794 0 0 1-.754 1.07"/>
    </g>
</svg>
