<svg xmlns="http://www.w3.org/2000/svg" width="160" height="160" viewBox="0 0 160 160">
    <defs>
        <clipPath id="qmv6tl89za">
            <rect width="160" height="160" rx="80" transform="translate(840.002 38)" style="fill:#f2f6fa"/>
        </clipPath>
        <clipPath id="aqesuvkksb">
            <path data-name="사각형 88" style="fill:none" d="M0 0h93.218v88H0z"/>
        </clipPath>
    </defs>
    <g transform="translate(-840.002 -38)" style="clip-path:url(#qmv6tl89za)">
        <rect data-name="사각형 89" width="1248" height="160" rx="80" transform="translate(296.002 38)" style="fill:#f2f6fa"/>
        <g data-name="그룹 79">
            <g data-name="그룹 78" transform="translate(873.335 72.667)" style="clip-path:url(#aqesuvkksb)">
                <path data-name="패스 116" d="M9.64 72.475a4.97 4.97 0 0 1-.828.724 3.822 3.822 0 0 1-2.258.653 4.263 4.263 0 0 1-1.237-.194 4.118 4.118 0 0 1-1.226-.619 4.365 4.365 0 0 1-1.032-1.077 4.83 4.83 0 0 1-.676-1.57H12.9a4.729 4.729 0 0 0 .046-.5q.023-.39.023-.711a6.33 6.33 0 0 0-.527-2.59 6.527 6.527 0 0 0-3.482-3.43 6.256 6.256 0 0 0-2.452-.492 6.4 6.4 0 0 0-4.594 1.9 6.653 6.653 0 0 0-1.4 2.12A6.763 6.763 0 0 0 0 69.338a6.619 6.619 0 0 0 .5 2.566 6.9 6.9 0 0 0 1.375 2.132 6.546 6.546 0 0 0 2.055 1.455 6.029 6.029 0 0 0 2.532.539 6.815 6.815 0 0 0 1.616-.218 6.309 6.309 0 0 0 3.084-1.814zm-6.889-5.28a3.935 3.935 0 0 1 .87-1.192 4.556 4.556 0 0 1 1.272-.836 3.871 3.871 0 0 1 1.593-.321 3.9 3.9 0 0 1 1.581.321 4.5 4.5 0 0 1 1.283.836 3.93 3.93 0 0 1 .871 1.192 3.751 3.751 0 0 1 .367 1.363h-8.2a3.737 3.737 0 0 1 .367-1.363"/>
                <path data-name="패스 117" d="M54.636 166.535 49.695 179.1l-4.919-12.563H41.01v16.4h2.39v-13.854h.045l5.539 13.848h1.44l5.517-13.848h.066v13.848H58.4v-16.4z" transform="translate(-26.381 -107.131)" style="fill-rule:evenodd"/>
                <path data-name="패스 118" d="M103.419 168.729v-2.194h-8.286v16.4h2.393v-7.091h5.893v-2.193h-5.893v-4.919z" transform="translate(-61.199 -107.132)" style="fill-rule:evenodd"/>
                <path data-name="패스 119" d="M51.842 59.41a8.189 8.189 0 1 0 8.189 8.189 8.189 8.189 0 0 0-8.189-8.189m0 13.957a5.787 5.787 0 1 1 5.787-5.787 5.786 5.786 0 0 1-5.787 5.787"/>
                <path data-name="패스 120" d="M82.446 61.794V59.41a8.189 8.189 0 0 0 0 16.378v-2.421a5.787 5.787 0 0 1 0-11.573"/>
                <path data-name="패스 121" d="M179.575 176.638a4.536 4.536 0 0 0 1.562-.709 4.739 4.739 0 0 0 1.363-1.517 5.106 5.106 0 0 0 .587-2.626 6.246 6.246 0 0 0-.366-2.082 4.579 4.579 0 0 0-1.141-1.795 4.743 4.743 0 0 0-1.639-1 7.931 7.931 0 0 0-2.726-.377h-5.074v16.4h2.393v-7.6h.045l5.406 7.6h2.991l-4.586-6.116a5.9 5.9 0 0 0 1.185-.177m-2.725-1.662q-.432.022-.675.022h-1.64v-6.27h2.526a4.439 4.439 0 0 1 1.706.288 3.359 3.359 0 0 1 1.119.731 2.65 2.65 0 0 1 .62.986 3.207 3.207 0 0 1 .189 1.052 3.037 3.037 0 0 1-.266 1.34 2.715 2.715 0 0 1-.687.9 3.248 3.248 0 0 1-.942.555 5.606 5.606 0 0 1-1.019.287 7.421 7.421 0 0 1-.931.111" transform="translate(-110.738 -107.131)" style="fill-rule:evenodd"/>
                <path data-name="패스 122" d="M245.273 168.729v-2.194h-8.841v16.4h8.841v-2.194h-6.447v-4.985h6.447v-2.194h-6.447v-4.829z" transform="translate(-152.096 -107.132)" style="fill-rule:evenodd"/>
                <path data-name="패스 123" d="M2.117 79.129H.056v6.076h2.061a3.038 3.038 0 1 0 0-6.076m0 5.625H.526v-5.183h1.591a2.591 2.591 0 1 1 0 5.183m4.07.451h.427v-4.3h-.427zm-.122-5.685a.344.344 0 0 0 .687 0 .344.344 0 0 0-.687 0m4.453 5.231a2.027 2.027 0 0 0 1.157-1.823 2.007 2.007 0 0 0-.53-1.458l.417-.486-.278-.243-.417.486a2.182 2.182 0 0 0-1.218-.391 2.084 2.084 0 0 0 0 4.167c.8 0 1.627.365 1.627 1.285s-.765 1.294-1.627 1.294-1.609-.417-1.609-1.294h-.427c0 1.085.9 1.71 2.035 1.71s2.044-.555 2.044-1.71a1.572 1.572 0 0 0-1.174-1.537m-2.461-1.823a1.517 1.517 0 0 1 1.591-1.667 1.544 1.544 0 0 1 1.609 1.667 1.648 1.648 0 0 1-1.609 1.65 1.573 1.573 0 0 1-1.591-1.65m4.5 2.274h.426v-4.3h-.426zm-.122-5.685a.344.344 0 0 0 .687 0 .344.344 0 0 0-.687 0m3.54 5.356c-.67 0-.791-.408-.791-.989v-2.613h1.461v-.356H15.18v-1.294l-.417.044v1.25h-.914v.356h.914v2.613c0 .841.3 1.38 1.209 1.38a1.878 1.878 0 0 0 .809-.218l-.148-.347a1.6 1.6 0 0 1-.661.173m5.358-3.02a1.951 1.951 0 0 0-1.757-.99 2.204 2.204 0 0 0 0 4.409 2.01 2.01 0 0 0 1.757-.981v.911h.426v-4.288h-.426zm-1.757 3a1.793 1.793 0 0 1 0-3.585 1.792 1.792 0 1 1 0 3.585m3.339.347h.426v-6.076h-.426zm6.986-2.529-2.331-3.541h-.556v6.076h.469v-5.4l2.349 3.559h.156l2.331-3.559v5.4h.461v-6.076h-.579zm7.844-.815a1.95 1.95 0 0 0-1.756-.99 2.204 2.204 0 0 0 0 4.409 2.009 2.009 0 0 0 1.756-.981v.911h.426v-4.288h-.426zm-1.756 3a1.793 1.793 0 0 1 0-3.585 1.792 1.792 0 1 1 0 3.585m3.757-3.177-.018-.764h-.4v4.288h.427v-2.5a1.425 1.425 0 0 1 1.418-1.432 1.384 1.384 0 0 1 .731.2l.191-.347a1.678 1.678 0 0 0-.922-.251 1.512 1.512 0 0 0-1.426.807m6-.746v-.017h-.565l-2.026 1.875v-3.663h-.417v6.076h.417v-2.1l2.305 2.1h.539v-.026l-2.426-2.239zm2.739-.087a2.157 2.157 0 0 0-2.185 2.215 2.105 2.105 0 0 0 2.183 2.205 2.365 2.365 0 0 0 1.853-.825l-.3-.242a2.024 2.024 0 0 1-1.548.651 1.689 1.689 0 0 1-1.748-1.588h3.86a2 2 0 0 0-2.122-2.413m-1.748 2.04a1.715 1.715 0 0 1 1.748-1.649 1.575 1.575 0 0 1 1.739 1.649zm6.749 1.988c-.67 0-.792-.408-.792-.989v-2.613h1.461v-.356h-1.457v-1.294l-.418.044v1.25h-.913v.356h.913v2.613c0 .841.3 1.38 1.209 1.38a1.875 1.875 0 0 0 .808-.218l-.147-.347a1.6 1.6 0 0 1-.661.173m1.53-5.356a.344.344 0 0 0 .687 0 .344.344 0 0 0-.687 0m.122 5.685h.426v-4.3h-.426zm3.592-4.366a1.712 1.712 0 0 0-1.531.842v-.764h-.418v4.288h.427v-2.387a1.491 1.491 0 0 1 1.5-1.562 1.375 1.375 0 0 1 1.531 1.485v2.465h.426v-2.474a1.791 1.791 0 0 0-1.939-1.892m5.74 3.915a2.028 2.028 0 0 0 1.157-1.823 2.006 2.006 0 0 0-.531-1.458l.417-.486-.277-.243-.418.486a2.184 2.184 0 0 0-1.218-.391 2.084 2.084 0 0 0 0 4.167c.8 0 1.627.365 1.627 1.285s-.765 1.294-1.627 1.294-1.609-.417-1.609-1.294h-.427c0 1.085.9 1.71 2.035 1.71s2.043-.555 2.043-1.71a1.571 1.571 0 0 0-1.174-1.536m-2.461-1.823a1.517 1.517 0 0 1 1.592-1.667 1.544 1.544 0 0 1 1.609 1.667 1.648 1.648 0 0 1-1.609 1.65 1.573 1.573 0 0 1-1.592-1.65m9.532-.495h2.129v1.7a2.751 2.751 0 0 1-1.853.7 2.528 2.528 0 0 1-2.687-2.665 2.565 2.565 0 0 1 2.687-2.709 2.835 2.835 0 0 1 1.957.781l.269-.295a3.17 3.17 0 0 0-2.227-.911 3.121 3.121 0 1 0 0 6.241 3.149 3.149 0 0 0 2.3-.981v-2.274h-2.568zm4.175-.755-.017-.764h-.4v4.288h.426v-2.5a1.426 1.426 0 0 1 1.418-1.432 1.389 1.389 0 0 1 .731.2l.192-.347a1.687 1.687 0 0 0-.923-.251 1.51 1.51 0 0 0-1.425.807m4.975-.842a2.127 2.127 0 0 0-2.184 2.231 2.183 2.183 0 1 0 4.366 0 2.126 2.126 0 0 0-2.182-2.231m0 4.011a1.7 1.7 0 0 1-1.766-1.78 1.767 1.767 0 1 1 3.531 0 1.7 1.7 0 0 1-1.765 1.78m6.618-1.554a1.491 1.491 0 0 1-1.506 1.562 1.374 1.374 0 0 1-1.53-1.484v-2.466h-.426v2.474a1.791 1.791 0 0 0 1.939 1.892 1.709 1.709 0 0 0 1.531-.842v.773h.417v-4.3h-.425zm3.826-2.44a2.05 2.05 0 0 0-1.861 1.077v-1.015h-.417v6.076h.408v-2.778a1.94 1.94 0 0 0 1.774 1.068 2.216 2.216 0 0 0 .1-4.428m-.1 4.019a1.807 1.807 0 0 1 0-3.611 1.806 1.806 0 0 1 0 3.611"/>
                <path data-name="패스 124" d="M105.779 24.377a19.509 19.509 0 1 1-5.721-13.8l.017.017 3.444-3.444-.006-.006a24.386 24.386 0 1 0 7.143 17.234z" transform="translate(-39.81)" style="fill:#08c5ff"/>
                <path data-name="사각형 87" transform="rotate(-45.001 49.723 -42.67)" style="fill:#08c5ff" d="M0 0h29.263v4.877H0z"/>
            </g>
        </g>
    </g>
</svg>
