<svg xmlns="http://www.w3.org/2000/svg" width="185.706" height="28" viewBox="0 0 185.706 28">
    <defs>
        <clipPath id="j4ep7unoca">
            <path data-name="사각형 51" style="fill:#fff" d="M0 0h185.706v28H0z"/>
        </clipPath>
    </defs>
    <g data-name="그룹 35" style="clip-path:url(#j4ep7unoca)">
        <path data-name="패스 67" d="M29.123 3.231a8.113 8.113 0 0 1 3.039 3.4 11.392 11.392 0 0 1 1.091 5.115v12.326a1.542 1.542 0 0 1-1.627 1.628 1.664 1.664 0 0 1-1.2-.449 1.55 1.55 0 0 1-.471-1.178V11.747A7.037 7.037 0 0 0 28.4 6.933a5.185 5.185 0 0 0-4.087-1.776 5.681 5.681 0 0 0-4.366 1.8 6.5 6.5 0 0 0-1.626 4.707v12.41A1.542 1.542 0 0 1 16.69 25.7a1.668 1.668 0 0 1-1.2-.449 1.554 1.554 0 0 1-.471-1.178V11.747a7.037 7.037 0 0 0-1.559-4.814 5.187 5.187 0 0 0-4.087-1.776 5.836 5.836 0 0 0-4.366 1.754A6.169 6.169 0 0 0 3.3 11.4v12.672a1.6 1.6 0 0 1-.449 1.178 1.593 1.593 0 0 1-1.177.449 1.667 1.667 0 0 1-1.2-.449A1.554 1.554 0 0 1 0 24.072V3.958a1.612 1.612 0 0 1 1.669-1.669 1.552 1.552 0 0 1 1.177.471 1.668 1.668 0 0 1 .449 1.2v.94a8.307 8.307 0 0 1 2.847-2.119 8.526 8.526 0 0 1 3.574-.749A8.437 8.437 0 0 1 13.952 3.1a7.962 7.962 0 0 1 3 3 8.692 8.692 0 0 1 3.23-3 9.3 9.3 0 0 1 4.473-1.07 8.363 8.363 0 0 1 4.472 1.2" transform="translate(0 .296)" style="fill:#fff"/>
        <path data-name="패스 68" d="M50.24 3.632a11.369 11.369 0 0 1 4.28 4.3 12.043 12.043 0 0 1 1.562 6.076v10.059a1.569 1.569 0 0 1-.471 1.155 1.62 1.62 0 0 1-1.2.471 1.667 1.667 0 0 1-1.2-.449 1.553 1.553 0 0 1-.471-1.177V21.5a10.593 10.593 0 0 1-3.809 3.231 11.056 11.056 0 0 1-5.093 1.177 11.274 11.274 0 0 1-10.035-5.842 12.18 12.18 0 0 1-1.519-6.056 12.043 12.043 0 0 1 1.566-6.077 11.36 11.36 0 0 1 4.28-4.3 12.521 12.521 0 0 1 12.111 0m-1.648 18.123a8.324 8.324 0 0 0 3.1-3.189 9.2 9.2 0 0 0 1.133-4.558A9.2 9.2 0 0 0 51.7 9.452a8.625 8.625 0 0 0-15.064 0 9.178 9.178 0 0 0-1.136 4.557 9.176 9.176 0 0 0 1.134 4.558 8.271 8.271 0 0 0 3.123 3.189 8.662 8.662 0 0 0 4.43 1.155 8.55 8.55 0 0 0 4.408-1.155" transform="translate(4.708 .302)" style="fill:#fff"/>
        <path data-name="패스 69" d="M61.265 24.344a11.224 11.224 0 0 1-4.173-4.28 12.2 12.2 0 0 1-1.519-6.056 12.8 12.8 0 0 1 1.455-6.14 10.808 10.808 0 0 1 4.023-4.258 11.015 11.015 0 0 1 5.777-1.54 10.667 10.667 0 0 1 8.689 4.108 1.309 1.309 0 0 1 .341.9 1.465 1.465 0 0 1-.726 1.2 1.44 1.44 0 0 1-.814.257 1.713 1.713 0 0 1-1.241-.642 8.754 8.754 0 0 0-2.824-2.119 8.124 8.124 0 0 0-3.425-.706A7.827 7.827 0 0 0 62.635 6.2a7.543 7.543 0 0 0-2.846 3.188 10.378 10.378 0 0 0-1 4.622 9.627 9.627 0 0 0 1.07 4.558 7.971 7.971 0 0 0 3 3.189 8.4 8.4 0 0 0 4.408 1.155 8.063 8.063 0 0 0 5.52-1.84 1.77 1.77 0 0 1 1.156-.471 1.474 1.474 0 0 1 .941.343 1.5 1.5 0 0 1 .6 1.156 1.219 1.219 0 0 1-.429.941 10.981 10.981 0 0 1-7.788 2.867 11.575 11.575 0 0 1-5.991-1.562" transform="translate(8.103 .302)" style="fill:#fff"/>
        <path data-name="패스 70" d="M93.785 3.632a11.369 11.369 0 0 1 4.28 4.3 12.043 12.043 0 0 1 1.562 6.076v10.059a1.569 1.569 0 0 1-.471 1.155 1.62 1.62 0 0 1-1.2.471 1.667 1.667 0 0 1-1.2-.449 1.554 1.554 0 0 1-.471-1.177V21.5a10.593 10.593 0 0 1-3.809 3.231 11.056 11.056 0 0 1-5.093 1.177 11.274 11.274 0 0 1-10.035-5.842 12.18 12.18 0 0 1-1.519-6.056 12.043 12.043 0 0 1 1.562-6.076 11.361 11.361 0 0 1 4.28-4.3 12.521 12.521 0 0 1 12.111 0m-1.644 18.122a8.324 8.324 0 0 0 3.1-3.189 9.2 9.2 0 0 0 1.133-4.558 9.2 9.2 0 0 0-1.133-4.557 8.625 8.625 0 0 0-15.064 0 9.178 9.178 0 0 0-1.134 4.557 9.176 9.176 0 0 0 1.134 4.558 8.271 8.271 0 0 0 3.126 3.189 8.662 8.662 0 0 0 4.43 1.155 8.55 8.55 0 0 0 4.408-1.155" transform="translate(11.057 .302)" style="fill:#fff"/>
        <path data-name="패스 71" d="M113.619 2.5a1.47 1.47 0 0 1 1.048 1.327 1.333 1.333 0 0 1-.044.385 1.305 1.305 0 0 1-.535.814 1.984 1.984 0 0 1-1.006.213c-.255 0-.7-.028-1.326-.086a9.317 9.317 0 0 0-1.027-.042 7.86 7.86 0 0 0-5.243 1.712 5.546 5.546 0 0 0-2.033 4.451v12.8a1.629 1.629 0 1 1-3.253 0V3.915a1.614 1.614 0 0 1 .428-1.2 1.889 1.889 0 0 1 2.4 0 1.618 1.618 0 0 1 .429 1.2V5.8a8.488 8.488 0 0 1 3.167-2.782 8.987 8.987 0 0 1 4.151-.984 7.076 7.076 0 0 1 2.846.471" transform="translate(14.61 .296)" style="fill:#fff"/>
        <path data-name="패스 72" d="M159.68 3.316a9.211 9.211 0 0 1 3.787 3.744 11.923 11.923 0 0 1 1.369 5.885v11.128a1.6 1.6 0 0 1-1.626 1.627 1.626 1.626 0 0 1-1.2-.47 1.571 1.571 0 0 1-.471-1.156V12.946a7.572 7.572 0 0 0-2.119-5.8 7.763 7.763 0 0 0-5.542-1.99 8.627 8.627 0 0 0-3.787.814 6.676 6.676 0 0 0-2.674 2.246 5.512 5.512 0 0 0-.985 3.189v12.668a1.54 1.54 0 0 1-1.625 1.626 1.665 1.665 0 0 1-1.2-.449 1.548 1.548 0 0 1-.472-1.177V3.958a1.613 1.613 0 0 1 1.671-1.668 1.555 1.555 0 0 1 1.177.471 1.665 1.665 0 0 1 .448 1.2v1.452a10 10 0 0 1 3.425-2.482 10.573 10.573 0 0 1 4.364-.9 11.457 11.457 0 0 1 5.457 1.284" transform="translate(20.87 .296)" style="fill:#fff"/>
        <path data-name="패스 73" d="M142.1 18.089c0 3.777-5.687 6.838-12.7 6.838s-12.7-3.062-12.7-6.838 5.685-6.838 12.7-6.838 12.7 3.062 12.7 6.838" transform="translate(17.016 1.64)" style="fill:#5843be"/>
        <path data-name="패스 74" d="M129.585 26.542c-7.925 0-14.134-3.632-14.134-8.27S121.66 10 129.585 10s14.132 3.633 14.132 8.272-6.208 8.27-14.132 8.27m0-13.677c-6.641 0-11.269 2.85-11.269 5.407s4.628 5.406 11.269 5.406 11.268-2.85 11.268-5.406-4.628-5.407-11.268-5.407" transform="translate(16.833 1.458)" style="fill:#fff"/>
        <path data-name="패스 75" d="M142.1 13.336c0 4.419-5.687 8-12.7 8s-12.7-3.583-12.7-8 5.685-8 12.7-8 12.7 3.583 12.7 8" transform="translate(17.016 .778)" style="fill:#fff"/>
        <path data-name="패스 76" d="M142.1 8.089c0 3.777-5.687 6.838-12.7 6.838s-12.7-3.062-12.7-6.838 5.685-6.838 12.7-6.838 12.7 3.062 12.7 6.838" transform="translate(17.016 .182)" style="fill:#5843be"/>
        <path data-name="패스 77" d="M129.585 16.542c-7.925 0-14.134-3.632-14.134-8.27S121.66 0 129.585 0s14.132 3.633 14.132 8.272-6.208 8.27-14.132 8.27m0-13.677c-6.641 0-11.269 2.85-11.269 5.407s4.628 5.406 11.269 5.406 11.268-2.85 11.268-5.406-4.628-5.407-11.268-5.407" transform="translate(16.833)" style="fill:#fff"/>
    </g>
</svg>
