<svg xmlns="http://www.w3.org/2000/svg" width="106.118" height="16" viewBox="0 0 106.118 16">
    <defs>
        <clipPath id="edb7i2k62a">
            <path data-name="사각형 51" d="M0 0h106.118v16H0z"/>
        </clipPath>
    </defs>
    <g data-name="그룹 35" style="clip-path:url(#edb7i2k62a)">
        <path data-name="패스 67" d="M16.642 2.015a4.636 4.636 0 0 1 1.736 1.944A6.51 6.51 0 0 1 19 6.882v7.042a.881.881 0 0 1-.929.93.951.951 0 0 1-.684-.257.886.886 0 0 1-.269-.673V6.882a4.021 4.021 0 0 0-.893-2.751 2.963 2.963 0 0 0-2.335-1.016 3.246 3.246 0 0 0-2.49 1.028 3.712 3.712 0 0 0-.929 2.69v7.092a.881.881 0 0 1-.93.93.953.953 0 0 1-.684-.257.888.888 0 0 1-.269-.673V6.882a4.021 4.021 0 0 0-.892-2.751 2.964 2.964 0 0 0-2.34-1.016 3.335 3.335 0 0 0-2.495 1 3.525 3.525 0 0 0-.978 2.568v7.238a.912.912 0 0 1-.257.673.91.91 0 0 1-.672.257.952.952 0 0 1-.685-.253.888.888 0 0 1-.269-.674V2.431a.921.921 0 0 1 .954-.954.887.887 0 0 1 .672.269.953.953 0 0 1 .257.685v.538a4.747 4.747 0 0 1 1.626-1.211 4.872 4.872 0 0 1 2.042-.428 4.821 4.821 0 0 1 2.421.612 4.55 4.55 0 0 1 1.712 1.711 4.967 4.967 0 0 1 1.846-1.711 5.317 5.317 0 0 1 2.556-.612 4.779 4.779 0 0 1 2.555.685"/>
        <path data-name="패스 68" d="M31.399 2.247a6.5 6.5 0 0 1 2.445 2.458 6.882 6.882 0 0 1 .892 3.472v5.748a.9.9 0 0 1-.269.66.926.926 0 0 1-.684.269.952.952 0 0 1-.685-.257.888.888 0 0 1-.269-.672v-1.467a6.053 6.053 0 0 1-2.177 1.846 6.317 6.317 0 0 1-2.91.672 6.442 6.442 0 0 1-5.734-3.339 6.96 6.96 0 0 1-.868-3.46 6.882 6.882 0 0 1 .892-3.472 6.492 6.492 0 0 1 2.445-2.458 7.155 7.155 0 0 1 6.921 0m-.942 10.357a4.756 4.756 0 0 0 1.774-1.819 5.257 5.257 0 0 0 .648-2.6 5.258 5.258 0 0 0-.648-2.6 4.929 4.929 0 0 0-8.608 0 5.244 5.244 0 0 0-.648 2.6 5.243 5.243 0 0 0 .648 2.6 4.726 4.726 0 0 0 1.785 1.822 4.95 4.95 0 0 0 2.531.66 4.886 4.886 0 0 0 2.519-.66"/>
        <path data-name="패스 69" d="M39.639 14.085a6.414 6.414 0 0 1-2.385-2.445 6.969 6.969 0 0 1-.868-3.46 7.311 7.311 0 0 1 .827-3.511 6.176 6.176 0 0 1 2.3-2.434 6.294 6.294 0 0 1 3.3-.88 6.1 6.1 0 0 1 4.965 2.347.748.748 0 0 1 .2.513.837.837 0 0 1-.415.685.823.823 0 0 1-.465.147.979.979 0 0 1-.709-.367 5 5 0 0 0-1.614-1.211 4.643 4.643 0 0 0-1.962-.402 4.473 4.473 0 0 0-2.4.648 4.31 4.31 0 0 0-1.626 1.822 5.93 5.93 0 0 0-.574 2.641 5.5 5.5 0 0 0 .612 2.6 4.555 4.555 0 0 0 1.712 1.822 4.8 4.8 0 0 0 2.519.66 4.608 4.608 0 0 0 3.157-1.047 1.011 1.011 0 0 1 .661-.269.843.843 0 0 1 .538.2.858.858 0 0 1 .342.661.7.7 0 0 1-.245.538 6.275 6.275 0 0 1-4.45 1.638 6.614 6.614 0 0 1-3.424-.892"/>
        <path data-name="패스 70" d="M59.91 2.247a6.5 6.5 0 0 1 2.445 2.458 6.882 6.882 0 0 1 .892 3.472v5.748a.9.9 0 0 1-.269.66.925.925 0 0 1-.684.269.952.952 0 0 1-.685-.257.888.888 0 0 1-.269-.672v-1.467a6.053 6.053 0 0 1-2.176 1.846 6.318 6.318 0 0 1-2.91.672 6.442 6.442 0 0 1-5.736-3.338 6.96 6.96 0 0 1-.868-3.46 6.882 6.882 0 0 1 .892-3.472 6.492 6.492 0 0 1 2.445-2.458 7.155 7.155 0 0 1 6.921 0m-.94 10.356a4.757 4.757 0 0 0 1.773-1.819 5.257 5.257 0 0 0 .648-2.6 5.258 5.258 0 0 0-.648-2.6 4.929 4.929 0 0 0-8.608 0 5.244 5.244 0 0 0-.648 2.6 5.243 5.243 0 0 0 .648 2.6 4.726 4.726 0 0 0 1.785 1.819 4.95 4.95 0 0 0 2.531.66 4.886 4.886 0 0 0 2.519-.66"/>
        <path data-name="패스 71" d="M73.274 1.598a.84.84 0 0 1 .6.758.761.761 0 0 1-.025.22.746.746 0 0 1-.306.465 1.134 1.134 0 0 1-.575.122c-.146 0-.4-.016-.758-.049a5.324 5.324 0 0 0-.587-.024 4.491 4.491 0 0 0-3 .978 3.169 3.169 0 0 0-1.162 2.544v7.312a.931.931 0 1 1-1.859 0V2.406a.922.922 0 0 1 .245-.684 1.079 1.079 0 0 1 1.369 0 .925.925 0 0 1 .245.684v1.076a4.85 4.85 0 0 1 1.81-1.59 5.136 5.136 0 0 1 2.372-.562 4.043 4.043 0 0 1 1.626.269"/>
        <path data-name="패스 72" d="M103.172 2.064a5.263 5.263 0 0 1 2.164 2.14 6.813 6.813 0 0 1 .782 3.363v6.358a.917.917 0 0 1-.929.929.929.929 0 0 1-.685-.268.9.9 0 0 1-.269-.661V7.566a4.327 4.327 0 0 0-1.211-3.314 4.436 4.436 0 0 0-3.167-1.137 4.93 4.93 0 0 0-2.164.465 3.815 3.815 0 0 0-1.528 1.283 3.149 3.149 0 0 0-.563 1.822v7.239a.88.88 0 0 1-.928.929.951.951 0 0 1-.685-.257.885.885 0 0 1-.27-.672V2.431a.922.922 0 0 1 .955-.953.889.889 0 0 1 .672.269.951.951 0 0 1 .256.684v.832a5.712 5.712 0 0 1 1.957-1.418 6.042 6.042 0 0 1 2.494-.514 6.547 6.547 0 0 1 3.119.734"/>
        <path data-name="패스 73" d="M131.217 15.159c0 2.158-3.249 3.908-7.257 3.908s-7.257-1.749-7.257-3.908 3.249-3.908 7.257-3.908 7.257 1.749 7.257 3.908" transform="translate(-40.292 -3.884)" style="fill:#fff"/>
        <path data-name="패스 74" d="M123.528 19.453c-4.529 0-8.076-2.076-8.076-4.726S119 10 123.528 10s8.076 2.076 8.076 4.727-3.547 4.726-8.076 4.726m0-7.816c-3.795 0-6.439 1.628-6.439 3.09s2.645 3.089 6.439 3.089 6.439-1.628 6.439-3.089-2.645-3.09-6.439-3.09" transform="translate(-39.86 -3.453)" style="fill:#5843be"/>
        <path data-name="패스 75" d="M131.217 9.907c0 2.525-3.249 4.573-7.257 4.573s-7.26-2.048-7.26-4.573 3.249-4.573 7.257-4.573 7.257 2.047 7.257 4.573" transform="translate(-40.292 -1.842)" style="fill:#5843be"/>
        <path data-name="패스 76" d="M131.217 5.159c0 2.158-3.249 3.908-7.257 3.908s-7.26-1.75-7.26-3.908 3.249-3.908 7.257-3.908 7.26 1.749 7.26 3.908" transform="translate(-40.292 -.432)" style="fill:#fff"/>
        <path data-name="패스 77" d="M123.528 9.453c-4.529 0-8.076-2.076-8.076-4.726S119 0 123.528 0s8.072 2.076 8.072 4.727-3.547 4.726-8.076 4.726m0-7.816c-3.795 0-6.439 1.628-6.439 3.09s2.645 3.089 6.439 3.089 6.439-1.628 6.439-3.089-2.645-3.09-6.439-3.09" transform="translate(-39.86)" style="fill:#5843be"/>
    </g>
</svg>
