<svg xmlns="http://www.w3.org/2000/svg" xmlns:xlink="http://www.w3.org/1999/xlink" width="192.579" height="71.143" viewBox="0 0 192.579 71.143">
  <defs>
    <clipPath id="clip-path">
      <rect id="사각형_2200" data-name="사각형 2200" width="83.071" height="71.143" fill="#fff"/>
    </clipPath>
  </defs>
  <g id="그룹_6344" data-name="그룹 6344" transform="translate(-1115.728 -2227.18)">
    <g id="그룹_1512" data-name="그룹 1512" transform="translate(1203.805 2268.424)">
      <g id="그룹_1511" data-name="그룹 1511">
        <path id="패스_1278" data-name="패스 1278" d="M409.774,579.16H389.09v-2.695h8.734v-4.331h-7.1v-2.7h2.945l-.075-6.582h-2.375v-2.721h16.4v2.721h-2.448l-.074,6.582h2.995v2.7h-7.077v4.331h8.759Zm-13.065-16.3.074,6.582h5.269l.075-6.582Z" transform="translate(-389.09 -559.267)" fill="#fff"/>
        <path id="패스_1279" data-name="패스 1279" d="M413.872,567.663v2.425a48.519,48.519,0,0,1-6.754.52H401.9V560.292h10.492v2.448h-7.375v1.51h7.127V566.5h-7.127v1.634h2.823A48.968,48.968,0,0,0,413.872,567.663Zm5.965,14.055H404.026V575.8h12.05v-1.386h-12.05v-2.4h15.341v5.888h-12v1.387h12.472Zm-.4-10.542h-3.066v-4.9h-3.268v-2.6h3.268v-4.034h3.066Z" transform="translate(-379.176 -559.646)" fill="#fff"/>
        <path id="패스_1280" data-name="패스 1280" d="M421.848,560.514v5.195a10.721,10.721,0,0,0,5.567,9.651,26.52,26.52,0,0,0-2.3,2.053,15.772,15.772,0,0,1-4.852-5.393c-.69,2.152-3.388,4.825-4.948,5.839a22.055,22.055,0,0,0-2.548-2.03,12.084,12.084,0,0,0,4.478-4.451,11.924,11.924,0,0,0,1.363-5.668v-5.195Zm10.689,21.279H429.42V559.646h3.117Z" transform="translate(-370.761 -559.646)" fill="#fff"/>
        <path id="패스_1281" data-name="패스 1281" d="M445.772,579.012H425.088v-2.723h20.684Zm-8.661-19v2.053c0,3.983,3.86,7.3,7.918,8.264a29.663,29.663,0,0,0-2,2.276,14.621,14.621,0,0,1-7.621-5.814,13.289,13.289,0,0,1-7.57,5.839c-.5-.594-1.238-1.46-2.1-2.351,4.38-1.187,7.967-4.132,7.967-8.214V560.01Z" transform="translate(-361.224 -559.364)" fill="#fff"/>
        <path id="패스_1282" data-name="패스 1282" d="M447.07,569.074v2.5c-.545.122-1.98.2-3.316.323-2.1.172-5.741.123-5.913.123v-11.58h7.992v2.647h-4.975v1.756h4.529v2.5h-4.529v2.1c.075,0,1.336.048,2.821-.05C444.916,569.322,446.5,569.175,447.07,569.074Zm8.757,12.5H440.165v-8.019h15.662Zm-3.115-2.6v-2.8h-9.428v2.8Zm-1.336-6.211h-2.945v-5.814h-2.251V564.2h2.251v-4.182h2.945Zm4.478,0h-2.945V559.646h2.945Z" transform="translate(-351.351 -559.646)" fill="#fff"/>
      </g>
    </g>
    <g id="그룹_6343" data-name="그룹 6343" transform="translate(1115.728 2227.18)">
      <g id="그룹_6342" data-name="그룹 6342" clip-path="url(#clip-path)">
        <path id="패스_5923" data-name="패스 5923" d="M96.065,99.882a.988.988,0,0,0,1.013-1.119V96.546h-.655v2.163c0,.451-.151.606-.438.606a.552.552,0,0,1-.487-.34l-.452.331a1.081,1.081,0,0,0,1.018.575m1.712-.062h2.057v-.549h-1.4V98.4h1.15v-.549h-1.15V97.09h1.354v-.544H97.776Zm3.933.062c.867,0,1.465-.65,1.465-1.712s-.6-1.685-1.465-1.685-1.464.62-1.464,1.685.6,1.712,1.464,1.712m0-.566c-.486,0-.8-.447-.8-1.146s.31-1.123.8-1.123.8.42.8,1.123-.31,1.146-.8,1.146m2.017.5h.62V98.506c0-.376-.048-.788-.08-1.142h.023l.331.7.947,1.752h.664V96.546h-.62v1.3c0,.371.049.8.084,1.146h-.022l-.328-.708-.951-1.743h-.668Zm3.225,0h.62V98.506c0-.376-.048-.788-.08-1.142h.022l.332.7.947,1.752h.663V96.546h-.619v1.3c0,.371.048.8.084,1.146H108.9l-.327-.708-.952-1.743h-.668Zm3.84-1.35.1-.358c.1-.34.194-.712.279-1.07h.017c.1.354.186.73.288,1.07l.1.358Zm1.15,1.35h.686l-1.053-3.274h-.77l-1.048,3.274h.664l.23-.841h1.062Zm.982,0h.588V98.453c0-.31-.053-.766-.084-1.075h.017l.261.77.508,1.376h.376l.5-1.376.266-.77h.018c-.031.31-.08.766-.08,1.075V99.82h.6V96.546h-.725l-.544,1.53c-.071.2-.128.42-.2.633h-.022c-.066-.212-.128-.429-.2-.633l-.557-1.53h-.725Z" transform="translate(-38.205 -38.782)" fill="#fff"/>
        <path id="패스_5924" data-name="패스 5924" d="M96.854,91.005a1.54,1.54,0,0,0,1.062-.394V89.134H96.753v.535h.579v.646a.662.662,0,0,1-.411.124c-.642,0-.969-.429-.969-1.142s.38-1.128.925-1.128a.858.858,0,0,1,.641.274l.35-.416a1.377,1.377,0,0,0-1.013-.42,1.565,1.565,0,0,0-1.57,1.712,1.524,1.524,0,0,0,1.57,1.686m1.951-.062h.8l.358-1.619c.053-.257.1-.509.142-.757h.017c.04.248.089.5.142.757l.367,1.619h.814l.606-3.274h-.624l-.257,1.6c-.048.34-.1.69-.146,1.044H101c-.071-.353-.137-.707-.208-1.044l-.381-1.6h-.557l-.38,1.6c-.071.34-.141.694-.208,1.044h-.017c-.048-.349-.1-.7-.15-1.044l-.261-1.6h-.668Zm4.264-1.349.1-.358c.1-.341.194-.712.278-1.07h.018c.1.354.186.73.288,1.07l.1.358Zm1.151,1.349h.685l-1.053-3.274h-.77l-1.049,3.274h.664l.23-.84h1.062Zm.982,0h.62V89.629c0-.376-.049-.787-.08-1.141h.022l.332.7.947,1.752h.664V87.67h-.62v1.3c0,.372.049.806.084,1.146h-.022l-.328-.708-.951-1.743H105.2Zm4.632.062a1.54,1.54,0,0,0,1.062-.394V89.134h-1.164v.535h.58v.646a.659.659,0,0,1-.411.124c-.642,0-.969-.429-.969-1.142s.38-1.128.925-1.128a.859.859,0,0,1,.641.274l.35-.416a1.378,1.378,0,0,0-1.013-.42,1.564,1.564,0,0,0-1.57,1.712,1.524,1.524,0,0,0,1.57,1.686m2.389,0a.989.989,0,0,0,1.013-1.12V87.67h-.655v2.163c0,.452-.15.606-.438.606a.552.552,0,0,1-.487-.341l-.451.332a1.08,1.08,0,0,0,1.017.575m2.968,0c.8,0,1.265-.447,1.265-1.535v-1.8h-.629v1.858c0,.681-.248.911-.637.911s-.619-.23-.619-.911V87.67h-.655v1.8c0,1.088.478,1.535,1.274,1.535" transform="translate(-38.3 -35.215)" fill="#fff"/>
        <path id="패스_5925" data-name="패스 5925" d="M96.8,82.128c.8,0,1.265-.447,1.265-1.535v-1.8h-.628V80.65c0,.681-.248.911-.637.911s-.62-.23-.62-.911V78.792h-.655v1.8c0,1.088.478,1.535,1.274,1.535m1.964-.062h.62V80.752c0-.376-.049-.788-.08-1.141h.022l.332.7.947,1.752h.663V78.792h-.619v1.3c0,.371.048.8.084,1.146h-.022l-.327-.708-.951-1.743h-.668Zm3.225,0h.655V78.792h-.655Zm1.947,0h.779l1-3.274h-.664l-.425,1.593c-.1.362-.177.69-.279,1.057h-.022c-.106-.367-.173-.695-.274-1.057l-.434-1.593h-.685Zm2.07,0h2.057v-.548h-1.4v-.876h1.15v-.548h-1.15v-.756h1.354v-.545h-2.009Zm3.287-2.756h.425c.42,0,.651.12.651.474s-.23.526-.651.526h-.425Zm1.858,2.756-.765-1.341a.937.937,0,0,0,.624-.942c0-.752-.544-.991-1.23-.991H108.64v3.274h.654V80.827h.456l.673,1.239Zm1.323.062a1.065,1.065,0,0,0,1.2-.992.9.9,0,0,0-.659-.889l-.429-.182c-.279-.111-.513-.194-.513-.429,0-.217.186-.345.473-.345a1.046,1.046,0,0,1,.695.27l.332-.411a1.454,1.454,0,0,0-1.027-.42,1.021,1.021,0,0,0-1.132.947.948.948,0,0,0,.663.88l.438.186c.292.124.491.2.491.443s-.182.376-.522.376a1.289,1.289,0,0,1-.832-.362l-.376.451a1.742,1.742,0,0,0,1.194.478m1.694-.062h.654V78.792h-.654Zm2.021,0h.655V79.337h.929v-.545h-2.5v.545h.92Zm2.5,0h.655v-1.2l.986-2.075h-.681l-.327.8c-.093.243-.19.474-.292.726h-.018c-.1-.252-.19-.483-.283-.726l-.328-.8H117.7l.982,2.075Z" transform="translate(-38.398 -31.646)" fill="#fff"/>
        <path id="패스_5926" data-name="패스 5926" d="M95.558,73.189h.655V69.916h-.655Zm1.371,0h.619V71.875c0-.376-.048-.787-.08-1.141h.022l.332.7.947,1.752h.663V69.916h-.619v1.3c0,.371.048.8.084,1.145h-.022l-.327-.707L97.6,69.916h-.667Zm3.225,0h.62V71.875c0-.376-.049-.787-.08-1.141h.022l.332.7.947,1.752h.664V69.916h-.62v1.3c0,.371.048.8.084,1.145H102.1l-.328-.707-.951-1.743h-.668Zm4.525.062c.867,0,1.465-.65,1.465-1.712s-.6-1.685-1.465-1.685-1.464.62-1.464,1.685.6,1.712,1.464,1.712m0-.566c-.487,0-.8-.447-.8-1.146s.309-1.124.8-1.124.8.42.8,1.124-.31,1.146-.8,1.146m2.539.5H108l1-3.273h-.664l-.425,1.592c-.1.363-.177.69-.279,1.057h-.022c-.106-.367-.172-.694-.274-1.057l-.434-1.592h-.686Zm2.6-1.349.1-.358c.1-.34.195-.712.279-1.07h.018c.1.354.185.73.288,1.07l.1.358Zm1.151,1.349h.685L110.6,69.916h-.77l-1.048,3.273h.663l.23-.84h1.062Zm1.292,0h.654V70.46h.929v-.544h-2.5v.544h.92Zm2.026,0h.655V69.916h-.655Zm2.672.062c.867,0,1.464-.65,1.464-1.712s-.6-1.685-1.464-1.685-1.464.62-1.464,1.685.6,1.712,1.464,1.712m0-.566c-.487,0-.8-.447-.8-1.146s.309-1.124.8-1.124.8.42.8,1.124-.31,1.146-.8,1.146m2.017.5h.62V71.875c0-.376-.049-.787-.08-1.141h.022l.332.7.947,1.752h.664V69.916h-.62v1.3c0,.371.048.8.084,1.145h-.022l-.328-.707-.951-1.743h-.668Z" transform="translate(-38.41 -28.078)" fill="#fff"/>
        <path id="패스_5927" data-name="패스 5927" d="M30.531,22.472a16.259,16.259,0,0,0-4.3,2.719c-.243.215-.483.435-.712.664a16.069,16.069,0,0,0-3.383,5.01A15.225,15.225,0,0,0,20.885,37q0,7.463,0,14.93,0,5.976,0,11.952a4.867,4.867,0,0,1-1.5,3.634,4.973,4.973,0,0,1-3.591,1.461,4.993,4.993,0,0,1-5.095-5.095V22.054q-.529.184-1.045.408a15.871,15.871,0,0,0-8.394,8.394A15.2,15.2,0,0,0,0,36.939V63.886a15.2,15.2,0,0,0,1.253,6.138,15.866,15.866,0,0,0,8.393,8.394,15.2,15.2,0,0,0,6.139,1.253,15.2,15.2,0,0,0,6.138-1.253,16.2,16.2,0,0,0,4.31-2.728c.239-.212.474-.428.7-.654a16.081,16.081,0,0,0,3.383-5.012,15.25,15.25,0,0,0,1.253-6.138q0-5.978,0-11.952,0-7.466,0-14.93a5.1,5.1,0,1,1,10.19,0H52.455A15.215,15.215,0,0,0,51.2,30.865a15.871,15.871,0,0,0-8.394-8.394,15.666,15.666,0,0,0-12.278,0" transform="translate(0 -8.529)" fill="#fff"/>
        <path id="패스_5928" data-name="패스 5928" d="M46.914,82.978c0,2.169-1.663,3.513-2.5,5.433s-.182,4.147-2.186,4.044c-.769-.039.99,2.076.751,2.288a17.345,17.345,0,0,0,4.447,2.812,15.663,15.663,0,0,0,12.277,0A15.87,15.87,0,0,0,68.1,89.16a15.214,15.214,0,0,0,1.253-6.138v-13.7h-.024v-.5H53.12v8.916h5.541v5.281a5.11,5.11,0,0,1-8.687,3.634,4.868,4.868,0,0,1-1.5-3.634Z" transform="translate(-16.896 -27.665)" fill="#fff"/>
        <path id="패스_5929" data-name="패스 5929" d="M11.6,5.259A5.259,5.259,0,1,1,6.342,0,5.259,5.259,0,0,1,11.6,5.259" transform="translate(-0.435)" fill="#fff"/>
      </g>
    </g>
  </g>
</svg>
