<svg width="100" height="20" viewBox="0 0 100 20" fill="none" xmlns="http://www.w3.org/2000/svg">
<path d="M9.04458 3.09181C9.33496 2.15213 10.665 2.15213 10.9554 3.09181L11.9068 6.17063C12.0363 6.58964 12.4237 6.87539 12.8623 6.87539H16.0437C17.0002 6.87539 17.4109 8.08937 16.6508 8.67004L13.992 10.7012C13.659 10.9556 13.5199 11.3907 13.6436 11.7911L14.6386 15.0108C14.9261 15.941 13.8498 16.6918 13.0761 16.1007L10.6071 14.2145C10.2487 13.9407 9.75134 13.9407 9.39294 14.2145L6.92389 16.1007C6.1502 16.6918 5.07395 15.941 5.3614 15.0108L6.35636 11.7911C6.48009 11.3907 6.34103 10.9556 6.008 10.7012L3.34923 8.67004C2.58912 8.08937 2.99976 6.87539 3.9563 6.87539H7.13775C7.5763 6.87539 7.96369 6.58964 8.09317 6.17063L9.04458 3.09181Z" fill="#FACC15"/>
<path d="M29.0446 3.09181C29.335 2.15213 30.665 2.15213 30.9554 3.09181L31.9068 6.17063C32.0363 6.58964 32.4237 6.87539 32.8623 6.87539H36.0437C37.0002 6.87539 37.4109 8.08937 36.6508 8.67004L33.992 10.7012C33.659 10.9556 33.5199 11.3907 33.6436 11.7911L34.6386 15.0108C34.9261 15.941 33.8498 16.6918 33.0761 16.1007L30.6071 14.2145C30.2487 13.9407 29.7513 13.9407 29.3929 14.2145L26.9239 16.1007C26.1502 16.6918 25.0739 15.941 25.3614 15.0108L26.3564 11.7911C26.4801 11.3907 26.341 10.9556 26.008 10.7012L23.3492 8.67004C22.5891 8.08937 22.9998 6.87539 23.9563 6.87539H27.1377C27.5763 6.87539 27.9637 6.58964 28.0932 6.17063L29.0446 3.09181Z" fill="#FACC15"/>
<path d="M49.0446 3.09181C49.335 2.15213 50.665 2.15213 50.9554 3.09181L51.9068 6.17063C52.0363 6.58964 52.4237 6.87539 52.8623 6.87539H56.0437C57.0002 6.87539 57.4109 8.08937 56.6508 8.67004L53.992 10.7012C53.659 10.9556 53.5199 11.3907 53.6436 11.7911L54.6386 15.0108C54.9261 15.941 53.8498 16.6918 53.0761 16.1007L50.6071 14.2145C50.2487 13.9407 49.7513 13.9407 49.3929 14.2145L46.9239 16.1007C46.1502 16.6918 45.0739 15.941 45.3614 15.0108L46.3564 11.7911C46.4801 11.3907 46.341 10.9556 46.008 10.7012L43.3492 8.67004C42.5891 8.08937 42.9998 6.87539 43.9563 6.87539H47.1377C47.5763 6.87539 47.9637 6.58964 48.0932 6.17063L49.0446 3.09181Z" fill="#FACC15"/>
<path d="M69.0446 3.09181C69.335 2.15213 70.665 2.15213 70.9554 3.09181L71.9068 6.17063C72.0363 6.58964 72.4237 6.87539 72.8623 6.87539H76.0437C77.0002 6.87539 77.4109 8.08937 76.6508 8.67004L73.992 10.7012C73.659 10.9556 73.5199 11.3907 73.6436 11.7911L74.6386 15.0108C74.9261 15.941 73.8498 16.6918 73.0761 16.1007L70.6071 14.2145C70.2487 13.9407 69.7513 13.9407 69.3929 14.2145L66.9239 16.1007C66.1502 16.6918 65.0739 15.941 65.3614 15.0108L66.3564 11.7911C66.4801 11.3907 66.341 10.9556 66.008 10.7012L63.3492 8.67004C62.5891 8.08937 62.9998 6.87539 63.9563 6.87539H67.1377C67.5763 6.87539 67.9637 6.58964 68.0932 6.17063L69.0446 3.09181Z" fill="#FACC15"/>
<path d="M89.0446 3.09181C89.335 2.15213 90.665 2.15213 90.9554 3.09181L91.9068 6.17063C92.0363 6.58964 92.4237 6.87539 92.8623 6.87539H96.0437C97.0002 6.87539 97.4109 8.08937 96.6508 8.67004L93.992 10.7012C93.659 10.9556 93.5199 11.3907 93.6436 11.7911L94.6386 15.0108C94.9261 15.941 93.8498 16.6918 93.0761 16.1007L90.6071 14.2145C90.2487 13.9407 89.7513 13.9407 89.3929 14.2145L86.9239 16.1007C86.1502 16.6918 85.0739 15.941 85.3614 15.0108L86.3564 11.7911C86.4801 11.3907 86.341 10.9556 86.008 10.7012L83.3492 8.67004C82.5891 8.08937 82.9998 6.87539 83.9563 6.87539H87.1377C87.5763 6.87539 87.9637 6.58964 88.0932 6.17063L89.0446 3.09181Z" fill="#FACC15"/>
</svg>
