<svg xmlns="http://www.w3.org/2000/svg" width="37" height="37" viewBox="0 0 37 37">
    <path data-name="패스 3274" d="M18.5 0A18.5 18.5 0 1 1 0 18.5 18.5 18.5 0 0 1 18.5 0z" style="fill:#f7f7f7"/>
    <g data-name="그룹 7429" transform="translate(11.532 10.927)">
        <path data-name="Icon awesome-user-check" d="M9.755 20.25h-.519a5.415 5.415 0 0 1-4.535 0h-.52A4.182 4.182 0 0 0 0 24.431v1.294a1.494 1.494 0 0 0 1.493 1.493h10.95a1.494 1.494 0 0 0 1.493-1.493v-1.294a4.182 4.182 0 0 0-4.181-4.181z" transform="translate(0 -12.072)" style="fill:#f24b3e"/>
        <circle data-name="타원 290" cx="3.656" cy="3.656" r="3.656" transform="translate(3.312)" style="fill:#f24b3e"/>
    </g>
</svg>
