<svg xmlns="http://www.w3.org/2000/svg" width="30.118" height="30.119" viewBox="0 0 30.118 30.119">
    <path data-name="패스 6210" d="M1214.237 1213.223h1.493v28.625h28.625v1.494h-30.118z" transform="translate(-1214.237 -1213.223)" style="fill:#ffd6d6;fill-rule:evenodd"/>
    <path data-name="패스 6211" d="M1282.463 1245.211c-2.418-1.244-3.2-5.441-3.983-9.708-.853-4.729-1.742-9.565-4.658-9.565a2.44 2.44 0 0 0-1.813.96 10.517 10.517 0 0 0-1.743 2.916l-1.387-.64a12.219 12.219 0 0 1 2.027-3.307 3.887 3.887 0 0 1 2.916-1.458c4.16 0 5.156 5.476 6.152 10.81.711 3.911 1.422 7.752 3.2 8.676zm-14.472-8.854-.178.64c-1.778 5.867-3.52 11.663-7.041 11.806l-.036-1.494c2.418-.107 4.018-5.369 5.618-10.739l.214-.64z" transform="translate(-1253.197 -1222.595)" style="fill:#f1f1f1"/>
    <path data-name="패스 6212" d="M1240.557 1263.779c1.351-.711 1.92-3.769 2.489-6.863.782-4.338 1.6-8.819 5.085-8.819 3.165 0 4.658 4.978 6.116 9.886 1.28 4.267 2.56 8.463 4.409 8.534l-.036 1.493c-2.951-.107-4.374-4.836-5.8-9.6-1.316-4.374-2.631-8.783-4.694-8.783-2.2 0-2.916 3.8-3.591 7.539-.64 3.485-1.28 6.9-3.271 7.93z" transform="translate(-1236.29 -1242.443)" style="fill:#f53a31"/>
</svg>
