<svg xmlns="http://www.w3.org/2000/svg" width="32.322" height="28.281" viewBox="0 0 32.322 28.281">
    <path data-name="패스 6207" d="m275.038 290.863-4.438-.963v-1.312a10.6 10.6 0 0 0 .674-1.207 7.754 7.754 0 0 1 .525-.951 5.489 5.489 0 0 0 1.727-2.739 2.407 2.407 0 0 0-.236-1.979 14.8 14.8 0 0 0-.283-3.38 3.828 3.828 0 0 0-.9-2.76 2.693 2.693 0 0 0-1.638-.7 3.021 3.021 0 0 1-.5-.109 5.972 5.972 0 0 0-2.89-.759 6.69 6.69 0 0 0-5.922 4.074 9.511 9.511 0 0 0-.238 3.059v.492a2.8 2.8 0 0 0-.225 2.06 5.484 5.484 0 0 0 1.72 2.735 7.6 7.6 0 0 1 .541.963 10.812 10.812 0 0 0 .675 1.2v1.313l-4.437.965A4.061 4.061 0 0 0 256 294.81v2.422a1.01 1.01 0 0 0 1.01 1.01h20.2a1.009 1.009 0 0 0 1.01-1.01v-2.422a4.061 4.061 0 0 0-3.182-3.947z" transform="translate(-256 -269.962)" style="fill:#ffd6d6"/>
    <path data-name="패스 6208" d="m316.04 279.174-4.411-.982v-1.375c3.464-.345 4.21-1.063 4.21-2.022 0-2.27-1.486-7.482-1.755-8.4a3.827 3.827 0 0 0-.921-2.8 2.731 2.731 0 0 0-1.659-.709 2.923 2.923 0 0 1-.521-.117 6.111 6.111 0 0 0-2.931-.761 6.957 6.957 0 0 0-5.495 3.116 3.991 3.991 0 0 1 1.912 1.121 5.62 5.62 0 0 1 1.431 3.855 15.776 15.776 0 0 1 .29 3.151 4.8 4.8 0 0 1 .2 2.891 7.206 7.206 0 0 1-2.131 3.612c-.093.168-.207.4-.295.576l-.038.075 2.425.527a6.08 6.08 0 0 1 4.723 5.315h7.124a1.01 1.01 0 0 0 1.01-1.01v-2.115a4.015 4.015 0 0 0-3.168-3.948z" transform="translate(-286.882 -262.002)" style="fill:#f53a31"/>
</svg>
