<svg xmlns="http://www.w3.org/2000/svg" width="16.927" height="16.915" viewBox="0 0 16.927 16.915">
  <defs>
    <style>
      .cls-1 {
        fill: #f2574b;
        stroke: rgba(0,0,0,0);
        stroke-miterlimit: 10;
      }
    </style>
  </defs>
  <path id="menu_qna_icon" class="cls-1" d="M14.867,15.874l-2.992-1a7.973,7.973,0,1,1,3-3l1,2.992a.8.8,0,0,1-.754,1.047A.784.784,0,0,1,14.867,15.874ZM1.591,7.958a6.357,6.357,0,0,0,9.763,5.377.787.787,0,0,1,.678-.082l1.829.609-.609-1.83a.793.793,0,0,1,.082-.677,6.363,6.363,0,1,0-11.743-3.4Zm3.183,2.785a.8.8,0,0,1,0-1.591H7.957a.8.8,0,1,1,0,1.591Zm0-3.979a.8.8,0,0,1,0-1.591h6.366a.8.8,0,1,1,0,1.591Z" transform="translate(0.5 0.5)"/>
</svg>
