<svg xmlns="http://www.w3.org/2000/svg" width="16.06" height="14.917" viewBox="0 0 16.06 14.917">
  <defs>
    <style>
      .cls-1 {
        fill: #f2685d;
        stroke: rgba(0,0,0,0);
        stroke-miterlimit: 10;
      }
    </style>
  </defs>
  <g id="menu_down_icon" transform="translate(0.5 0.5)">
    <path id="합치기_3" data-name="합치기 3" class="cls-1" d="M.754,13.917A.75.75,0,0,1,0,13.172V7.2a.75.75,0,0,1,.754-.746.75.75,0,0,1,.755.746v5.221H13.55V7.2a.755.755,0,0,1,1.509,0v5.967a.75.75,0,0,1-.755.745ZM7.241,9.876A.741.741,0,0,1,7,9.715L3.977,6.732a.739.739,0,0,1,0-1.055.761.761,0,0,1,1.067,0l1.731,1.71V.746a.755.755,0,0,1,1.509,0V7.387l1.731-1.71a.761.761,0,0,1,1.067,0,.739.739,0,0,1,0,1.055L8.064,9.715a.742.742,0,0,1-.246.161.751.751,0,0,1-.577,0Z"/>
  </g>
</svg>
