<svg xmlns="http://www.w3.org/2000/svg" width="16.916" height="16.916" viewBox="0 0 16.916 16.916">
  <defs>
    <style>
      .cls-1 {
        fill: #f2685d;
        stroke: rgba(0,0,0,0);
        stroke-miterlimit: 10;
      }
    </style>
  </defs>
  <path id="menu_board_icon" class="cls-1" d="M5.57,15.916a.8.8,0,0,1-.8-.8V5.57a.8.8,0,0,1,.8-.8h9.55a.8.8,0,0,1,.8.8v9.55a.8.8,0,0,1-.8.8Zm.8-1.592h7.958V6.366H6.366ZM.8,11.141a.8.8,0,0,1-.8-.8V.8A.8.8,0,0,1,.8,0h9.55a.8.8,0,0,1,.8.8V2.387a.8.8,0,0,1-1.592,0v-.8H1.591V9.549h.8a.8.8,0,1,1,0,1.592Z" transform="translate(0.5 0.5)"/>
</svg>
