<svg xmlns="http://www.w3.org/2000/svg" width="17.607" height="15.574" viewBox="0 0 17.607 15.574">
  <defs>
    <style>
      .cls-1 {
        fill: #f2685d;
        stroke: rgba(0,0,0,0);
        stroke-miterlimit: 10;
      }
    </style>
  </defs>
  <path id="menu_shop_icon" class="cls-1" d="M3.775,14.571a2.285,2.285,0,0,1-2.265-2.3V6.135H.755a.767.767,0,0,1,0-1.534h1.86l2.8-4.26A.747.747,0,0,1,6.458.129a.774.774,0,0,1,.209,1.063L4.43,4.6h7.747L9.94,1.192A.774.774,0,0,1,10.15.129.747.747,0,0,1,11.2.342l2.8,4.26h1.861a.767.767,0,0,1,0,1.534H15.1V12.27a2.285,2.285,0,0,1-2.265,2.3Zm-.755-2.3a.762.762,0,0,0,.755.767h9.058a.762.762,0,0,0,.755-.767V6.135H3.02Zm7.549-1.15V8.053a.755.755,0,1,1,1.509,0V11.12a.755.755,0,1,1-1.509,0Zm-3.02,0V8.053a.755.755,0,1,1,1.51,0V11.12a.755.755,0,1,1-1.51,0Zm-3.02,0V8.053a.755.755,0,1,1,1.51,0V11.12a.755.755,0,1,1-1.51,0Z" transform="translate(0.5 0.502)"/>
</svg>
