<svg xmlns="http://www.w3.org/2000/svg" width="17.607" height="17.607" viewBox="0 0 17.607 17.607">
  <defs>
    <style>
      .cls-1 {
        fill: #f2685d;
        stroke: rgba(0,0,0,0);
        stroke-miterlimit: 10;
      }
    </style>
  </defs>
  <path id="menu_video_icon" class="cls-1" d="M0,8.3a8.3,8.3,0,1,1,8.3,8.3A8.313,8.313,0,0,1,0,8.3Zm1.51,0A6.794,6.794,0,1,0,8.3,1.51,6.8,6.8,0,0,0,1.51,8.3ZM4.7,11.045a.755.755,0,0,1,1.171-.954,3.021,3.021,0,0,0,4.868,0,.755.755,0,0,1,1.171.954,4.528,4.528,0,0,1-7.21,0Zm5.115-3.5V6.039a.755.755,0,0,1,1.51,0v1.51a.755.755,0,0,1-1.51,0Zm-4.529,0V6.039a.755.755,0,0,1,1.51,0v1.51a.755.755,0,1,1-1.51,0Z" transform="translate(0.5 0.5)"/>
</svg>
