<svg xmlns="http://www.w3.org/2000/svg" width="19.2" height="19.2" viewBox="0 0 19.2 19.2">
  <defs>
    <style>
      .cls-1 {
        fill: #f2685d;
        stroke: rgba(0,0,0,0);
        stroke-miterlimit: 10;
      }
    </style>
  </defs>
  <path id="menu_money_icon" class="cls-1" d="M0,9.1a9.1,9.1,0,1,1,9.1,9.1A9.11,9.11,0,0,1,0,9.1Zm1.654,0A7.446,7.446,0,1,0,9.1,1.655,7.455,7.455,0,0,0,1.654,9.1Zm6.734,6.152V14.208A2.693,2.693,0,0,1,5.7,11.484v-.192H7.092v.228A1.479,1.479,0,0,0,8.388,13V9.8c-.1-.024-.192-.036-.288-.06-1.488-.312-2.4-1.14-2.4-2.6A2.612,2.612,0,0,1,8.388,4.549V3.516H9.36V4.572a2.582,2.582,0,0,1,2.5,2.569v.144h-1.4V7.141A1.336,1.336,0,0,0,9.36,5.809v2.9c1.812.337,2.844,1.165,2.844,2.772A2.75,2.75,0,0,1,9.36,14.22v1.032ZM9.36,13.02a1.5,1.5,0,0,0,1.44-1.5c0-.779-.432-1.308-1.44-1.524ZM7.092,7.141c0,.768.42,1.188,1.3,1.391V5.773A1.347,1.347,0,0,0,7.092,7.141Z" transform="translate(0.5 0.5)"/>
</svg>
