<svg width="13" height="13" viewBox="0 0 13 13" fill="none" xmlns="http://www.w3.org/2000/svg">
    <path d="M7.583 1.303c-.437-.767-1.604-.767-2.04 0l-1.431 2.51a.398.398 0 0 1-.513.154.354.354 0 0 1-.168-.498L4.862.96c.728-1.279 2.673-1.278 3.4 0l1.55 2.72.229-1.287a.384.384 0 0 1 .444-.299c.21.034.352.22.317.419l-.386 2.182a.364.364 0 0 1-.182.252.407.407 0 0 1-.32.034l-2.317-.728a.36.36 0 0 1-.244-.46.392.392 0 0 1 .489-.23l1.252.393-1.511-2.652zm3.105 4.66a.354.354 0 0 0-.167.498l1.567 2.75c.414.727-.145 1.607-1.02 1.607h-3.19l.886-.834a.35.35 0 0 0 0-.515.403.403 0 0 0-.545 0l-1.544 1.455a.35.35 0 0 0 0 .515l1.544 1.454c.15.143.395.143.545 0a.35.35 0 0 0 0-.514l-.884-.833h3.187c1.46 0 2.391-1.467 1.7-2.679l-1.566-2.75a.398.398 0 0 0-.513-.154zm-8.632 4.855h2.575c.213 0 .386.163.386.364 0 .201-.173.364-.386.364H2.056c-1.459 0-2.39-1.467-1.7-2.679l1.655-2.905-1.503.472a.392.392 0 0 1-.488-.23.36.36 0 0 1 .244-.46l2.316-.728a.407.407 0 0 1 .294.02.371.371 0 0 1 .194.21L3.84 7.43a.36.36 0 0 1-.244.46.392.392 0 0 1-.488-.23l-.455-1.286-1.617 2.838c-.414.727.145 1.607 1.02 1.607z" fill="#1DCD4E"/>
</svg>
