<svg width="28" height="28" viewBox="0 0 28 28" fill="none" xmlns="http://www.w3.org/2000/svg">
    <circle cx="14" cy="14" r="13.5" stroke="#D4D4D8"/>
    <path d="M14 8.447c1.81 0 2.024.007 2.738.04.43.005.855.084 1.258.233a2.244 2.244 0 0 1 1.286 1.286c.15.402.228.828.233 1.258.032.714.04.928.04 2.737 0 1.809-.007 2.023-.04 2.737a3.76 3.76 0 0 1-.233 1.259 2.243 2.243 0 0 1-1.286 1.285c-.403.15-.828.228-1.258.234-.714.032-.928.039-2.737.039-1.81 0-2.024-.007-2.738-.04a3.758 3.758 0 0 1-1.258-.233 2.244 2.244 0 0 1-1.286-1.285 3.758 3.758 0 0 1-.233-1.259c-.032-.714-.04-.928-.04-2.737 0-1.809.008-2.023.04-2.737.005-.43.084-.855.233-1.258a2.243 2.243 0 0 1 1.286-1.286c.403-.15.829-.228 1.258-.233.715-.033.929-.04 2.738-.04zm0-1.22c-1.838 0-2.07.007-2.792.04a4.973 4.973 0 0 0-1.645.315c-.452.17-.861.437-1.2.782a3.318 3.318 0 0 0-.782 1.2 4.974 4.974 0 0 0-.314 1.645c-.033.721-.04.953-.04 2.792 0 1.838.007 2.07.04 2.793.011.562.118 1.118.315 1.645.17.452.437.861.782 1.2.338.344.747.611 1.2.781a4.972 4.972 0 0 0 1.645.315c.722.032.953.04 2.792.04 1.84 0 2.07-.007 2.793-.04a4.972 4.972 0 0 0 1.645-.315 3.468 3.468 0 0 0 1.981-1.982 4.974 4.974 0 0 0 .315-1.645c.032-.722.04-.954.04-2.792 0-1.839-.008-2.07-.04-2.793a4.974 4.974 0 0 0-.316-1.645 3.32 3.32 0 0 0-.781-1.2 3.319 3.319 0 0 0-1.2-.782 4.974 4.974 0 0 0-1.645-.314c-.722-.033-.954-.04-2.792-.04z" fill="#090914"/>
    <path d="M14.002 10.523a3.479 3.479 0 1 0 0 6.958 3.479 3.479 0 0 0 0-6.958zm0 5.737a2.258 2.258 0 1 1 0-4.516 2.258 2.258 0 0 1 0 4.516zM17.618 11.198a.813.813 0 1 0 0-1.626.813.813 0 0 0 0 1.626z" fill="#090914"/>
</svg>
