<svg width="17" height="17" viewBox="0 0 17 17" fill="none" xmlns="http://www.w3.org/2000/svg">
    <path fill-rule="evenodd" clip-rule="evenodd" d="m14.69 4.86.893 5.907c.362 2.585-1.416 4.937-3.825 4.958H5.2c-2.366 0-4.165-2.373-3.782-4.958l.892-5.908a3.974 3.974 0 0 1 3.783-3.542h4.816a3.974 3.974 0 0 1 3.783 3.542zm-2.91 9.781a2.593 2.593 0 0 0 1.962-.942c.649-.769.93-1.783.772-2.777l-.871-5.907a2.911 2.911 0 0 0-2.735-2.656H6.092a2.911 2.911 0 0 0-2.734 2.656l-.872 5.907c-.159.994.123 2.008.772 2.777a2.593 2.593 0 0 0 1.962.942h6.56z" fill="#F7F7F7"/>
    <path d="M10.732 5a.531.531 0 0 0-.531.532 1.7 1.7 0 0 1-3.4 0 .531.531 0 0 0-1.063 0 2.763 2.763 0 1 0 5.525 0 .538.538 0 0 0-.531-.531z" fill="#F7F7F7"/>
</svg>
