<svg width="28" height="28" viewBox="0 0 28 28" fill="none" xmlns="http://www.w3.org/2000/svg">
    <circle cx="14" cy="14" r="13.5" stroke="#D4D4D8"/>
    <path fill-rule="evenodd" clip-rule="evenodd" d="M14.607 7.227a6.464 6.464 0 0 0-6.48 6.48c0 2.861 1.863 5.291 4.428 6.155.324.054.432-.135.432-.324v-1.107c-1.81.405-2.187-.864-2.187-.864-.297-.756-.73-.945-.73-.945-.593-.405.055-.405.055-.405.648.054.999.675.999.675.567 1 1.512.702 1.89.54.054-.432.216-.702.405-.864-1.431-.162-2.943-.729-2.943-3.213 0-.702.243-1.296.675-1.728-.054-.162-.297-.81.054-1.727 0 0 .54-.162 1.782.675a6.506 6.506 0 0 1 1.62-.216c.54 0 1.107.08 1.62.216 1.242-.837 1.782-.675 1.782-.675.35.89.135 1.538.054 1.727.405.46.675 1.026.675 1.728 0 2.484-1.512 3.024-2.97 3.186.243.19.432.594.432 1.188v1.782c0 .162.108.378.459.324a6.448 6.448 0 0 0 4.428-6.129 6.464 6.464 0 0 0-6.48-6.48z" fill="#090914"/>
</svg>
