<svg xmlns="http://www.w3.org/2000/svg" width="25.465" height="21.862" viewBox="0 0 25.465 21.862">
  <g id="그룹_1651" data-name="그룹 1651" transform="translate(-1525 -851)">
    <path id="패스_5818" data-name="패스 5818" d="M15.491,13.17A6.585,6.585,0,1,0,8.906,6.585a6.592,6.592,0,0,0,6.585,6.585" transform="translate(1519.057 851)" fill="#2b3140"/>
    <path id="패스_5819" data-name="패스 5819" d="M15.279,38.614a8.476,8.476,0,0,1-11.463,0A9.538,9.538,0,0,0,0,46.245a1.382,1.382,0,0,0,1.383,1.383h16.33A1.382,1.382,0,0,0,19.1,46.245a9.538,9.538,0,0,0-3.816-7.631" transform="translate(1525 825.234)" fill="#2b3140"/>
    <path id="패스_5820" data-name="패스 5820" d="M62.925,1.543a1.543,1.543,0,0,1-1.543,1.543h-3.7A1.543,1.543,0,0,1,57.68,0h3.7a1.543,1.543,0,0,1,1.543,1.543" transform="translate(1487.54 851)" fill="#2b3140"/>
    <path id="패스_5821" data-name="패스 5821" d="M62.925,18.695a1.543,1.543,0,0,1-1.543,1.543h-3.7a1.543,1.543,0,0,1,0-3.085h3.7a1.543,1.543,0,0,1,1.543,1.543" transform="translate(1487.54 839.555)" fill="#2b3140"/>
    <path id="패스_5822" data-name="패스 5822" d="M62.925,35.848a1.543,1.543,0,0,1-1.543,1.543h-3.7a1.543,1.543,0,0,1,0-3.085h3.7a1.543,1.543,0,0,1,1.543,1.543" transform="translate(1487.54 828.109)" fill="#2b3140"/>
  </g>
</svg>
