<svg xmlns="http://www.w3.org/2000/svg" width="19.341" height="20" viewBox="0 0 19.341 20">
  <path id="패스_5816" data-name="패스 5816" d="M613.19,145.42H597.521a1.8,1.8,0,0,0-1.836,1.764v16.471a1.749,1.749,0,0,0,.871,1.5,1.9,1.9,0,0,0,1.786.077l7.013-3.37,7.013,3.37a1.9,1.9,0,0,0,1.787-.077,1.751,1.751,0,0,0,.871-1.5V147.184a1.8,1.8,0,0,0-1.836-1.764m-3.3,8.837-1.582,1.15.6,1.861a1.284,1.284,0,0,1-1.976,1.435l-1.582-1.15-1.583,1.15a1.284,1.284,0,0,1-1.976-1.435l.6-1.861-1.582-1.15a1.284,1.284,0,0,1,.754-2.322h1.956l.6-1.861a1.284,1.284,0,0,1,2.442,0l.6,1.861h1.956a1.284,1.284,0,0,1,.755,2.322" transform="translate(-595.685 -145.42)" fill="#2b3140"/>
</svg>
