<svg width="56" height="42" viewBox="0 0 56 42" fill="none" xmlns="http://www.w3.org/2000/svg">
<path d="M28 17.3333C32.4183 17.3333 36 13.7515 36 9.33325C36 4.91497 32.4183 1.33325 28 1.33325C23.5817 1.33325 20 4.91497 20 9.33325C20 13.7515 23.5817 17.3333 28 17.3333Z" stroke="#C7241F" stroke-width="2.66667" stroke-linecap="round" stroke-linejoin="round"/>
<path d="M9.33398 22C12.6477 22 15.334 19.3137 15.334 16C15.334 12.6863 12.6477 10 9.33398 10C6.02028 10 3.33398 12.6863 3.33398 16C3.33398 19.3137 6.02028 22 9.33398 22Z" stroke="#C7241F" stroke-width="2.66667" stroke-linecap="round" stroke-linejoin="round"/>
<path d="M46.668 22C49.9817 22 52.668 19.3137 52.668 16C52.668 12.6863 49.9817 10 46.668 10C43.3543 10 40.668 12.6863 40.668 16C40.668 19.3137 43.3543 22 46.668 22Z" stroke="#C7241F" stroke-width="2.66667" stroke-linecap="round" stroke-linejoin="round"/>
<path d="M13.334 39.9999C13.334 36.1101 14.8792 32.3796 17.6298 29.629C20.3803 26.8785 24.1108 25.3333 28.0007 25.3333C31.8905 25.3333 35.621 26.8785 38.3716 29.629C41.1221 32.3796 42.6673 36.1101 42.6673 39.9999" stroke="#C7241F" stroke-width="2.66667" stroke-linecap="round" stroke-linejoin="round"/>
<path d="M1.33398 39.9999C1.33398 37.1709 2.45779 34.4578 4.45818 32.4574C6.45857 30.4571 9.17168 29.3333 12.0007 29.3333" stroke="#C7241F" stroke-width="2.66667" stroke-linecap="round" stroke-linejoin="round"/>
<path d="M44.0013 29.3333C46.8303 29.3333 49.5434 30.4571 51.5438 32.4575C53.5442 34.4579 54.668 37.171 54.668 40" stroke="#C7241F" stroke-width="2.66667" stroke-linecap="round" stroke-linejoin="round"/>
</svg>
