<svg width="32" height="32" viewBox="0 0 32 32" fill="none" xmlns="http://www.w3.org/2000/svg">
<path d="M16 30.046C16 30.046 1.27872 19.7966 1.27872 10.3355C0.736449 8.4536 0.991885 6.4411 1.98883 4.74074C2.98578 3.04038 4.64257 1.79144 6.59474 1.26869C8.5469 0.745932 10.6345 0.992177 12.3984 1.95325C14.1622 2.91432 15.4577 4.5115 16 6.39342C16.5423 4.5115 17.8378 2.91432 19.6016 1.95325C21.3655 0.992177 23.4531 0.745932 25.4053 1.26869C27.3574 1.79144 29.0142 3.04038 30.0112 4.74074C31.0081 6.4411 31.2636 8.4536 30.7213 10.3355C30.7213 19.7966 16 30.046 16 30.046Z" stroke="#C7241F" stroke-width="2" stroke-linecap="round" stroke-linejoin="round"/>
</svg>
