<svg width="37" height="35" viewBox="0 0 37 35" fill="none" xmlns="http://www.w3.org/2000/svg">
<path d="M18.3569 10.1356C20.8796 10.1356 22.9247 8.09057 22.9247 5.56782C22.9247 3.04508 20.8796 1 18.3569 1C15.8341 1 13.7891 3.04508 13.7891 5.56782C13.7891 8.09057 15.8341 10.1356 18.3569 10.1356Z" stroke="#C7241F" stroke-width="2" stroke-linecap="round" stroke-linejoin="round"/>
<path d="M5.56782 33.8883C8.09057 33.8883 10.1356 31.8433 10.1356 29.3205C10.1356 26.7978 8.09057 24.7527 5.56782 24.7527C3.04508 24.7527 1 26.7978 1 29.3205C1 31.8433 3.04508 33.8883 5.56782 33.8883Z" stroke="#C7241F" stroke-width="2" stroke-linecap="round" stroke-linejoin="round"/>
<path d="M31.1479 33.8883C33.6706 33.8883 35.7157 31.8433 35.7157 29.3205C35.7157 26.7978 33.6706 24.7527 31.1479 24.7527C28.6252 24.7527 26.5801 26.7978 26.5801 29.3205C26.5801 31.8433 28.6252 33.8883 31.1479 33.8883Z" stroke="#C7241F" stroke-width="2" stroke-linecap="round" stroke-linejoin="round"/>
<path d="M18.3578 10.1355V20.1847M18.3578 20.1847L8.30859 25.6661M18.3578 20.1847L28.407 25.6661" stroke="#C7241F" stroke-width="2" stroke-linecap="round" stroke-linejoin="round"/>
</svg>
