<svg width="22" height="20" viewBox="0 0 22 20" fill="none" xmlns="http://www.w3.org/2000/svg">
<path d="M10.9924 7.50016C10.5369 7.50016 10.1176 7.61127 9.73436 7.8335C9.35113 8.05572 9.04842 8.3585 8.82626 8.74183C8.60409 9.12516 8.49301 9.54461 8.49301 10.0002C8.49301 10.4557 8.60409 10.8752 8.82626 11.2585C9.04842 11.6418 9.35113 11.9446 9.73436 12.1668C10.1176 12.3891 10.5369 12.5002 10.9924 12.5002C11.4478 12.5002 11.8672 12.3891 12.2504 12.1668C12.6336 11.9446 12.9363 11.6418 13.1585 11.2585C13.3807 10.8752 13.4918 10.4557 13.4918 10.0002C13.4918 9.54461 13.3807 9.12516 13.1585 8.74183C12.9363 8.3585 12.6336 8.05572 12.2504 7.8335C11.8672 7.61127 11.4478 7.50016 10.9924 7.50016ZM10.9924 5.8335C11.7478 5.8335 12.4448 6.01961 13.0835 6.39183C13.7223 6.76405 14.2277 7.26961 14.5998 7.9085C14.9719 8.54739 15.158 9.24461 15.158 10.0002C15.158 10.7557 14.9719 11.4529 14.5998 12.0918C14.2277 12.7307 13.7223 13.2363 13.0835 13.6085C12.4448 13.9807 11.7478 14.1668 10.9924 14.1668C10.237 14.1668 9.53997 13.9807 8.90124 13.6085C8.26251 13.2363 7.75708 12.7307 7.38495 12.0918C7.01282 11.4529 6.82676 10.7557 6.82676 10.0002C6.82676 9.24461 7.01282 8.54739 7.38495 7.9085C7.75708 7.26961 8.26251 6.76405 8.90124 6.39183C9.53997 6.01961 10.237 5.8335 10.9924 5.8335ZM16.4077 5.61683C16.4077 5.90572 16.3049 6.15294 16.0994 6.3585C15.8939 6.56405 15.6496 6.66683 15.3663 6.66683C15.083 6.66683 14.8386 6.56405 14.6331 6.3585C14.4276 6.15294 14.3249 5.9085 14.3249 5.62516C14.3249 5.34183 14.4276 5.09739 14.6331 4.89183C14.8386 4.68627 15.083 4.5835 15.3663 4.5835C15.6496 4.5835 15.8939 4.68627 16.0994 4.89183C16.3049 5.09739 16.4077 5.33905 16.4077 5.61683ZM10.9924 3.3335C9.97042 3.3335 9.27615 3.33628 8.90957 3.34183C8.543 3.34739 8.12088 3.36127 7.64322 3.3835C7.04337 3.40572 6.5435 3.49461 6.1436 3.65016C5.79924 3.7835 5.49654 3.98072 5.23549 4.24183C4.97444 4.50294 4.77727 4.80572 4.64397 5.15016C4.48845 5.55016 4.39959 6.05016 4.37737 6.65016C4.35515 7.10572 4.34127 7.51405 4.33571 7.87516C4.33016 8.23627 4.32738 8.94461 4.32738 10.0002C4.32738 11.0224 4.33016 11.7168 4.33571 12.0835C4.34127 12.4502 4.35515 12.8724 4.37737 13.3502C4.39959 13.9502 4.48845 14.4502 4.64397 14.8502C4.77727 15.1946 4.97444 15.4974 5.23549 15.7585C5.49654 16.0196 5.79924 16.2113 6.1436 16.3335C6.5435 16.5002 7.04337 16.5946 7.64322 16.6168C8.09866 16.6391 8.50689 16.6529 8.86791 16.6585C9.22894 16.6641 9.93709 16.6668 10.9924 16.6668C12.0143 16.6668 12.7086 16.6641 13.0752 16.6585C13.4418 16.6529 13.8639 16.6391 14.3415 16.6168C14.9414 16.5946 15.4413 16.5057 15.8412 16.3502C16.1855 16.2168 16.4882 16.0196 16.7493 15.7585C17.0103 15.4974 17.2019 15.1946 17.3241 14.8502C17.4908 14.4502 17.5852 13.9502 17.6074 13.3502C17.6296 12.8946 17.6435 12.4863 17.6491 12.1252C17.6546 11.7641 17.6574 11.0557 17.6574 10.0002C17.6574 8.97794 17.6546 8.2835 17.6491 7.91683C17.6435 7.55016 17.6296 7.12794 17.6074 6.65016C17.5852 6.05016 17.4963 5.55016 17.3408 5.15016C17.2075 4.80572 17.0103 4.50294 16.7493 4.24183C16.4882 3.98072 16.1855 3.7835 15.8412 3.65016C15.4413 3.49461 14.9414 3.40572 14.3415 3.3835C13.8861 3.36127 13.4779 3.34739 13.1169 3.34183C12.7558 3.33628 12.0477 3.3335 10.9924 3.3335ZM10.9924 1.66683C12.081 1.66683 12.8253 1.67239 13.2252 1.6835C13.5584 1.6835 13.9583 1.69461 14.4249 1.71683C15.2024 1.75016 15.8745 1.87794 16.441 2.10016C17.0075 2.32239 17.5019 2.64461 17.924 3.06683C18.3461 3.48905 18.6682 3.9835 18.8904 4.55016C19.1126 5.11683 19.2403 5.78905 19.2736 6.56683C19.2959 7.04461 19.307 7.44461 19.307 7.76683C19.3181 8.18905 19.3236 8.93905 19.3236 10.0168C19.3236 11.0946 19.3181 11.8335 19.307 12.2335C19.307 12.5668 19.2959 12.9668 19.2736 13.4335C19.2403 14.2113 19.1126 14.8835 18.8904 15.4502C18.6682 16.0168 18.3461 16.5113 17.924 16.9335C17.5019 17.3557 17.0075 17.6779 16.441 17.9002C15.8745 18.1224 15.2024 18.2502 14.4249 18.2835C13.9472 18.3057 13.5473 18.3168 13.2252 18.3168C12.803 18.3279 12.0532 18.3335 10.9757 18.3335C9.89821 18.3335 9.15951 18.3279 8.75961 18.3168C8.42636 18.3168 8.02646 18.3057 7.55991 18.2835C6.78232 18.2502 6.11027 18.1224 5.54375 17.9002C4.97722 17.6779 4.4829 17.3557 4.06078 16.9335C3.63867 16.5113 3.31652 16.0168 3.09436 15.4502C2.87219 14.8835 2.74445 14.2113 2.71112 13.4335C2.6889 12.9557 2.6778 12.5557 2.6778 12.2335C2.66669 11.8113 2.66113 11.0613 2.66113 9.9835C2.66113 8.90572 2.66669 8.16683 2.6778 7.76683C2.6778 7.4335 2.6889 7.0335 2.71112 6.56683C2.74445 5.78905 2.87219 5.11683 3.09436 4.55016C3.31652 3.9835 3.63867 3.48905 4.06078 3.06683C4.4829 2.64461 4.97722 2.32239 5.54375 2.10016C6.11027 1.87794 6.78232 1.75016 7.55991 1.71683C8.03757 1.69461 8.43747 1.6835 8.75961 1.6835C9.18173 1.67239 9.92598 1.66683 10.9924 1.66683Z" fill="#9CA3AF"/>
</svg>
