<svg width="22" height="20" viewBox="0 0 22 20" fill="none" xmlns="http://www.w3.org/2000/svg">
<path d="M12.4583 11.2502H14.5412L15.3743 7.91683H12.4583V6.25016C12.4583 5.87239 12.475 5.60016 12.5083 5.4335C12.575 5.16683 12.7194 4.96128 12.9416 4.81683C13.2082 4.66127 13.6025 4.5835 14.1246 4.5835H15.3743V1.7835C15.1854 1.76127 14.8855 1.73905 14.4745 1.71683C13.9635 1.6835 13.4692 1.66683 12.9915 1.66683C12.2251 1.66683 11.5502 1.81961 10.967 2.12516C10.3839 2.43072 9.93675 2.86683 9.62571 3.4335C9.29246 4.04461 9.12584 4.76127 9.12584 5.5835V7.91683H6.62646V11.2502H9.12584V18.3335H12.4583V11.2502Z" fill="#9CA3AF"/>
</svg>
