<svg width="22" height="20" viewBox="0 0 22 20" fill="none" xmlns="http://www.w3.org/2000/svg">
<path d="M12.4583 11.2497H14.5412L15.3743 7.91634H12.4583V6.24968C12.4583 5.8719 12.475 5.59968 12.5083 5.43301C12.575 5.16634 12.7194 4.96079 12.9416 4.81634C13.2082 4.66079 13.6025 4.58301 14.1246 4.58301H15.3743V1.78301C15.1854 1.76079 14.8855 1.73856 14.4745 1.71634C13.9635 1.68301 13.4692 1.66634 12.9915 1.66634C12.2251 1.66634 11.5502 1.81912 10.967 2.12468C10.3839 2.43023 9.93675 2.86634 9.62571 3.43301C9.29246 4.04412 9.12584 4.76079 9.12584 5.58301V7.91634H6.62646V11.2497H9.12584V18.333H12.4583V11.2497Z" fill="white"/>
</svg>
