<svg width="22" height="20" viewBox="0 0 22 20" fill="none" xmlns="http://www.w3.org/2000/svg">
<path d="M17.3241 5.83366C17.2908 5.71144 17.2353 5.60588 17.1575 5.51699C17.0798 5.4281 16.9853 5.36699 16.8742 5.33366C16.6076 5.25588 16.0522 5.18922 15.208 5.13366C14.0416 5.04477 12.6364 5.00033 10.9924 5.00033C9.34835 5.00033 7.94315 5.04477 6.77677 5.13366C5.93254 5.18922 5.37712 5.25588 5.11052 5.33366C4.99944 5.36699 4.90502 5.4281 4.82726 5.51699C4.7495 5.60588 4.69396 5.71144 4.66063 5.83366C4.58287 6.10033 4.51622 6.54477 4.46068 7.16699C4.37182 8.03366 4.32738 8.9781 4.32738 10.0003C4.32738 11.0225 4.37182 11.967 4.46068 12.8337C4.51622 13.4559 4.58287 13.9003 4.66063 14.167C4.69396 14.2892 4.7495 14.3948 4.82726 14.4837C4.90502 14.5725 4.99944 14.6337 5.11052 14.667C5.37712 14.7448 5.93254 14.8114 6.77677 14.867C7.94315 14.9559 9.34835 15.0003 10.9924 15.0003C12.6364 15.0003 14.0416 14.9559 15.208 14.867C16.0522 14.8114 16.6076 14.7448 16.8742 14.667C16.9853 14.6337 17.0798 14.5725 17.1575 14.4837C17.2353 14.3948 17.2908 14.2892 17.3241 14.167C17.4019 13.9003 17.4685 13.4559 17.5241 12.8337C17.613 11.967 17.6574 11.0225 17.6574 10.0003C17.6574 8.9781 17.613 8.03366 17.5241 7.16699C17.4685 6.54477 17.4019 6.10033 17.3241 5.83366ZM18.9404 5.41699C19.0959 6.03922 19.207 6.98922 19.2736 8.26699C19.307 8.90033 19.3236 9.4781 19.3236 10.0003L19.307 10.867C19.2848 11.5448 19.2514 12.167 19.207 12.7337C19.1403 13.5225 19.0515 14.1392 18.9404 14.5837C18.8404 14.9948 18.646 15.3503 18.3572 15.6503C18.0684 15.9503 17.724 16.1559 17.3241 16.267C16.7354 16.4337 15.5024 16.5503 13.6251 16.617C12.692 16.6503 11.8144 16.667 10.9924 16.667L9.65938 16.6503C8.62631 16.6281 7.71542 16.5948 6.92673 16.5503C5.83812 16.4837 5.08275 16.3892 4.66063 16.267C4.26073 16.1559 3.91637 15.9503 3.62756 15.6503C3.33874 15.3503 3.14435 14.9948 3.04437 14.5837C2.93329 14.1392 2.84442 13.5225 2.77777 12.7337C2.73334 12.167 2.70001 11.5448 2.6778 10.867L2.66113 10.0003L2.6778 9.13366C2.70001 8.45588 2.73334 7.83366 2.77777 7.26699C2.84442 6.4781 2.93329 5.86144 3.04437 5.41699C3.14435 5.00588 3.33874 4.65033 3.62756 4.35033C3.91637 4.05033 4.26073 3.84477 4.66063 3.73366C5.08275 3.61144 5.83812 3.51699 6.92673 3.45033C7.71542 3.40588 8.62631 3.37255 9.65938 3.35033L10.9924 3.33366L12.3254 3.35033C13.3585 3.37255 14.2693 3.40588 15.058 3.45033C16.1467 3.51699 16.902 3.61144 17.3241 3.73366C17.724 3.84477 18.0684 4.05033 18.3572 4.35033C18.646 4.65033 18.8404 5.00588 18.9404 5.41699ZM9.32613 12.917V7.08366L14.3249 10.0003L9.32613 12.917Z" fill="white"/>
</svg>
