<svg width="22" height="20" viewBox="0 0 22 20" fill="none" xmlns="http://www.w3.org/2000/svg">
<path d="M17.3241 5.83317C17.2908 5.71095 17.2353 5.60539 17.1575 5.5165C17.0798 5.42762 16.9853 5.3665 16.8742 5.33317C16.6076 5.25539 16.0522 5.18873 15.208 5.13317C14.0416 5.04428 12.6364 4.99984 10.9924 4.99984C9.34835 4.99984 7.94315 5.04428 6.77677 5.13317C5.93254 5.18873 5.37712 5.25539 5.11052 5.33317C4.99944 5.3665 4.90502 5.42762 4.82726 5.5165C4.7495 5.60539 4.69396 5.71095 4.66063 5.83317C4.58287 6.09984 4.51622 6.54428 4.46068 7.1665C4.37182 8.03317 4.32738 8.97762 4.32738 9.99984C4.32738 11.0221 4.37182 11.9665 4.46068 12.8332C4.51622 13.4554 4.58287 13.8998 4.66063 14.1665C4.69396 14.2887 4.7495 14.3943 4.82726 14.4832C4.90502 14.5721 4.99944 14.6332 5.11052 14.6665C5.37712 14.7443 5.93254 14.8109 6.77677 14.8665C7.94315 14.9554 9.34835 14.9998 10.9924 14.9998C12.6364 14.9998 14.0416 14.9554 15.208 14.8665C16.0522 14.8109 16.6076 14.7443 16.8742 14.6665C16.9853 14.6332 17.0798 14.5721 17.1575 14.4832C17.2353 14.3943 17.2908 14.2887 17.3241 14.1665C17.4019 13.8998 17.4685 13.4554 17.5241 12.8332C17.613 11.9665 17.6574 11.0221 17.6574 9.99984C17.6574 8.97762 17.613 8.03317 17.5241 7.1665C17.4685 6.54428 17.4019 6.09984 17.3241 5.83317ZM18.9404 5.4165C19.0959 6.03873 19.207 6.98873 19.2736 8.2665C19.307 8.89984 19.3236 9.47762 19.3236 9.99984L19.307 10.8665C19.2848 11.5443 19.2514 12.1665 19.207 12.7332C19.1403 13.5221 19.0515 14.1387 18.9404 14.5832C18.8404 14.9943 18.646 15.3498 18.3572 15.6498C18.0684 15.9498 17.724 16.1554 17.3241 16.2665C16.7354 16.4332 15.5024 16.5498 13.6251 16.6165C12.692 16.6498 11.8144 16.6665 10.9924 16.6665L9.65938 16.6498C8.62631 16.6276 7.71542 16.5943 6.92673 16.5498C5.83812 16.4832 5.08275 16.3887 4.66063 16.2665C4.26073 16.1554 3.91637 15.9498 3.62756 15.6498C3.33874 15.3498 3.14435 14.9943 3.04437 14.5832C2.93329 14.1387 2.84442 13.5221 2.77777 12.7332C2.73334 12.1665 2.70001 11.5443 2.6778 10.8665L2.66113 9.99984L2.6778 9.13317C2.70001 8.45539 2.73334 7.83317 2.77777 7.2665C2.84442 6.47762 2.93329 5.86095 3.04437 5.4165C3.14435 5.00539 3.33874 4.64984 3.62756 4.34984C3.91637 4.04984 4.26073 3.84428 4.66063 3.73317C5.08275 3.61095 5.83812 3.5165 6.92673 3.44984C7.71542 3.40539 8.62631 3.37206 9.65938 3.34984L10.9924 3.33317L12.3254 3.34984C13.3585 3.37206 14.2693 3.40539 15.058 3.44984C16.1467 3.5165 16.902 3.61095 17.3241 3.73317C17.724 3.84428 18.0684 4.04984 18.3572 4.34984C18.646 4.64984 18.8404 5.00539 18.9404 5.4165ZM9.32613 12.9165V7.08317L14.3249 9.99984L9.32613 12.9165Z" fill="#9CA3AF"/>
</svg>
