<svg width="22" height="20" viewBox="0 0 22 20" fill="none" xmlns="http://www.w3.org/2000/svg">
<path d="M10.9924 7.49968C10.5369 7.49968 10.1176 7.61079 9.73436 7.83301C9.35113 8.05523 9.04842 8.35801 8.82626 8.74134C8.60409 9.12468 8.49301 9.54412 8.49301 9.99967C8.49301 10.4552 8.60409 10.8747 8.82626 11.258C9.04842 11.6413 9.35113 11.9441 9.73436 12.1663C10.1176 12.3886 10.5369 12.4997 10.9924 12.4997C11.4478 12.4997 11.8672 12.3886 12.2504 12.1663C12.6336 11.9441 12.9363 11.6413 13.1585 11.258C13.3807 10.8747 13.4918 10.4552 13.4918 9.99967C13.4918 9.54412 13.3807 9.12468 13.1585 8.74134C12.9363 8.35801 12.6336 8.05523 12.2504 7.83301C11.8672 7.61079 11.4478 7.49968 10.9924 7.49968ZM10.9924 5.83301C11.7477 5.83301 12.4448 6.01912 13.0835 6.39134C13.7223 6.76356 14.2277 7.26912 14.5998 7.90801C14.9719 8.5469 15.158 9.24412 15.158 9.99967C15.158 10.7552 14.9719 11.4525 14.5998 12.0913C14.2277 12.7302 13.7223 13.2358 13.0835 13.608C12.4448 13.9802 11.7477 14.1663 10.9924 14.1663C10.237 14.1663 9.53997 13.9802 8.90124 13.608C8.26251 13.2358 7.75708 12.7302 7.38495 12.0913C7.01282 11.4525 6.82676 10.7552 6.82676 9.99967C6.82676 9.24412 7.01282 8.5469 7.38495 7.90801C7.75708 7.26912 8.26251 6.76356 8.90124 6.39134C9.53997 6.01912 10.237 5.83301 10.9924 5.83301ZM16.4077 5.61634C16.4077 5.90523 16.3049 6.15245 16.0994 6.35801C15.8939 6.56356 15.6496 6.66634 15.3663 6.66634C15.083 6.66634 14.8386 6.56356 14.6331 6.35801C14.4276 6.15245 14.3249 5.90801 14.3249 5.62468C14.3249 5.34134 14.4276 5.0969 14.6331 4.89134C14.8386 4.68579 15.083 4.58301 15.3663 4.58301C15.6496 4.58301 15.8939 4.68579 16.0994 4.89134C16.3049 5.0969 16.4077 5.33856 16.4077 5.61634ZM10.9924 3.33301C9.97042 3.33301 9.27615 3.33579 8.90957 3.34134C8.543 3.3469 8.12088 3.36079 7.64322 3.38301C7.04337 3.40523 6.5435 3.49412 6.1436 3.64968C5.79924 3.78301 5.49654 3.98023 5.23549 4.24134C4.97444 4.50245 4.77727 4.80523 4.64397 5.14968C4.48845 5.54968 4.39959 6.04968 4.37737 6.64968C4.35515 7.10523 4.34127 7.51356 4.33571 7.87468C4.33016 8.23579 4.32738 8.94412 4.32738 9.99967C4.32738 11.0219 4.33016 11.7163 4.33571 12.083C4.34127 12.4497 4.35515 12.8719 4.37737 13.3497C4.39959 13.9497 4.48845 14.4497 4.64397 14.8497C4.77727 15.1941 4.97444 15.4969 5.23549 15.758C5.49654 16.0191 5.79924 16.2108 6.1436 16.333C6.5435 16.4997 7.04337 16.5941 7.64322 16.6163C8.09866 16.6386 8.50689 16.6525 8.86791 16.658C9.22894 16.6636 9.93709 16.6663 10.9924 16.6663C12.0143 16.6663 12.7086 16.6636 13.0752 16.658C13.4418 16.6525 13.8639 16.6386 14.3415 16.6163C14.9414 16.5941 15.4413 16.5052 15.8412 16.3497C16.1855 16.2163 16.4882 16.0191 16.7493 15.758C17.0103 15.4969 17.2019 15.1941 17.3241 14.8497C17.4908 14.4497 17.5852 13.9497 17.6074 13.3497C17.6296 12.8941 17.6435 12.4858 17.6491 12.1247C17.6546 11.7636 17.6574 11.0552 17.6574 9.99967C17.6574 8.97745 17.6546 8.28301 17.6491 7.91634C17.6435 7.54968 17.6296 7.12745 17.6074 6.64968C17.5852 6.04968 17.4963 5.54968 17.3408 5.14968C17.2075 4.80523 17.0103 4.50245 16.7493 4.24134C16.4882 3.98023 16.1855 3.78301 15.8412 3.64968C15.4413 3.49412 14.9414 3.40523 14.3415 3.38301C13.8861 3.36079 13.4779 3.3469 13.1169 3.34134C12.7558 3.33579 12.0477 3.33301 10.9924 3.33301ZM10.9924 1.66634C12.081 1.66634 12.8253 1.6719 13.2252 1.68301C13.5584 1.68301 13.9583 1.69412 14.4249 1.71634C15.2024 1.74968 15.8745 1.87745 16.441 2.09968C17.0075 2.3219 17.5019 2.64412 17.924 3.06634C18.3461 3.48856 18.6682 3.98301 18.8904 4.54968C19.1126 5.11634 19.2403 5.78856 19.2736 6.56634C19.2959 7.04412 19.307 7.44412 19.307 7.76634C19.3181 8.18856 19.3236 8.93856 19.3236 10.0163C19.3236 11.0941 19.3181 11.833 19.307 12.233C19.307 12.5663 19.2959 12.9663 19.2736 13.433C19.2403 14.2108 19.1126 14.883 18.8904 15.4497C18.6682 16.0163 18.3461 16.5108 17.924 16.933C17.5019 17.3552 17.0075 17.6775 16.441 17.8997C15.8745 18.1219 15.2024 18.2497 14.4249 18.283C13.9472 18.3052 13.5473 18.3163 13.2252 18.3163C12.803 18.3275 12.0532 18.333 10.9757 18.333C9.89821 18.333 9.15951 18.3275 8.75961 18.3163C8.42636 18.3163 8.02646 18.3052 7.55991 18.283C6.78232 18.2497 6.11027 18.1219 5.54375 17.8997C4.97722 17.6775 4.4829 17.3552 4.06078 16.933C3.63867 16.5108 3.31652 16.0163 3.09436 15.4497C2.87219 14.883 2.74445 14.2108 2.71112 13.433C2.6889 12.9552 2.6778 12.5552 2.6778 12.233C2.66669 11.8108 2.66113 11.0608 2.66113 9.98301C2.66113 8.90523 2.66669 8.16634 2.6778 7.76634C2.6778 7.43301 2.6889 7.03301 2.71112 6.56634C2.74445 5.78856 2.87219 5.11634 3.09436 4.54968C3.31652 3.98301 3.63867 3.48856 4.06078 3.06634C4.4829 2.64412 4.97722 2.3219 5.54375 2.09968C6.11027 1.87745 6.78232 1.74968 7.55991 1.71634C8.03757 1.69412 8.43747 1.68301 8.75961 1.68301C9.18172 1.6719 9.92598 1.66634 10.9924 1.66634Z" fill="white"/>
</svg>
