<svg width="17" height="25" viewBox="0 0 17 25" fill="none" xmlns="http://www.w3.org/2000/svg">
<path d="M8.71572 13.8869V15.2735C8.28932 15.1224 7.84516 15.0469 7.38322 15.0469C6.66367 15.0469 5.99298 15.2291 5.37115 15.5935C4.76708 15.9491 4.28738 16.4291 3.93205 17.0335C3.56783 17.6558 3.38572 18.3269 3.38572 19.0469H2.05322C2.05322 18.078 2.29751 17.1802 2.7861 16.3535C3.25691 15.5535 3.89207 14.918 4.69157 14.4469C5.51772 13.958 6.41494 13.7135 7.38322 13.7135C7.83627 13.7135 8.28044 13.7713 8.71572 13.8869ZM7.38322 13.0469C6.65479 13.0469 5.9841 12.8647 5.37115 12.5002C4.76708 12.1447 4.28738 11.6647 3.93205 11.0602C3.56783 10.4469 3.38572 9.77576 3.38572 9.04688C3.38572 8.31799 3.56783 7.64687 3.93205 7.03354C4.28738 6.4291 4.76708 5.9491 5.37115 5.59354C5.9841 5.2291 6.65479 5.04688 7.38322 5.04688C8.11166 5.04688 8.78235 5.2291 9.3953 5.59354C9.99936 5.9491 10.4791 6.4291 10.8344 7.03354C11.1986 7.64687 11.3807 8.31799 11.3807 9.04688C11.3807 9.77576 11.1986 10.4469 10.8344 11.0602C10.4791 11.6647 9.99936 12.1447 9.3953 12.5002C8.78235 12.8647 8.11166 13.0469 7.38322 13.0469ZM7.38322 11.7135C7.86292 11.7135 8.30709 11.5935 8.71572 11.3535C9.12436 11.1135 9.4486 10.7891 9.68845 10.3802C9.9283 9.97132 10.0482 9.52687 10.0482 9.04688C10.0482 8.56687 9.9283 8.12243 9.68845 7.71354C9.4486 7.30465 9.12436 6.98021 8.71572 6.74021C8.30709 6.50021 7.86292 6.38021 7.38322 6.38021C6.90352 6.38021 6.45936 6.50021 6.05072 6.74021C5.64209 6.98021 5.31785 7.30465 5.078 7.71354C4.83815 8.12243 4.71822 8.56687 4.71822 9.04688C4.71822 9.52687 4.83815 9.97132 5.078 10.3802C5.31785 10.7891 5.64209 11.1135 6.05072 11.3535C6.45936 11.5935 6.90352 11.7135 7.38322 11.7135ZM11.3807 15.7135V13.7135H12.7132V15.7135H14.712V17.0469H12.7132V19.0469H11.3807V17.0469H9.38197V15.7135H11.3807Z" fill="white"/>
</svg>
