<svg width="33" height="29" viewBox="0 0 33 29" fill="none" xmlns="http://www.w3.org/2000/svg">
<path d="M7.54 14.5869C7.71333 14.5869 7.84667 14.6669 7.94 14.8269C8.04667 14.9869 8.1 15.2069 8.1 15.4869C8.1 16.0202 7.97333 16.4335 7.72 16.7269C7.14667 17.4335 6.52 18.0135 5.84 18.4669C5.17333 18.9202 4.41333 19.1469 3.56 19.1469C2.38667 19.1469 1.51333 18.6135 0.94 17.5469C0.38 16.4802 0.1 15.1002 0.1 13.4069C0.1 11.7802 0.306667 9.92687 0.72 7.84687C1.14667 5.76687 1.76667 3.98021 2.58 2.48687C3.40667 0.99354 4.38667 0.246874 5.52 0.246874C6.16 0.246874 6.66 0.546874 7.02 1.14687C7.39333 1.73354 7.58 2.58021 7.58 3.68687C7.58 5.27354 7.14 7.11354 6.26 9.20687C5.38 11.3002 4.18667 13.3735 2.68 15.4269C2.77333 15.9735 2.92667 16.3669 3.14 16.6069C3.35333 16.8335 3.63333 16.9469 3.98 16.9469C4.52667 16.9469 5.00667 16.7935 5.42 16.4869C5.83333 16.1669 6.36 15.6269 7 14.8669C7.16 14.6802 7.34 14.5869 7.54 14.5869ZM5.08 2.22687C4.77333 2.22687 4.42667 2.78021 4.04 3.88687C3.65333 4.99354 3.31333 6.36687 3.02 8.00687C2.72667 9.64687 2.56667 11.2202 2.54 12.7269C3.48667 11.1669 4.24 9.60687 4.8 8.04687C5.36 6.47354 5.64 5.04021 5.64 3.74687C5.64 2.73354 5.45333 2.22687 5.08 2.22687ZM16.6834 12.9069C16.8568 12.9069 16.9901 12.9935 17.0834 13.1669C17.1768 13.3402 17.2234 13.5602 17.2234 13.8269C17.2234 14.4669 17.0301 14.8469 16.6434 14.9669C15.8434 15.2469 14.9634 15.4069 14.0034 15.4469C13.7501 16.5669 13.2501 17.4669 12.5034 18.1469C11.7568 18.8135 10.9101 19.1469 9.96344 19.1469C9.16344 19.1469 8.47677 18.9535 7.90344 18.5669C7.34344 18.1802 6.91677 17.6669 6.62344 17.0269C6.3301 16.3869 6.18344 15.6935 6.18344 14.9469C6.18344 13.9335 6.37677 13.0335 6.76344 12.2469C7.1501 11.4469 7.68344 10.8269 8.36344 10.3869C9.04344 9.93354 9.79677 9.70687 10.6234 9.70687C11.6368 9.70687 12.4501 10.0602 13.0634 10.7669C13.6901 11.4602 14.0568 12.3202 14.1634 13.3469C14.7901 13.3069 15.5368 13.1735 16.4034 12.9469C16.5101 12.9202 16.6034 12.9069 16.6834 12.9069ZM10.1234 17.0269C10.5501 17.0269 10.9168 16.8535 11.2234 16.5069C11.5434 16.1602 11.7568 15.6602 11.8634 15.0069C11.4501 14.7269 11.1301 14.3602 10.9034 13.9069C10.6901 13.4535 10.5834 12.9735 10.5834 12.4669C10.5834 12.2535 10.6034 12.0402 10.6434 11.8269H10.5434C10.0101 11.8269 9.56344 12.0869 9.20344 12.6069C8.85677 13.1135 8.68344 13.8335 8.68344 14.7669C8.68344 15.5002 8.82344 16.0602 9.10344 16.4469C9.39677 16.8335 9.73677 17.0269 10.1234 17.0269ZM25.7469 14.6269C25.9202 14.6269 26.0535 14.7135 26.1469 14.8869C26.2535 15.0469 26.3069 15.2535 26.3069 15.5069C26.3069 15.8135 26.2602 16.0535 26.1669 16.2269C26.0735 16.4002 25.9269 16.5535 25.7269 16.6869C24.5802 17.4602 23.7402 18.0335 23.2069 18.4069L21.9269 19.2669C21.4202 22.0269 20.7535 24.1935 19.9269 25.7669C19.1135 27.3535 18.0735 28.1469 16.8069 28.1469C16.1269 28.1469 15.5735 27.9335 15.1469 27.5069C14.7202 27.0935 14.5069 26.5469 14.5069 25.8669C14.5069 24.9202 14.8802 23.9002 15.6269 22.8069C16.3735 21.7269 17.7735 20.3935 19.8269 18.8069L19.9469 18.0269C19.7202 18.3869 19.4202 18.6669 19.0469 18.8669C18.6869 19.0535 18.3269 19.1469 17.9669 19.1469C17.1402 19.1469 16.4802 18.8469 15.9869 18.2469C15.4935 17.6469 15.2469 16.8602 15.2469 15.8869C15.2469 14.8202 15.4935 13.8135 15.9869 12.8669C16.4802 11.9069 17.1335 11.1402 17.9469 10.5669C18.7735 9.98021 19.6469 9.68687 20.5669 9.68687C20.8602 9.68687 21.0535 9.74687 21.1469 9.86687C21.2535 9.97354 21.3402 10.1735 21.4069 10.4669C21.6602 10.4135 21.9535 10.3869 22.2869 10.3869C22.6202 10.3869 22.8535 10.4402 22.9869 10.5469C23.1335 10.6402 23.2069 10.8335 23.2069 11.1269C23.2069 11.2869 23.2002 11.4135 23.1869 11.5069C23.1335 11.9202 22.9669 12.9669 22.6869 14.6469C22.6335 14.9669 22.5735 15.3202 22.5069 15.7069C22.4535 16.0802 22.3935 16.4802 22.3269 16.9069C23.3535 16.1069 24.3402 15.4002 25.2869 14.7869C25.4602 14.6802 25.6135 14.6269 25.7469 14.6269ZM18.6869 17.1269C18.9935 17.1269 19.2869 16.9402 19.5669 16.5669C19.8469 16.1935 20.0469 15.6602 20.1669 14.9669L20.8069 11.5469C20.2602 11.5602 19.7535 11.7735 19.2869 12.1869C18.8202 12.5869 18.4469 13.1202 18.1669 13.7869C17.8869 14.4535 17.7469 15.1602 17.7469 15.9069C17.7469 16.3202 17.8269 16.6269 17.9869 16.8269C18.1602 17.0269 18.3935 17.1269 18.6869 17.1269ZM17.0269 26.2069C17.3602 26.2069 17.7335 25.8069 18.1469 25.0069C18.5735 24.2069 18.9802 22.9335 19.3669 21.1869C18.3402 22.0669 17.6002 22.8602 17.1469 23.5669C16.6935 24.2735 16.4669 24.8935 16.4669 25.4269C16.4669 25.6535 16.5069 25.8402 16.5869 25.9869C16.6802 26.1335 16.8269 26.2069 17.0269 26.2069ZM28.4572 19.1469C27.6705 19.1469 26.9972 18.9535 26.4372 18.5669C25.8905 18.1669 25.4772 17.6469 25.1972 17.0069C24.9172 16.3669 24.7772 15.6802 24.7772 14.9469C24.7772 13.9335 24.9639 13.0335 25.3372 12.2469C25.7239 11.4469 26.2439 10.8269 26.8972 10.3869C27.5505 9.93354 28.2839 9.70687 29.0972 9.70687C29.8839 9.70687 30.5572 9.90687 31.1172 10.3069C31.6772 10.6935 32.0972 11.2069 32.3772 11.8469C32.6572 12.4869 32.7972 13.1735 32.7972 13.9069C32.7972 14.9202 32.6039 15.8269 32.2172 16.6269C31.8305 17.4135 31.3039 18.0335 30.6372 18.4869C29.9839 18.9269 29.2572 19.1469 28.4572 19.1469ZM28.6772 16.9869C29.1305 16.9869 29.5105 16.7402 29.8172 16.2469C30.1372 15.7535 30.2972 15.0335 30.2972 14.0869C30.2972 13.3535 30.1639 12.8002 29.8972 12.4269C29.6305 12.0535 29.3105 11.8669 28.9372 11.8669C28.4572 11.8669 28.0572 12.1135 27.7372 12.6069C27.4305 13.0869 27.2772 13.8069 27.2772 14.7669C27.2772 15.5269 27.4105 16.0869 27.6772 16.4469C27.9439 16.8069 28.2772 16.9869 28.6772 16.9869Z" fill="#2563EB"/>
</svg>
