<svg width="40" height="34" viewBox="0 0 40 34" fill="none" xmlns="http://www.w3.org/2000/svg">
<path d="M9.248 17.648C9.456 17.648 9.616 17.744 9.728 17.936C9.856 18.128 9.92 18.392 9.92 18.728C9.92 19.368 9.768 19.864 9.464 20.216C8.776 21.064 8.024 21.76 7.208 22.304C6.408 22.848 5.496 23.12 4.472 23.12C3.064 23.12 2.016 22.48 1.328 21.2C0.656 19.92 0.32 18.264 0.32 16.232C0.32 14.28 0.568 12.056 1.064 9.56C1.576 7.064 2.32 4.92 3.296 3.128C4.288 1.336 5.464 0.439999 6.824 0.439999C7.592 0.439999 8.192 0.799999 8.624 1.52C9.072 2.224 9.296 3.24 9.296 4.568C9.296 6.472 8.768 8.68 7.712 11.192C6.656 13.704 5.224 16.192 3.416 18.656C3.528 19.312 3.712 19.784 3.968 20.072C4.224 20.344 4.56 20.48 4.976 20.48C5.632 20.48 6.208 20.296 6.704 19.928C7.2 19.544 7.832 18.896 8.6 17.984C8.792 17.76 9.008 17.648 9.248 17.648ZM6.296 2.816C5.928 2.816 5.512 3.48 5.048 4.808C4.584 6.136 4.176 7.784 3.824 9.752C3.472 11.72 3.28 13.608 3.248 15.416C4.384 13.544 5.288 11.672 5.96 9.8C6.632 7.912 6.968 6.192 6.968 4.64C6.968 3.424 6.744 2.816 6.296 2.816ZM20.2201 15.632C20.4281 15.632 20.5881 15.736 20.7001 15.944C20.8121 16.152 20.8681 16.416 20.8681 16.736C20.8681 17.504 20.6361 17.96 20.1721 18.104C19.2121 18.44 18.1561 18.632 17.0041 18.68C16.7001 20.024 16.1001 21.104 15.2041 21.92C14.3081 22.72 13.2921 23.12 12.1561 23.12C11.1961 23.12 10.3721 22.888 9.68413 22.424C9.01213 21.96 8.50013 21.344 8.14813 20.576C7.79613 19.808 7.62012 18.976 7.62012 18.08C7.62012 16.864 7.85213 15.784 8.31613 14.84C8.78013 13.88 9.42013 13.136 10.2361 12.608C11.0521 12.064 11.9561 11.792 12.9481 11.792C14.1641 11.792 15.1401 12.216 15.8761 13.064C16.6281 13.896 17.0681 14.928 17.1961 16.16C17.9481 16.112 18.8441 15.952 19.8841 15.68C20.0121 15.648 20.1241 15.632 20.2201 15.632ZM12.3481 20.576C12.8601 20.576 13.3001 20.368 13.6681 19.952C14.0521 19.536 14.3081 18.936 14.4361 18.152C13.9401 17.816 13.5561 17.376 13.2841 16.832C13.0281 16.288 12.9001 15.712 12.9001 15.104C12.9001 14.848 12.9241 14.592 12.9721 14.336H12.8521C12.2121 14.336 11.6761 14.648 11.2441 15.272C10.8281 15.88 10.6201 16.744 10.6201 17.864C10.6201 18.744 10.7881 19.416 11.1241 19.88C11.4761 20.344 11.8841 20.576 12.3481 20.576ZM31.0963 17.696C31.3043 17.696 31.4643 17.8 31.5763 18.008C31.7043 18.2 31.7682 18.448 31.7682 18.752C31.7682 19.12 31.7123 19.408 31.6003 19.616C31.4883 19.824 31.3123 20.008 31.0723 20.168C29.6963 21.096 28.6883 21.784 28.0483 22.232L26.5123 23.264C25.9043 26.576 25.1043 29.176 24.1123 31.064C23.1363 32.968 21.8883 33.92 20.3683 33.92C19.5523 33.92 18.8883 33.664 18.3763 33.152C17.8643 32.656 17.6082 32 17.6082 31.184C17.6082 30.048 18.0563 28.824 18.9523 27.512C19.8483 26.216 21.5283 24.616 23.9922 22.712L24.1363 21.776C23.8643 22.208 23.5043 22.544 23.0563 22.784C22.6243 23.008 22.1923 23.12 21.7603 23.12C20.7683 23.12 19.9763 22.76 19.3843 22.04C18.7923 21.32 18.4963 20.376 18.4963 19.208C18.4963 17.928 18.7923 16.72 19.3843 15.584C19.9763 14.432 20.7603 13.512 21.7363 12.824C22.7283 12.12 23.7763 11.768 24.8803 11.768C25.2323 11.768 25.4643 11.84 25.5763 11.984C25.7043 12.112 25.8083 12.352 25.8883 12.704C26.1923 12.64 26.5443 12.608 26.9443 12.608C27.3443 12.608 27.6243 12.672 27.7843 12.8C27.9603 12.912 28.0483 13.144 28.0483 13.496C28.0483 13.688 28.0403 13.84 28.0243 13.952C27.9603 14.448 27.7603 15.704 27.4243 17.72C27.3603 18.104 27.2883 18.528 27.2083 18.992C27.1443 19.44 27.0723 19.92 26.9923 20.432C28.2243 19.472 29.4083 18.624 30.5443 17.888C30.7523 17.76 30.9363 17.696 31.0963 17.696ZM22.6243 20.696C22.9923 20.696 23.3443 20.472 23.6803 20.024C24.0163 19.576 24.2563 18.936 24.4003 18.104L25.1683 14C24.5123 14.016 23.9043 14.272 23.3443 14.768C22.7843 15.248 22.3363 15.888 22.0003 16.688C21.6643 17.488 21.4963 18.336 21.4963 19.232C21.4963 19.728 21.5923 20.096 21.7843 20.336C21.9923 20.576 22.2723 20.696 22.6243 20.696ZM20.6323 31.592C21.0323 31.592 21.4803 31.112 21.9763 30.152C22.4883 29.192 22.9763 27.664 23.4403 25.568C22.2083 26.624 21.3203 27.576 20.7763 28.424C20.2323 29.272 19.9603 30.016 19.9603 30.656C19.9603 30.928 20.0083 31.152 20.1043 31.328C20.2163 31.504 20.3923 31.592 20.6323 31.592ZM34.3486 23.12C33.4046 23.12 32.5966 22.888 31.9246 22.424C31.2686 21.944 30.7726 21.32 30.4366 20.552C30.1006 19.784 29.9326 18.96 29.9326 18.08C29.9326 16.864 30.1566 15.784 30.6046 14.84C31.0686 13.88 31.6926 13.136 32.4766 12.608C33.2606 12.064 34.1406 11.792 35.1166 11.792C36.0606 11.792 36.8686 12.032 37.5406 12.512C38.2126 12.976 38.7166 13.592 39.0526 14.36C39.3886 15.128 39.5566 15.952 39.5566 16.832C39.5566 18.048 39.3246 19.136 38.8606 20.096C38.3966 21.04 37.7646 21.784 36.9646 22.328C36.1806 22.856 35.3086 23.12 34.3486 23.12ZM34.6126 20.528C35.1566 20.528 35.6126 20.232 35.9806 19.64C36.3646 19.048 36.5566 18.184 36.5566 17.048C36.5566 16.168 36.3966 15.504 36.0766 15.056C35.7566 14.608 35.3726 14.384 34.9246 14.384C34.3486 14.384 33.8686 14.68 33.4846 15.272C33.1166 15.848 32.9326 16.712 32.9326 17.864C32.9326 18.776 33.0926 19.448 33.4126 19.88C33.7326 20.312 34.1326 20.528 34.6126 20.528Z" fill="white"/>
</svg>
