<svg width="108" height="107" viewBox="0 0 108 107" fill="none" xmlns="http://www.w3.org/2000/svg">
<path d="M0.667969 32C0.667969 14.3269 14.9949 0 32.668 0H75.3347C93.0078 0 107.335 14.3269 107.335 32V74.6667C107.335 92.3398 93.0077 106.667 75.3346 106.667H32.6679C14.9948 106.667 0.667969 92.3398 0.667969 74.6667V32Z" fill="url(#paint0_linear_1074_2448)"/>
<path d="M43.4682 39.2667C44.5126 38.889 45.5849 38.8223 46.6849 39.0667C47.7849 39.3112 48.746 39.8334 49.5682 40.6334C50.4793 41.5667 51.0238 42.6723 51.2015 43.9501C51.3793 45.2278 51.1682 46.4223 50.5682 47.5334L68.4015 65.4001L66.0682 67.7334L48.2015 49.9001C47.0904 50.5001 45.896 50.7112 44.6182 50.5334C43.3404 50.3556 42.2349 49.8112 41.3015 48.9001C40.5015 48.0778 39.9793 47.1167 39.7349 46.0167C39.4904 44.9167 39.5571 43.8445 39.9349 42.8001L43.6682 46.5334C44.1571 47.0223 44.746 47.2667 45.4349 47.2667C46.1238 47.2667 46.7126 47.0223 47.2015 46.5334C47.6904 46.0445 47.9349 45.4556 47.9349 44.7667C47.9349 44.0778 47.6904 43.489 47.2015 43.0001L43.4682 39.2667ZM60.7349 42.4001L66.0682 39.4667L68.4015 41.8001L65.4682 47.1001L62.5015 47.7001L58.9682 51.2334L56.6349 48.9001L60.1682 45.3334L60.7349 42.4001ZM49.5682 55.9667L51.9015 58.3001L43.0682 67.1667C42.7349 67.4778 42.3404 67.6334 41.8849 67.6334C41.4293 67.6334 41.046 67.4778 40.7349 67.1667C40.4238 66.8556 40.2571 66.489 40.2349 66.0667C40.2126 65.6445 40.3238 65.2667 40.5682 64.9334L40.7015 64.8001L49.5682 55.9667Z" fill="white"/>
<defs>
<linearGradient id="paint0_linear_1074_2448" x1="0.667969" y1="0" x2="107.335" y2="106.667" gradientUnits="userSpaceOnUse">
<stop stop-color="#22C55E"/>
<stop offset="1" stop-color="#059669"/>
</linearGradient>
</defs>
</svg>
