<svg width="107" height="107" viewBox="0 0 107 107" fill="none" xmlns="http://www.w3.org/2000/svg">
<path d="M0.334961 32C0.334961 14.3269 14.6618 0 32.335 0H75.0016C92.6748 0 107.002 14.3269 107.002 32V74.6667C107.002 92.3398 92.6747 106.667 75.0016 106.667H32.3349C14.6618 106.667 0.334961 92.3398 0.334961 74.6667V32Z" fill="url(#paint0_linear_1074_2460)"/>
<path d="M66.9007 46.667H68.6673C69.2673 46.667 69.8229 46.817 70.334 47.117C70.8451 47.417 71.2507 47.8225 71.5507 48.3337C71.8507 48.8448 72.0007 49.4003 72.0007 50.0003V56.667C72.0007 57.267 71.8507 57.8225 71.5507 58.3337C71.2507 58.8448 70.8451 59.2503 70.334 59.5503C69.8229 59.8503 69.2673 60.0003 68.6673 60.0003H66.9007C66.634 62.1781 65.8784 64.1559 64.634 65.9337C63.3895 67.7114 61.8229 69.1003 59.934 70.1003C57.9784 71.1448 55.8895 71.667 53.6673 71.667V68.3337C55.4673 68.3337 57.1451 67.8781 58.7007 66.967C60.2118 66.0781 61.4118 64.8781 62.3007 63.367C63.2118 61.8114 63.6673 60.1337 63.6673 58.3337V48.3337C63.6673 46.5337 63.2118 44.8559 62.3007 43.3003C61.4118 41.7892 60.2118 40.5892 58.7007 39.7003C57.1451 38.7892 55.4673 38.3337 53.6673 38.3337C51.8673 38.3337 50.1895 38.7892 48.634 39.7003C47.1229 40.5892 45.9229 41.7892 45.034 43.3003C44.1229 44.8559 43.6673 46.5337 43.6673 48.3337V60.0003H38.6673C38.0673 60.0003 37.5118 59.8503 37.0007 59.5503C36.4895 59.2503 36.084 58.8448 35.784 58.3337C35.484 57.8225 35.334 57.267 35.334 56.667V50.0003C35.334 49.4003 35.484 48.8448 35.784 48.3337C36.084 47.8225 36.4895 47.417 37.0007 47.117C37.5118 46.817 38.0673 46.667 38.6673 46.667H40.434C40.7007 44.4892 41.4562 42.5114 42.7007 40.7337C43.9451 38.9559 45.5118 37.567 47.4007 36.567C49.3562 35.5225 51.4451 35.0003 53.6673 35.0003C55.8895 35.0003 57.9784 35.5225 59.934 36.567C61.8229 37.567 63.3895 38.9559 64.634 40.7337C65.8784 42.5114 66.634 44.4892 66.9007 46.667ZM38.6673 50.0003V56.667H40.334V50.0003H38.6673ZM67.0007 50.0003V56.667H68.6673V50.0003H67.0007ZM46.6007 59.6337L48.3673 56.8003C49.9895 57.8225 51.7562 58.3337 53.6673 58.3337C55.5784 58.3337 57.3451 57.8225 58.9673 56.8003L60.734 59.6337C59.6895 60.3003 58.5673 60.8059 57.3673 61.1503C56.1673 61.4948 54.934 61.667 53.6673 61.667C52.4007 61.667 51.1673 61.4948 49.9673 61.1503C48.7673 60.8059 47.6451 60.3003 46.6007 59.6337Z" fill="white"/>
<defs>
<linearGradient id="paint0_linear_1074_2460" x1="0.334961" y1="0" x2="107.002" y2="106.667" gradientUnits="userSpaceOnUse">
<stop stop-color="#A855F7"/>
<stop offset="1" stop-color="#4F46E5"/>
</linearGradient>
</defs>
</svg>
