<svg width="107" height="107" viewBox="0 0 107 107" fill="none" xmlns="http://www.w3.org/2000/svg">
<path d="M0.000976562 32C0.000976562 14.3269 14.3279 0 32.001 0H74.6677C92.3408 0 106.668 14.3269 106.668 32V74.6667C106.668 92.3398 92.3408 106.667 74.6676 106.667H32.001C14.3278 106.667 0.000976562 92.3398 0.000976562 74.6667V32Z" fill="url(#paint0_linear_1074_2435)"/>
<path d="M51.0345 56.6335V59.9669C49.2345 59.9669 47.5567 60.4224 46.0012 61.3335C44.4901 62.2224 43.2901 63.4113 42.4012 64.9002C41.4901 66.4558 41.0345 68.1446 41.0345 69.9669H37.7012C37.7012 67.5446 38.3123 65.3002 39.5345 63.2335C40.7123 61.2113 42.3012 59.6113 44.3012 58.4335C46.3678 57.2335 48.6123 56.6335 51.0345 56.6335ZM51.0345 54.9669C49.2345 54.9669 47.5567 54.5113 46.0012 53.6002C44.4901 52.7113 43.2901 51.5113 42.4012 50.0002C41.4901 48.4446 41.0345 46.7613 41.0345 44.9502C41.0345 43.1391 41.4901 41.4557 42.4012 39.9002C43.2901 38.4113 44.4901 37.2224 46.0012 36.3335C47.5567 35.4224 49.2401 34.9669 51.0512 34.9669C52.8623 34.9669 54.5456 35.4224 56.1012 36.3335C57.5901 37.2224 58.779 38.4113 59.6678 39.9002C60.579 41.4557 61.0345 43.1391 61.0345 44.9502C61.0345 46.7613 60.579 48.4446 59.6678 50.0002C58.779 51.5113 57.5901 52.7113 56.1012 53.6002C54.5456 54.5113 52.8567 54.9669 51.0345 54.9669ZM51.0345 51.6335C52.2345 51.6335 53.3456 51.3335 54.3678 50.7335C55.3901 50.1335 56.2012 49.3224 56.8012 48.3002C57.4012 47.278 57.7012 46.1669 57.7012 44.9669C57.7012 43.7669 57.4012 42.6558 56.8012 41.6335C56.2012 40.6113 55.3901 39.8002 54.3678 39.2002C53.3456 38.6002 52.2345 38.3002 51.0345 38.3002C49.8345 38.3002 48.7234 38.6002 47.7012 39.2002C46.679 39.8002 45.8678 40.6113 45.2678 41.6335C44.6678 42.6558 44.3678 43.7669 44.3678 44.9669C44.3678 46.1669 44.6678 47.278 45.2678 48.3002C45.8678 49.3224 46.679 50.1335 47.7012 50.7335C48.7234 51.3335 49.8345 51.6335 51.0345 51.6335ZM61.0345 69.1335L56.1345 71.7002L57.0678 66.2335L53.1012 62.4002L58.6012 61.6002L61.0345 56.6335L63.5012 61.6002L68.9678 62.4002L65.0012 66.2335L65.9345 71.7002L61.0345 69.1335Z" fill="white"/>
<defs>
<linearGradient id="paint0_linear_1074_2435" x1="0.000976562" y1="0" x2="106.668" y2="106.667" gradientUnits="userSpaceOnUse">
<stop stop-color="#3B82F6"/>
<stop offset="1" stop-color="#2563EB"/>
</linearGradient>
</defs>
</svg>
