<svg width="64" height="64" viewBox="0 0 64 64" fill="none" xmlns="http://www.w3.org/2000/svg">
<path d="M0 24C0 10.7452 10.7452 0 24 0H40C53.2548 0 64 10.7452 64 24V40C64 53.2548 53.2548 64 40 64H24C10.7452 64 0 53.2548 0 40V24Z" fill="#1D1D1D" fill-opacity="0.4"/>
<path d="M44.8569 29.6557L37.1469 26.8519L34.3432 19.1419C34.1683 18.6607 33.8495 18.2451 33.4302 17.9513C33.0109 17.6576 32.5114 17.5 31.9994 17.5C31.4875 17.5 30.9879 17.6576 30.5686 17.9513C30.1493 18.2451 29.8305 18.6607 29.6557 19.1419L26.8519 26.8519L19.1419 29.6557C18.6607 29.8305 18.2451 30.1493 17.9513 30.5686C17.6576 30.9879 17.5 31.4875 17.5 31.9994C17.5 32.5114 17.6576 33.0109 17.9513 33.4302C18.2451 33.8495 18.6607 34.1683 19.1419 34.3432L26.8519 37.1469L29.6557 44.8569C29.8305 45.3381 30.1493 45.7538 30.5686 46.0475C30.9879 46.3413 31.4875 46.4988 31.9994 46.4988C32.5114 46.4988 33.0109 46.3413 33.4302 46.0475C33.8495 45.7538 34.1683 45.3381 34.3432 44.8569L37.1469 37.1469L44.8569 34.3432C45.3381 34.1683 45.7538 33.8495 46.0475 33.4302C46.3413 33.0109 46.4988 32.5114 46.4988 31.9994C46.4988 31.4875 46.3413 30.9879 46.0475 30.5686C45.7538 30.1493 45.3381 29.8305 44.8569 29.6557ZM35.4644 34.5669C35.2583 34.6418 35.0711 34.761 34.9161 34.9161C34.761 35.0711 34.6418 35.2583 34.5669 35.4644L31.9994 42.5257L29.4319 35.4644C29.357 35.2583 29.2378 35.0711 29.0828 34.9161C28.9277 34.761 28.7405 34.6418 28.5344 34.5669L21.4732 31.9994L28.5344 29.4319C28.7405 29.357 28.9277 29.2378 29.0828 29.0828C29.2378 28.9277 29.357 28.7405 29.4319 28.5344L31.9994 21.4732L34.5669 28.5344C34.6418 28.7405 34.761 28.9277 34.9161 29.0828C35.0711 29.2378 35.2583 29.357 35.4644 29.4319L42.5257 31.9994L35.4644 34.5669Z" fill="white"/>
</svg>
