<svg width="40" height="40" viewBox="0 0 40 40" fill="none" xmlns="http://www.w3.org/2000/svg">
<path d="M18.3333 28.125C19.3689 28.125 20.2083 28.9645 20.2083 30C20.2083 31.0355 19.3689 31.875 18.3333 31.875H5C3.96447 31.875 3.125 31.0355 3.125 30C3.125 28.9645 3.96447 28.125 5 28.125H18.3333Z" fill="#097BF8"/>
<path d="M33.6735 25.3402C34.4057 24.6079 35.5943 24.6079 36.3265 25.3402C37.0587 26.0724 37.0587 27.2609 36.3265 27.9932L29.6598 34.6598C28.9276 35.3921 27.7391 35.3921 27.0068 34.6598L23.6735 31.3265L23.5449 31.1833C22.9446 30.4468 22.9871 29.3599 23.6735 28.6735C24.3599 27.9871 25.4468 27.9446 26.1833 28.5449L26.3265 28.6735L28.3333 30.6803L33.6735 25.3402Z" fill="#097BF8"/>
<path d="M26.6667 18.125C27.7022 18.125 28.5417 18.9645 28.5417 20C28.5417 21.0355 27.7022 21.875 26.6667 21.875H5C3.96447 21.875 3.125 21.0355 3.125 20C3.125 18.9645 3.96447 18.125 5 18.125H26.6667Z" fill="#097BF8"/>
<path d="M26.6667 8.125C27.7022 8.125 28.5417 8.96447 28.5417 10C28.5417 11.0355 27.7022 11.875 26.6667 11.875H5C3.96447 11.875 3.125 11.0355 3.125 10C3.125 8.96447 3.96447 8.125 5 8.125H26.6667Z" fill="#097BF8"/>
</svg>
