<svg width="21" height="21" viewBox="0 0 21 21" fill="none" xmlns="http://www.w3.org/2000/svg">
<path d="M10.5002 18.9897C9.36715 18.9897 8.28408 18.7731 7.25101 18.3397C6.26237 17.9175 5.38203 17.3203 4.61 16.5481C3.83797 15.7759 3.2409 14.8953 2.81878 13.9064C2.38556 12.8731 2.16895 11.7897 2.16895 10.6564C2.16895 9.52308 2.38556 8.43975 2.81878 7.40641C3.2409 6.41752 3.83797 5.53697 4.61 4.76475C5.38203 3.99253 6.26237 3.3953 7.25101 2.97308C8.28408 2.53975 9.36715 2.32308 10.5002 2.32308C11.6332 2.32308 12.7163 2.53975 13.7494 2.97308C14.738 3.3953 15.6184 3.99253 16.3904 4.76475C17.1624 5.53697 17.7595 6.41752 18.1816 7.40641C18.6148 8.43975 18.8314 9.52308 18.8314 10.6564C18.8314 11.7897 18.6148 12.8731 18.1816 13.9064C17.7595 14.8953 17.1624 15.7759 16.3904 16.5481C15.6184 17.3203 14.738 17.9175 13.7494 18.3397C12.7163 18.7731 11.6332 18.9897 10.5002 18.9897ZM10.5002 17.3231C11.711 17.3231 12.8329 17.0175 13.866 16.4064C14.8658 15.8175 15.66 15.0231 16.2488 14.0231C16.8597 12.9897 17.1652 11.8675 17.1652 10.6564C17.1652 9.4453 16.8597 8.32308 16.2488 7.28975C15.66 6.28975 14.8658 5.4953 13.866 4.90641C12.8329 4.2953 11.711 3.98975 10.5002 3.98975C9.28939 3.98975 8.16745 4.2953 7.13437 4.90641C6.13462 5.4953 5.34037 6.28975 4.75163 7.28975C4.14067 8.32308 3.8352 9.4453 3.8352 10.6564C3.8352 11.8675 4.14067 12.9897 4.75163 14.0231C5.34037 15.0231 6.13462 15.8175 7.13437 16.4064C8.16745 17.0175 9.28939 17.3231 10.5002 17.3231ZM9.35048 7.67308L13.4161 10.3731C13.4939 10.4286 13.5411 10.5009 13.5578 10.5897C13.5744 10.6786 13.5605 10.762 13.5161 10.8397C13.4828 10.8731 13.4495 10.9064 13.4161 10.9397L9.35048 13.6397C9.27272 13.6953 9.18941 13.7147 9.10055 13.6981C9.01168 13.6814 8.93947 13.6342 8.88393 13.5564C8.85061 13.5009 8.83395 13.4397 8.83395 13.3731V7.93975C8.83395 7.85086 8.86727 7.77308 8.93392 7.70641C9.00057 7.63975 9.07833 7.60641 9.1672 7.60641C9.23385 7.60641 9.29494 7.62864 9.35048 7.67308Z" fill="#2563EB"/>
</svg>
