<svg width="64" height="64" viewBox="0 0 64 64" fill="none" xmlns="http://www.w3.org/2000/svg">
<path d="M0 24C0 10.7452 10.7452 0 24 0H40C53.2548 0 64 10.7452 64 24V40C64 53.2548 53.2548 64 40 64H24C10.7452 64 0 53.2548 0 40V24Z" fill="#1D1D1D" fill-opacity="0.4"/>
<path fill-rule="evenodd" clip-rule="evenodd" d="M42.6181 18.6689C42.9897 18.6552 43.3507 18.7971 43.6129 19.0608C43.8748 19.3247 44.0156 19.6867 43.9996 20.0582C43.8334 23.8826 42.8128 26.2528 40.9684 28.0986C40.9336 28.1333 40.8961 28.1668 40.8577 28.1975C39.1862 29.5354 36.9795 30.3477 34.2092 30.6051C33.8795 31.4485 33.7927 32.3277 33.8355 33.2769C33.8627 33.877 33.9386 34.4903 34.0322 35.1376C34.1227 35.7641 34.2355 36.4589 34.3095 37.1246C34.4584 38.4641 34.4942 39.9735 33.8642 41.4332C33.6774 41.8658 33.4379 42.2763 33.1454 42.6676H40.0009C40.7371 42.6678 41.3342 43.2647 41.3342 44.0009C41.334 44.737 40.737 45.334 40.0009 45.3342H24.0009C23.2647 45.3342 22.6678 44.7371 22.6676 44.0009C22.6676 43.2645 23.2645 42.6676 24.0009 42.6676H29.0087C30.4519 41.8945 31.1023 41.1032 31.4163 40.3759C31.7651 39.5673 31.7927 38.6282 31.6585 37.4202C31.5969 36.8665 31.5102 36.315 31.4202 35.7014C28.6248 36.1991 26.1974 36.1538 23.9983 34.9293C23.994 34.927 23.9896 34.9251 23.9853 34.9228C23.9779 34.9186 23.9693 34.9152 23.9618 34.9111C21.7056 33.7146 19.8541 31.2566 18.721 27.3616C18.616 27.0003 18.6684 26.6117 18.8655 26.2913C19.0627 25.9707 19.3861 25.7484 19.7561 25.6793C24.3464 24.8218 27.2143 25.6513 29.2704 27.2157C30.221 27.9392 30.9824 28.8919 31.6064 29.9514C31.714 29.6363 31.8436 29.3196 32.0009 29.0035C31.9964 26.6638 32.6637 24.3695 33.9267 22.3941L34.0582 22.221C34.8458 21.3453 35.8401 20.4811 37.2444 19.8238C38.6416 19.17 40.3782 18.7519 42.6181 18.6689ZM27.6546 29.3381C26.5061 28.4645 24.8135 27.7657 21.7756 28.0777C22.6826 30.4149 23.843 31.7351 24.9671 32.4176L25.234 32.5686L25.2704 32.5881C26.5573 33.3129 28.0703 33.4951 30.2131 33.1949C29.5408 31.5023 28.7147 30.145 27.6546 29.3381ZM41.2053 21.4592C40.0194 21.6174 39.1034 21.8981 38.3746 22.2392C37.4095 22.6909 36.7109 23.2752 36.1155 23.9228C35.3676 25.1223 34.8969 26.4681 34.7327 27.8616C36.6792 27.5816 38.1 26.9676 39.135 26.1572C40.1627 25.1088 40.9035 23.7727 41.2053 21.4592Z" fill="white"/>
</svg>
