<svg width="40" height="40" viewBox="0 0 40 40" fill="none" xmlns="http://www.w3.org/2000/svg">
<path d="M20 1.45801C30.2403 1.45801 38.542 9.75972 38.542 20C38.542 30.2403 30.2403 38.542 20 38.542C9.75972 38.542 1.45801 30.2403 1.45801 20C1.45801 9.75972 9.75972 1.45801 20 1.45801ZM20 5.20801C11.8308 5.20801 5.20801 11.8308 5.20801 20C5.20801 28.1692 11.8308 34.792 20 34.792C28.1692 34.792 34.792 28.1692 34.792 20C34.792 11.8308 28.1692 5.20801 20 5.20801ZM12.209 21.833C13.0369 21.2126 14.2106 21.3801 14.832 22.207C14.8407 22.218 14.8589 22.2396 14.8848 22.2705C14.9374 22.3332 15.0251 22.433 15.1436 22.5566C15.3823 22.8057 15.7424 23.1448 16.208 23.4834C17.1467 24.166 18.4336 24.792 20 24.792C21.5664 24.792 22.8533 24.166 23.792 23.4834C24.2576 23.1448 24.6177 22.8057 24.8564 22.5566C24.9749 22.433 25.0626 22.3332 25.1152 22.2705L25.168 22.207C25.7894 21.3801 26.9631 21.2126 27.791 21.833C28.6193 22.4542 28.7879 23.6296 28.167 24.458L26.792 23.4268C28.1669 24.458 28.166 24.46 28.166 24.46L28.1621 24.4629L28.1572 24.4697C28.1536 24.4745 28.1493 24.4811 28.1445 24.4873C28.1348 24.4999 28.1221 24.5156 28.1074 24.5342C28.0775 24.5719 28.0365 24.6229 27.9863 24.6826C27.8861 24.8021 27.7457 24.9633 27.5654 25.1514C27.2053 25.5272 26.679 26.0221 25.999 26.5166C24.6461 27.5005 22.5999 28.542 20 28.542C17.4001 28.542 15.3539 27.5005 14.001 26.5166C13.321 26.0221 12.7947 25.5272 12.4346 25.1514C12.2543 24.9633 12.1139 24.8021 12.0137 24.6826C11.9635 24.6229 11.9225 24.5719 11.8926 24.5342C11.8779 24.5156 11.8652 24.4999 11.8555 24.4873C11.8507 24.4811 11.8464 24.4745 11.8428 24.4697L11.8379 24.4629L11.834 24.46C11.834 24.46 11.8331 24.458 13.208 23.4268L11.833 24.458C11.2121 23.6296 11.3807 22.4542 12.209 21.833ZM15.0166 13.125C16.052 13.1252 16.8916 13.9646 16.8916 15C16.8916 16.0354 16.052 16.8748 15.0166 16.875H15C13.9645 16.875 13.125 16.0355 13.125 15C13.125 13.9645 13.9645 13.125 15 13.125H15.0166ZM25.0166 13.125C26.052 13.1252 26.8916 13.9646 26.8916 15C26.8916 16.0354 26.052 16.8748 25.0166 16.875H25C23.9645 16.875 23.125 16.0355 23.125 15C23.125 13.9645 23.9645 13.125 25 13.125H25.0166Z" fill="#097BF8"/>
</svg>
