<svg width="40" height="40" viewBox="0 0 40 40" fill="none" xmlns="http://www.w3.org/2000/svg">
<path d="M26.25 6.95312H36.25C36.7265 6.95314 37.1835 7.14253 37.5205 7.47949C37.8575 7.81647 38.0469 8.27345 38.0469 8.75V18.75C38.0469 19.2265 37.8575 19.6835 37.5205 20.0205C37.1835 20.3575 36.7265 20.5469 36.25 20.5469C35.7735 20.5469 35.3165 20.3575 34.9795 20.0205C34.6425 19.6835 34.4531 19.2266 34.4531 18.75V13.0928L34.3193 13.2256L22.5215 25.0264C22.3546 25.1939 22.1559 25.3263 21.9375 25.417C21.7191 25.5077 21.4845 25.5547 21.248 25.5547C21.0117 25.5546 20.7778 25.5076 20.5596 25.417C20.3412 25.3263 20.1425 25.1938 19.9756 25.0264L15.0557 20.1006L15 20.0459L14.9443 20.1006L5.02148 30.0215C4.68389 30.3591 4.22547 30.5488 3.74805 30.5488C3.2708 30.5487 2.81309 30.3589 2.47559 30.0215C2.138 29.6839 1.94824 29.2255 1.94824 28.748C1.94835 28.2708 2.13809 27.8131 2.47559 27.4756L13.7256 16.2256C13.8925 16.0581 14.0912 15.9247 14.3096 15.834C14.5278 15.7434 14.7618 15.6973 14.998 15.6973C15.2345 15.6973 15.4691 15.7433 15.6875 15.834C15.9059 15.9247 16.1045 16.0581 16.2715 16.2256L21.1943 21.1494L21.25 21.2041L21.3057 21.1494L31.7744 10.6807L31.9072 10.5469H26.25C25.7735 10.5469 25.3165 10.3575 24.9795 10.0205C24.6425 9.68353 24.4531 9.22656 24.4531 8.75C24.4531 8.27344 24.6425 7.81647 24.9795 7.47949C25.3165 7.14253 25.7735 6.95313 26.25 6.95312Z" fill="#097BF8" stroke="#097BF8" stroke-width="0.15625"/>
</svg>
