<svg width="29" height="27" viewBox="0 0 29 27" fill="none" xmlns="http://www.w3.org/2000/svg">
<path d="M14.2194 3.33325C16.1745 3.33325 18.0259 3.7777 19.7736 4.66658C21.4472 5.52584 22.858 6.71473 24.0059 8.23325C25.1537 9.75177 25.898 11.4518 26.2386 13.3333C25.898 15.2147 25.1537 16.9147 24.0059 18.4333C22.858 19.9518 21.4472 21.1407 19.7736 21.9999C18.0259 22.8888 16.1745 23.3333 14.2194 23.3333C12.2643 23.3333 10.413 22.8888 8.66525 21.9999C6.99159 21.1407 5.58083 19.9518 4.43297 18.4333C3.28511 16.9147 2.54085 15.2147 2.2002 13.3333C2.54085 11.4518 3.28511 9.75177 4.43297 8.23325C5.58083 6.71473 6.99159 5.52584 8.66525 4.66658C10.413 3.7777 12.2643 3.33325 14.2194 3.33325ZM14.2194 21.111C15.7598 21.111 17.2261 20.7703 18.6183 20.0888C19.9661 19.437 21.1103 18.5184 22.0508 17.3333C22.9913 16.1481 23.6319 14.8147 23.9725 13.3333C23.6319 11.8518 22.9913 10.5184 22.0508 9.33325C21.1103 8.14807 19.9661 7.22955 18.6183 6.5777C17.2261 5.89622 15.7598 5.55547 14.2194 5.55547C12.6791 5.55547 11.2128 5.89622 9.82051 6.5777C8.4727 7.22955 7.32854 8.14807 6.38804 9.33325C5.44753 10.5184 4.80695 11.8518 4.4663 13.3333C4.80695 14.8147 5.44753 16.1481 6.38804 17.3333C7.32854 18.5184 8.4727 19.437 9.82051 20.0888C11.2128 20.7703 12.6791 21.111 14.2194 21.111ZM14.2194 18.3333C13.3159 18.3333 12.4828 18.1073 11.72 17.6555C10.9573 17.2036 10.35 16.5962 9.89827 15.8333C9.44653 15.0703 9.22066 14.237 9.22066 13.3333C9.22066 12.4295 9.44653 11.5962 9.89827 10.8333C10.35 10.0703 10.9573 9.46288 11.72 9.01103C12.4828 8.55918 13.3159 8.33325 14.2194 8.33325C15.1229 8.33325 15.956 8.55918 16.7188 9.01103C17.4816 9.46288 18.0888 10.0703 18.5406 10.8333C18.9923 11.5962 19.2182 12.4295 19.2182 13.3333C19.2182 14.237 18.9923 15.0703 18.5406 15.8333C18.0888 16.5962 17.4816 17.2036 16.7188 17.6555C15.956 18.1073 15.1229 18.3333 14.2194 18.3333ZM14.2194 16.111C14.723 16.111 15.1858 15.9851 15.608 15.7333C16.0301 15.4814 16.367 15.1444 16.6188 14.7221C16.8706 14.2999 16.9965 13.837 16.9965 13.3333C16.9965 12.8295 16.8706 12.3666 16.6188 11.9444C16.367 11.5221 16.0301 11.1851 15.608 10.9333C15.1858 10.6814 14.723 10.5555 14.2194 10.5555C13.7158 10.5555 13.253 10.6814 12.8309 10.9333C12.4088 11.1851 12.0718 11.5221 11.82 11.9444C11.5682 12.3666 11.4423 12.8295 11.4423 13.3333C11.4423 13.837 11.5682 14.2999 11.82 14.7221C12.0718 15.1444 12.4088 15.4814 12.8309 15.7333C13.253 15.9851 13.7158 16.111 14.2194 16.111Z" fill="#2563EB"/>
</svg>
