<svg width="21" height="21" viewBox="0 0 21 21" fill="none" xmlns="http://www.w3.org/2000/svg">
<path d="M8.30063 9.55625C8.68942 10.2451 9.1643 10.8701 9.72527 11.4312C10.2862 11.9924 10.9111 12.4674 11.5998 12.8562L12.333 11.8229C12.4551 11.6451 12.619 11.534 12.8245 11.4896C13.03 11.4451 13.2272 11.4729 13.416 11.5729C14.6046 12.2285 15.8765 12.6062 17.2317 12.7062C17.4428 12.7285 17.6233 12.8174 17.7733 12.9729C17.9232 13.1285 17.9982 13.3174 17.9982 13.5396V17.2562C17.9982 17.4674 17.926 17.6535 17.7816 17.8146C17.6372 17.9757 17.4594 18.0674 17.2484 18.0896C16.8041 18.134 16.3597 18.1562 15.9154 18.1562C14.1603 18.1562 12.4829 17.8174 10.8833 17.1396C9.33926 16.484 7.97293 15.5618 6.78434 14.3729C5.59575 13.184 4.67376 11.8174 4.01837 10.2729C3.34076 8.67292 3.00195 6.99514 3.00195 5.23958C3.00195 4.79514 3.02417 4.35069 3.0686 3.90625C3.09082 3.69514 3.18246 3.51736 3.34353 3.37292C3.50461 3.22847 3.69067 3.15625 3.90173 3.15625H7.61747C7.83963 3.15625 8.02847 3.23125 8.18399 3.38125C8.33951 3.53125 8.42837 3.7118 8.45059 3.92292C8.55057 5.27847 8.92825 6.55069 9.58364 7.73958C9.68362 7.92847 9.71139 8.12569 9.66695 8.33125C9.62252 8.53681 9.51144 8.70069 9.3337 8.82292L8.30063 9.55625ZM6.20115 9.00625L7.78409 7.87292C7.33976 6.90625 7.03428 5.88958 6.86765 4.82292H4.6682V5.23958C4.6682 6.7618 4.96257 8.22292 5.55132 9.62292C6.11784 10.9674 6.92042 12.159 7.95905 13.1979C8.99768 14.2368 10.189 15.0396 11.5332 15.6062C12.9328 16.1951 14.3935 16.4896 15.9154 16.4896H16.332V14.2896C15.2656 14.1229 14.2491 13.8174 13.2827 13.3729L12.1497 14.9562C11.6942 14.7785 11.2499 14.5674 10.8167 14.3229L10.7667 14.3062C9.95577 13.8396 9.21707 13.2729 8.55057 12.6062C7.88407 11.9396 7.31754 11.2007 6.85099 10.3896L6.83433 10.3396C6.58994 9.90625 6.37889 9.46181 6.20115 9.00625Z" fill="white"/>
</svg>
