<svg width="23" height="22" viewBox="0 0 23 22" fill="none" xmlns="http://www.w3.org/2000/svg">
<path d="M16.2749 14.0578V20.1556C16.2749 20.286 16.2305 20.3926 16.1416 20.4756C16.0528 20.5585 15.9492 20.6 15.8307 20.6C15.7478 20.6 15.6708 20.5823 15.5998 20.5467L11.8332 18.2889L8.0667 20.5467C7.9601 20.606 7.84757 20.6208 7.72913 20.5911C7.61068 20.5615 7.52185 20.4934 7.46263 20.3867C7.41525 20.3156 7.39156 20.2385 7.39156 20.1556V14.0578C6.56245 13.3941 5.91693 12.5882 5.455 11.64C4.96937 10.6563 4.72656 9.61336 4.72656 8.51114C4.72656 7.21929 5.05228 6.02225 5.70373 4.92003C6.33148 3.84151 7.17836 2.98818 8.24436 2.36003C9.3459 1.72003 10.5422 1.40003 11.8332 1.40003C13.1243 1.40003 14.3206 1.72003 15.4221 2.36003C16.4881 2.98818 17.335 3.84151 17.9627 4.92003C18.6142 6.02225 18.9399 7.21929 18.9399 8.51114C18.9399 9.61336 18.6971 10.6563 18.2115 11.64C17.7495 12.5882 17.104 13.3941 16.2749 14.0578ZM9.16823 15.0889V17.8089L11.8332 16.2089L14.4982 17.8089V15.0889C13.6454 15.4445 12.7571 15.6223 11.8332 15.6223C10.9094 15.6223 10.021 15.4504 9.16823 15.1067V15.0889ZM11.8332 13.8445C12.7926 13.8445 13.6869 13.6015 14.516 13.1156C15.3214 12.6415 15.961 12.0015 16.4348 11.1956C16.9204 10.366 17.1632 9.46818 17.1632 8.50225C17.1632 7.53633 16.9204 6.63855 16.4348 5.80892C15.961 5.00299 15.3214 4.36892 14.516 3.9067C13.6869 3.42077 12.7926 3.17781 11.8332 3.17781C10.8738 3.17781 9.97957 3.42077 9.15046 3.9067C8.34504 4.36892 7.70544 5.00299 7.23166 5.80892C6.74604 6.63855 6.50323 7.53633 6.50323 8.50225C6.50323 9.46818 6.74604 10.366 7.23166 11.1956C7.70544 12.0015 8.34504 12.6415 9.15046 13.1156C9.97957 13.6015 10.8738 13.8445 11.8332 13.8445Z" fill="#2563EB"/>
</svg>
