<svg width="29" height="27" viewBox="0 0 29 27" fill="none" xmlns="http://www.w3.org/2000/svg">
<path d="M14.2197 24.4443C12.7089 24.4443 11.2648 24.1554 9.88741 23.5777C8.56922 23.0147 7.39544 22.2184 6.36607 21.1888C5.3367 20.1592 4.5406 18.9851 3.97778 17.6666C3.40014 16.2888 3.11133 14.8443 3.11133 13.3332C3.11133 11.8221 3.40014 10.3777 3.97778 8.99989C4.5406 7.68137 5.3367 6.5073 6.36607 5.47767C7.39544 4.44804 8.56922 3.65174 9.88741 3.08878C11.2648 2.511 12.7089 2.22211 14.2197 2.22211C15.7304 2.22211 17.1745 2.511 18.5519 3.08878C19.8701 3.65174 21.0439 4.44804 22.0733 5.47767C23.1026 6.5073 23.8987 7.68137 24.4615 8.99989C25.0392 10.3777 25.328 11.8221 25.328 13.3332C25.328 14.8443 25.0392 16.2888 24.4615 17.6666C23.8987 18.9851 23.1026 20.1592 22.0733 21.1888C21.0439 22.2184 19.8701 23.0147 18.5519 23.5777C17.1745 24.1554 15.7304 24.4443 14.2197 24.4443ZM14.2197 22.2221C15.8341 22.2221 17.33 21.8147 18.7074 20.9999C20.0404 20.2147 21.0994 19.1554 21.8844 17.8221C22.699 16.4443 23.1063 14.948 23.1063 13.3332C23.1063 11.7184 22.699 10.2221 21.8844 8.84434C21.0994 7.511 20.0404 6.45174 18.7074 5.66656C17.33 4.85174 15.8341 4.44434 14.2197 4.44434C12.6053 4.44434 11.1093 4.85174 9.73189 5.66656C8.39889 6.45174 7.3399 7.511 6.55491 8.84434C5.7403 10.2221 5.33299 11.7184 5.33299 13.3332C5.33299 14.948 5.7403 16.4443 6.55491 17.8221C7.3399 19.1554 8.39889 20.2147 9.73189 20.9999C11.1093 21.8147 12.6053 22.2221 14.2197 22.2221Z" fill="#2563EB"/>
</svg>
