<svg width="40" height="40" viewBox="0 0 40 40" fill="none" xmlns="http://www.w3.org/2000/svg">
<path fill-rule="evenodd" clip-rule="evenodd" d="M34.8309 3.13332C35.8618 3.04009 36.7733 3.80001 36.8671 4.83091L38.5337 23.1642C38.5813 23.6885 38.4068 24.2093 38.052 24.5982C37.6968 24.9871 37.1935 25.2084 36.6669 25.2085H35.4039C35.3517 26.5678 34.7905 27.8612 33.8251 28.8267C32.8105 29.841 31.4333 30.412 29.9986 30.412C29.8101 30.4119 29.6229 30.3989 29.4371 30.3794C29.3699 30.6716 29.2805 30.9589 29.1653 31.2372C28.8934 31.8935 28.4956 32.491 27.9934 32.9933C27.4911 33.4956 26.8935 33.8933 26.2372 34.1652C25.5809 34.4371 24.8772 34.5769 24.1669 34.577C23.4565 34.577 22.7529 34.437 22.0966 34.1652C21.9209 34.0925 21.7488 34.0114 21.5822 33.9211C21.3171 34.5 20.9522 35.0344 20.4934 35.4933C19.4788 36.5079 18.1017 37.0769 16.6669 37.077C15.232 37.077 13.855 36.5079 12.8404 35.4933L2.00705 24.66C1.61368 24.2666 1.41645 23.7183 1.46669 23.1642L3.13335 4.83091C3.22722 3.7999 4.13847 3.03983 5.16949 3.13332C6.07213 3.21558 6.76604 3.92471 6.86219 4.79184H18.0292C19.412 3.95491 20.9638 3.41172 22.5881 3.21144C25.1328 2.89803 27.71 3.44218 29.9107 4.75766L29.9091 4.75929L30.6919 5.22316L30.7017 5.22967C31.0118 5.4166 31.3816 5.48173 31.7369 5.41196L33.1301 5.13039C33.0591 4.11551 33.8129 3.22586 34.8309 3.13332ZM6.55946 8.54184L5.27854 22.6255L15.4934 32.8403C15.8048 33.1517 16.2265 33.327 16.6669 33.327C17.1071 33.3269 17.5291 33.1516 17.8404 32.8403C18.1516 32.529 18.327 32.1071 18.327 31.6668C18.327 31.2814 18.1934 30.9093 17.9511 30.6138L17.8404 30.4933L17.007 29.66L16.8785 29.5168C16.2781 28.7803 16.3207 27.6934 17.007 27.007C17.6934 26.3209 18.7805 26.2782 19.5168 26.8784L19.66 27.007L22.9934 30.3403C23.1476 30.4945 23.3307 30.6182 23.5321 30.7017C23.7333 30.7848 23.9492 30.827 24.1669 30.827C24.3845 30.8269 24.6005 30.7848 24.8016 30.7017C25.0029 30.6182 25.1863 30.4944 25.3404 30.3403C25.4944 30.1862 25.6183 30.0029 25.7017 29.8016C25.7848 29.6005 25.827 29.3845 25.827 29.1668C25.827 28.9491 25.7849 28.7332 25.7017 28.5321C25.6392 28.3812 25.5543 28.2396 25.4511 28.1138L25.3404 27.9933L22.007 24.66L21.8785 24.5184C21.2775 23.7822 21.321 22.6953 22.007 22.0086C22.6934 21.3225 23.7788 21.2798 24.5152 21.8801L24.6584 22.0086L27.9608 25.311L27.9934 25.3403L28.0455 25.3957L28.8251 26.1753C29.1362 26.4863 29.5587 26.6617 29.9986 26.662C30.4387 26.662 30.8624 26.4863 31.1737 26.1753C31.4847 25.8642 31.6584 25.4416 31.6587 25.0018C31.6587 24.5615 31.485 24.1381 31.1737 23.8267L24.7072 17.3602C24.1214 16.7754 23.3264 16.4471 22.4986 16.4471C21.6713 16.4474 20.8755 16.7742 20.2899 17.3586L18.8251 18.8267C17.8105 19.841 16.4333 20.412 14.9986 20.412C13.5641 20.4117 12.1881 19.8409 11.1737 18.8267C10.1594 17.8123 9.58876 16.4362 9.58843 15.0018C9.58843 13.5671 10.1594 12.1899 11.1737 11.1753L13.8056 8.54184H6.55946ZM27.9869 7.97707C26.502 7.08939 24.7625 6.72219 23.0455 6.93377C21.3289 7.14563 19.7307 7.92423 18.5061 9.14569L13.8251 13.8267C13.5141 14.138 13.3384 14.5617 13.3384 15.0018C13.3388 15.4417 13.5141 15.8642 13.8251 16.1753C14.1362 16.4863 14.5587 16.6617 14.9986 16.662C15.4387 16.662 15.8624 16.4863 16.1737 16.1753L17.6402 14.7088C18.929 13.4217 20.6771 12.6974 22.4986 12.6971C24.3202 12.6971 26.068 13.4201 27.357 14.7072L33.8251 21.1753C33.9163 21.2666 34.0032 21.3616 34.0871 21.4585H34.6145L33.4703 8.8869L32.4612 9.09035C31.1942 9.33967 29.8797 9.10907 28.773 8.44419L27.9901 7.97869L27.9869 7.97707Z" fill="#097BF8"/>
</svg>
