<svg width="40" height="40" viewBox="0 0 40 40" fill="none" xmlns="http://www.w3.org/2000/svg">
<path d="M7.5 5.67188H32.5C33.0683 5.67187 33.6312 5.78351 34.1562 6.00098C34.6814 6.21849 35.1586 6.53755 35.5605 6.93945C35.9625 7.34136 36.2815 7.81864 36.499 8.34375C36.7165 8.86881 36.8281 9.43168 36.8281 10V26.875C36.8281 27.4433 36.7165 28.0062 36.499 28.5312C36.2815 29.0564 35.9625 29.5336 35.5605 29.9355C35.1586 30.3375 34.6814 30.6565 34.1562 30.874C33.6312 31.0915 33.0683 31.2031 32.5 31.2031H21.8281V33.1719H25C25.4848 33.1719 25.9501 33.3642 26.293 33.707C26.6358 34.0499 26.8281 34.5152 26.8281 35C26.8281 35.4848 26.6358 35.9501 26.293 36.293C25.9501 36.6358 25.4848 36.8281 25 36.8281H15C14.5152 36.8281 14.0499 36.6358 13.707 36.293C13.3642 35.9501 13.1719 35.4848 13.1719 35C13.1719 34.5152 13.3642 34.0499 13.707 33.707C14.0499 33.3642 14.5152 33.1719 15 33.1719H18.1719V31.2031H7.5C6.35211 31.2031 5.25113 30.7472 4.43945 29.9355C3.62777 29.1239 3.17188 28.0229 3.17188 26.875V10C3.17188 8.85211 3.62777 7.75113 4.43945 6.93945C5.25113 6.12777 6.35211 5.67188 7.5 5.67188ZM6.82812 26.875C6.82812 27.0532 6.89939 27.2236 7.02539 27.3496C7.15139 27.4756 7.32181 27.5469 7.5 27.5469H32.5C32.6782 27.5469 32.8486 27.4756 32.9746 27.3496C33.1006 27.2236 33.1719 27.0532 33.1719 26.875V24.9531H6.82812V26.875ZM7.5 9.32812C7.32181 9.32812 7.15139 9.39939 7.02539 9.52539C6.89939 9.65139 6.82812 9.82181 6.82812 10V21.2969H33.1719V10C33.1719 9.82181 33.1006 9.65139 32.9746 9.52539C32.8486 9.39939 32.6782 9.32812 32.5 9.32812H7.5Z" fill="#097BF8" stroke="#097BF8" stroke-width="0.09375"/>
</svg>
