<svg width="86" height="86" viewBox="0 0 86 86" fill="none" xmlns="http://www.w3.org/2000/svg">
<path d="M0.334961 32.6668C0.334961 14.9937 14.6619 0.666748 32.335 0.666748H53.6683C71.3414 0.666748 85.6683 14.9936 85.6683 32.6668V54.0001C85.6683 71.6732 71.3414 86.0001 53.6683 86.0001H32.335C14.6619 86.0001 0.334961 71.6732 0.334961 54.0001V32.6668Z" fill="#F3E8FF"/>
<path d="M33.6693 44.3466C33.6693 42.1244 34.0693 40 34.8693 37.9733C35.6515 36.0178 36.7493 34.2978 38.1626 32.8133C39.5759 31.3289 41.1893 30.2044 43.0026 29.44C44.8159 30.2044 46.4293 31.3289 47.8426 32.8133C49.2559 34.2978 50.3537 36.0178 51.1359 37.9733C51.9359 40 52.3359 42.1244 52.3359 44.3466C52.3359 45.4311 52.2382 46.4978 52.0426 47.5466L54.6293 49.9733C54.7359 50.08 54.8026 50.2089 54.8293 50.36C54.8559 50.5111 54.8337 50.6578 54.7626 50.8L51.4293 56.88C51.3404 57.04 51.2071 57.1466 51.0293 57.2C50.8515 57.2533 50.6826 57.2355 50.5226 57.1466C50.4693 57.1289 50.4159 57.0933 50.3626 57.04L47.4026 54.0533C47.1359 53.8044 46.8159 53.68 46.4426 53.68H39.5626C39.1893 53.68 38.8693 53.8044 38.6026 54.0533L35.6426 57.04C35.5004 57.1644 35.3404 57.2266 35.1626 57.2266C34.9848 57.2266 34.8248 57.1644 34.6826 57.04C34.6471 57.0044 34.6115 56.9511 34.5759 56.88L31.2426 50.8C31.1715 50.6578 31.1493 50.5111 31.1759 50.36C31.2026 50.2089 31.2693 50.08 31.3759 49.9733L33.9626 47.5466C33.7671 46.4978 33.6693 45.4311 33.6693 44.3466ZM35.6426 53.2533L36.7359 52.1866C37.1093 51.8133 37.5404 51.5244 38.0293 51.32C38.5182 51.1155 39.0293 51.0133 39.5626 51.0133H46.4426C46.9759 51.0133 47.4871 51.1155 47.9759 51.32C48.4648 51.5244 48.8959 51.8133 49.2693 52.1866L50.3626 53.2533L51.6693 50.8533L50.2026 49.4933C49.8826 49.1733 49.6515 48.8 49.5093 48.3733C49.3671 47.9466 49.3404 47.5111 49.4293 47.0666C49.5893 46.16 49.6693 45.2533 49.6693 44.3466C49.6693 42.64 49.3937 41.0044 48.8426 39.44C48.2915 37.9111 47.5137 36.5378 46.5093 35.32C45.5048 34.1022 44.3359 33.1289 43.0026 32.4C41.6693 33.1289 40.5004 34.1022 39.4959 35.32C38.4915 36.5378 37.7137 37.9111 37.1626 39.44C36.6115 41.0044 36.3359 42.64 36.3359 44.3466C36.3359 45.2533 36.4159 46.16 36.5759 47.0666C36.6648 47.5111 36.6382 47.9466 36.4959 48.3733C36.3537 48.8 36.1226 49.1733 35.8026 49.4933L34.3359 50.8533L35.6426 53.2533ZM43.0026 44.3466C42.5226 44.3466 42.0782 44.2266 41.6693 43.9866C41.2604 43.7466 40.9359 43.4222 40.6959 43.0133C40.4559 42.6044 40.3359 42.16 40.3359 41.68C40.3359 41.2 40.4559 40.7555 40.6959 40.3466C40.9359 39.9378 41.2604 39.6133 41.6693 39.3733C42.0782 39.1333 42.5226 39.0133 43.0026 39.0133C43.4826 39.0133 43.9271 39.1333 44.3359 39.3733C44.7448 39.6133 45.0693 39.9378 45.3093 40.3466C45.5493 40.7555 45.6693 41.2 45.6693 41.68C45.6693 42.16 45.5493 42.6044 45.3093 43.0133C45.0693 43.4222 44.7448 43.7466 44.3359 43.9866C43.9271 44.2266 43.4826 44.3466 43.0026 44.3466Z" fill="#9333EA"/>
</svg>
