<svg width="86" height="86" viewBox="0 0 86 86" fill="none" xmlns="http://www.w3.org/2000/svg">
<path d="M0.667969 32.6668C0.667969 14.9937 14.9949 0.666748 32.668 0.666748H54.0013C71.6744 0.666748 86.0013 14.9936 86.0013 32.6668V54.0001C86.0013 71.6732 71.6744 86.0001 54.0013 86.0001H32.668C14.9949 86.0001 0.667969 71.6732 0.667969 54.0001V32.6668Z" fill="#DCFCE7"/>
<path d="M50.0013 47.92V57.0666C50.0013 57.2622 49.9346 57.4222 49.8013 57.5466C49.668 57.6711 49.5124 57.7333 49.3346 57.7333C49.2102 57.7333 49.0946 57.7066 48.988 57.6533L43.3346 54.2666L37.6813 57.6533C37.5213 57.7422 37.3524 57.7644 37.1746 57.72C36.9969 57.6755 36.8635 57.5733 36.7746 57.4133C36.7035 57.3066 36.668 57.1911 36.668 57.0666V47.92C35.4235 46.9244 34.4546 45.7155 33.7613 44.2933C33.0324 42.8177 32.668 41.2533 32.668 39.6C32.668 37.6622 33.1569 35.8666 34.1346 34.2133C35.0769 32.5955 36.348 31.3155 37.948 30.3733C39.6013 29.4133 41.3969 28.9333 43.3346 28.9333C45.2724 28.9333 47.068 29.4133 48.7213 30.3733C50.3213 31.3155 51.5924 32.5955 52.5346 34.2133C53.5124 35.8666 54.0013 37.6622 54.0013 39.6C54.0013 41.2533 53.6369 42.8177 52.908 44.2933C52.2146 45.7155 51.2457 46.9244 50.0013 47.92ZM39.3346 49.4666V53.5466L43.3346 51.1466L47.3346 53.5466V49.4666C46.0546 50 44.7213 50.2666 43.3346 50.2666C41.948 50.2666 40.6146 50.0089 39.3346 49.4933V49.4666ZM43.3346 47.6C44.7746 47.6 46.1169 47.2355 47.3613 46.5066C48.5702 45.7955 49.5302 44.8355 50.2413 43.6266C50.9702 42.3822 51.3346 41.0355 51.3346 39.5866C51.3346 38.1377 50.9702 36.7911 50.2413 35.5466C49.5302 34.3377 48.5702 33.3866 47.3613 32.6933C46.1169 31.9644 44.7746 31.6 43.3346 31.6C41.8946 31.6 40.5524 31.9644 39.308 32.6933C38.0991 33.3866 37.1391 34.3377 36.428 35.5466C35.6991 36.7911 35.3346 38.1377 35.3346 39.5866C35.3346 41.0355 35.6991 42.3822 36.428 43.6266C37.1391 44.8355 38.0991 45.7955 39.308 46.5066C40.5524 47.2355 41.8946 47.6 43.3346 47.6Z" fill="#16A34A"/>
</svg>
