<svg width="86" height="86" viewBox="0 0 86 86" fill="none" xmlns="http://www.w3.org/2000/svg">
<path d="M0.000976562 32.6668C0.000976562 14.9937 14.3279 0.666748 32.001 0.666748H53.3343C71.0074 0.666748 85.3343 14.9936 85.3343 32.6668V54.0001C85.3343 71.6732 71.0074 86.0001 53.3343 86.0001H32.001C14.3279 86.0001 0.000976562 71.6732 0.000976562 54.0001V32.6668Z" fill="#DBEAFE"/>
<path d="M42.6682 33.04C43.6993 32.1155 44.8815 31.5067 46.2148 31.2133C47.5482 30.92 48.8637 30.9511 50.1615 31.3067C51.5126 31.68 52.6815 32.36 53.6682 33.3467C54.6548 34.3333 55.3348 35.5022 55.7082 36.8533C56.0637 38.1511 56.0948 39.4622 55.8015 40.7867C55.5082 42.1111 54.8993 43.2978 53.9748 44.3467L42.6682 55.6533L31.3615 44.3467C30.4371 43.2978 29.8282 42.1111 29.5348 40.7867C29.2415 39.4622 29.2726 38.1511 29.6282 36.8533C30.0015 35.5022 30.686 34.3333 31.6815 33.3467C32.6771 32.36 33.8415 31.68 35.1748 31.3067C36.4726 30.9511 37.7882 30.92 39.1215 31.2133C40.4548 31.5067 41.6371 32.1155 42.6682 33.04ZM51.7615 35.2267C51.1037 34.5689 50.3393 34.12 49.4682 33.88C48.5971 33.64 47.7171 33.6178 46.8282 33.8133C45.9393 34.0089 45.1482 34.4178 44.4548 35.04L42.6682 36.64L40.8815 35.04C40.206 34.4178 39.4193 34.0089 38.5215 33.8133C37.6237 33.6178 36.7393 33.64 35.8682 33.88C34.9971 34.12 34.2326 34.5689 33.5748 35.2267C32.9171 35.8844 32.4637 36.6489 32.2148 37.52C31.966 38.3911 31.9348 39.2667 32.1215 40.1467C32.3082 41.0267 32.7037 41.8133 33.3082 42.5067L42.6682 51.8933L52.0282 42.5067C52.6326 41.8133 53.0282 41.0267 53.2148 40.1467C53.4015 39.2667 53.3704 38.3911 53.1215 37.52C52.8726 36.6489 52.4193 35.8844 51.7615 35.2267Z" fill="#2563EB"/>
</svg>
