<svg id="그룹_12426" data-name="그룹 12426" xmlns="http://www.w3.org/2000/svg" width="12.504" height="15.09" viewBox="0 0 12.504 15.09">
  <path id="패스_10634" data-name="패스 10634" d="M101.862,587.406h-2.13v-2.383H93.06v2.383h-2.13a.787.787,0,1,0,0,1.573h10.931a.787.787,0,0,0,0-1.573Zm-3.253,0H94.184v-1.26h4.425Z" transform="translate(-90.144 -585.023)" fill="#a8a8a8"/>
  <path id="패스_10635" data-name="패스 10635" d="M94.862,620.293a1.717,1.717,0,0,0,1.717,1.717h7.4a1.717,1.717,0,0,0,1.717-1.717v-8.649H94.862Zm7.527-5.9a.7.7,0,0,1,1.408,0v4.141a.7.7,0,1,1-1.408,0Zm-2.816,0a.7.7,0,0,1,1.408,0v4.141a.7.7,0,1,1-1.408,0Zm-2.815,0a.7.7,0,0,1,1.408,0v4.141a.7.7,0,1,1-1.408,0Z" transform="translate(-94.025 -606.92)" fill="#a8a8a8"/>
</svg>
