<svg xmlns="http://www.w3.org/2000/svg" xmlns:xlink="http://www.w3.org/1999/xlink" width="15.845" height="14.709" viewBox="0 0 15.845 14.709">
  <defs>
    <clipPath id="clip-path">
      <rect id="사각형_4138" data-name="사각형 4138" width="15.845" height="14.709" fill="#a8a8a8"/>
    </clipPath>
  </defs>
  <g id="그룹_12429" data-name="그룹 12429" transform="translate(0 0)">
    <path id="패스_11011" data-name="패스 11011" d="M0,48.236H0Z" transform="translate(0 -35.433)" fill="#a8a8a8"/>
    <g id="그룹_12414" data-name="그룹 12414" transform="translate(0 0)">
      <g id="그룹_12413" data-name="그룹 12413" clip-path="url(#clip-path)">
        <path id="패스_11012" data-name="패스 11012" d="M15.554,40.987H4.349L.808,42.774a.143.143,0,0,0,0,.256l3.541,1.787H15.554a.825.825,0,0,0,.826-.826V41.813a.826.826,0,0,0-.826-.826M4.544,44.156H4.506L2.162,42.973a.079.079,0,0,1,0-.141l2.344-1.184h.038Z" transform="translate(-0.535 -30.108)" fill="#a8a8a8"/>
        <rect id="사각형_4135" data-name="사각형 4135" width="3.789" height="0.69" transform="translate(7.99 8.347)" fill="#a8a8a8"/>
        <rect id="사각형_4136" data-name="사각형 4136" width="7.683" height="0.69" transform="translate(4.095 6.052)" fill="#a8a8a8"/>
        <rect id="사각형_4137" data-name="사각형 4137" width="3.015" height="0.69" transform="translate(4.096 8.347)" fill="#a8a8a8"/>
        <path id="패스_11013" data-name="패스 11013" d="M14.8,0H9.675a1.215,1.215,0,0,0-.853.343L4.988,4.1a1.481,1.481,0,0,0-.441,1.053V11l1.081-.547v-5.3A.434.434,0,0,1,5.658,5l1.461-.044a2.309,2.309,0,0,0,.292-.021A2.462,2.462,0,0,0,9.364,3.495a2.406,2.406,0,0,0,.176-.656V1.155l.045-.04a.114.114,0,0,1,.091-.033H14.8A2.1,2.1,0,0,1,16.9,3.176v6.908h1.081V3.176A3.18,3.18,0,0,0,14.8,0" transform="translate(-3.34 0)" fill="#a8a8a8"/>
      </g>
    </g>
  </g>
</svg>
