<svg id="그룹_12427" data-name="그룹 12427" xmlns="http://www.w3.org/2000/svg" width="15.065" height="15.065" viewBox="0 0 15.065 15.065">
  <path id="패스_10636" data-name="패스 10636" d="M562.52,82.095l-1.711-1.712a1.491,1.491,0,0,0-2.106,0L552.985,86.1a.632.632,0,0,0-.184.407l-.2,3.121a.631.631,0,0,0,.63.671h.04l3.121-.2a.631.631,0,0,0,.407-.183L562.52,84.2A1.491,1.491,0,0,0,562.52,82.095Zm-.893,1.213-5.549,5.549-2.169.136.136-2.169,5.549-5.549a.227.227,0,0,1,.321,0l1.711,1.711A.227.227,0,0,1,561.627,83.308Z" transform="translate(-547.891 -79.948)" fill="#a8a8a8"/>
  <path id="패스_10637" data-name="패스 10637" d="M540.7,98.126a.631.631,0,0,0-.631.631v3.9a.887.887,0,0,1-.886.886H530.81a.888.888,0,0,1-.886-.886V94.284a.888.888,0,0,1,.886-.886H534.7a.631.631,0,0,0,0-1.262H530.81a2.151,2.151,0,0,0-2.149,2.149v8.368a2.151,2.151,0,0,0,2.149,2.149h8.368a2.151,2.151,0,0,0,2.149-2.149v-3.9A.631.631,0,0,0,540.7,98.126Z" transform="translate(-528.661 -89.736)" fill="#a8a8a8"/>
</svg>
