<svg xmlns="http://www.w3.org/2000/svg" width="20.422" height="20.087" viewBox="0 0 20.422 20.087">
  <g id="그룹_6315" data-name="그룹 6315" transform="translate(-242.553 -592.739)">
    <path id="패스_2750" data-name="패스 2750" d="M265.04,633.3a1.808,1.808,0,0,1-.782-.18l-5.549-2.691v6.006a.9.9,0,0,0,.456.781,12.321,12.321,0,0,0,11.75,0,.9.9,0,0,0,.456-.781v-6.006l-5.549,2.691A1.81,1.81,0,0,1,265.04,633.3Z" transform="translate(-12.276 -28.637)" fill="#fff"/>
    <path id="패스_2751" data-name="패스 2751" d="M251.6,598.406a1.511,1.511,0,0,1-.2-1.146,1.521,1.521,0,0,1,1.813-1.157l8.564,1.892a1.514,1.514,0,0,1,.993.727.895.895,0,0,0-.3-1.376l-9.314-4.517a.9.9,0,0,0-.782,0l-9.314,4.517a.9.9,0,0,0,0,1.613l9.314,4.516a.894.894,0,0,0,.782,0l6.049-2.933-6.647-1.469A1.512,1.512,0,0,1,251.6,598.406Z" transform="translate(0 0)" fill="#fff"/>
    <path id="패스_2752" data-name="패스 2752" d="M292.582,621.815V612.54a.72.72,0,0,0-.565-.7l-8.564-1.892a.72.72,0,1,0-.311,1.407l8,1.767v8.771a12.044,12.044,0,0,1-.581,2.636,1.691,1.691,0,1,0,2.022-2.71Z" transform="translate(-30.412 -13.06)" fill="#fff"/>
  </g>
</svg>
