<svg width="38" height="38" viewBox="0 0 38 38" fill="none" xmlns="http://www.w3.org/2000/svg">
<path d="M9.49967 15.8333C9.93687 15.8333 10.2913 15.4789 10.2913 15.0417C10.2913 14.6045 9.93687 14.25 9.49967 14.25C7.31718 14.25 5.54134 12.4742 5.54134 10.2917C5.54134 9.85447 5.18687 9.5 4.74967 9.5C4.31248 9.5 3.95801 9.85447 3.95801 10.2917C3.95801 13.3474 6.44395 15.8333 9.49967 15.8333Z" fill="#2EAC00"/>
<path d="M9.5 12.6667C9.9372 12.6667 10.2917 12.3122 10.2917 11.875C10.2917 11.4378 9.9372 11.0833 9.5 11.0833C9.06358 11.0833 8.70833 10.7281 8.70833 10.2917C8.70833 9.85447 8.35386 9.5 7.91667 9.5C7.47947 9.5 7.125 9.85447 7.125 10.2917C7.125 11.6013 8.19035 12.6667 9.5 12.6667Z" fill="#2EAC00"/>
<path d="M27.708 15.0417C27.708 15.4789 28.0625 15.8333 28.4997 15.8333C31.5554 15.8333 34.0413 13.3474 34.0413 10.2917C34.0413 9.85447 33.6869 9.5 33.2497 9.5C32.8125 9.5 32.458 9.85447 32.458 10.2917C32.458 12.4742 30.6822 14.25 28.4997 14.25C28.0625 14.25 27.708 14.6045 27.708 15.0417Z" fill="#2EAC00"/>
<path d="M28.4997 11.0833C28.0625 11.0833 27.708 11.4378 27.708 11.875C27.708 12.3122 28.0625 12.6667 28.4997 12.6667C29.8093 12.6667 30.8747 11.6013 30.8747 10.2917C30.8747 9.85447 30.5202 9.5 30.083 9.5C29.6458 9.5 29.2913 9.85447 29.2913 10.2917C29.2913 10.7281 28.9361 11.0833 28.4997 11.0833Z" fill="#2EAC00"/>
<path d="M18.9997 25.333C18.5633 25.333 18.208 25.6883 18.208 26.1247V28.4997C18.208 28.9361 18.5633 29.2913 18.9997 29.2913C19.4361 29.2913 19.7913 28.9361 19.7913 28.4997V26.1247C19.7913 25.6883 19.4361 25.333 18.9997 25.333Z" fill="#2EAC00"/>
<path d="M30.8557 24.1398C30.8685 24.0103 30.8747 23.88 30.8747 23.7493C30.8747 21.5669 29.0988 19.791 26.9163 19.791C26.5885 19.791 26.2642 19.8316 25.9503 19.9105C25.2874 17.1083 22.7613 15.041 19.7913 15.041C16.8744 15.041 14.3653 17.0368 13.6644 19.7945C13.5964 19.7922 13.5276 19.791 13.458 19.791C10.4023 19.791 7.91634 22.277 7.91634 25.3327C7.91634 25.5998 7.93529 25.8642 7.97317 26.1243H7.91634C6.868 26.1243 5.87494 26.5341 5.11227 27.2863C4.36776 28.0413 3.95801 29.0343 3.95801 30.0827C3.95801 32.2652 5.73384 34.041 7.91634 34.041H28.8955C30.2705 34.041 31.5631 33.506 32.5353 32.5346C33.5063 31.5628 34.0413 30.2702 34.0413 28.8952C34.0413 26.7788 32.7638 24.9179 30.8557 24.1398ZM14.8434 29.291C15.2806 29.291 15.6351 29.6455 15.6351 30.0827C15.6351 30.5199 15.2806 30.8743 14.8434 30.8743C12.8789 30.8743 11.2809 29.2763 11.2809 27.3118C11.2809 25.3474 12.8789 23.7493 14.8434 23.7493C15.2806 23.7493 15.6351 24.1038 15.6351 24.541C15.6351 24.9782 15.2806 25.3327 14.8434 25.3327C13.7522 25.3327 12.8643 26.2206 12.8643 27.3118C12.8643 28.4031 13.7522 29.291 14.8434 29.291ZM21.3747 28.4993C21.3747 29.809 20.3093 30.8743 18.9997 30.8743C17.69 30.8743 16.6247 29.809 16.6247 28.4993V26.1243C16.6247 24.8147 17.69 23.7493 18.9997 23.7493C20.3093 23.7493 21.3747 24.8147 21.3747 26.1243V28.4993ZM25.0462 29.291H26.9163C27.3535 29.291 27.708 29.6455 27.708 30.0827C27.708 30.5199 27.3535 30.8743 26.9163 30.8743H25.0462C23.8946 30.8743 22.958 29.9377 22.958 28.7862C22.958 27.8998 23.5201 27.1077 24.3562 26.8147L25.7868 26.3145C25.9886 26.2438 26.1247 26.0521 26.1247 25.8375C26.1247 25.5592 25.8982 25.3327 25.6198 25.3327H23.7497C23.3125 25.3327 22.958 24.9782 22.958 24.541C22.958 24.1038 23.3125 23.7493 23.7497 23.7493H25.6198C26.7714 23.7493 27.708 24.686 27.708 25.8375C27.708 26.7239 27.146 27.5159 26.3098 27.809L24.8792 28.3092C24.6774 28.3799 24.5413 28.5716 24.5413 28.7862C24.5413 29.0645 24.7679 29.291 25.0462 29.291Z" fill="#2EAC00"/>
<path d="M28.4997 3.95801H9.49967C9.06245 3.95801 8.70801 4.31245 8.70801 4.74967V6.33301C8.70801 6.77023 9.06245 7.12467 9.49967 7.12467H28.4997C28.9369 7.12467 29.2913 6.77023 29.2913 6.33301V4.74967C29.2913 4.31245 28.9369 3.95801 28.4997 3.95801Z" fill="#2EAC00"/>
<path d="M13.4581 13.458H24.5415C24.8414 13.458 25.1155 13.2887 25.2496 13.0204L27.4058 8.70801H10.5938L12.75 13.0204C12.8841 13.2887 13.1582 13.458 13.4581 13.458Z" fill="#2EAC00"/>
</svg>
