<svg width="38" height="38" viewBox="0 0 38 38" fill="none" xmlns="http://www.w3.org/2000/svg">
<g clip-path="url(#clip0_1719_3839)">
<path d="M10.0249 29.7905C8.94725 28.7067 8.04209 27.2802 7.53745 25.3673C5.35473 17.0939 12.3536 13.569 12.3536 13.569C11.893 14.7326 11.8748 15.5838 12.0275 16.1918C12.162 16.7283 12.9182 16.6957 13.0505 16.1583C13.4373 14.5829 14.7065 12.9929 16.2577 10.9675C18.2504 8.3653 16.1171 5.76382 16.1171 5.76382C20.6634 5.43854 22.6075 8.3881 23.6624 11.0405L28.9732 3.73842C26.1058 1.86122 22.6842 0.760742 19.0005 0.760742C8.92597 0.759982 0.759766 8.92618 0.759766 19C0.759766 24.7357 3.41217 29.8467 7.55189 33.1899L10.0249 29.7897V29.7905Z" fill="#2EAC00"/>
<path d="M30.4477 4.80957L24.3867 13.143C24.7416 14.2776 24.9909 15.0703 25.3641 15.0004C26.6652 14.7557 26.6644 12.2682 26.6644 12.2682C26.6644 12.2682 32.7764 18.0108 29.978 25.8167C28.6442 29.5377 26.0587 31.351 23.7149 32.2425C23.8403 32.01 23.9778 31.7972 24.0766 31.5213C25.3823 27.8786 22.53 25.1988 22.53 25.1988C22.53 25.1988 22.53 26.3594 21.9228 26.4741C21.3277 26.5858 21.4189 22.0889 17.8241 22.1649L17.7132 22.3177C17.9404 22.6741 18.4108 23.6279 17.6729 24.5916C16.9494 25.537 16.3566 26.2788 16.1764 27.0145C16.1149 27.2653 15.7622 27.2805 15.6992 27.0305C15.6285 26.747 15.6368 26.3495 15.8512 25.8069C15.8512 25.8069 12.5854 27.4515 13.6038 31.3123C13.6996 31.674 13.8478 31.9689 13.9968 32.2615C13.1448 31.956 12.2678 31.5251 11.431 30.9558L9.02637 34.2618C11.8938 36.139 15.3154 37.2395 18.9991 37.2395C29.0729 37.2395 37.2391 29.0733 37.2391 18.9995C37.2391 13.2638 34.5867 8.15281 30.447 4.80957H30.4477Z" fill="#2EAC00"/>
</g>
<defs>
<clipPath id="clip0_1719_3839">
<rect width="38" height="38" fill="white"/>
</clipPath>
</defs>
</svg>
