<svg width="31" height="37" viewBox="0 0 31 37" fill="none" xmlns="http://www.w3.org/2000/svg">
<rect width="31" height="37" rx="3" fill="#242427"/>
<path d="M6.68912 24V14.0994H8.5213L11.6636 21.7714H11.7796L14.917 14.0994H16.7492V24H15.3134V16.855H15.2216L12.3114 23.9855H11.1221L8.21191 16.8405H8.12973V24H6.68912ZM19.5445 26.7845C19.2158 26.7845 18.9548 26.7749 18.7614 26.7555L18.7711 25.5325C18.9161 25.5453 19.1336 25.5518 19.4237 25.5518C19.6106 25.5518 19.7653 25.5341 19.8878 25.4986C20.0102 25.4632 20.1327 25.3745 20.2552 25.2327C20.3776 25.0942 20.492 24.8782 20.5984 24.5849L20.7821 24.1015L18.0604 16.5746H19.6219L21.4927 22.3322H21.5701L23.4506 16.5746H25.0121L21.952 24.9862C21.7328 25.5856 21.4267 26.0352 21.0335 26.3349C20.6435 26.6347 20.1472 26.7845 19.5445 26.7845Z" fill="white"/>
</svg>
