<svg width="31" height="37" viewBox="0 0 31 37" fill="none" xmlns="http://www.w3.org/2000/svg">
<rect width="31" height="37" rx="3" fill="#F44B3F"/>
<path d="M14.0684 12.912V21.984H12.7804V17.364H10.0924V19.94H4.43639V13.724H5.72439V15.796H8.80439V13.724H10.0924V16.3H12.7804V12.912H14.0684ZM5.72439 18.904H8.80439V16.804H5.72439V18.904ZM6.06039 24.896V21.088H7.37639V23.86H14.3484V24.896H6.06039ZM26.56 14.62V15.684H16.48V14.62H20.876V13.08H22.164V14.62H26.56ZM15.948 23.776V22.712H20.876V21.116C18.734 20.976 17.432 20.122 17.432 18.764C17.432 17.294 19 16.412 21.52 16.44C24.026 16.412 25.608 17.294 25.608 18.764C25.608 20.122 24.292 20.962 22.164 21.116V22.712H27.176V23.776H15.948ZM18.776 18.764C18.762 19.618 19.784 20.08 21.52 20.08C23.256 20.08 24.278 19.618 24.292 18.764C24.278 17.91 23.256 17.448 21.52 17.448C19.784 17.448 18.762 17.91 18.776 18.764Z" fill="white"/>
</svg>
