<svg width="52" height="52" viewBox="0 0 52 52" fill="none" xmlns="http://www.w3.org/2000/svg">
<path d="M40.4455 13.2094C40.4455 13.2094 40.4455 17.8447 38.0213 18.3002C35.597 18.7578 36.065 -0.0079844 20.7864 1.0861C20.7864 1.0861 24.7623 5.93458 21.0485 10.7851C18.1573 14.5603 15.7923 17.5223 15.0705 20.4592C14.8251 21.4607 13.4149 21.5221 13.1642 20.5216C12.8813 19.3891 12.9146 17.802 13.7726 15.6347C13.7726 15.6347 0.729983 22.2033 4.79638 37.6213C6.99286 45.9475 13.1892 49.4534 18.3049 50.9343C17.2161 49.9359 16.2946 48.5746 15.7985 46.6974C13.8423 39.2801 20.1166 36.1195 20.1166 36.1195C19.7037 37.1627 19.6881 37.926 19.8244 38.471C19.945 38.9525 20.6231 38.9223 20.7417 38.4408C21.088 37.0275 22.2268 35.6027 23.6173 33.7868C25.404 31.4541 23.4914 29.1214 23.4914 29.1214C30.8421 28.5951 30.6165 37.6223 31.7833 37.4029C32.9502 37.1835 32.9492 34.9537 32.9492 34.9537C32.9492 34.9537 38.4289 40.1017 35.9205 47.1009C35.3162 48.7878 34.4208 50.0306 33.4151 50.9603C38.1388 49.5366 43.839 46.2211 46.621 38.4606C51.8366 23.912 40.4455 13.2104 40.4455 13.2104V13.2094Z" fill="#F44B3F"/>
</svg>
