<svg width="91" height="91" viewBox="0 0 91 91" fill="none" xmlns="http://www.w3.org/2000/svg">
<path d="M22.7503 56.1455C17.5238 56.1455 13.2712 51.8929 13.2712 46.6663C13.2712 45.6194 12.4232 44.7705 11.3753 44.7705C10.3274 44.7705 9.47949 45.6194 9.47949 46.6663C9.47949 53.984 15.4336 59.9372 22.7503 59.9372C23.7982 59.9372 24.6462 59.0883 24.6462 58.0413C24.6462 56.9944 23.7982 56.1455 22.7503 56.1455Z" fill="#2EAC00"/>
<path d="M22.75 48.5622C21.704 48.5622 20.8542 47.7115 20.8542 46.6663C20.8542 45.6194 20.0062 44.7705 18.9583 44.7705C17.9104 44.7705 17.0625 45.6194 17.0625 46.6663C17.0625 49.8026 19.6137 52.3538 22.75 52.3538C23.7979 52.3538 24.6458 51.505 24.6458 50.458C24.6458 49.411 23.7979 48.5622 22.75 48.5622Z" fill="#2EAC00"/>
<path d="M68.2503 59.9372C75.5671 59.9372 81.5212 53.984 81.5212 46.6663C81.5212 45.6194 80.6732 44.7705 79.6253 44.7705C78.5774 44.7705 77.7295 45.6194 77.7295 46.6663C77.7295 51.8929 73.4768 56.1455 68.2503 56.1455C67.2024 56.1455 66.3545 56.9944 66.3545 58.0413C66.3545 59.0883 67.2024 59.9372 68.2503 59.9372Z" fill="#2EAC00"/>
<path d="M68.2503 48.5622C67.2024 48.5622 66.3545 49.411 66.3545 50.458C66.3545 51.505 67.2024 52.3538 68.2503 52.3538C71.3866 52.3538 73.9378 49.8026 73.9378 46.6663C73.9378 45.6194 73.0899 44.7705 72.042 44.7705C70.9941 44.7705 70.1462 45.6194 70.1462 46.6663C70.1462 47.7115 69.2964 48.5622 68.2503 48.5622Z" fill="#2EAC00"/>
<path d="M68.2503 31.5H22.7503C21.7033 31.5 20.8545 32.3488 20.8545 33.3958V37.1875C20.8545 38.2345 21.7033 39.0833 22.7503 39.0833H68.2503C69.2974 39.0833 70.1462 38.2345 70.1462 37.1875V33.3958C70.1462 32.3488 69.2974 31.5 68.2503 31.5Z" fill="#2EAC00"/>
<path d="M30.4469 56.8093C30.7314 57.5487 31.4328 58.0417 32.229 58.0417H58.7707C59.5669 58.0417 60.2684 57.5487 60.5528 56.8093L65.7663 42.875H25.2334L30.4469 56.8093Z" fill="#2EAC00"/>
</svg>
