<svg width="63" height="63" viewBox="0 0 63 63" fill="none" xmlns="http://www.w3.org/2000/svg">
<path d="M29.9631 36.6562L28.1738 41.1296H35.6972L33.9079 36.6562H29.9631Z" fill="#2EAC00"/>
<path d="M39.3906 45.6034C39.3906 48.0702 41.3972 50.0768 43.864 50.0768H46.8462C49.313 50.0768 51.3196 48.0702 51.3196 45.6034V44.1123H39.3906V45.6034Z" fill="#2EAC00"/>
<path d="M12.5508 45.6034C12.5508 48.0702 14.5574 50.0768 17.0242 50.0768H20.0064C22.4732 50.0768 24.4798 48.0702 24.4798 45.6034V44.1123H12.5508V45.6034Z" fill="#2EAC00"/>
<path d="M52.8109 29.2012H11.0594C9.41238 29.2012 8.07715 30.5363 8.07715 32.1834V39.639C8.07715 40.4625 8.7448 41.1302 9.56827 41.1302H24.9606L27.5678 34.6123C27.7944 34.0459 28.3429 33.6745 28.9529 33.6745H34.9174C35.5274 33.6745 36.0759 34.0459 36.3025 34.6123L38.9096 41.1302H54.302C55.1255 41.1302 55.7931 40.4625 55.7931 39.639V32.1834C55.7931 30.5363 54.458 29.2012 52.8109 29.2012ZM18.5151 36.6568H12.5506C11.7271 36.6568 11.0595 35.9891 11.0595 35.1657C11.0595 34.3422 11.7271 33.6745 12.5506 33.6745H18.5151C19.3386 33.6745 20.0062 34.3422 20.0062 35.1657C20.0062 35.9891 19.3386 36.6568 18.5151 36.6568ZM49.8286 36.6568H43.8641C43.0407 36.6568 42.373 35.9891 42.373 35.1657C42.373 34.3422 43.0407 33.6745 43.8641 33.6745H49.8286C50.6521 33.6745 51.3197 34.3422 51.3197 35.1657C51.3197 35.9891 50.6521 36.6568 49.8286 36.6568Z" fill="#2EAC00"/>
<path d="M32.21 26.2186H40.6072C39.9897 24.4866 38.3499 23.2363 36.4086 23.2363C34.4672 23.2363 32.8275 24.4866 32.21 26.2186Z" fill="#2EAC00"/>
<path d="M36.4082 20.2544C40.0084 20.2544 43.0202 22.8201 43.7131 26.2189H50.8383L45.2486 12.2447C45.0214 11.679 44.4732 11.3076 43.8638 11.3076H20.0058C19.3964 11.3076 18.8481 11.6789 18.621 12.2447L13.0312 26.2189H29.1032C29.7961 22.8201 32.8079 20.2544 36.4082 20.2544Z" fill="#2EAC00"/>
</svg>
