<svg width="38" height="38" viewBox="0 0 38 38" fill="none" xmlns="http://www.w3.org/2000/svg">
<path d="M21.3921 24.0196C22.8433 24.0196 24.0196 22.8433 24.0196 21.3921C24.0196 19.941 22.8433 18.7646 21.3921 18.7646C19.941 18.7646 18.7646 19.941 18.7646 21.3921C18.7646 22.8433 19.941 24.0196 21.3921 24.0196Z" fill="#FD7723"/>
<path d="M3 24.0202V31.9027C3 32.2639 3.2956 32.5595 3.65688 32.5595H5.6275V23.3633H3.65688C3.2956 23.3633 3 23.6589 3 24.0202Z" fill="#FD7723"/>
<path d="M35.187 20.0791H29.1635C29.2423 20.506 29.2752 20.9462 29.2752 21.3929C29.2752 21.8414 29.2288 22.2784 29.1566 22.7066H32.5595C32.9226 22.7066 33.2164 23.0004 33.2164 23.3635V32.5597C33.2164 32.9228 32.9226 33.2166 32.5595 33.2166H10.2258C9.86271 33.2166 9.56891 32.9228 9.56891 32.5597V23.3635C9.56891 23.0004 9.86271 22.7066 10.2258 22.7066H13.6287C13.5565 22.2784 13.5102 21.8414 13.5102 21.3929C13.5102 20.9462 13.543 20.506 13.6218 20.0791H7.59828C7.23701 20.0791 6.94141 20.3747 6.94141 20.736V35.1872C6.94141 35.5485 7.23701 35.8441 7.59828 35.8441H35.187C35.5483 35.8441 35.8439 35.5485 35.8439 35.1872V20.736C35.8439 20.3747 35.5483 20.0791 35.187 20.0791Z" fill="#FD7723"/>
<path d="M10.8828 31.902H31.9028V24.0195H28.8159C27.7311 27.0769 24.8189 29.2745 21.3928 29.2745C17.9667 29.2745 15.0546 27.0769 13.9697 24.0195H10.8828V31.902Z" fill="#FD7723"/>
<path d="M21.393 27.9613C25.0148 27.9613 27.9617 25.0143 27.9617 21.3925C27.9617 19.0248 26.7134 16.8835 24.6773 15.7096V6.28438C24.6773 4.47348 23.2039 3 21.393 3C19.5821 3 18.1086 4.47348 18.1086 6.28438V15.7096C16.0725 16.8835 14.8242 19.0248 14.8242 21.3925C14.8242 25.0143 17.7712 27.9613 21.393 27.9613ZM20.7361 17.5106V6.28438C20.7361 5.9213 21.0299 5.6275 21.393 5.6275C21.756 5.6275 22.0498 5.9213 22.0498 6.28438V17.5106C23.9109 17.8248 25.3342 19.4434 25.3342 21.3925C25.3342 23.5658 23.5663 25.3337 21.393 25.3337C19.2196 25.3337 17.4517 23.5658 17.4517 21.3925C17.4517 19.4434 18.8751 17.8248 20.7361 17.5106Z" fill="#FD7723"/>
<path d="M26.6471 14.8235H30.5884C30.9514 14.8235 31.2452 14.5297 31.2452 14.1666C31.2452 13.8036 30.9514 13.5098 30.5884 13.5098H26.6471C26.284 13.5098 25.9902 13.8036 25.9902 14.1666C25.9902 14.5297 26.284 14.8235 26.6471 14.8235Z" fill="#FD7723"/>
<path d="M26.6471 12.1966H28.6177C28.9808 12.1966 29.2746 11.9028 29.2746 11.5397C29.2746 11.1766 28.9808 10.8828 28.6177 10.8828H26.6471C26.284 10.8828 25.9902 11.1766 25.9902 11.5397C25.9902 11.9028 26.284 12.1966 26.6471 12.1966Z" fill="#FD7723"/>
<path d="M26.6471 9.56863H30.5884C30.9514 9.56863 31.2452 9.27483 31.2452 8.91176C31.2452 8.54868 30.9514 8.25488 30.5884 8.25488H26.6471C26.284 8.25488 25.9902 8.54868 25.9902 8.91176C25.9902 9.27483 26.284 9.56863 26.6471 9.56863Z" fill="#FD7723"/>
<path d="M26.6471 4.31375H30.5884C30.9514 4.31375 31.2452 4.01995 31.2452 3.65688C31.2452 3.2938 30.9514 3 30.5884 3H26.6471C26.284 3 25.9902 3.2938 25.9902 3.65688C25.9902 4.01995 26.284 4.31375 26.6471 4.31375Z" fill="#FD7723"/>
<path d="M26.6471 6.94168H28.6177C28.9808 6.94168 29.2746 6.64788 29.2746 6.2848C29.2746 5.92173 28.9808 5.62793 28.6177 5.62793H26.6471C26.284 5.62793 25.9902 5.92173 25.9902 6.2848C25.9902 6.64788 26.284 6.94168 26.6471 6.94168Z" fill="#FD7723"/>
</svg>
