<svg width="38" height="38" viewBox="0 0 38 38" fill="none" xmlns="http://www.w3.org/2000/svg">
<path d="M29.3403 10.0197C29.3403 10.0197 29.3403 13.4553 27.5211 13.7929C25.702 14.1321 26.0532 0.223224 14.5883 1.03414C14.5883 1.03414 17.5717 4.62774 14.7849 8.22289C12.6154 11.021 10.8408 13.2163 10.2992 15.3931C10.115 16.1354 9.05675 16.1809 8.86867 15.4394C8.6564 14.6 8.68138 13.4237 9.32521 11.8173C9.32521 11.8173 -0.461847 16.6858 2.58954 28.1133C4.23775 34.2846 8.8874 36.8831 12.7262 37.9807C11.9091 37.2407 11.2177 36.2317 10.8454 34.8404C9.3775 29.3428 14.0857 27.0003 14.0857 27.0003C13.7759 27.7734 13.7642 28.3392 13.8664 28.7431C13.9569 29.1 14.4657 29.0777 14.5547 28.7208C14.8146 27.6732 15.6691 26.6172 16.7125 25.2713C18.0533 23.5423 16.6181 21.8134 16.6181 21.8134C22.134 21.4233 21.9646 28.1141 22.8403 27.9515C23.7159 27.7888 23.7151 26.1362 23.7151 26.1362C23.7151 26.1362 27.8271 29.9518 25.9447 35.1395C25.4913 36.3897 24.8194 37.3109 24.0647 38C27.6093 36.9447 31.8867 34.4873 33.9743 28.7354C37.888 17.9523 29.3403 10.0205 29.3403 10.0205V10.0197Z" fill="#F44B3F"/>
</svg>
