<svg width="28" height="33" viewBox="0 0 28 33" fill="none" xmlns="http://www.w3.org/2000/svg">
<g clip-path="url(#clip0_1027_391)">
<path d="M14.4829 22.2589C12.7132 22.36 10.8748 21.5548 10.7841 19.8297C10.7169 18.5505 11.6819 17.1233 14.5915 16.9533C14.9247 16.9335 15.2518 16.9241 15.5728 16.9241C16.6297 16.9241 17.6187 17.0284 18.5174 17.2277C18.1821 21.4731 16.2156 22.1628 14.4829 22.2589ZM21.7882 15.2947C21.6479 15.2266 21.5055 15.161 21.3615 15.0983C21.11 10.4049 18.5808 7.71788 14.334 7.69065C14.3145 7.69024 14.2954 7.69024 14.2762 7.69024C11.736 7.69024 9.6234 8.78996 8.32319 10.7906L10.6588 12.415C11.6303 10.9205 13.1546 10.6021 14.2775 10.6021H14.3161C15.7148 10.6111 16.7697 11.0237 17.4527 11.8272C17.9498 12.4125 18.2822 13.2215 18.4466 14.2424C17.207 14.0287 15.8661 13.9627 14.4329 14.046C10.3951 14.282 7.7992 16.67 7.97332 19.9877C8.06201 21.6707 8.88908 23.1186 10.302 24.0644C11.4964 24.8639 13.035 25.2549 14.6338 25.1666C16.7456 25.0491 18.4022 24.2323 19.558 22.7382C20.4359 21.6039 20.9908 20.1341 21.2362 18.2816C22.2422 18.8975 22.9883 19.708 23.4001 20.6819C24.1006 22.3381 24.1413 25.0594 21.9514 27.2778C20.0328 29.2215 17.7265 30.0622 14.2408 30.0882C10.3744 30.0593 7.45056 28.802 5.54947 26.3513C3.76881 24.0566 2.84898 20.7422 2.8144 16.5C2.84898 12.2579 3.76881 8.94341 5.54947 6.64867C7.45056 4.19801 10.3744 2.94071 14.2408 2.91143C18.1354 2.94113 21.1105 4.2042 23.0844 6.66683C24.0522 7.87421 24.782 9.39263 25.2629 11.1635L28 10.4231C27.417 8.2434 26.4996 6.36529 25.2507 4.8081C22.7203 1.65124 19.0194 0.0334125 14.2506 0H14.2315C9.47247 0.0334125 5.81269 1.65701 3.35426 4.82625C1.16636 7.6461 0.0378345 11.5698 0 16.4885V16.5116C0.0378345 21.4302 1.16636 25.3539 3.35426 28.1738C5.81269 31.3426 9.47247 32.9666 14.2315 33H14.2506C18.4816 32.9703 21.464 31.8471 23.9208 29.358C27.1351 26.1022 27.0383 22.0205 25.9789 19.515C25.219 17.7181 23.7699 16.2587 21.7882 15.2947Z" fill="black"/>
</g>
<defs>
<clipPath id="clip0_1027_391">
<rect width="28" height="33" fill="white"/>
</clipPath>
</defs>
</svg>
