<svg width="102" height="103" viewBox="0 0 102 103" fill="none" xmlns="http://www.w3.org/2000/svg">
<g clip-path="url(#clip0_1010_1292)">
<path d="M91.8073 102.28H10.1926C4.63136 102.28 0.119995 97.7687 0.119995 92.2074V10.5927C0.119995 5.03138 4.63136 0.52002 10.1926 0.52002H91.8073C97.3686 0.52002 101.88 5.03138 101.88 10.5927V92.2074C101.88 97.7687 97.3686 102.28 91.8073 102.28Z" fill="#F0002A"/>
<path d="M101.88 51.4C101.88 79.5017 79.1017 102.28 51 102.28C22.8983 102.28 0.119995 79.5017 0.119995 51.4C0.119995 23.2983 22.8983 0.52002 51 0.52002C79.1017 0.52002 101.88 23.2983 101.88 51.4Z" fill="#F0002A"/>
<path d="M35.5465 83.1519L35.8172 85.1451C35.8828 85.6372 36.4898 85.7028 36.7441 85.3665L37.9498 83.7835C43.3553 76.7375 44.3888 70.9055 46.5953 61.7434C49.7368 67.4687 60.4739 68.7811 68.2416 62.3257C78.2979 53.5081 81.0785 34.9787 71.982 25.636C65.0591 17.8437 53.5264 14.858 40.7961 19.3037C29.8786 23.651 23.0459 33.4694 24.7603 45.6501C25.5313 50.3255 27.4999 53.8116 30.8547 55.9278C32.7249 57.1172 34.2259 57.5519 34.6032 55.247L35.2676 52.6304C35.5629 51.6461 35.3743 51.2196 34.7017 50.4486C29.7884 44.3705 32.2163 33.6335 38.8275 28.2362C45.5782 22.3797 58.817 22.5027 64.2552 28.9909C69.39 34.3061 69.1111 47.7089 62.6311 56.1083C56.6843 62.9327 48.2604 59.5123 48.9904 53.0159C50.1059 48.2995 51.9351 43.3124 52.2714 41.0813C53.5838 35.2576 50.5653 31.5008 45.6356 32.7148C40.3778 34.3881 38.1057 41.8195 40.9766 48.8409L35.7516 71.0778C35.0626 74.8345 35.0544 78.8866 35.5465 83.1519Z" fill="white"/>
</g>
<defs>
<clipPath id="clip0_1010_1292">
<rect width="101.76" height="101.76" fill="white" transform="translate(0.119995 0.52002)"/>
</clipPath>
</defs>
</svg>
