<svg width="109" height="110" viewBox="0 0 109 110" fill="none" xmlns="http://www.w3.org/2000/svg">
<g clip-path="url(#clip0_1010_1273)">
<path d="M97.9822 109.24H10.9778C5.04928 109.24 0.23999 104.431 0.23999 98.5022V11.4978C0.23999 5.5693 5.04928 0.76001 10.9778 0.76001H97.9822C103.911 0.76001 108.72 5.5693 108.72 11.4978V98.5022C108.72 104.431 103.911 109.24 97.9822 109.24Z" fill="#6441A4"/>
<path d="M108.72 55C108.72 84.9575 84.4375 109.24 54.48 109.24C24.5225 109.24 0.23999 84.9575 0.23999 55C0.23999 25.0425 24.5225 0.76001 54.48 0.76001C84.4375 0.76001 108.72 25.0425 108.72 55Z" fill="#6441A4"/>
<path fill-rule="evenodd" clip-rule="evenodd" d="M22.3364 34.906V83.1213H38.4082V96.5173L51.8042 83.1213H62.5158L86.6235 59.0136V21.5187H35.7325L22.3364 34.9147" fill="white"/>
<path fill-rule="evenodd" clip-rule="evenodd" d="M38.4082 26.8788V67.0582H50.4576V76.4319L59.8314 67.0582H70.5517L81.2633 56.3466V26.8788H38.4082Z" fill="#6441A4"/>
<path fill-rule="evenodd" clip-rule="evenodd" d="M53.1421 36.2526V52.3243H58.4935V36.2526H53.1421Z" fill="white"/>
<path fill-rule="evenodd" clip-rule="evenodd" d="M67.8673 36.2526V52.3243H73.2275V36.2526H67.8673Z" fill="white"/>
</g>
<defs>
<clipPath id="clip0_1010_1273">
<rect width="108.48" height="108.48" fill="white" transform="translate(0.23999 0.76001)"/>
</clipPath>
</defs>
</svg>
