<svg width="86" height="85" viewBox="0 0 86 85" fill="none" xmlns="http://www.w3.org/2000/svg">
<g clip-path="url(#clip0_1010_1216)">
<path d="M21.7085 0.160767C10.1792 0.160767 0.76062 9.57935 0.76062 21.1083V63.6922C0.76062 75.2215 10.1792 84.6401 21.7085 84.6401H64.2924C75.8213 84.6401 85.2399 75.2215 85.2399 63.6922V21.1083C85.2399 9.57935 75.8213 0.160767 64.2924 0.160767H21.7085ZM21.7085 8.93363H64.2924C71.1124 8.93363 76.4657 14.2883 76.4657 21.1083V63.6922C76.4657 70.5124 71.1124 75.8657 64.2924 75.8657H21.7085C14.8883 75.8657 9.53364 70.5124 9.53364 63.6922V21.1083C9.53364 14.2883 14.8883 8.93363 21.7085 8.93363Z" fill="white"/>
<path d="M43 19.4412C30.3723 19.4412 20.0412 29.7723 20.0412 42.4C20.0412 55.0277 30.3723 65.3588 43 65.3588C55.6277 65.3588 65.9575 55.0277 65.9575 42.4C65.9575 29.7723 55.6277 19.4412 43 19.4412ZM43 28.2154C50.8857 28.2154 57.1846 34.5143 57.1846 42.4C57.1846 50.2857 50.8857 56.5846 43 56.5846C35.1143 56.5846 28.8156 50.2857 28.8156 42.4C28.8156 34.5143 35.1143 28.2154 43 28.2154Z" fill="white"/>
<path d="M70.1403 19.9659C70.1403 22.5168 68.0724 24.5849 65.5213 24.5849C62.9702 24.5849 60.9023 22.5168 60.9023 19.9659C60.9023 17.4149 62.9702 15.3469 65.5213 15.3469C68.0724 15.3469 70.1403 17.4149 70.1403 19.9659Z" fill="white"/>
</g>
<defs>
<clipPath id="clip0_1010_1216">
<rect width="84.48" height="84.48" fill="white" transform="translate(0.76001 0.160034)"/>
</clipPath>
</defs>
</svg>
