<svg width="32" height="32" viewBox="0 0 32 32" fill="none" xmlns="http://www.w3.org/2000/svg">
<g clip-path="url(#clip0_1027_399)">
<path d="M32 16C32 24.837 24.837 32 16 32C7.16299 32 0 24.837 0 16C0 7.16299 7.16299 0 16 0C24.837 0 32 7.16299 32 16Z" fill="black"/>
<path d="M11.3081 17.4109L20.2689 11.0398L22.4382 9.98999L23.2456 10.5652L14.9683 18.3679L13.8333 18.649L13.5651 23.2945C13.1008 23.2945 13.0595 23.1475 12.9718 22.8328L11.3081 17.4109Z" fill="#EDEDED"/>
<path d="M13.8332 18.649L13.5649 23.2945C13.8487 23.3126 14.1066 23.1862 14.3465 22.9592L16.6499 20.7254L13.8306 18.6465" fill="#E2E2E2"/>
<path d="M6.82497 16.0078C5.71583 15.6879 5.9454 14.976 7.03648 14.5659L24.2823 7.91102C25.5488 7.31518 26.1214 8.09674 25.8274 9.20588L22.923 23.065C22.7218 24.4527 21.8216 24.6023 20.8878 23.8285L13.8306 18.6516L22.0847 11.2384C22.7785 10.7587 22.322 10.4595 21.6204 10.9109L11.3054 17.4109L6.81981 16.0052" fill="white"/>
</g>
<defs>
<clipPath id="clip0_1027_399">
<rect width="32" height="32" fill="white"/>
</clipPath>
</defs>
</svg>
