<svg width="30" height="30" viewBox="0 0 30 30" fill="none" xmlns="http://www.w3.org/2000/svg">
<g clip-path="url(#clip0_1027_494)">
<path d="M27.0305 30H2.96953C1.33 30 0 28.67 0 27.0305V2.96953C0 1.33 1.33 0 2.96953 0H27.0305C28.6724 0 30 1.33 30 2.96953V27.0305C30 28.67 28.67 30 27.0305 30Z" fill="white"/>
<path d="M30 15C30 23.2847 23.2847 30 15 30C6.7153 30 0 23.2847 0 15C0 6.7153 6.7153 0 15 0C23.2847 0 30 6.7153 30 15Z" fill="white"/>
<path d="M22.7648 18.9634V14.9758H18.5958V12.9252C18.5958 10.8964 19.5123 9.88072 21.3429 9.88072C21.9934 9.88072 22.6825 10.0234 23.4104 10.3112V6.10835C22.6825 5.8762 21.7564 5.76013 20.6319 5.76013C18.4265 5.76013 16.6443 6.38161 15.2877 7.62939C13.9311 8.87475 13.254 10.5409 13.254 12.6254V14.9734H10.1926V18.961H13.254V29.9952C14 29.9999 15.3955 29.9999 16 29.9999C17.2309 29.9999 17.5 29.9999 18.5982 29.9952V18.9586H22.7672" fill="#17C9BC"/>
</g>
<defs>
<clipPath id="clip0_1027_494">
<rect width="30" height="30" fill="white"/>
</clipPath>
</defs>
</svg>
