<svg width="122" height="121" viewBox="0 0 122 121" fill="none" xmlns="http://www.w3.org/2000/svg">
<g clip-path="url(#clip0_1010_1235)">
<path d="M109.507 120.96H12.4932C5.88259 120.96 0.52002 115.597 0.52002 108.987V11.9731C0.52002 5.36257 5.88259 0 12.4932 0H109.507C116.117 0 121.48 5.36257 121.48 11.9731V108.987C121.48 115.597 116.117 120.96 109.507 120.96Z" fill="black"/>
<path d="M121.48 60.48C121.48 93.8839 94.4039 120.96 61 120.96C27.5961 120.96 0.52002 93.8839 0.52002 60.48C0.52002 27.0761 27.5961 0 61 0C94.4039 0 121.48 27.0761 121.48 60.48Z" fill="black"/>
<path d="M55.7544 87.6341C62.0432 87.6341 67.1523 82.5348 67.1523 76.2363C67.1523 76.051 67.1328 75.8658 67.1231 75.6805L67.1523 75.7V28.5484H75.6642C75.3619 27.5929 75.0987 26.5886 74.8647 25.5259H64.1298V72.6872L64.1005 72.658C64.1103 72.8432 64.1298 73.0285 64.1298 73.2137C64.1298 79.5123 59.0305 84.6116 52.7319 84.6116C50.3528 84.6116 48.1493 83.8804 46.326 82.6421C48.3736 85.6549 51.8349 87.6341 55.7544 87.6341Z" fill="#00F4F8"/>
<path d="M91.4009 44.9871V42.7056C87.9688 42.0816 84.9463 40.8433 82.421 38.8738C84.7708 41.8671 87.8128 43.8463 91.4009 44.9871Z" fill="#00F4F8"/>
<path d="M55.5302 54.1035L55.5594 51.2662C54.6332 51.1492 53.6874 51.0809 52.7319 51.0809C40.5052 51.0809 30.5991 60.9871 30.5991 73.2137C30.5991 80.0973 33.7387 86.2399 38.6625 90.3057C35.5132 86.4739 33.6119 81.5793 33.6119 76.2362C33.6119 64.0876 43.4108 54.2205 55.5302 54.1035Z" fill="#00F4F8"/>
<path d="M77.8872 49.8134C78.1212 50.0182 78.365 50.2327 78.6185 50.4179C78.365 50.1157 78.1212 49.7939 77.8872 49.4722V49.8134Z" fill="black"/>
<path d="M74.8647 46.4496V76.4312L74.6599 76.0509C73.2657 86.9321 63.9933 95.3464 52.7319 95.3464C47.3888 95.3464 42.4845 93.4452 38.6625 90.2959C42.7185 95.2197 48.8709 98.3592 55.7544 98.3592C67.0158 98.3592 76.2882 89.9449 77.6825 79.0637L77.8872 79.444V49.8036C76.8244 48.8676 75.8202 47.7561 74.8647 46.4398" fill="#FF2357"/>
<path d="M82.421 38.8737C80.3637 36.2607 78.8232 32.8579 77.8872 28.5483H75.6642C77.1365 33.1699 79.4375 36.5337 82.421 38.8737Z" fill="#FF2357"/>
<path d="M91.4009 44.9871V54.7372C86.3601 54.3179 82.1773 53.2552 78.6185 50.4276C82.7818 55.5854 87.8811 57.2137 94.4137 57.75V45.7281C93.3705 45.5331 92.3662 45.2893 91.4009 44.9871Z" fill="#FF2357"/>
<path d="M52.7319 61.8157C46.4333 61.8157 41.334 66.915 41.334 73.2136C41.334 77.1332 43.3133 80.5945 46.326 82.642C45.078 80.8187 44.3565 78.6152 44.3565 76.2362C44.3565 69.9376 49.4558 64.8383 55.7544 64.8383C56.6807 64.8383 57.5874 64.965 58.4552 65.1698L58.5819 54.2886C57.6557 54.1716 56.7099 54.1034 55.7544 54.1034C55.6764 54.1034 55.5984 54.1034 55.5302 54.1034L55.4327 62.157C54.5649 61.9425 53.6679 61.8157 52.7319 61.8157Z" fill="#FF2357"/>
<path d="M91.4009 44.987C87.8129 43.8463 84.7708 41.867 82.421 38.8737C79.4375 36.5434 77.1365 33.1699 75.6642 28.5483H67.1524V75.6999L67.1231 75.6804C67.1329 75.8657 67.1524 76.0509 67.1524 76.2362C67.1524 82.5348 62.0433 87.6341 55.7545 87.6341C51.8349 87.6341 48.3736 85.6548 46.3261 82.642C43.3133 80.5945 41.334 77.1332 41.334 73.2136C41.334 66.9151 46.4333 61.8158 52.7319 61.8158C53.6679 61.8158 54.5649 61.9425 55.4327 62.157L55.5302 54.1034C43.4108 54.2204 33.6119 64.0875 33.6119 76.2362C33.6119 81.5792 35.5132 86.4738 38.6625 90.3056C42.4845 93.4549 47.3889 95.3562 52.7319 95.3562C63.9933 95.3562 73.2657 86.9418 74.6599 76.0607L74.8647 76.4409V46.4593C75.8202 47.7658 76.8245 48.8773 77.8872 49.8231V49.4818C78.1212 49.8134 78.365 50.1254 78.6185 50.4276C82.1773 53.2551 86.3601 54.3179 91.4009 54.7372V44.987Z" fill="white"/>
</g>
<defs>
<clipPath id="clip0_1010_1235">
<rect width="120.96" height="120.96" fill="white" transform="translate(0.52002)"/>
</clipPath>
</defs>
</svg>
