<svg width="86" height="85" viewBox="0 0 86 85" fill="none" xmlns="http://www.w3.org/2000/svg">
<g clip-path="url(#clip0_1010_1229)">
<path d="M76.8778 84.64H9.12221C4.50529 84.64 0.76001 80.8948 0.76001 76.2778V8.52223C0.76001 3.90532 4.50529 0.160034 9.12221 0.160034H76.8778C81.5015 0.160034 85.24 3.90532 85.24 8.52223V76.2778C85.24 80.8948 81.4947 84.64 76.8778 84.64Z" fill="white"/>
<path d="M64.8657 53.561V42.3319H53.1259V36.5574C53.1259 30.8441 55.7068 27.9841 60.8616 27.9841C62.6934 27.9841 64.6341 28.3858 66.6838 29.1962V17.3611C64.6341 16.7074 62.0261 16.3805 58.8596 16.3805C52.6492 16.3805 47.6306 18.1306 43.8104 21.6443C39.9902 25.1513 38.0835 29.8431 38.0835 35.713V42.3251H29.4625V53.5541H38.0835V84.6332C39.4999 84.6332 42.8094 84.6332 45.4855 84.6332C47.5557 84.6332 52.1521 84.6332 53.16 84.6332C53.1463 74.2758 53.1395 63.9184 53.1259 53.5541H64.8657V53.561Z" fill="#1778F2"/>
</g>
<defs>
<clipPath id="clip0_1010_1229">
<rect width="84.48" height="84.48" fill="white" transform="translate(0.76001 0.160034)"/>
</clipPath>
</defs>
</svg>
