<svg width="30" height="30" viewBox="0 0 30 30" fill="none" xmlns="http://www.w3.org/2000/svg">
<g clip-path="url(#clip0_1027_300)">
<mask id="mask0_1027_300" style="mask-type:luminance" maskUnits="userSpaceOnUse" x="20" y="5" width="5" height="5">
<path d="M24.6577 5.11646H20.3723V9.79139H24.6577V5.11646Z" fill="white"/>
</mask>
<g mask="url(#mask0_1027_300)">
<mask id="mask1_1027_300" style="mask-type:luminance" maskUnits="userSpaceOnUse" x="20" y="5" width="5" height="5">
<path d="M22.5968 9.46414C23.7349 9.46414 24.6576 8.54146 24.6576 7.40327C24.6576 6.26509 23.7349 5.34241 22.5968 5.34241C21.4586 5.34241 20.5359 6.26509 20.5359 7.40327C20.5359 8.54146 21.4586 9.46414 22.5968 9.46414Z" fill="white"/>
</mask>
<g mask="url(#mask1_1027_300)">
<mask id="mask2_1027_300" style="mask-type:luminance" maskUnits="userSpaceOnUse" x="20" y="5" width="5" height="5">
<path d="M22.5968 9.46414C23.7349 9.46414 24.6576 8.54146 24.6576 7.40327C24.6576 6.26509 23.7349 5.34241 22.5968 5.34241C21.4586 5.34241 20.5359 6.26509 20.5359 7.40327C20.5359 8.54146 21.4586 9.46414 22.5968 9.46414Z" fill="white"/>
</mask>
<g mask="url(#mask2_1027_300)">
<path d="M18.479 7.48895L22.6787 11.5211L26.7108 7.32144L22.5111 3.28931L18.479 7.48895Z" fill="black"/>
</g>
</g>
</g>
<mask id="mask3_1027_300" style="mask-type:luminance" maskUnits="userSpaceOnUse" x="7" y="7" width="16" height="16">
<path d="M22.7098 7.06421H7.12671V22.6473H22.7098V7.06421Z" fill="white"/>
</mask>
<g mask="url(#mask3_1027_300)">
<mask id="mask4_1027_300" style="mask-type:luminance" maskUnits="userSpaceOnUse" x="7" y="7" width="16" height="16">
<path d="M15.0001 19.8346C12.3315 19.8346 10.1654 17.6724 10.1654 14.9999C10.1654 12.3274 12.3276 10.1652 15.0001 10.1652C17.6726 10.1652 19.8347 12.3274 19.8347 14.9999C19.8347 17.6724 17.6726 19.8346 15.0001 19.8346ZM15.0001 7.40314C10.8043 7.40314 7.40332 10.8042 7.40332 14.9999C7.40332 19.1957 10.8043 22.5967 15.0001 22.5967C19.1958 22.5967 22.5969 19.1957 22.5969 14.9999C22.5969 10.8042 19.1958 7.40314 15.0001 7.40314Z" fill="white"/>
</mask>
<g mask="url(#mask4_1027_300)">
<mask id="mask5_1027_300" style="mask-type:luminance" maskUnits="userSpaceOnUse" x="7" y="7" width="16" height="16">
<path d="M15.0001 19.8346C12.3315 19.8346 10.1654 17.6724 10.1654 14.9999C10.1654 12.3274 12.3276 10.1652 15.0001 10.1652C17.6726 10.1652 19.8347 12.3274 19.8347 14.9999C19.8347 17.6724 17.6726 19.8346 15.0001 19.8346ZM15.0001 7.40314C10.8043 7.40314 7.40332 10.8042 7.40332 14.9999C7.40332 19.1957 10.8043 22.5967 15.0001 22.5967C19.1958 22.5967 22.5969 19.1957 22.5969 14.9999C22.5969 10.8042 19.1958 7.40314 15.0001 7.40314Z" fill="white"/>
</mask>
<g mask="url(#mask5_1027_300)">
<path d="M-0.185547 15.3076L15.308 30.1817L30.182 14.6882L14.6885 -0.189758L-0.185547 15.3076Z" fill="black"/>
</g>
</g>
</g>
<mask id="mask6_1027_300" style="mask-type:luminance" maskUnits="userSpaceOnUse" x="0" y="0" width="30" height="30">
<path d="M29.7222 0.441284H0.114258V29.6596H29.7222V0.441284Z" fill="white"/>
</mask>
<g mask="url(#mask6_1027_300)">
<mask id="mask7_1027_300" style="mask-type:luminance" maskUnits="userSpaceOnUse" x="0" y="0" width="30" height="30">
<path d="M26.7185 21.2292C26.7185 24.2601 24.2641 26.7183 21.2293 26.7183H8.76674C5.73583 26.7183 3.27759 24.264 3.27759 21.2292V8.76656C3.27759 5.73565 5.73583 3.27741 8.76674 3.27741H21.2293C24.2603 3.27741 26.7185 5.73565 26.7185 8.76656V21.2292ZM21.1787 0.464661H8.82129C4.20479 0.464661 0.464844 4.20461 0.464844 8.8211V21.1785C0.464844 25.795 4.20869 29.535 8.82129 29.535H21.1787C25.7952 29.535 29.5351 25.7911 29.5351 21.1785V8.8211C29.5351 4.20461 25.7913 0.464661 21.1787 0.464661Z" fill="white"/>
</mask>
<g mask="url(#mask7_1027_300)">
<mask id="mask8_1027_300" style="mask-type:luminance" maskUnits="userSpaceOnUse" x="0" y="0" width="30" height="30">
<path d="M26.7185 21.2292C26.7185 24.2601 24.2641 26.7183 21.2293 26.7183H8.76674C5.73583 26.7183 3.27759 24.264 3.27759 21.2292V8.76656C3.27759 5.73565 5.73583 3.27741 8.76674 3.27741H21.2293C24.2603 3.27741 26.7185 5.73565 26.7185 8.76656V21.2292ZM21.1787 0.464661H8.82129C4.20479 0.464661 0.464844 4.20461 0.464844 8.8211V21.1785C0.464844 25.795 4.20869 29.535 8.82129 29.535H21.1787C25.7952 29.535 29.5351 25.7911 29.5351 21.1785V8.8211C29.5351 4.20461 25.7913 0.464661 21.1787 0.464661Z" fill="white"/>
</mask>
<g mask="url(#mask8_1027_300)">
<path d="M-14.0625 15.592L15.5922 44.0623L44.0625 14.4077L14.4078 -14.0627L-14.0625 15.592Z" fill="black"/>
</g>
</g>
</g>
</g>
<defs>
<clipPath id="clip0_1027_300">
<rect width="30" height="30" fill="white"/>
</clipPath>
</defs>
</svg>
