<svg width="27" height="30" viewBox="0 0 27 30" fill="none" xmlns="http://www.w3.org/2000/svg">
<g clip-path="url(#clip0_1027_367)">
<path d="M10.6432 25.5783C13.304 25.5783 15.4657 23.4779 15.4657 20.8835C15.4657 20.8072 15.4574 20.7309 15.4533 20.6586L15.4657 20.6667V1.24096H19.067C18.9392 0.847389 18.8278 0.433735 18.7288 0H14.1868V19.4217L14.1745 19.4137C14.1786 19.49 14.1868 19.5663 14.1868 19.6426C14.1868 22.2369 12.0293 24.3373 9.36437 24.3373C8.3578 24.3373 7.42548 24.0402 6.65405 23.5261C7.52036 24.7671 8.98484 25.5823 10.6432 25.5823" fill="black"/>
<path d="M25.7252 8.01204V7.0763C24.2731 6.81927 22.9942 6.30923 21.9258 5.49799C22.92 6.73092 24.2071 7.54618 25.7252 8.01606" fill="black"/>
<path d="M10.5484 11.7671L10.5607 10.5984C10.1688 10.5502 9.76868 10.5221 9.3644 10.5221C4.19129 10.5221 0 14.6064 0 19.6426C0 22.4739 1.32834 25.008 3.41161 26.6787C2.07914 25.1044 1.27471 23.0843 1.27471 20.8835C1.27471 15.8795 5.42063 11.8193 10.5484 11.7671Z" fill="black"/>
<path d="M20.0076 10C20.1066 10.0884 20.2097 10.1727 20.317 10.253C20.2097 10.1285 20.1066 9.99598 20.0076 9.85944V10Z" fill="black"/>
<path d="M18.7288 8.61846V20.9679L18.6422 20.8112C18.0523 25.2932 14.1291 28.759 9.36441 28.759C7.10375 28.759 5.02873 27.9799 3.41162 26.6787C5.12774 28.7068 7.7308 30 10.6432 30C15.408 30 19.3311 26.5341 19.921 22.0522L20.0077 22.2088V9.99998C19.558 9.61444 19.1331 9.15661 18.7288 8.61444" fill="black"/>
<path d="M21.926 5.49398C21.0555 4.41366 20.4037 3.01607 20.0077 1.24097H19.0671C19.6901 3.14458 20.6636 4.53414 21.926 5.49398Z" fill="black"/>
<path d="M25.7254 8.01202V12.0281C23.5926 11.8594 21.8229 11.4176 20.3171 10.257C22.0786 12.3815 24.2362 13.0522 27.0001 13.2731V8.32126C26.5587 8.24496 26.1338 8.14054 25.7254 8.01604" fill="black"/>
<path d="M9.36445 14.9438C6.69952 14.9438 4.54199 17.0442 4.54199 19.6386C4.54199 21.253 5.37942 22.6747 6.65414 23.5221C6.1261 22.7671 5.82083 21.8594 5.82083 20.8835C5.82083 18.2892 7.97836 16.1888 10.6433 16.1888C11.0352 16.1888 11.4188 16.237 11.786 16.3253L11.8396 11.8394C11.4477 11.7912 11.0476 11.7631 10.6433 11.7631H10.5484L10.5072 15.0803C10.14 14.992 9.76048 14.9438 9.36445 14.9438Z" fill="black"/>
<path d="M25.7252 8.01205C24.2071 7.54619 22.92 6.73093 21.9258 5.49398C20.6635 4.53414 19.6899 3.14458 19.067 1.24097H15.4656V20.6667L15.4533 20.6586C15.4574 20.7349 15.4656 20.8112 15.4656 20.8835C15.4656 23.4779 13.304 25.5783 10.6432 25.5783C8.98482 25.5783 7.52034 24.7631 6.65403 23.5221C5.37932 22.6747 4.54189 21.253 4.54189 19.6386C4.54189 17.0442 6.69941 14.9438 9.36434 14.9438C9.76037 14.9438 10.1399 14.992 10.507 15.0803L10.5483 11.7631C5.42057 11.8112 1.27466 15.8755 1.27466 20.8795C1.27466 23.0803 2.07909 25.1004 3.41156 26.6747C5.02867 27.9719 7.10369 28.755 9.36434 28.755C14.1291 28.755 18.0522 25.2892 18.6421 20.8072L18.7287 20.9639V8.61446C19.133 9.15663 19.5579 9.61044 20.0076 10V9.85944C20.1066 9.99599 20.2097 10.1245 20.317 10.253C21.8227 11.4177 23.5925 11.8554 25.7252 12.0241V8.00804" fill="black"/>
</g>
<defs>
<clipPath id="clip0_1027_367">
<rect width="27" height="30" fill="white"/>
</clipPath>
</defs>
</svg>
