<svg width="86" height="85" viewBox="0 0 86 85" fill="none" xmlns="http://www.w3.org/2000/svg">
<g clip-path="url(#clip0_1010_1250)">
<path d="M76.8378 84.64H9.07536C4.45845 84.64 0.719971 80.8948 0.719971 76.2778V8.52223C0.719971 3.90532 4.45845 0.160034 9.07536 0.160034H76.8378C81.4547 0.160034 85.2 3.90532 85.2 8.52223V76.2778C85.2 80.8948 81.4547 84.64 76.8378 84.64Z" fill="white"/>
<path d="M85.2 42.4C85.2 65.7298 66.2829 84.64 42.96 84.64C19.6371 84.64 0.719971 65.7298 0.719971 42.4C0.719971 19.0703 19.6303 0.160034 42.96 0.160034C66.2897 0.160034 85.2 19.0703 85.2 42.4Z" fill="white"/>
<path d="M21.9114 24.5793C27.8903 31.0553 34.4071 35.3521 42.0815 34.9367C41.9725 25.1241 49.252 19.4449 59.5345 26.4315L65.3159 23.9256L62.0405 28.8353L66.5144 28.0727L62.0405 32.2197C60.9509 60.0302 36.9607 66.7921 19.3987 57.6264C25.323 57.2586 29.9672 56.1146 32.7047 53.813C28.7278 53.0367 26.0857 50.5988 24.4174 46.9421L28.0128 46.7242C24.0633 45.3827 21.782 42.0392 20.8151 37.1294C22.3541 37.2588 23.9543 37.395 24.6353 37.4563C20.8491 34.249 20.3725 29.7955 21.9114 24.5861" fill="#55ACEE"/>
</g>
<defs>
<clipPath id="clip0_1010_1250">
<rect width="84.48" height="84.48" fill="white" transform="translate(0.719971 0.160034)"/>
</clipPath>
</defs>
</svg>
