<svg width="32" height="32" viewBox="0 0 32 32" fill="none" xmlns="http://www.w3.org/2000/svg">
<g clip-path="url(#clip0_1027_557)">
<path d="M31.5 16C31.5 24.5609 24.5609 31.5 16 31.5C7.43913 31.5 0.5 24.5609 0.5 16C0.5 7.43918 7.44166 0.5 16 0.5C24.5583 0.5 31.5 7.43918 31.5 16Z" fill="#17C9BC" stroke="white"/>
<path d="M21.7186 23.3152C21.5354 23.3152 21.3497 23.2687 21.1795 23.1733C17.7205 21.213 13.382 20.7848 8.28251 21.8965C7.69183 22.0255 7.10888 21.6515 6.97991 21.0608C6.85094 20.4701 7.22753 19.8871 7.81564 19.7582C13.4568 18.5278 18.3164 19.0359 22.2577 21.2697C22.7839 21.5689 22.9696 22.2344 22.6704 22.7606C22.4692 23.1166 22.0978 23.3152 21.7186 23.3152Z" fill="white"/>
<path d="M23.5576 19.2423C23.3229 19.2423 23.0856 19.1804 22.8715 19.0488C19.2887 16.846 12.6803 16.1909 7.82847 17.5528C7.12945 17.7488 6.40464 17.3413 6.2086 16.6448C6.01257 15.9458 6.42012 15.221 7.11913 15.025C12.6803 13.4644 20.0445 14.2305 24.2463 16.8125C24.8654 17.1917 25.0588 18.0016 24.6771 18.6181C24.4295 19.023 23.9987 19.2449 23.5576 19.2449" fill="white"/>
<path d="M25.8558 14.7541C25.5901 14.7541 25.3167 14.6845 25.0691 14.5426C20.1992 11.7259 13.7713 11.0914 6.48454 12.7061C5.63592 12.8944 4.79503 12.3579 4.60674 11.5093C4.41844 10.6606 4.95496 9.81976 5.80358 9.62888C13.8745 7.84136 21.0813 8.59712 26.6477 11.8136C27.4009 12.2496 27.6562 13.2117 27.2229 13.9648C26.9288 14.4704 26.4001 14.7516 25.8558 14.7516" fill="white"/>
</g>
<defs>
<clipPath id="clip0_1027_557">
<rect width="32" height="32" fill="white"/>
</clipPath>
</defs>
</svg>
