<svg width="96" height="95" viewBox="0 0 96 95" fill="none" xmlns="http://www.w3.org/2000/svg">
<g clip-path="url(#clip0_1010_1263)">
<path d="M85.7276 94.3999H10.2725C5.13091 94.3999 0.960022 90.2291 0.960022 85.0875V9.63239C0.960022 4.49083 5.13091 0.319946 10.2725 0.319946H85.7276C90.8691 0.319946 95.04 4.49083 95.04 9.63239V85.0875C95.04 90.2291 90.8691 94.3999 85.7276 94.3999Z" fill="#0088CC"/>
<path d="M95.04 47.3599C95.04 73.3408 73.9808 94.3999 48 94.3999C22.0192 94.3999 0.960022 73.3408 0.960022 47.3599C0.960022 21.3791 22.0192 0.319946 48 0.319946C73.9808 0.319946 95.04 21.3791 95.04 47.3599Z" fill="#0088CC"/>
<g clip-path="url(#clip1_1010_1263)">
<path d="M29.4035 53.2451L65.7184 27.4254L74.5096 23.1709L77.7815 25.502L44.2368 57.1233L39.6373 58.2627L38.5502 77.0892C36.6686 77.0892 36.5013 76.4934 36.1459 75.218L29.4035 53.2451Z" fill="#EDEDED"/>
<path d="M39.6373 58.2628L38.5502 77.0892C39.7 77.1624 40.7454 76.6502 41.7175 75.7303L51.0524 66.6777L39.6269 58.2523" fill="#E2E2E2"/>
<path d="M11.2251 47.5485C6.73014 46.2523 7.66049 43.3672 12.0823 41.7051L81.9837 14.746C87.1163 12.3313 89.4369 15.4986 88.2452 19.9936L76.4748 76.1593C75.6594 81.7832 72.0112 82.3895 68.2271 79.2535L39.6268 58.2737L73.0879 28.2203C75.8999 26.276 74.0496 25.0634 71.2063 26.8928L29.4034 53.2352L11.2251 47.5381" fill="white"/>
</g>
</g>
<defs>
<clipPath id="clip0_1010_1263">
<rect width="94.08" height="94.08" fill="white" transform="translate(0.960022 0.319946)"/>
</clipPath>
<clipPath id="clip1_1010_1263">
<rect width="80.2712" height="67.2254" fill="white" transform="translate(8.27734 13.9093)"/>
</clipPath>
</defs>
</svg>
