<svg width="26" height="33" viewBox="0 0 26 33" fill="none" xmlns="http://www.w3.org/2000/svg">
<g clip-path="url(#clip0_1027_568)">
<path d="M5.41973 31.8275L5.55251 32.79C5.5847 33.0316 5.88244 33.0593 6.00717 32.9009L6.59862 32.1365C9.25012 28.7343 9.75709 25.9183 10.8394 21.4903C12.3804 24.2548 17.6472 24.8885 21.4575 21.7754C26.3903 17.5178 27.7543 8.5707 23.2922 4.05953C19.8964 0.29297 14.2393 -1.14474 7.99479 1.00192C2.63948 3.10106 -0.712116 7.83798 0.1288 13.7195C0.507011 15.9771 1.47266 17.6603 3.11828 18.6822C4.03564 19.2565 4.77194 19.4704 4.95703 18.3574L5.28293 17.094C5.42778 16.6187 5.33524 16.4128 5.00531 16.0365C2.59522 13.1017 3.78618 7.91719 7.02914 5.31109C10.3405 2.4832 16.8345 2.54261 19.5021 5.67943C22.0208 8.24592 21.884 14.7176 18.7054 18.7733C15.7884 22.0685 11.6562 20.417 12.0143 17.2801C12.5615 15.0028 13.4587 12.5947 13.6237 11.5174C14.2675 8.70536 12.7868 6.89139 10.3687 7.47756C7.78959 8.28949 6.67507 11.8739 8.0833 15.2681L5.52032 26.0054C5.18234 27.8194 5.17832 29.7759 5.41973 31.8315" fill="white"/>
</g>
<defs>
<clipPath id="clip0_1027_568">
<rect width="26" height="33" fill="white"/>
</clipPath>
</defs>
</svg>
