<svg width="120" height="120" viewBox="0 0 120 120" fill="none" xmlns="http://www.w3.org/2000/svg">
<g clip-path="url(#clip0_1010_1283)">
<path d="M107.746 119.92H12.2631C5.75743 119.92 0.47998 114.643 0.47998 108.137V12.6631C0.47998 6.15745 5.75743 0.880005 12.2631 0.880005H107.746C114.252 0.880005 119.52 6.15745 119.52 12.6631V108.137C119.52 114.643 114.252 119.92 107.746 119.92Z" fill="#1ED761"/>
<path d="M119.52 60.4C119.52 93.2737 92.8737 119.92 60 119.92C27.1263 119.92 0.47998 93.2737 0.47998 60.4C0.47998 27.5263 27.1359 0.880005 60 0.880005C92.8641 0.880005 119.52 27.5263 119.52 60.4Z" fill="#1ED761"/>
<path d="M81.2729 87.6124C80.5916 87.6124 79.9008 87.4397 79.2675 87.0846C66.4001 79.8018 50.2607 78.1993 31.2907 82.3349C29.0933 82.8147 26.9248 81.4234 26.445 79.226C25.9653 77.0287 27.3662 74.8602 29.5539 74.3804C50.539 69.8034 68.6166 71.6937 83.2783 80.0033C85.2358 81.1163 85.9266 83.5919 84.8136 85.5494C84.0652 86.8735 82.6834 87.6124 81.2729 87.6124Z" fill="white"/>
<path d="M88.1144 72.4614C87.2412 72.4614 86.3584 72.2215 85.562 71.7417C72.2341 63.5473 47.6508 61.1101 29.6019 66.1764C27.0016 66.9057 24.3053 65.3896 23.576 62.7988C22.8468 60.1985 24.3628 57.5022 26.9632 56.773C47.6508 50.9678 75.0455 53.8176 90.6764 63.4225C92.9792 64.8331 93.6989 67.846 92.2788 70.1393C91.3576 71.6458 89.7552 72.471 88.1144 72.471" fill="white"/>
<path d="M96.6639 55.7654C95.6756 55.7654 94.6585 55.5063 93.7373 54.9786C75.6213 44.5004 51.7096 42.14 24.6028 48.1467C21.4459 48.8471 18.3178 46.8513 17.6173 43.6944C16.9169 40.5376 18.9127 37.4095 22.0696 36.6994C52.0935 30.0498 78.9029 32.8613 99.6097 44.8267C102.412 46.4483 103.361 50.037 101.749 52.8292C100.656 54.7099 98.6885 55.7558 96.6639 55.7558" fill="white"/>
</g>
<defs>
<clipPath id="clip0_1010_1283">
<rect width="119.04" height="119.04" fill="white" transform="translate(0.47998 0.880005)"/>
</clipPath>
</defs>
</svg>
