<svg width="24" height="29" viewBox="0 0 24 29" fill="none" xmlns="http://www.w3.org/2000/svg">
<path d="M14.6719 17.1758L16.6055 19.6543C17.2266 18.9395 17.6953 18.043 18.0117 16.9648C18.3398 15.875 18.5039 14.627 18.5039 13.2207C18.5039 11.4512 18.2344 9.93945 17.6953 8.68555C17.1562 7.43164 16.4004 6.48828 15.4277 5.85547C14.4551 5.21094 13.3125 4.88281 12 4.87109C10.6758 4.88281 9.52148 5.21094 8.53711 5.85547C7.55273 6.5 6.79102 7.45508 6.25195 8.7207C5.72461 9.97461 5.46094 11.4922 5.46094 13.2734C5.46094 15.0547 5.72461 16.5781 6.25195 17.8438C6.79102 19.0977 7.55273 20.0469 8.53711 20.6914C9.52148 21.3359 10.6758 21.6641 12 21.6758C12.5156 21.6758 13.002 21.623 13.459 21.5176L10.1367 17.1758H14.6719ZM0.0820312 13.2734C0.0820312 10.5664 0.597656 8.22852 1.62891 6.25977C2.66016 4.29102 4.07812 2.79102 5.88281 1.75977C7.6875 0.716797 9.72656 0.195312 12 0.195312C14.2617 0.195312 16.2891 0.716797 18.082 1.75977C19.8867 2.79102 21.3047 4.29102 22.3359 6.25977C23.3672 8.22852 23.8828 10.5664 23.8828 13.2734C23.8828 15.5 23.5254 17.4805 22.8105 19.2148C22.1074 20.9492 21.1172 22.3906 19.8398 23.5391L23.4609 28.1094H18.5039L16.4648 25.5781C15.082 26.0938 13.5938 26.3516 12 26.3516C9.72656 26.3516 7.6875 25.8359 5.88281 24.8047C4.07812 23.7617 2.66016 22.2559 1.62891 20.2871C0.597656 18.3066 0.0820312 15.9688 0.0820312 13.2734Z" fill="#17C9BC"/>
</svg>
