<svg width="32" height="25" viewBox="0 0 32 25" fill="none" xmlns="http://www.w3.org/2000/svg">
<g clip-path="url(#clip0_1027_383)">
<path d="M1.7066 0.81659C5.76731 5.06288 10.1934 7.88035 15.4057 7.60798C15.3317 1.1738 20.2758 -2.55008 27.2594 2.03109L31.186 0.383477L28.9614 3.6028L32 3.10271L28.9614 5.82195C28.2214 24.0573 11.9277 28.4912 0 22.4812C4.0237 22.2401 7.17792 21.4899 9.03714 19.9763C6.33618 19.4672 4.5417 17.8687 3.40858 15.471L5.85056 15.3281C3.16809 14.4485 1.61873 12.2606 0.961989 9.03681C2.00723 9.12611 3.09409 9.21095 3.55658 9.25113C0.985113 7.15254 0.661367 4.23238 1.7066 0.81659Z" fill="black"/>
</g>
<defs>
<clipPath id="clip0_1027_383">
<rect width="32" height="25" fill="white"/>
</clipPath>
</defs>
</svg>
