<svg width="106" height="107" viewBox="0 0 106 107" fill="none" xmlns="http://www.w3.org/2000/svg">
<g clip-path="url(#clip0_1010_1257)">
<path d="M103.585 29.0768C100.94 14.1238 92.1684 5.36136 77.2214 2.71198C62.6758 -0.104024 43.221 -0.104024 28.6753 2.71198C13.7237 5.35667 4.96135 14.1285 2.31199 29.0756C-0.50398 43.6214 -0.50398 63.0765 2.31199 77.6223C4.95665 92.5741 13.7284 101.337 28.6753 103.987C48.0152 106.851 79.8321 109.266 95.0747 95.4757C108.859 80.2189 106.456 48.4227 103.585 29.0768Z" fill="black"/>
<path d="M54.0906 66.2338C50.092 66.4591 45.9372 64.6651 45.7331 60.8201C45.5805 57.9701 47.7617 54.7891 54.3359 54.4102C55.0891 54.3667 55.8283 54.3456 56.5534 54.3456C58.9423 54.3456 61.1763 54.5768 63.2073 55.0215C62.4505 64.4832 58.006 66.0191 54.0906 66.2338ZM70.5981 50.7142C70.2813 50.5628 69.9598 50.4161 69.6336 50.2765C69.0657 39.8162 63.3505 33.8287 53.7539 33.7677C53.7105 33.7677 53.6671 33.7677 53.6236 33.7677C47.8838 33.7677 43.1107 36.2188 40.1715 40.6763L45.4503 44.2972C47.6444 40.9673 51.0893 40.2574 53.6272 40.2574H53.714C56.8737 40.2774 59.2591 41.1961 60.802 42.9878C61.9249 44.2925 62.6758 46.0948 63.0478 48.3698C60.2459 47.8935 57.2164 47.7468 53.978 47.9322C44.8531 48.4578 38.9876 53.7801 39.3819 61.1733C39.5814 64.9244 41.4504 68.1511 44.6431 70.2595C47.3429 72.0407 50.8194 72.9125 54.4321 72.7153C59.204 72.4537 62.948 70.6327 65.5587 67.3039C67.5427 64.7754 68.797 61.4994 69.3508 57.3717C71.6247 58.7445 73.3096 60.5502 74.2412 62.7209C75.824 66.4122 75.9156 72.476 70.9677 77.4204C66.6323 81.7523 61.4204 83.6262 53.5439 83.6836C44.8073 83.6191 38.2004 80.8172 33.9037 75.3553C29.8815 70.2419 27.8024 62.8558 27.7249 53.4011C27.8024 43.9464 29.8815 36.5602 33.9037 31.4469C38.2004 25.985 44.8073 23.1831 53.5439 23.1185C62.3438 23.1831 69.0669 25.9991 73.5279 31.4867C75.7149 34.1772 77.3634 37.5623 78.4499 41.5082L84.6357 39.8573C83.318 35.0009 81.2448 30.8156 78.4229 27.3449C72.7042 20.3096 64.3419 16.7039 53.5662 16.63H53.5227C42.7693 16.7039 34.4997 20.3225 28.944 27.3848C23.9997 33.6692 21.45 42.414 21.3644 53.3753V53.4269C21.45 64.3882 23.9997 73.133 28.944 79.4174C34.4997 86.4797 42.7693 90.0983 53.5227 90.1734H53.5662C63.1264 90.1065 69.8659 87.6038 75.4169 82.0562C82.6809 74.8003 82.4615 65.7035 80.0679 60.1196C78.3502 56.1162 75.0755 52.8637 70.5981 50.7153" fill="white"/>
</g>
<defs>
<clipPath id="clip0_1010_1257">
<rect width="105.6" height="105.6" fill="white" transform="translate(0.200012 0.599976)"/>
</clipPath>
</defs>
</svg>
