<svg width="124" height="40" viewBox="0 0 124 40" fill="none" xmlns="http://www.w3.org/2000/svg">
<g clip-path="url(#clip0_1010_1169)">
<path d="M34.8815 19.5284C37.0772 21.7467 38.1751 24.4105 38.1751 27.5197C38.1751 30.6288 37.0772 33.345 34.8815 35.5633C32.6857 37.7817 30.0318 38.8908 26.9197 38.8908H18.8801C15.4222 38.8908 12.2582 38.0349 9.38818 36.3231C6.51813 34.6114 4.23592 32.3057 2.54155 29.4061C0.847183 26.5066 0 23.31 0 19.8166C0 16.3231 0.847183 13.1354 2.54155 10.2533C4.23592 7.37118 6.51813 5.0655 9.38818 3.33624C12.2582 1.60699 15.4222 0.742357 18.8801 0.742357H32.9883C33.9911 0.742357 34.8469 1.10044 35.5558 1.81659C36.2646 2.53275 36.6191 3.39738 36.6191 4.41048C36.6191 5.42358 36.2646 6.27948 35.5558 6.97817C34.8469 7.67686 33.9911 8.0262 32.9883 8.0262H18.8801C15.6642 8.0262 12.9152 9.17904 10.633 11.4847C8.35081 13.7904 7.2097 16.5677 7.2097 19.8166C7.2097 23.0655 8.35081 25.8428 10.633 28.1485C12.9152 30.4542 15.6642 31.607 18.8801 31.607H26.9197C28.0262 31.607 28.9771 31.2052 29.7724 30.4018C30.5678 29.5983 30.9654 28.6376 30.9654 27.5197C30.9654 26.4017 30.5678 25.4498 29.7724 24.6638C28.9771 23.8777 28.0262 23.4847 26.9197 23.4847H16.961C15.9927 23.4847 15.1542 23.1266 14.4453 22.4105C13.7365 21.6943 13.382 20.8297 13.382 19.8166C13.382 18.8035 13.7365 17.9476 14.4453 17.2489C15.1542 16.5502 15.9927 16.2009 16.961 16.2009H26.9197C30.0318 16.2009 32.6857 17.31 34.8815 19.5284Z" fill="#17C9BC"/>
<path d="M77.4568 4.75109C79.8773 7.17904 81.0876 10.1223 81.0876 13.5808C81.0876 17.0393 79.8773 19.9301 77.4568 22.3581C75.0363 24.786 72.1316 26 68.7429 26H53.3898V35.5895C53.3898 36.6026 53.0354 37.4673 52.3265 38.1834C51.6177 38.8996 50.7791 39.2576 49.8109 39.2576C48.8427 39.2576 47.9523 38.8996 47.2434 38.1834C46.5346 37.4673 46.1801 36.6026 46.1801 35.5895V4.77729C46.1801 3.76419 46.5346 2.89956 47.2434 2.18341C47.9523 1.46725 48.8081 1.10917 49.8109 1.10917H68.7429C72.1316 1.10917 75.0363 2.32314 77.4568 4.75109ZM72.3477 17.1965C73.3332 16.1834 73.826 14.9782 73.826 13.5808C73.826 12.1834 73.3332 10.9258 72.3477 9.91267C71.3622 8.89956 70.1606 8.39301 68.7429 8.39301H53.3898V18.7162H68.7429C70.1606 18.7162 71.3622 18.2096 72.3477 17.1965Z" fill="#17C9BC"/>
<path d="M85.9891 40C85.5309 40 85.0641 39.9214 84.606 39.7467C82.6004 38.9782 81.5889 36.7074 82.3497 34.6725L92.2652 8.34935C93.3026 5.51965 96.4752 0.593887 101.774 0.0873366C104.765 -0.358078 110.722 0.812227 113.427 8.35808L123.723 34.6288C124.519 36.6463 123.533 38.9345 121.536 39.7293C119.539 40.5328 117.274 39.5371 116.488 37.5196L106.123 11.0742C105.051 8.06114 103.469 7.8428 102.89 7.869L102.596 7.9476L102.526 7.91266C101.169 8.01747 99.9071 10.1747 99.5354 11.1354L89.6113 37.4672C89.0234 39.0393 87.5452 40 85.9718 40H85.9891Z" fill="#17C9BC"/>
</g>
<defs>
<clipPath id="clip0_1010_1169">
<rect width="124" height="40" fill="white"/>
</clipPath>
</defs>
</svg>
