<svg width="94" height="94" viewBox="0 0 94 94" fill="none" xmlns="http://www.w3.org/2000/svg">
<path d="M77.08 81.5448C77.08 82.6414 76.7165 83.5684 75.9896 84.3256C75.2626 85.0828 74.3727 85.4614 73.32 85.4614H20.68C19.6272 85.4614 18.7373 85.0828 18.0104 84.3256C17.2834 83.5684 16.92 82.6414 16.92 81.5448V46.2948H5.63995L44.4432 9.55643C45.1952 8.87754 46.0474 8.5381 47 8.5381C47.9525 8.5381 48.8048 8.87754 49.5568 9.55643L88.36 46.2948H77.08V81.5448ZM69.56 77.6281V39.0881L47 17.7031L24.44 39.0881V77.6281H69.56ZM47 69.7948L34.3664 56.6348C33.2634 55.5381 32.524 54.2325 32.148 52.7181C31.772 51.2037 31.772 49.6892 32.148 48.1748C32.524 46.6603 33.2634 45.3417 34.3664 44.2189C35.4693 43.0962 36.7477 42.3259 38.2016 41.9081C39.6554 41.4903 41.1093 41.4903 42.5632 41.9081C44.017 42.3259 45.2704 43.0831 46.3232 44.1798L47 44.8848L47.6768 44.1798C48.7296 43.0831 49.9829 42.3259 51.4368 41.9081C52.8906 41.4903 54.3445 41.4903 55.7984 41.9081C57.2522 42.3259 58.5306 43.0962 59.6336 44.2189C60.7365 45.3417 61.476 46.6603 61.852 48.1748C62.228 49.6892 62.228 51.2037 61.852 52.7181C61.476 54.2325 60.7365 55.5381 59.6336 56.6348L47 69.7948Z" fill="#D20000"/>
</svg>
