<svg width="94" height="94" viewBox="0 0 94 94" fill="none" xmlns="http://www.w3.org/2000/svg">
<path d="M19.7023 35.7383C20.7551 35.7383 21.645 36.1169 22.3719 36.8741C23.0989 37.6313 23.4623 38.5583 23.4623 39.6549C26.4703 39.6549 29.3655 40.1641 32.1479 41.1824C34.9303 42.2008 37.4746 43.6499 39.7807 45.5299H47.9023C50.3589 45.5299 52.6775 46.0522 54.8583 47.0966C57.0391 48.1411 58.9317 49.5772 60.5359 51.4049H72.3423C76.0522 51.4049 79.4237 52.4233 82.4567 54.4599C85.4898 56.4966 87.7834 59.2122 89.3375 62.6066C84.8255 68.8211 79.1605 73.7038 72.3423 77.2549C65.2735 80.9105 57.7535 82.7383 49.7823 82.7383C39.6053 82.7383 30.7567 80.5711 23.2367 76.2366C22.9861 77.0199 22.5349 77.6466 21.8831 78.1166C21.2314 78.5866 20.5045 78.8216 19.7023 78.8216H8.42232C7.36952 78.8216 6.47966 78.443 5.75272 77.6858C5.02579 76.9286 4.66232 76.0016 4.66232 74.9049V39.6549C4.66232 38.5583 5.02579 37.6313 5.75272 36.8741C6.47966 36.1169 7.36952 35.7383 8.42232 35.7383H19.7023ZM23.4623 47.4883V67.1499L23.6127 67.3066C30.5813 72.3722 39.3045 74.9049 49.7823 74.9049C55.3973 74.9049 60.749 73.8344 65.8375 71.6933C70.9261 69.5522 75.4005 66.5494 79.2607 62.6849L79.7119 62.1366L79.3359 61.7449C77.481 60.2305 75.4005 59.3949 73.0943 59.2383H72.3423H64.4463C64.697 60.5438 64.8223 61.8494 64.8223 63.1549V67.0716H30.9823V59.2383H56.5503L56.3999 58.9249C55.6479 57.3583 54.5826 56.0658 53.2039 55.0474C51.8253 54.0291 50.2586 53.4677 48.5039 53.3633H36.9231C35.1685 51.5355 33.1381 50.0994 30.8319 49.0549C28.5258 48.0105 26.0693 47.4883 23.4623 47.4883ZM15.9423 43.5716H12.1823V70.9883H15.9423V43.5716ZM68.5823 20.0716C70.6378 20.0716 72.5303 20.5938 74.2599 21.6383C75.9895 22.6827 77.3557 24.1058 78.3583 25.9074C79.361 27.7091 79.8623 29.6805 79.8623 31.8216C79.8623 33.9627 79.361 35.9341 78.3583 37.7358C77.3557 39.5374 75.9895 40.9605 74.2599 42.0049C72.5303 43.0494 70.6378 43.5716 68.5823 43.5716C66.5269 43.5716 64.6343 43.0494 62.9047 42.0049C61.1751 40.9605 59.809 39.5374 58.8063 37.7358C57.8037 35.9341 57.3023 33.9627 57.3023 31.8216C57.3023 29.6805 57.8037 27.7091 58.8063 25.9074C59.809 24.1058 61.1751 22.6827 62.9047 21.6383C64.6343 20.5938 66.5269 20.0716 68.5823 20.0716ZM68.5823 27.9049C67.5295 27.9049 66.6397 28.2836 65.9127 29.0408C65.1858 29.798 64.8223 30.7249 64.8223 31.8216C64.8223 32.9183 65.1858 33.8452 65.9127 34.6024C66.6397 35.3597 67.5295 35.7383 68.5823 35.7383C69.6351 35.7383 70.525 35.3597 71.2519 34.6024C71.9789 33.8452 72.3423 32.9183 72.3423 31.8216C72.3423 30.7249 71.9789 29.798 71.2519 29.0408C70.525 28.2836 69.6351 27.9049 68.5823 27.9049ZM42.2623 8.32161C44.3178 8.32161 46.2103 8.84383 47.9399 9.88828C49.6695 10.9327 51.0357 12.3558 52.0383 14.1574C53.041 15.9591 53.5423 17.9305 53.5423 20.0716C53.5423 22.2127 53.041 24.1841 52.0383 25.9858C51.0357 27.7874 49.6695 29.2105 47.9399 30.2549C46.2103 31.2994 44.3178 31.8216 42.2623 31.8216C40.2069 31.8216 38.3143 31.2994 36.5847 30.2549C34.8551 29.2105 33.489 27.7874 32.4863 25.9858C31.4837 24.1841 30.9823 22.2127 30.9823 20.0716C30.9823 17.9305 31.4837 15.9591 32.4863 14.1574C33.489 12.3558 34.8551 10.9327 36.5847 9.88828C38.3143 8.84383 40.2069 8.32161 42.2623 8.32161ZM42.2623 16.1549C41.2095 16.1549 40.3197 16.5336 39.5927 17.2908C38.8658 18.048 38.5023 18.9749 38.5023 20.0716C38.5023 21.1683 38.8658 22.0952 39.5927 22.8524C40.3197 23.6097 41.2095 23.9883 42.2623 23.9883C43.3151 23.9883 44.205 23.6097 44.9319 22.8524C45.6589 22.0952 46.0223 21.1683 46.0223 20.0716C46.0223 18.9749 45.6589 18.048 44.9319 17.2908C44.205 16.5336 43.3151 16.1549 42.2623 16.1549Z" fill="#D20000"/>
</svg>
