<svg width="79" height="73" viewBox="0 0 79 73" fill="none" xmlns="http://www.w3.org/2000/svg">
<path d="M58.28 0.000160217C62.04 0.000160217 65.4992 1.01849 68.6576 3.05516C71.816 5.09183 74.2976 7.8596 76.1024 11.3585C78.0075 15.0141 78.96 19.0613 78.96 23.5002C78.96 29.5579 77.6064 35.3807 74.8992 40.9685C72.5931 45.7207 69.3093 50.2902 65.048 54.6768C61.7392 58.1235 57.8037 61.4918 53.2416 64.7818C50.6848 66.6096 47.3259 68.8029 43.1648 71.3618L41.36 72.4585L39.5552 71.3618C35.1936 68.6985 31.6843 66.4007 29.0272 64.4685C24.2645 61.0218 20.1787 57.4707 16.7696 53.8152C12.4581 49.1152 9.19947 44.2585 6.9936 39.2452L0 39.1668V31.3335L4.5872 31.4118C4.03573 28.8007 3.76 26.1635 3.76 23.5002C3.76 19.0613 4.71253 15.0141 6.6176 11.3585C8.4224 7.8596 10.904 5.09183 14.0624 3.05516C17.2208 1.01849 20.68 0.000160217 24.44 0.000160217C27.6987 0.000160217 30.9323 0.835716 34.1408 2.50683C36.848 3.86461 39.2544 5.64016 41.36 7.8335C43.4656 5.64016 45.872 3.86461 48.5792 2.50683C51.7877 0.835716 55.0213 0.000160217 58.28 0.000160217ZM58.28 7.8335C56.2747 7.8335 54.2443 8.34267 52.1888 9.361C50.1333 10.3793 48.3035 11.7241 46.6992 13.3952L41.36 18.9568L36.0208 13.3952C34.4165 11.7241 32.5867 10.3793 30.5312 9.361C28.4757 8.34267 26.4453 7.8335 24.44 7.8335C22.0336 7.8335 19.8277 8.51239 17.8224 9.87016C15.8171 11.2279 14.2253 13.0949 13.0472 15.471C11.8691 17.8471 11.28 20.5496 11.28 23.5785C11.28 26.1896 11.6059 28.8007 12.2576 31.4118L20.4544 31.3335L28.2 17.8602L39.48 37.4435L43.0144 31.3335H60.16V39.1668H47.2256L39.48 52.7185L28.2 33.1352L24.6656 39.1668L15.416 39.2452C18.3237 44.4674 22.7605 49.5591 28.7264 54.5202C31.3835 56.7135 34.4165 58.9329 37.8256 61.1785C38.8784 61.8574 40.0565 62.5885 41.36 63.3718C42.6635 62.5885 43.8416 61.8574 44.8944 61.1785C48.3035 58.9329 51.3365 56.7135 53.9936 54.5202C59.7088 49.7679 64.0203 44.8852 66.928 39.8718C69.936 34.6496 71.44 29.2185 71.44 23.5785C71.44 20.5496 70.8635 17.8341 69.7104 15.4318C68.5573 13.0296 66.9781 11.1757 64.9728 9.87016C62.9675 8.56461 60.7365 7.88572 58.28 7.8335Z" fill="#D20000"/>
</svg>
