<svg width="68" height="13" viewBox="0 0 68 13" fill="none" xmlns="http://www.w3.org/2000/svg">
<path d="M37.5482 7.12233C38.163 7.12233 38.6614 6.62558 38.6614 6.01283C38.6614 5.40006 38.163 4.90332 37.5482 4.90332C36.9334 4.90332 36.4351 5.40006 36.4351 6.01283C36.4351 6.62558 36.9334 7.12233 37.5482 7.12233Z" fill="#42ABA2"/>
<path d="M44.6278 7.12233C45.2427 7.12233 45.741 6.62558 45.741 6.01283C45.741 5.40006 45.2427 4.90332 44.6278 4.90332C44.0131 4.90332 43.5146 5.40006 43.5146 6.01283C43.5146 6.62558 44.0131 7.12233 44.6278 7.12233Z" fill="#015F73"/>
<path d="M0 12.4998V7.2761C0 6.33004 0.334267 5.5191 1.00596 4.84334C1.68395 4.16758 2.50386 3.82812 3.45936 3.82812C4.53784 3.82812 5.42397 4.23987 6.10827 5.06336C6.80519 4.23987 7.69131 3.82812 8.76981 3.82812C9.719 3.82812 10.5326 4.16758 11.2106 4.84334C11.8886 5.5191 12.2291 6.33004 12.2291 7.2761V12.4998H10.6082V7.2761C10.6082 6.77004 10.4285 6.33941 10.069 5.98113C9.7095 5.62283 9.27438 5.44367 8.76981 5.44367C8.26525 5.44367 7.82375 5.62283 7.45794 5.98113C7.09844 6.33941 6.91869 6.77316 6.91869 7.2761V12.4998H5.29782V7.2761C5.29782 6.77004 5.11808 6.33941 4.75858 5.98113C4.39909 5.62283 3.96391 5.44367 3.45936 5.44367C2.9548 5.44367 2.51962 5.62283 2.16012 5.98113C1.80063 6.33941 1.62088 6.77316 1.62088 7.2761V12.4998H0Z" fill="black"/>
<path d="M15.9627 11.2271C15.1112 10.3785 14.6855 9.36015 14.6855 8.1689C14.6855 6.97771 15.1112 5.94677 15.9627 5.09814C16.8141 4.24951 17.8359 3.8252 19.031 3.8252C20.2262 3.8252 21.2605 4.24951 22.1119 5.09814C22.9634 5.94677 23.3891 6.96827 23.3891 8.1689C23.3891 9.36958 22.9634 10.3785 22.1119 11.2271C21.2605 12.0758 20.2356 12.5001 19.031 12.5001C17.8264 12.5001 16.8141 12.0758 15.9627 11.2271ZM17.1042 6.23593C16.5713 6.7734 16.3064 7.41771 16.3064 8.1689C16.3064 8.92015 16.5713 9.55814 17.1042 10.0893C17.6372 10.6205 18.2774 10.8845 19.031 10.8845C19.7847 10.8845 20.4249 10.6205 20.9578 10.0893C21.497 9.55814 21.7682 8.92015 21.7682 8.1689C21.7682 7.41771 21.497 6.7734 20.9578 6.23593C20.4185 5.69846 19.7847 5.44073 19.031 5.44073C18.2774 5.44073 17.6372 5.70475 17.1042 6.23593Z" fill="black"/>
<path d="M34.4296 8.16898C34.4296 9.36017 34.004 10.3785 33.1525 11.2272C32.3011 12.0758 31.2762 12.5001 30.0716 12.5001C28.8669 12.5001 27.8547 12.0758 27.0033 11.2272C26.1518 10.3785 25.7261 9.36017 25.7261 8.16898C25.7261 6.97773 26.1518 5.94681 27.0033 5.09819C27.8547 4.24956 28.8764 3.82524 30.0716 3.82524C31.087 3.82524 31.9983 4.15526 32.8088 4.81531V0.0126953H34.4296V8.16898ZM30.0747 10.8846C30.8347 10.8846 31.4811 10.6205 32.0141 10.0894C32.547 9.55823 32.812 8.92017 32.812 8.16898C32.812 7.41779 32.547 6.77342 32.0141 6.23598C31.4749 5.7048 30.8284 5.44078 30.0747 5.44078C29.321 5.44078 28.6809 5.7048 28.1479 6.23598C27.615 6.77342 27.3501 7.41779 27.3501 8.16898C27.3501 8.92017 27.615 9.55823 28.1479 10.0894C28.6809 10.6205 29.321 10.8846 30.0747 10.8846Z" fill="black"/>
<path d="M52.1491 3.81569C53.3443 3.81569 54.366 4.24001 55.2175 5.08864C56.0689 5.93726 56.4946 6.95875 56.4946 8.15944C56.4946 9.36006 56.0689 10.369 55.2175 11.2176C54.366 12.0663 53.3443 12.4906 52.1491 12.4906C50.954 12.4906 49.9196 12.0663 49.0682 11.2176C48.2168 10.369 47.791 9.35063 47.791 8.15944V0H49.4119V4.80576C50.2224 4.14571 51.1337 3.81569 52.1491 3.81569ZM52.1491 10.8719C52.9028 10.8719 53.543 10.6079 54.0759 10.0767C54.6088 9.5455 54.8737 8.90744 54.8737 8.15625C54.8737 7.40506 54.6088 6.76075 54.0759 6.22328C53.543 5.69211 52.9028 5.42809 52.1491 5.42809C51.3955 5.42809 50.7427 5.69211 50.2098 6.22328C49.6768 6.76075 49.4119 7.40506 49.4119 8.15625C49.4119 8.90744 49.6768 9.5455 50.2098 10.0767C50.7427 10.6079 51.3891 10.8719 52.1491 10.8719Z" fill="black"/>
<path d="M60.5531 8.97671C60.7328 9.5299 61.0576 9.98877 61.5212 10.3471C62.0037 10.7054 62.5464 10.8845 63.1514 10.8845C63.6339 10.8845 64.1164 10.7745 64.5989 10.5545C65.107 10.3251 65.4789 10.0359 65.7151 9.68702L67.0526 10.5922C66.6676 11.1643 66.1064 11.6231 65.3714 11.9752C64.6433 12.3272 63.902 12.5001 63.1514 12.5001C61.9501 12.5001 60.9221 12.0758 60.0706 11.2271C59.2192 10.3785 58.7935 9.36015 58.7935 8.1689C58.7935 6.97771 59.2192 5.94677 60.0706 5.09814C60.9221 4.24951 61.947 3.8252 63.1514 3.8252C64.3564 3.8252 65.3683 4.24951 66.2201 5.09814C67.0714 5.94677 67.497 6.96827 67.497 8.1689C67.497 8.43921 67.472 8.70327 67.4245 8.96415L60.5531 8.97671ZM63.1545 5.44388C62.5495 5.44388 62.0069 5.62303 61.5244 5.98135C61.0576 6.33965 60.736 6.80171 60.5563 7.36427H65.747C65.567 6.80171 65.2458 6.34277 64.7789 5.98135C64.2964 5.62303 63.757 5.44388 63.1576 5.44388H63.1545Z" fill="black"/>
<path d="M43.8552 8.16211V8.16842C43.8552 8.91961 43.5903 9.55767 43.0574 10.0888C42.6758 10.4691 42.2374 10.7112 41.7424 10.818C41.7424 10.818 41.7424 10.8212 41.7424 10.8243C41.3892 10.9123 41.1274 11.2266 41.1274 11.6069C41.1274 12.0532 41.4901 12.4147 41.9379 12.4147C42.0325 12.4147 42.1239 12.3959 42.2091 12.3644C42.9501 12.1821 43.6155 11.8081 44.1958 11.2266C45.0472 10.378 45.4729 9.35961 45.4729 8.16842V8.16211H43.8521H43.8552Z" fill="#015F73"/>
<path d="M40.4179 10.7905C39.9638 10.6742 39.5538 10.4448 39.1912 10.0928C38.6583 9.56158 38.3933 8.92352 38.3933 8.17233V8.16602H36.7725V8.17233C36.7725 9.36352 37.1982 10.3819 38.0496 11.2305C38.6993 11.878 39.4561 12.2709 40.3106 12.4218C40.1151 12.2238 39.9921 11.9503 39.9921 11.6517C39.9921 11.3028 40.1593 10.9948 40.4147 10.7936L40.4179 10.7905Z" fill="#42ABA2"/>
</svg>
