<svg xmlns="http://www.w3.org/2000/svg" width="13" height="15" viewBox="0 0 13 15">
  <g id="그룹_9897" data-name="그룹 9897" transform="translate(-35.563 -179.004)">
    <path id="패스_6712" data-name="패스 6712" d="M232.787,1.46V.008H226.1a.965.965,0,0,0-.965.965V11.527a.966.966,0,0,0,.965.966h8.771a.966.966,0,0,0,.966-.966V3.053H234.38a1.6,1.6,0,0,1-1.593-1.593" transform="translate(-187.269 178.996)" fill="#fff"/>
    <path id="패스_6713" data-name="패스 6713" d="M213.336,22.6v-9.18h-.656a.966.966,0,0,0-.965.966V24.943a.966.966,0,0,0,.965.965h8.771a.965.965,0,0,0,.965-.965v-.656h-7.4a1.684,1.684,0,0,1-1.682-1.682" transform="translate(-176.151 168.096)" fill="#fff"/>
  </g>
</svg>
